M48
; DRILL file {KiCad (7.0.0)} date Fri Sep 29 14:03:23 2023
; FORMAT={-:-/ absolute / metric / decimal}
; #@! TF.CreationDate,2023-09-29T14:03:23-04:00
; #@! TF.GenerationSoftware,Kicad,Pcbnew,(7.0.0)
; #@! TF.FileFunction,MixedPlating,1,4
FMAT,2
METRIC
; #@! TA.AperFunction,Plated,PTH,ComponentDrill
T1C0.200
; #@! TA.AperFunction,Plated,PTH,ViaDrill
T2C0.400
; #@! TA.AperFunction,Plated,PTH,ComponentDrill
T3C0.500
; #@! TA.AperFunction,Plated,PTH,ComponentDrill
T4C0.550
; #@! TA.AperFunction,Plated,PTH,ComponentDrill
T5C0.900
; #@! TA.AperFunction,Plated,PTH,ComponentDrill
T6C1.000
; #@! TA.AperFunction,Plated,PTH,ComponentDrill
T7C1.300
; #@! TA.AperFunction,Plated,PTH,ComponentDrill
T8C1.400
; #@! TA.AperFunction,Plated,PTH,ComponentDrill
T9C3.200
%
G90
G05
T1
X124.541Y-158.892
X124.541Y-159.842
X124.541Y-160.792
X124.541Y-161.742
X125.491Y-158.892
X125.491Y-159.842
X125.491Y-160.792
X125.491Y-161.742
X126.441Y-158.892
X126.441Y-159.842
X126.441Y-160.792
X126.441Y-161.742
X127.391Y-158.892
X127.391Y-159.842
X127.391Y-160.792
X127.391Y-161.742
T2
X117.754Y-155.575
X118.919Y-166.595
X121.006Y-153.233
X121.412Y-160.807
X121.539Y-162.433
X121.666Y-156.87
X121.704Y-157.899
X121.88Y-169.255
X123.419Y-164.49
X123.446Y-165.661
X123.927Y-155.956
X124.039Y-170.474
X124.181Y-152.044
X124.841Y-151.206
X124.993Y-167.421
X125.197Y-152.857
X125.197Y-164.897
X126.492Y-151.155
X126.67Y-152.933
X127.025Y-155.55
X128.814Y-164.744
X128.854Y-167.386
X129.982Y-161.123
X130.556Y-157.378
X131.978Y-157.226
X132.232Y-161.432
X132.334Y-168.707
X132.512Y-158.316
X132.817Y-173.888
X133.452Y-160.731
X134.214Y-169.164
X135.687Y-163.017
X135.788Y-157.988
X135.943Y-171.491
X136.017Y-136.804
X136.017Y-137.77
X136.423Y-159.08
X137.109Y-157.988
X137.135Y-162.941
X137.135Y-166.446
X137.744Y-159.08
X138.278Y-157.988
X138.633Y-173.99
X140.005Y-168.25
X140.386Y-162.88
X140.722Y-165.322
X142.57Y-164.58
X143.332Y-171.602
X143.383Y-169.443
X144.526Y-169.443
X144.678Y-163.373
X146.685Y-174.295
X147.091Y-159.531
X147.171Y-171.271
X149.327Y-156.185
X149.352Y-153.645
X149.352Y-154.813
X149.776Y-170.429
X152.095Y-166.269
X152.298Y-162.027
X152.349Y-163.855
X152.349Y-159.741
X153.405Y-157.266
X153.721Y-154.457
X154.0Y-164.363
X154.229Y-166.276
X155.095Y-171.374
X157.861Y-166.522
X158.09Y-157.871
X158.09Y-161.503
X158.14Y-151.511
X158.166Y-165.219
X158.42Y-154.305
X158.979Y-158.693
X159.026Y-162.222
X160.172Y-151.333
T5
X126.198Y-145.253
X127.498Y-137.753
T6
X116.922Y-160.285
X116.922Y-162.825
X116.922Y-165.365
X116.922Y-167.905
X134.854Y-175.153
X137.394Y-175.153
X139.934Y-175.153
X142.474Y-175.153
X145.014Y-175.153
X148.677Y-172.658
X148.677Y-175.198
X151.217Y-172.658
X151.217Y-175.198
X153.757Y-172.658
X153.757Y-175.198
X156.297Y-172.658
X156.297Y-175.198
X160.726Y-153.315
X160.726Y-156.922
X160.726Y-160.554
X160.726Y-164.168
X160.726Y-167.793
X163.266Y-153.315
X163.266Y-156.922
X163.266Y-160.554
X163.266Y-164.168
X163.266Y-167.793
T7
X118.034Y-137.13
X118.034Y-142.21
X118.034Y-147.29
X162.484Y-137.185
X162.484Y-142.265
X162.484Y-147.345
T9
X119.38Y-130.81
X119.38Y-172.72
X161.29Y-130.81
X161.29Y-172.72
T3
X124.5Y-174.884G85X124.5Y-175.534
G05
X131.5Y-174.884G85X131.5Y-175.534
G05
T4
X125.35Y-172.509G85X125.65Y-172.509
G05
X130.35Y-172.509G85X130.65Y-172.509
G05
T8
X131.2Y-130.048G85X131.8Y-130.048
G05
X135.2Y-130.048G85X135.8Y-130.048
G05
X139.2Y-130.048G85X139.8Y-130.048
G05
X143.24Y-130.018G85X143.84Y-130.018
G05
X151.17Y-130.048G85X151.77Y-130.048
G05
X155.2Y-130.048G85X155.8Y-130.048
G05
T0
M30
