G04 #@! TF.GenerationSoftware,KiCad,Pcbnew,(7.0.0)*
G04 #@! TF.CreationDate,2023-09-29T14:02:52-04:00*
G04 #@! TF.ProjectId,_HW_HotPlate,5f48575f-486f-4745-906c-6174652e6b69,rev?*
G04 #@! TF.SameCoordinates,Original*
G04 #@! TF.FileFunction,Soldermask,Bot*
G04 #@! TF.FilePolarity,Negative*
%FSLAX46Y46*%
G04 Gerber Fmt 4.6, Leading zero omitted, Abs format (unit mm)*
G04 Created by KiCad (PCBNEW (7.0.0)) date 2023-09-29 14:02:52*
%MOMM*%
%LPD*%
G01*
G04 APERTURE LIST*
G04 Aperture macros list*
%AMRoundRect*
0 Rectangle with rounded corners*
0 $1 Rounding radius*
0 $2 $3 $4 $5 $6 $7 $8 $9 X,Y pos of 4 corners*
0 Add a 4 corners polygon primitive as box body*
4,1,4,$2,$3,$4,$5,$6,$7,$8,$9,$2,$3,0*
0 Add four circle primitives for the rounded corners*
1,1,$1+$1,$2,$3*
1,1,$1+$1,$4,$5*
1,1,$1+$1,$6,$7*
1,1,$1+$1,$8,$9*
0 Add four rect primitives between the rounded corners*
20,1,$1+$1,$2,$3,$4,$5,0*
20,1,$1+$1,$4,$5,$6,$7,0*
20,1,$1+$1,$6,$7,$8,$9,0*
20,1,$1+$1,$8,$9,$2,$3,0*%
G04 Aperture macros list end*
%ADD10C,2.159000*%
%ADD11C,3.810000*%
%ADD12R,2.600000X2.600000*%
%ADD13C,2.600000*%
%ADD14R,1.700000X1.700000*%
%ADD15O,1.700000X1.700000*%
%ADD16C,3.600000*%
%ADD17C,5.600000*%
%ADD18O,0.890000X1.550000*%
%ADD19O,1.250000X0.950000*%
%ADD20RoundRect,0.102000X-1.500000X-1.500000X1.500000X-1.500000X1.500000X1.500000X-1.500000X1.500000X0*%
%ADD21R,3.000000X3.000000*%
%ADD22C,1.800000*%
%ADD23R,2.997200X1.193800*%
%ADD24O,2.997200X1.193800*%
%ADD25RoundRect,0.150000X0.150000X-0.512500X0.150000X0.512500X-0.150000X0.512500X-0.150000X-0.512500X0*%
%ADD26RoundRect,0.250000X-0.362500X-1.425000X0.362500X-1.425000X0.362500X1.425000X-0.362500X1.425000X0*%
%ADD27RoundRect,0.150000X-0.587500X-0.150000X0.587500X-0.150000X0.587500X0.150000X-0.587500X0.150000X0*%
%ADD28RoundRect,0.250000X-2.050000X-0.300000X2.050000X-0.300000X2.050000X0.300000X-2.050000X0.300000X0*%
%ADD29RoundRect,0.250002X-4.449998X-5.149998X4.449998X-5.149998X4.449998X5.149998X-4.449998X5.149998X0*%
%ADD30RoundRect,0.225000X0.250000X-0.225000X0.250000X0.225000X-0.250000X0.225000X-0.250000X-0.225000X0*%
%ADD31RoundRect,0.250000X-1.000000X-0.650000X1.000000X-0.650000X1.000000X0.650000X-1.000000X0.650000X0*%
%ADD32RoundRect,0.250000X0.262500X0.450000X-0.262500X0.450000X-0.262500X-0.450000X0.262500X-0.450000X0*%
%ADD33RoundRect,0.250000X0.300000X0.300000X-0.300000X0.300000X-0.300000X-0.300000X0.300000X-0.300000X0*%
%ADD34R,1.780000X2.000000*%
%ADD35RoundRect,0.150000X-0.512500X-0.150000X0.512500X-0.150000X0.512500X0.150000X-0.512500X0.150000X0*%
%ADD36RoundRect,0.100000X-0.130000X-0.100000X0.130000X-0.100000X0.130000X0.100000X-0.130000X0.100000X0*%
%ADD37R,2.100000X2.600000*%
%ADD38RoundRect,0.112500X0.187500X0.112500X-0.187500X0.112500X-0.187500X-0.112500X0.187500X-0.112500X0*%
%ADD39RoundRect,0.135000X0.185000X-0.135000X0.185000X0.135000X-0.185000X0.135000X-0.185000X-0.135000X0*%
%ADD40RoundRect,0.150000X0.150000X-0.825000X0.150000X0.825000X-0.150000X0.825000X-0.150000X-0.825000X0*%
%ADD41R,2.895600X2.603500*%
%ADD42RoundRect,0.250000X0.250000X0.475000X-0.250000X0.475000X-0.250000X-0.475000X0.250000X-0.475000X0*%
%ADD43RoundRect,0.218750X-0.218750X-0.256250X0.218750X-0.256250X0.218750X0.256250X-0.218750X0.256250X0*%
G04 APERTURE END LIST*
D10*
X131254500Y-140093700D02*
X128901330Y-137740530D01*
D11*
X162483800Y-142265400D02*
X156997400Y-142265400D01*
D10*
X141947900Y-142735300D02*
X139333024Y-140120424D01*
X145389600Y-142748000D02*
X142290800Y-142748000D01*
X139331700Y-140131800D02*
X131318000Y-140131800D01*
X128901330Y-137740530D02*
X127533400Y-137740530D01*
D12*
X162483799Y-147345399D03*
D13*
X162483800Y-142265400D03*
X162483800Y-137185400D03*
D14*
X134853999Y-175152599D03*
D15*
X137393999Y-175152599D03*
X139933999Y-175152599D03*
X142473999Y-175152599D03*
X145013999Y-175152599D03*
D16*
X119380000Y-130810000D03*
D17*
X119380000Y-130810000D03*
D14*
X116921999Y-160284799D03*
D15*
X116921999Y-162824799D03*
X116921999Y-165364799D03*
X116921999Y-167904799D03*
D14*
X160725799Y-164168399D03*
D15*
X163265799Y-164168399D03*
D14*
X160725799Y-153314799D03*
D15*
X163265799Y-153314799D03*
D16*
X161290000Y-172720000D03*
D17*
X161290000Y-172720000D03*
D14*
X160725799Y-160553799D03*
D15*
X163265799Y-160553799D03*
D14*
X148676999Y-172657599D03*
D15*
X148676999Y-175197599D03*
X151216999Y-172657599D03*
X151216999Y-175197599D03*
X153756999Y-172657599D03*
X153756999Y-175197599D03*
X156296999Y-172657599D03*
X156296999Y-175197599D03*
D14*
X160725799Y-156921599D03*
D15*
X163265799Y-156921599D03*
D12*
X118033599Y-137129599D03*
D13*
X118033600Y-142209600D03*
X118033600Y-147289600D03*
D16*
X161290000Y-130810000D03*
D17*
X161290000Y-130810000D03*
D16*
X119380000Y-172720000D03*
D17*
X119380000Y-172720000D03*
D18*
X124499999Y-175209199D03*
D19*
X125499999Y-172509199D03*
X130499999Y-172509199D03*
D18*
X131499999Y-175209199D03*
D14*
X160725799Y-167792799D03*
D15*
X163265799Y-167792799D03*
D20*
X131500400Y-130048000D03*
X135500400Y-130048000D03*
X139500400Y-130048000D03*
D21*
X143540399Y-130017999D03*
X151470399Y-130047999D03*
D20*
X155500400Y-130048000D03*
D22*
X127497600Y-137753400D03*
X126197600Y-145253400D03*
D23*
X133108699Y-136905999D03*
D24*
X133108699Y-134416799D03*
X140601699Y-134416799D03*
X140601699Y-136905999D03*
D25*
X138643400Y-172409700D03*
X137693400Y-172409700D03*
X136743400Y-172409700D03*
X136743400Y-170134700D03*
X138643400Y-170134700D03*
D26*
X130997100Y-143687800D03*
X136922100Y-143687800D03*
D27*
X143918700Y-172628600D03*
X143918700Y-170728600D03*
X145793700Y-171678600D03*
D28*
X146100800Y-142824200D03*
D29*
X155250800Y-140284200D03*
D28*
X146100800Y-137744200D03*
D30*
X142138400Y-168237200D03*
X142138400Y-166687200D03*
D31*
X123018800Y-148234400D03*
X127018800Y-148234400D03*
D32*
X153337900Y-170180000D03*
X151512900Y-170180000D03*
D33*
X157991000Y-167817800D03*
X155191000Y-167817800D03*
D34*
X130454399Y-147421599D03*
X132994399Y-147421599D03*
X132994399Y-155041599D03*
X130454399Y-155041599D03*
D35*
X155656700Y-161503400D03*
X155656700Y-159603400D03*
X157931700Y-160553400D03*
X155656700Y-154264400D03*
X155656700Y-152364400D03*
X157931700Y-153314400D03*
D36*
X147685800Y-170586400D03*
X148325800Y-170586400D03*
D37*
X127468799Y-141757399D03*
X122568799Y-141757399D03*
D30*
X144018000Y-168237200D03*
X144018000Y-166687200D03*
D35*
X155656700Y-157871200D03*
X155656700Y-155971200D03*
X157931700Y-156921200D03*
D38*
X162975000Y-155143200D03*
X160875000Y-155143200D03*
D39*
X142519400Y-158830200D03*
X142519400Y-157810200D03*
D33*
X158016400Y-170180000D03*
X155216400Y-170180000D03*
D40*
X149758400Y-168311600D03*
X148488400Y-168311600D03*
X147218400Y-168311600D03*
X145948400Y-168311600D03*
X145948400Y-163361600D03*
X147218400Y-163361600D03*
X148488400Y-163361600D03*
X149758400Y-163361600D03*
D41*
X124942599Y-134905749D03*
X124942599Y-129508249D03*
D30*
X138658600Y-168237200D03*
X138658600Y-166687200D03*
D25*
X135163600Y-172409700D03*
X134213600Y-172409700D03*
X133263600Y-172409700D03*
X133263600Y-170134700D03*
X135163600Y-170134700D03*
D32*
X153363300Y-167792400D03*
X151538300Y-167792400D03*
D42*
X148270000Y-133045200D03*
X146370000Y-133045200D03*
D25*
X142123200Y-172435100D03*
X141173200Y-172435100D03*
X140223200Y-172435100D03*
X140223200Y-170160100D03*
X142123200Y-170160100D03*
D30*
X135178800Y-168237200D03*
X135178800Y-166687200D03*
D34*
X142519399Y-155066999D03*
X139979399Y-155066999D03*
X137439399Y-155066999D03*
X137439399Y-147446999D03*
X139979399Y-147446999D03*
X142519399Y-147446999D03*
D43*
X161696300Y-151333200D03*
X163271300Y-151333200D03*
D35*
X155656700Y-165110200D03*
X155656700Y-163210200D03*
X157931700Y-164160200D03*
M02*
