G04 #@! TF.GenerationSoftware,KiCad,Pcbnew,(7.0.0)*
G04 #@! TF.CreationDate,2023-09-29T14:02:52-04:00*
G04 #@! TF.ProjectId,_HW_HotPlate,5f48575f-486f-4745-906c-6174652e6b69,rev?*
G04 #@! TF.SameCoordinates,Original*
G04 #@! TF.FileFunction,Legend,Top*
G04 #@! TF.FilePolarity,Positive*
%FSLAX46Y46*%
G04 Gerber Fmt 4.6, Leading zero omitted, Abs format (unit mm)*
G04 Created by KiCad (PCBNEW (7.0.0)) date 2023-09-29 14:02:52*
%MOMM*%
%LPD*%
G01*
G04 APERTURE LIST*
G04 Aperture macros list*
%AMRoundRect*
0 Rectangle with rounded corners*
0 $1 Rounding radius*
0 $2 $3 $4 $5 $6 $7 $8 $9 X,Y pos of 4 corners*
0 Add a 4 corners polygon primitive as box body*
4,1,4,$2,$3,$4,$5,$6,$7,$8,$9,$2,$3,0*
0 Add four circle primitives for the rounded corners*
1,1,$1+$1,$2,$3*
1,1,$1+$1,$4,$5*
1,1,$1+$1,$6,$7*
1,1,$1+$1,$8,$9*
0 Add four rect primitives between the rounded corners*
20,1,$1+$1,$2,$3,$4,$5,0*
20,1,$1+$1,$4,$5,$6,$7,0*
20,1,$1+$1,$6,$7,$8,$9,0*
20,1,$1+$1,$8,$9,$2,$3,0*%
G04 Aperture macros list end*
%ADD10C,0.150000*%
%ADD11C,0.300000*%
%ADD12C,0.125000*%
%ADD13C,0.120000*%
%ADD14C,0.100000*%
%ADD15C,0.152400*%
%ADD16C,0.127000*%
%ADD17C,0.200000*%
%ADD18C,2.540000*%
%ADD19R,2.600000X2.600000*%
%ADD20C,2.600000*%
%ADD21RoundRect,0.100000X-0.100000X0.130000X-0.100000X-0.130000X0.100000X-0.130000X0.100000X0.130000X0*%
%ADD22R,1.700000X1.700000*%
%ADD23O,1.700000X1.700000*%
%ADD24C,3.600000*%
%ADD25C,5.600000*%
%ADD26RoundRect,0.150000X-0.512500X-0.150000X0.512500X-0.150000X0.512500X0.150000X-0.512500X0.150000X0*%
%ADD27RoundRect,0.225000X-0.225000X-0.250000X0.225000X-0.250000X0.225000X0.250000X-0.225000X0.250000X0*%
%ADD28RoundRect,0.100000X0.100000X-0.130000X0.100000X0.130000X-0.100000X0.130000X-0.100000X-0.130000X0*%
%ADD29RoundRect,0.100000X-0.130000X-0.100000X0.130000X-0.100000X0.130000X0.100000X-0.130000X0.100000X0*%
%ADD30RoundRect,0.100000X0.130000X0.100000X-0.130000X0.100000X-0.130000X-0.100000X0.130000X-0.100000X0*%
%ADD31RoundRect,0.250000X0.300000X-0.300000X0.300000X0.300000X-0.300000X0.300000X-0.300000X-0.300000X0*%
%ADD32RoundRect,0.135000X-0.135000X-0.185000X0.135000X-0.185000X0.135000X0.185000X-0.135000X0.185000X0*%
%ADD33RoundRect,0.062500X-0.087500X0.062500X-0.087500X-0.062500X0.087500X-0.062500X0.087500X0.062500X0*%
%ADD34R,0.940000X0.300000*%
%ADD35RoundRect,0.075000X-0.437500X-0.075000X0.437500X-0.075000X0.437500X0.075000X-0.437500X0.075000X0*%
%ADD36RoundRect,0.075000X-0.075000X-0.437500X0.075000X-0.437500X0.075000X0.437500X-0.075000X0.437500X0*%
%ADD37R,4.250000X4.250000*%
%ADD38RoundRect,0.250000X0.787500X1.025000X-0.787500X1.025000X-0.787500X-1.025000X0.787500X-1.025000X0*%
%ADD39C,1.000000*%
%ADD40RoundRect,0.062500X-0.062500X-0.087500X0.062500X-0.087500X0.062500X0.087500X-0.062500X0.087500X0*%
%ADD41R,0.300000X0.940000*%
%ADD42RoundRect,0.147500X-0.147500X-0.172500X0.147500X-0.172500X0.147500X0.172500X-0.147500X0.172500X0*%
%ADD43RoundRect,0.250000X-0.262500X-0.450000X0.262500X-0.450000X0.262500X0.450000X-0.262500X0.450000X0*%
%ADD44RoundRect,0.225000X0.225000X0.250000X-0.225000X0.250000X-0.225000X-0.250000X0.225000X-0.250000X0*%
%ADD45RoundRect,0.250000X0.900000X-1.000000X0.900000X1.000000X-0.900000X1.000000X-0.900000X-1.000000X0*%
%ADD46RoundRect,0.147500X0.147500X0.172500X-0.147500X0.172500X-0.147500X-0.172500X0.147500X-0.172500X0*%
%ADD47RoundRect,0.218750X-0.218750X-0.256250X0.218750X-0.256250X0.218750X0.256250X-0.218750X0.256250X0*%
%ADD48RoundRect,0.150000X0.587500X0.150000X-0.587500X0.150000X-0.587500X-0.150000X0.587500X-0.150000X0*%
%ADD49RoundRect,0.218750X-0.256250X0.218750X-0.256250X-0.218750X0.256250X-0.218750X0.256250X0.218750X0*%
%ADD50R,5.308600X1.498600*%
%ADD51R,1.700000X2.200000*%
%ADD52RoundRect,0.225000X0.250000X-0.225000X0.250000X0.225000X-0.250000X0.225000X-0.250000X-0.225000X0*%
%ADD53R,0.800000X0.900000*%
%ADD54RoundRect,0.150000X0.150000X-0.512500X0.150000X0.512500X-0.150000X0.512500X-0.150000X-0.512500X0*%
%ADD55R,0.400000X1.350000*%
%ADD56O,0.890000X1.550000*%
%ADD57R,1.200000X1.550000*%
%ADD58O,1.250000X0.950000*%
%ADD59R,1.500000X1.550000*%
%ADD60RoundRect,0.150000X0.150000X-0.587500X0.150000X0.587500X-0.150000X0.587500X-0.150000X-0.587500X0*%
%ADD61RoundRect,0.250000X1.500000X0.550000X-1.500000X0.550000X-1.500000X-0.550000X1.500000X-0.550000X0*%
%ADD62RoundRect,0.102000X-1.500000X-1.500000X1.500000X-1.500000X1.500000X1.500000X-1.500000X1.500000X0*%
%ADD63R,3.000000X3.000000*%
%ADD64C,1.800000*%
G04 APERTURE END LIST*
D10*
X144348200Y-150977600D02*
X144348200Y-149327600D01*
X144348200Y-148727600D02*
X144348200Y-147650200D01*
X144348200Y-147650200D02*
X145923000Y-147650200D01*
X115519200Y-150977600D02*
X117169200Y-150977600D01*
X117769200Y-150977600D02*
X119419200Y-150977600D01*
X120019200Y-150977600D02*
X121669200Y-150977600D01*
X122269200Y-150977600D02*
X123919200Y-150977600D01*
X124519200Y-150977600D02*
X126169200Y-150977600D01*
X126769200Y-150977600D02*
X128419200Y-150977600D01*
X129019200Y-150977600D02*
X130669200Y-150977600D01*
X131269200Y-150977600D02*
X132919200Y-150977600D01*
X133519200Y-150977600D02*
X135169200Y-150977600D01*
X135769200Y-150977600D02*
X137419200Y-150977600D01*
X138019200Y-150977600D02*
X139669200Y-150977600D01*
X140269200Y-150977600D02*
X141919200Y-150977600D01*
X142519200Y-150977600D02*
X144169200Y-150977600D01*
X145923000Y-147650200D02*
X145923000Y-146000200D01*
X145923000Y-145400200D02*
X145923000Y-143750200D01*
X145923000Y-143150200D02*
X145923000Y-141500200D01*
X145923000Y-140900200D02*
X145923000Y-139250200D01*
X145923000Y-138650200D02*
X145923000Y-137000200D01*
X145923000Y-136400200D02*
X145923000Y-134750200D01*
X145923000Y-134150200D02*
X145923000Y-132500200D01*
X145923000Y-131900200D02*
X145923000Y-131749800D01*
X158567371Y-154165371D02*
X158567371Y-154498704D01*
X159091180Y-154498704D02*
X158091180Y-154498704D01*
X158091180Y-154498704D02*
X158091180Y-154022514D01*
X158805466Y-153689180D02*
X158805466Y-153212990D01*
X159091180Y-153784418D02*
X158091180Y-153451085D01*
X158091180Y-153451085D02*
X159091180Y-153117752D01*
X159091180Y-152784418D02*
X158091180Y-152784418D01*
X158091180Y-152784418D02*
X159091180Y-152212990D01*
X159091180Y-152212990D02*
X158091180Y-152212990D01*
D11*
X156961657Y-148122542D02*
X155761657Y-148122542D01*
X155761657Y-148122542D02*
X156961657Y-146693971D01*
X156961657Y-146693971D02*
X155761657Y-146693971D01*
X156961657Y-141313018D02*
X156961657Y-142503494D01*
X156961657Y-142503494D02*
X155761657Y-142503494D01*
X156333085Y-137479684D02*
X156333085Y-136646351D01*
X156961657Y-136289208D02*
X156961657Y-137479684D01*
X156961657Y-137479684D02*
X155761657Y-137479684D01*
X155761657Y-137479684D02*
X155761657Y-136289208D01*
D12*
X118422009Y-159005447D02*
X118922009Y-159005447D01*
X118922009Y-159005447D02*
X118564866Y-159172114D01*
X118564866Y-159172114D02*
X118922009Y-159338780D01*
X118922009Y-159338780D02*
X118422009Y-159338780D01*
X118469628Y-159862590D02*
X118445819Y-159838781D01*
X118445819Y-159838781D02*
X118422009Y-159767352D01*
X118422009Y-159767352D02*
X118422009Y-159719733D01*
X118422009Y-159719733D02*
X118445819Y-159648305D01*
X118445819Y-159648305D02*
X118493438Y-159600686D01*
X118493438Y-159600686D02*
X118541057Y-159576876D01*
X118541057Y-159576876D02*
X118636295Y-159553067D01*
X118636295Y-159553067D02*
X118707723Y-159553067D01*
X118707723Y-159553067D02*
X118802961Y-159576876D01*
X118802961Y-159576876D02*
X118850580Y-159600686D01*
X118850580Y-159600686D02*
X118898200Y-159648305D01*
X118898200Y-159648305D02*
X118922009Y-159719733D01*
X118922009Y-159719733D02*
X118922009Y-159767352D01*
X118922009Y-159767352D02*
X118898200Y-159838781D01*
X118898200Y-159838781D02*
X118874390Y-159862590D01*
X118422009Y-160314971D02*
X118422009Y-160076876D01*
X118422009Y-160076876D02*
X118922009Y-160076876D01*
X118422009Y-160767352D02*
X118660104Y-160600686D01*
X118422009Y-160481638D02*
X118922009Y-160481638D01*
X118922009Y-160481638D02*
X118922009Y-160672114D01*
X118922009Y-160672114D02*
X118898200Y-160719733D01*
X118898200Y-160719733D02*
X118874390Y-160743543D01*
X118874390Y-160743543D02*
X118826771Y-160767352D01*
X118826771Y-160767352D02*
X118755342Y-160767352D01*
X118755342Y-160767352D02*
X118707723Y-160743543D01*
X118707723Y-160743543D02*
X118683914Y-160719733D01*
X118683914Y-160719733D02*
X118660104Y-160672114D01*
X118660104Y-160672114D02*
X118660104Y-160481638D01*
X119098200Y-158936400D02*
X119098200Y-160812591D01*
X118898200Y-162443543D02*
X118922009Y-162395924D01*
X118922009Y-162395924D02*
X118922009Y-162324495D01*
X118922009Y-162324495D02*
X118898200Y-162253067D01*
X118898200Y-162253067D02*
X118850580Y-162205448D01*
X118850580Y-162205448D02*
X118802961Y-162181638D01*
X118802961Y-162181638D02*
X118707723Y-162157829D01*
X118707723Y-162157829D02*
X118636295Y-162157829D01*
X118636295Y-162157829D02*
X118541057Y-162181638D01*
X118541057Y-162181638D02*
X118493438Y-162205448D01*
X118493438Y-162205448D02*
X118445819Y-162253067D01*
X118445819Y-162253067D02*
X118422009Y-162324495D01*
X118422009Y-162324495D02*
X118422009Y-162372114D01*
X118422009Y-162372114D02*
X118445819Y-162443543D01*
X118445819Y-162443543D02*
X118469628Y-162467352D01*
X118469628Y-162467352D02*
X118636295Y-162467352D01*
X118636295Y-162467352D02*
X118636295Y-162372114D01*
X118422009Y-162681638D02*
X118922009Y-162681638D01*
X118922009Y-162681638D02*
X118422009Y-162967352D01*
X118422009Y-162967352D02*
X118922009Y-162967352D01*
X118422009Y-163205448D02*
X118922009Y-163205448D01*
X118922009Y-163205448D02*
X118922009Y-163324496D01*
X118922009Y-163324496D02*
X118898200Y-163395924D01*
X118898200Y-163395924D02*
X118850580Y-163443543D01*
X118850580Y-163443543D02*
X118802961Y-163467353D01*
X118802961Y-163467353D02*
X118707723Y-163491162D01*
X118707723Y-163491162D02*
X118636295Y-163491162D01*
X118636295Y-163491162D02*
X118541057Y-163467353D01*
X118541057Y-163467353D02*
X118493438Y-163443543D01*
X118493438Y-163443543D02*
X118445819Y-163395924D01*
X118445819Y-163395924D02*
X118422009Y-163324496D01*
X118422009Y-163324496D02*
X118422009Y-163205448D01*
X118422009Y-164905448D02*
X118922009Y-164905448D01*
X118922009Y-164905448D02*
X118922009Y-165095924D01*
X118922009Y-165095924D02*
X118898200Y-165143543D01*
X118898200Y-165143543D02*
X118874390Y-165167353D01*
X118874390Y-165167353D02*
X118826771Y-165191162D01*
X118826771Y-165191162D02*
X118755342Y-165191162D01*
X118755342Y-165191162D02*
X118707723Y-165167353D01*
X118707723Y-165167353D02*
X118683914Y-165143543D01*
X118683914Y-165143543D02*
X118660104Y-165095924D01*
X118660104Y-165095924D02*
X118660104Y-164905448D01*
X118898200Y-165667353D02*
X118922009Y-165619734D01*
X118922009Y-165619734D02*
X118922009Y-165548305D01*
X118922009Y-165548305D02*
X118898200Y-165476877D01*
X118898200Y-165476877D02*
X118850580Y-165429258D01*
X118850580Y-165429258D02*
X118802961Y-165405448D01*
X118802961Y-165405448D02*
X118707723Y-165381639D01*
X118707723Y-165381639D02*
X118636295Y-165381639D01*
X118636295Y-165381639D02*
X118541057Y-165405448D01*
X118541057Y-165405448D02*
X118493438Y-165429258D01*
X118493438Y-165429258D02*
X118445819Y-165476877D01*
X118445819Y-165476877D02*
X118422009Y-165548305D01*
X118422009Y-165548305D02*
X118422009Y-165595924D01*
X118422009Y-165595924D02*
X118445819Y-165667353D01*
X118445819Y-165667353D02*
X118469628Y-165691162D01*
X118469628Y-165691162D02*
X118636295Y-165691162D01*
X118636295Y-165691162D02*
X118636295Y-165595924D01*
X118469628Y-166191162D02*
X118445819Y-166167353D01*
X118445819Y-166167353D02*
X118422009Y-166095924D01*
X118422009Y-166095924D02*
X118422009Y-166048305D01*
X118422009Y-166048305D02*
X118445819Y-165976877D01*
X118445819Y-165976877D02*
X118493438Y-165929258D01*
X118493438Y-165929258D02*
X118541057Y-165905448D01*
X118541057Y-165905448D02*
X118636295Y-165881639D01*
X118636295Y-165881639D02*
X118707723Y-165881639D01*
X118707723Y-165881639D02*
X118802961Y-165905448D01*
X118802961Y-165905448D02*
X118850580Y-165929258D01*
X118850580Y-165929258D02*
X118898200Y-165976877D01*
X118898200Y-165976877D02*
X118922009Y-166048305D01*
X118922009Y-166048305D02*
X118922009Y-166095924D01*
X118922009Y-166095924D02*
X118898200Y-166167353D01*
X118898200Y-166167353D02*
X118874390Y-166191162D01*
X118422009Y-167605448D02*
X118922009Y-167605448D01*
X118922009Y-167605448D02*
X118922009Y-167795924D01*
X118922009Y-167795924D02*
X118898200Y-167843543D01*
X118898200Y-167843543D02*
X118874390Y-167867353D01*
X118874390Y-167867353D02*
X118826771Y-167891162D01*
X118826771Y-167891162D02*
X118755342Y-167891162D01*
X118755342Y-167891162D02*
X118707723Y-167867353D01*
X118707723Y-167867353D02*
X118683914Y-167843543D01*
X118683914Y-167843543D02*
X118660104Y-167795924D01*
X118660104Y-167795924D02*
X118660104Y-167605448D01*
X118898200Y-168367353D02*
X118922009Y-168319734D01*
X118922009Y-168319734D02*
X118922009Y-168248305D01*
X118922009Y-168248305D02*
X118898200Y-168176877D01*
X118898200Y-168176877D02*
X118850580Y-168129258D01*
X118850580Y-168129258D02*
X118802961Y-168105448D01*
X118802961Y-168105448D02*
X118707723Y-168081639D01*
X118707723Y-168081639D02*
X118636295Y-168081639D01*
X118636295Y-168081639D02*
X118541057Y-168105448D01*
X118541057Y-168105448D02*
X118493438Y-168129258D01*
X118493438Y-168129258D02*
X118445819Y-168176877D01*
X118445819Y-168176877D02*
X118422009Y-168248305D01*
X118422009Y-168248305D02*
X118422009Y-168295924D01*
X118422009Y-168295924D02*
X118445819Y-168367353D01*
X118445819Y-168367353D02*
X118469628Y-168391162D01*
X118469628Y-168391162D02*
X118636295Y-168391162D01*
X118636295Y-168391162D02*
X118636295Y-168295924D01*
X118422009Y-168605448D02*
X118922009Y-168605448D01*
X118922009Y-168605448D02*
X118922009Y-168724496D01*
X118922009Y-168724496D02*
X118898200Y-168795924D01*
X118898200Y-168795924D02*
X118850580Y-168843543D01*
X118850580Y-168843543D02*
X118802961Y-168867353D01*
X118802961Y-168867353D02*
X118707723Y-168891162D01*
X118707723Y-168891162D02*
X118636295Y-168891162D01*
X118636295Y-168891162D02*
X118541057Y-168867353D01*
X118541057Y-168867353D02*
X118493438Y-168843543D01*
X118493438Y-168843543D02*
X118445819Y-168795924D01*
X118445819Y-168795924D02*
X118422009Y-168724496D01*
X118422009Y-168724496D02*
X118422009Y-168605448D01*
D10*
X162848895Y-155103428D02*
X163610800Y-155103428D01*
X163229847Y-155484380D02*
X163229847Y-154722476D01*
X162848895Y-165974628D02*
X163610800Y-165974628D01*
X163229847Y-166355580D02*
X163229847Y-165593676D01*
X160298895Y-165864228D02*
X161060800Y-165864228D01*
D12*
X150182247Y-159345228D02*
X150563200Y-159345228D01*
X150372723Y-159726180D02*
X150372723Y-158964276D01*
X151039390Y-158726180D02*
X150801295Y-158726180D01*
X150801295Y-158726180D02*
X150777486Y-159202371D01*
X150777486Y-159202371D02*
X150801295Y-159154752D01*
X150801295Y-159154752D02*
X150848914Y-159107133D01*
X150848914Y-159107133D02*
X150967962Y-159107133D01*
X150967962Y-159107133D02*
X151015581Y-159154752D01*
X151015581Y-159154752D02*
X151039390Y-159202371D01*
X151039390Y-159202371D02*
X151063200Y-159297609D01*
X151063200Y-159297609D02*
X151063200Y-159535704D01*
X151063200Y-159535704D02*
X151039390Y-159630942D01*
X151039390Y-159630942D02*
X151015581Y-159678561D01*
X151015581Y-159678561D02*
X150967962Y-159726180D01*
X150967962Y-159726180D02*
X150848914Y-159726180D01*
X150848914Y-159726180D02*
X150801295Y-159678561D01*
X150801295Y-159678561D02*
X150777486Y-159630942D01*
X151206057Y-158726180D02*
X151372723Y-159726180D01*
X151372723Y-159726180D02*
X151539390Y-158726180D01*
D11*
X124613114Y-136332057D02*
X124613114Y-137165390D01*
X123984542Y-137522533D02*
X123984542Y-136332057D01*
X123984542Y-136332057D02*
X125184542Y-136332057D01*
X125184542Y-136332057D02*
X125184542Y-137522533D01*
X123984542Y-142784438D02*
X123984542Y-141593962D01*
X123984542Y-141593962D02*
X125184542Y-141593962D01*
X123984542Y-146617772D02*
X125184542Y-146617772D01*
X125184542Y-146617772D02*
X123984542Y-148046343D01*
X123984542Y-148046343D02*
X125184542Y-148046343D01*
D10*
X160298895Y-158625228D02*
X161060800Y-158625228D01*
X122533228Y-130851980D02*
X122533228Y-129851980D01*
X122896085Y-130185314D02*
X122896085Y-130851980D01*
X122896085Y-130280552D02*
X122932371Y-130232933D01*
X122932371Y-130232933D02*
X123004942Y-130185314D01*
X123004942Y-130185314D02*
X123113799Y-130185314D01*
X123113799Y-130185314D02*
X123186371Y-130232933D01*
X123186371Y-130232933D02*
X123222657Y-130328171D01*
X123222657Y-130328171D02*
X123222657Y-130851980D01*
X123585514Y-130185314D02*
X123585514Y-131185314D01*
X123585514Y-130232933D02*
X123658086Y-130185314D01*
X123658086Y-130185314D02*
X123803228Y-130185314D01*
X123803228Y-130185314D02*
X123875800Y-130232933D01*
X123875800Y-130232933D02*
X123912086Y-130280552D01*
X123912086Y-130280552D02*
X123948371Y-130375790D01*
X123948371Y-130375790D02*
X123948371Y-130661504D01*
X123948371Y-130661504D02*
X123912086Y-130756742D01*
X123912086Y-130756742D02*
X123875800Y-130804361D01*
X123875800Y-130804361D02*
X123803228Y-130851980D01*
X123803228Y-130851980D02*
X123658086Y-130851980D01*
X123658086Y-130851980D02*
X123585514Y-130804361D01*
X124601515Y-130185314D02*
X124601515Y-130851980D01*
X124274943Y-130185314D02*
X124274943Y-130709123D01*
X124274943Y-130709123D02*
X124311229Y-130804361D01*
X124311229Y-130804361D02*
X124383800Y-130851980D01*
X124383800Y-130851980D02*
X124492657Y-130851980D01*
X124492657Y-130851980D02*
X124565229Y-130804361D01*
X124565229Y-130804361D02*
X124601515Y-130756742D01*
X124855515Y-130185314D02*
X125145801Y-130185314D01*
X124964372Y-129851980D02*
X124964372Y-130709123D01*
X124964372Y-130709123D02*
X125000658Y-130804361D01*
X125000658Y-130804361D02*
X125073229Y-130851980D01*
X125073229Y-130851980D02*
X125145801Y-130851980D01*
X125399801Y-130756742D02*
X125436087Y-130804361D01*
X125436087Y-130804361D02*
X125399801Y-130851980D01*
X125399801Y-130851980D02*
X125363515Y-130804361D01*
X125363515Y-130804361D02*
X125399801Y-130756742D01*
X125399801Y-130756742D02*
X125399801Y-130851980D01*
X125399801Y-130232933D02*
X125436087Y-130280552D01*
X125436087Y-130280552D02*
X125399801Y-130328171D01*
X125399801Y-130328171D02*
X125363515Y-130280552D01*
X125363515Y-130280552D02*
X125399801Y-130232933D01*
X125399801Y-130232933D02*
X125399801Y-130328171D01*
X122642085Y-131900552D02*
X122569514Y-131852933D01*
X122569514Y-131852933D02*
X122533228Y-131805314D01*
X122533228Y-131805314D02*
X122496942Y-131710076D01*
X122496942Y-131710076D02*
X122496942Y-131662457D01*
X122496942Y-131662457D02*
X122533228Y-131567219D01*
X122533228Y-131567219D02*
X122569514Y-131519600D01*
X122569514Y-131519600D02*
X122642085Y-131471980D01*
X122642085Y-131471980D02*
X122787228Y-131471980D01*
X122787228Y-131471980D02*
X122859800Y-131519600D01*
X122859800Y-131519600D02*
X122896085Y-131567219D01*
X122896085Y-131567219D02*
X122932371Y-131662457D01*
X122932371Y-131662457D02*
X122932371Y-131710076D01*
X122932371Y-131710076D02*
X122896085Y-131805314D01*
X122896085Y-131805314D02*
X122859800Y-131852933D01*
X122859800Y-131852933D02*
X122787228Y-131900552D01*
X122787228Y-131900552D02*
X122642085Y-131900552D01*
X122642085Y-131900552D02*
X122569514Y-131948171D01*
X122569514Y-131948171D02*
X122533228Y-131995790D01*
X122533228Y-131995790D02*
X122496942Y-132091028D01*
X122496942Y-132091028D02*
X122496942Y-132281504D01*
X122496942Y-132281504D02*
X122533228Y-132376742D01*
X122533228Y-132376742D02*
X122569514Y-132424361D01*
X122569514Y-132424361D02*
X122642085Y-132471980D01*
X122642085Y-132471980D02*
X122787228Y-132471980D01*
X122787228Y-132471980D02*
X122859800Y-132424361D01*
X122859800Y-132424361D02*
X122896085Y-132376742D01*
X122896085Y-132376742D02*
X122932371Y-132281504D01*
X122932371Y-132281504D02*
X122932371Y-132091028D01*
X122932371Y-132091028D02*
X122896085Y-131995790D01*
X122896085Y-131995790D02*
X122859800Y-131948171D01*
X122859800Y-131948171D02*
X122787228Y-131900552D01*
X123621799Y-131471980D02*
X123258942Y-131471980D01*
X123258942Y-131471980D02*
X123222656Y-131948171D01*
X123222656Y-131948171D02*
X123258942Y-131900552D01*
X123258942Y-131900552D02*
X123331514Y-131852933D01*
X123331514Y-131852933D02*
X123512942Y-131852933D01*
X123512942Y-131852933D02*
X123585514Y-131900552D01*
X123585514Y-131900552D02*
X123621799Y-131948171D01*
X123621799Y-131948171D02*
X123658085Y-132043409D01*
X123658085Y-132043409D02*
X123658085Y-132281504D01*
X123658085Y-132281504D02*
X123621799Y-132376742D01*
X123621799Y-132376742D02*
X123585514Y-132424361D01*
X123585514Y-132424361D02*
X123512942Y-132471980D01*
X123512942Y-132471980D02*
X123331514Y-132471980D01*
X123331514Y-132471980D02*
X123258942Y-132424361D01*
X123258942Y-132424361D02*
X123222656Y-132376742D01*
X123875799Y-132091028D02*
X123912085Y-132043409D01*
X123912085Y-132043409D02*
X123984656Y-131995790D01*
X123984656Y-131995790D02*
X124129799Y-132091028D01*
X124129799Y-132091028D02*
X124202370Y-132043409D01*
X124202370Y-132043409D02*
X124238656Y-131995790D01*
X124492656Y-131567219D02*
X124528942Y-131519600D01*
X124528942Y-131519600D02*
X124601514Y-131471980D01*
X124601514Y-131471980D02*
X124782942Y-131471980D01*
X124782942Y-131471980D02*
X124855514Y-131519600D01*
X124855514Y-131519600D02*
X124891799Y-131567219D01*
X124891799Y-131567219D02*
X124928085Y-131662457D01*
X124928085Y-131662457D02*
X124928085Y-131757695D01*
X124928085Y-131757695D02*
X124891799Y-131900552D01*
X124891799Y-131900552D02*
X124456371Y-132471980D01*
X124456371Y-132471980D02*
X124928085Y-132471980D01*
X125581228Y-131805314D02*
X125581228Y-132471980D01*
X125399799Y-131424361D02*
X125218370Y-132138647D01*
X125218370Y-132138647D02*
X125690085Y-132138647D01*
X126125513Y-131471980D02*
X126198084Y-131471980D01*
X126198084Y-131471980D02*
X126270656Y-131519600D01*
X126270656Y-131519600D02*
X126306942Y-131567219D01*
X126306942Y-131567219D02*
X126343227Y-131662457D01*
X126343227Y-131662457D02*
X126379513Y-131852933D01*
X126379513Y-131852933D02*
X126379513Y-132091028D01*
X126379513Y-132091028D02*
X126343227Y-132281504D01*
X126343227Y-132281504D02*
X126306942Y-132376742D01*
X126306942Y-132376742D02*
X126270656Y-132424361D01*
X126270656Y-132424361D02*
X126198084Y-132471980D01*
X126198084Y-132471980D02*
X126125513Y-132471980D01*
X126125513Y-132471980D02*
X126052942Y-132424361D01*
X126052942Y-132424361D02*
X126016656Y-132376742D01*
X126016656Y-132376742D02*
X125980370Y-132281504D01*
X125980370Y-132281504D02*
X125944084Y-132091028D01*
X125944084Y-132091028D02*
X125944084Y-131852933D01*
X125944084Y-131852933D02*
X125980370Y-131662457D01*
X125980370Y-131662457D02*
X126016656Y-131567219D01*
X126016656Y-131567219D02*
X126052942Y-131519600D01*
X126052942Y-131519600D02*
X126125513Y-131471980D01*
X127054427Y-131471980D02*
X127308427Y-132471980D01*
X127308427Y-132471980D02*
X127562427Y-131471980D01*
X128142999Y-132471980D02*
X128142999Y-131948171D01*
X128142999Y-131948171D02*
X128106713Y-131852933D01*
X128106713Y-131852933D02*
X128034141Y-131805314D01*
X128034141Y-131805314D02*
X127888999Y-131805314D01*
X127888999Y-131805314D02*
X127816427Y-131852933D01*
X128142999Y-132424361D02*
X128070427Y-132471980D01*
X128070427Y-132471980D02*
X127888999Y-132471980D01*
X127888999Y-132471980D02*
X127816427Y-132424361D01*
X127816427Y-132424361D02*
X127780141Y-132329123D01*
X127780141Y-132329123D02*
X127780141Y-132233885D01*
X127780141Y-132233885D02*
X127816427Y-132138647D01*
X127816427Y-132138647D02*
X127888999Y-132091028D01*
X127888999Y-132091028D02*
X128070427Y-132091028D01*
X128070427Y-132091028D02*
X128142999Y-132043409D01*
X128832428Y-132424361D02*
X128759856Y-132471980D01*
X128759856Y-132471980D02*
X128614713Y-132471980D01*
X128614713Y-132471980D02*
X128542142Y-132424361D01*
X128542142Y-132424361D02*
X128505856Y-132376742D01*
X128505856Y-132376742D02*
X128469570Y-132281504D01*
X128469570Y-132281504D02*
X128469570Y-131995790D01*
X128469570Y-131995790D02*
X128505856Y-131900552D01*
X128505856Y-131900552D02*
X128542142Y-131852933D01*
X128542142Y-131852933D02*
X128614713Y-131805314D01*
X128614713Y-131805314D02*
X128759856Y-131805314D01*
X128759856Y-131805314D02*
X128832428Y-131852933D01*
D12*
X115870942Y-158488790D02*
X115870942Y-157988790D01*
X115870942Y-157988790D02*
X116061418Y-157988790D01*
X116061418Y-157988790D02*
X116109037Y-158012600D01*
X116109037Y-158012600D02*
X116132847Y-158036409D01*
X116132847Y-158036409D02*
X116156656Y-158084028D01*
X116156656Y-158084028D02*
X116156656Y-158155457D01*
X116156656Y-158155457D02*
X116132847Y-158203076D01*
X116132847Y-158203076D02*
X116109037Y-158226885D01*
X116109037Y-158226885D02*
X116061418Y-158250695D01*
X116061418Y-158250695D02*
X115870942Y-158250695D01*
X116656656Y-158488790D02*
X116489990Y-158250695D01*
X116370942Y-158488790D02*
X116370942Y-157988790D01*
X116370942Y-157988790D02*
X116561418Y-157988790D01*
X116561418Y-157988790D02*
X116609037Y-158012600D01*
X116609037Y-158012600D02*
X116632847Y-158036409D01*
X116632847Y-158036409D02*
X116656656Y-158084028D01*
X116656656Y-158084028D02*
X116656656Y-158155457D01*
X116656656Y-158155457D02*
X116632847Y-158203076D01*
X116632847Y-158203076D02*
X116609037Y-158226885D01*
X116609037Y-158226885D02*
X116561418Y-158250695D01*
X116561418Y-158250695D02*
X116370942Y-158250695D01*
X116966180Y-157988790D02*
X117061418Y-157988790D01*
X117061418Y-157988790D02*
X117109037Y-158012600D01*
X117109037Y-158012600D02*
X117156656Y-158060219D01*
X117156656Y-158060219D02*
X117180466Y-158155457D01*
X117180466Y-158155457D02*
X117180466Y-158322123D01*
X117180466Y-158322123D02*
X117156656Y-158417361D01*
X117156656Y-158417361D02*
X117109037Y-158464980D01*
X117109037Y-158464980D02*
X117061418Y-158488790D01*
X117061418Y-158488790D02*
X116966180Y-158488790D01*
X116966180Y-158488790D02*
X116918561Y-158464980D01*
X116918561Y-158464980D02*
X116870942Y-158417361D01*
X116870942Y-158417361D02*
X116847133Y-158322123D01*
X116847133Y-158322123D02*
X116847133Y-158155457D01*
X116847133Y-158155457D02*
X116870942Y-158060219D01*
X116870942Y-158060219D02*
X116918561Y-158012600D01*
X116918561Y-158012600D02*
X116966180Y-157988790D01*
X117656657Y-158012600D02*
X117609038Y-157988790D01*
X117609038Y-157988790D02*
X117537609Y-157988790D01*
X117537609Y-157988790D02*
X117466181Y-158012600D01*
X117466181Y-158012600D02*
X117418562Y-158060219D01*
X117418562Y-158060219D02*
X117394752Y-158107838D01*
X117394752Y-158107838D02*
X117370943Y-158203076D01*
X117370943Y-158203076D02*
X117370943Y-158274504D01*
X117370943Y-158274504D02*
X117394752Y-158369742D01*
X117394752Y-158369742D02*
X117418562Y-158417361D01*
X117418562Y-158417361D02*
X117466181Y-158464980D01*
X117466181Y-158464980D02*
X117537609Y-158488790D01*
X117537609Y-158488790D02*
X117585228Y-158488790D01*
X117585228Y-158488790D02*
X117656657Y-158464980D01*
X117656657Y-158464980D02*
X117680466Y-158441171D01*
X117680466Y-158441171D02*
X117680466Y-158274504D01*
X117680466Y-158274504D02*
X117585228Y-158274504D01*
D10*
X160298895Y-162239828D02*
X161060800Y-162239828D01*
X160298895Y-154993028D02*
X161060800Y-154993028D01*
D12*
X135075534Y-173535133D02*
X135313629Y-173535133D01*
X135027915Y-173677990D02*
X135194581Y-173177990D01*
X135194581Y-173177990D02*
X135361248Y-173677990D01*
X137494581Y-173416085D02*
X137566009Y-173439895D01*
X137566009Y-173439895D02*
X137589819Y-173463704D01*
X137589819Y-173463704D02*
X137613628Y-173511323D01*
X137613628Y-173511323D02*
X137613628Y-173582752D01*
X137613628Y-173582752D02*
X137589819Y-173630371D01*
X137589819Y-173630371D02*
X137566009Y-173654180D01*
X137566009Y-173654180D02*
X137518390Y-173677990D01*
X137518390Y-173677990D02*
X137327914Y-173677990D01*
X137327914Y-173677990D02*
X137327914Y-173177990D01*
X137327914Y-173177990D02*
X137494581Y-173177990D01*
X137494581Y-173177990D02*
X137542200Y-173201800D01*
X137542200Y-173201800D02*
X137566009Y-173225609D01*
X137566009Y-173225609D02*
X137589819Y-173273228D01*
X137589819Y-173273228D02*
X137589819Y-173320847D01*
X137589819Y-173320847D02*
X137566009Y-173368466D01*
X137566009Y-173368466D02*
X137542200Y-173392276D01*
X137542200Y-173392276D02*
X137494581Y-173416085D01*
X137494581Y-173416085D02*
X137327914Y-173416085D01*
X139604105Y-173654180D02*
X139675533Y-173677990D01*
X139675533Y-173677990D02*
X139794581Y-173677990D01*
X139794581Y-173677990D02*
X139842200Y-173654180D01*
X139842200Y-173654180D02*
X139866009Y-173630371D01*
X139866009Y-173630371D02*
X139889819Y-173582752D01*
X139889819Y-173582752D02*
X139889819Y-173535133D01*
X139889819Y-173535133D02*
X139866009Y-173487514D01*
X139866009Y-173487514D02*
X139842200Y-173463704D01*
X139842200Y-173463704D02*
X139794581Y-173439895D01*
X139794581Y-173439895D02*
X139699343Y-173416085D01*
X139699343Y-173416085D02*
X139651724Y-173392276D01*
X139651724Y-173392276D02*
X139627914Y-173368466D01*
X139627914Y-173368466D02*
X139604105Y-173320847D01*
X139604105Y-173320847D02*
X139604105Y-173273228D01*
X139604105Y-173273228D02*
X139627914Y-173225609D01*
X139627914Y-173225609D02*
X139651724Y-173201800D01*
X139651724Y-173201800D02*
X139699343Y-173177990D01*
X139699343Y-173177990D02*
X139818390Y-173177990D01*
X139818390Y-173177990D02*
X139889819Y-173201800D01*
X140056485Y-173177990D02*
X140175533Y-173677990D01*
X140175533Y-173677990D02*
X140270771Y-173320847D01*
X140270771Y-173320847D02*
X140366009Y-173677990D01*
X140366009Y-173677990D02*
X140485057Y-173177990D01*
X141875533Y-173487514D02*
X142256486Y-173487514D01*
X142066009Y-173677990D02*
X142066009Y-173297038D01*
X142732676Y-173177990D02*
X142494581Y-173177990D01*
X142494581Y-173177990D02*
X142470772Y-173416085D01*
X142470772Y-173416085D02*
X142494581Y-173392276D01*
X142494581Y-173392276D02*
X142542200Y-173368466D01*
X142542200Y-173368466D02*
X142661248Y-173368466D01*
X142661248Y-173368466D02*
X142708867Y-173392276D01*
X142708867Y-173392276D02*
X142732676Y-173416085D01*
X142732676Y-173416085D02*
X142756486Y-173463704D01*
X142756486Y-173463704D02*
X142756486Y-173582752D01*
X142756486Y-173582752D02*
X142732676Y-173630371D01*
X142732676Y-173630371D02*
X142708867Y-173654180D01*
X142708867Y-173654180D02*
X142661248Y-173677990D01*
X142661248Y-173677990D02*
X142542200Y-173677990D01*
X142542200Y-173677990D02*
X142494581Y-173654180D01*
X142494581Y-173654180D02*
X142470772Y-173630371D01*
X142899343Y-173177990D02*
X143066009Y-173677990D01*
X143066009Y-173677990D02*
X143232676Y-173177990D01*
X144861247Y-173201800D02*
X144813628Y-173177990D01*
X144813628Y-173177990D02*
X144742199Y-173177990D01*
X144742199Y-173177990D02*
X144670771Y-173201800D01*
X144670771Y-173201800D02*
X144623152Y-173249419D01*
X144623152Y-173249419D02*
X144599342Y-173297038D01*
X144599342Y-173297038D02*
X144575533Y-173392276D01*
X144575533Y-173392276D02*
X144575533Y-173463704D01*
X144575533Y-173463704D02*
X144599342Y-173558942D01*
X144599342Y-173558942D02*
X144623152Y-173606561D01*
X144623152Y-173606561D02*
X144670771Y-173654180D01*
X144670771Y-173654180D02*
X144742199Y-173677990D01*
X144742199Y-173677990D02*
X144789818Y-173677990D01*
X144789818Y-173677990D02*
X144861247Y-173654180D01*
X144861247Y-173654180D02*
X144885056Y-173630371D01*
X144885056Y-173630371D02*
X144885056Y-173463704D01*
X144885056Y-173463704D02*
X144789818Y-173463704D01*
X145099342Y-173677990D02*
X145099342Y-173177990D01*
X145099342Y-173177990D02*
X145385056Y-173677990D01*
X145385056Y-173677990D02*
X145385056Y-173177990D01*
X145623152Y-173677990D02*
X145623152Y-173177990D01*
X145623152Y-173177990D02*
X145742200Y-173177990D01*
X145742200Y-173177990D02*
X145813628Y-173201800D01*
X145813628Y-173201800D02*
X145861247Y-173249419D01*
X145861247Y-173249419D02*
X145885057Y-173297038D01*
X145885057Y-173297038D02*
X145908866Y-173392276D01*
X145908866Y-173392276D02*
X145908866Y-173463704D01*
X145908866Y-173463704D02*
X145885057Y-173558942D01*
X145885057Y-173558942D02*
X145861247Y-173606561D01*
X145861247Y-173606561D02*
X145813628Y-173654180D01*
X145813628Y-173654180D02*
X145742200Y-173677990D01*
X145742200Y-173677990D02*
X145623152Y-173677990D01*
X135856647Y-161885228D02*
X136237600Y-161885228D01*
X136047123Y-162266180D02*
X136047123Y-161504276D01*
X136428076Y-161266180D02*
X136737600Y-161266180D01*
X136737600Y-161266180D02*
X136570933Y-161647133D01*
X136570933Y-161647133D02*
X136642362Y-161647133D01*
X136642362Y-161647133D02*
X136689981Y-161694752D01*
X136689981Y-161694752D02*
X136713790Y-161742371D01*
X136713790Y-161742371D02*
X136737600Y-161837609D01*
X136737600Y-161837609D02*
X136737600Y-162075704D01*
X136737600Y-162075704D02*
X136713790Y-162170942D01*
X136713790Y-162170942D02*
X136689981Y-162218561D01*
X136689981Y-162218561D02*
X136642362Y-162266180D01*
X136642362Y-162266180D02*
X136499505Y-162266180D01*
X136499505Y-162266180D02*
X136451886Y-162218561D01*
X136451886Y-162218561D02*
X136428076Y-162170942D01*
X136880457Y-161266180D02*
X137047123Y-162266180D01*
X137047123Y-162266180D02*
X137213790Y-161266180D01*
X137332837Y-161266180D02*
X137642361Y-161266180D01*
X137642361Y-161266180D02*
X137475694Y-161647133D01*
X137475694Y-161647133D02*
X137547123Y-161647133D01*
X137547123Y-161647133D02*
X137594742Y-161694752D01*
X137594742Y-161694752D02*
X137618551Y-161742371D01*
X137618551Y-161742371D02*
X137642361Y-161837609D01*
X137642361Y-161837609D02*
X137642361Y-162075704D01*
X137642361Y-162075704D02*
X137618551Y-162170942D01*
X137618551Y-162170942D02*
X137594742Y-162218561D01*
X137594742Y-162218561D02*
X137547123Y-162266180D01*
X137547123Y-162266180D02*
X137404266Y-162266180D01*
X137404266Y-162266180D02*
X137356647Y-162218561D01*
X137356647Y-162218561D02*
X137332837Y-162170942D01*
X137737599Y-162361419D02*
X138118551Y-162361419D01*
X138213789Y-161361419D02*
X138237598Y-161313800D01*
X138237598Y-161313800D02*
X138285217Y-161266180D01*
X138285217Y-161266180D02*
X138404265Y-161266180D01*
X138404265Y-161266180D02*
X138451884Y-161313800D01*
X138451884Y-161313800D02*
X138475693Y-161361419D01*
X138475693Y-161361419D02*
X138499503Y-161456657D01*
X138499503Y-161456657D02*
X138499503Y-161551895D01*
X138499503Y-161551895D02*
X138475693Y-161694752D01*
X138475693Y-161694752D02*
X138189979Y-162266180D01*
X138189979Y-162266180D02*
X138499503Y-162266180D01*
D10*
X159065780Y-158123000D02*
X159065780Y-158456333D01*
X159065780Y-158456333D02*
X158065780Y-158456333D01*
X158541971Y-157889666D02*
X158541971Y-157656333D01*
X159065780Y-157556333D02*
X159065780Y-157889666D01*
X159065780Y-157889666D02*
X158065780Y-157889666D01*
X158065780Y-157889666D02*
X158065780Y-157556333D01*
X159065780Y-157256333D02*
X158065780Y-157256333D01*
X158065780Y-157256333D02*
X158065780Y-157089666D01*
X158065780Y-157089666D02*
X158113400Y-156989666D01*
X158113400Y-156989666D02*
X158208638Y-156923000D01*
X158208638Y-156923000D02*
X158303876Y-156889666D01*
X158303876Y-156889666D02*
X158494352Y-156856333D01*
X158494352Y-156856333D02*
X158637209Y-156856333D01*
X158637209Y-156856333D02*
X158827685Y-156889666D01*
X158827685Y-156889666D02*
X158922923Y-156923000D01*
X158922923Y-156923000D02*
X159018161Y-156989666D01*
X159018161Y-156989666D02*
X159065780Y-157089666D01*
X159065780Y-157089666D02*
X159065780Y-157256333D01*
X159161019Y-156723000D02*
X159161019Y-156189666D01*
X158541971Y-155789667D02*
X158589590Y-155689667D01*
X158589590Y-155689667D02*
X158637209Y-155656333D01*
X158637209Y-155656333D02*
X158732447Y-155623000D01*
X158732447Y-155623000D02*
X158875304Y-155623000D01*
X158875304Y-155623000D02*
X158970542Y-155656333D01*
X158970542Y-155656333D02*
X159018161Y-155689667D01*
X159018161Y-155689667D02*
X159065780Y-155756333D01*
X159065780Y-155756333D02*
X159065780Y-156023000D01*
X159065780Y-156023000D02*
X158065780Y-156023000D01*
X158065780Y-156023000D02*
X158065780Y-155789667D01*
X158065780Y-155789667D02*
X158113400Y-155723000D01*
X158113400Y-155723000D02*
X158161019Y-155689667D01*
X158161019Y-155689667D02*
X158256257Y-155656333D01*
X158256257Y-155656333D02*
X158351495Y-155656333D01*
X158351495Y-155656333D02*
X158446733Y-155689667D01*
X158446733Y-155689667D02*
X158494352Y-155723000D01*
X158494352Y-155723000D02*
X158541971Y-155789667D01*
X158541971Y-155789667D02*
X158541971Y-156023000D01*
X159014980Y-161628200D02*
X159014980Y-161961533D01*
X159014980Y-161961533D02*
X158014980Y-161961533D01*
X158491171Y-161394866D02*
X158491171Y-161161533D01*
X159014980Y-161061533D02*
X159014980Y-161394866D01*
X159014980Y-161394866D02*
X158014980Y-161394866D01*
X158014980Y-161394866D02*
X158014980Y-161061533D01*
X159014980Y-160761533D02*
X158014980Y-160761533D01*
X158014980Y-160761533D02*
X158014980Y-160594866D01*
X158014980Y-160594866D02*
X158062600Y-160494866D01*
X158062600Y-160494866D02*
X158157838Y-160428200D01*
X158157838Y-160428200D02*
X158253076Y-160394866D01*
X158253076Y-160394866D02*
X158443552Y-160361533D01*
X158443552Y-160361533D02*
X158586409Y-160361533D01*
X158586409Y-160361533D02*
X158776885Y-160394866D01*
X158776885Y-160394866D02*
X158872123Y-160428200D01*
X158872123Y-160428200D02*
X158967361Y-160494866D01*
X158967361Y-160494866D02*
X159014980Y-160594866D01*
X159014980Y-160594866D02*
X159014980Y-160761533D01*
X159110219Y-160228200D02*
X159110219Y-159694866D01*
X158538790Y-159394867D02*
X159014980Y-159394867D01*
X158014980Y-159628200D02*
X158538790Y-159394867D01*
X158538790Y-159394867D02*
X158014980Y-159161533D01*
X163052095Y-151420428D02*
X163814000Y-151420428D01*
X163433047Y-151801380D02*
X163433047Y-151039476D01*
D12*
X147723219Y-170107390D02*
X147889885Y-170607390D01*
X147889885Y-170607390D02*
X148056552Y-170107390D01*
X148508932Y-170559771D02*
X148485123Y-170583580D01*
X148485123Y-170583580D02*
X148413694Y-170607390D01*
X148413694Y-170607390D02*
X148366075Y-170607390D01*
X148366075Y-170607390D02*
X148294647Y-170583580D01*
X148294647Y-170583580D02*
X148247028Y-170535961D01*
X148247028Y-170535961D02*
X148223218Y-170488342D01*
X148223218Y-170488342D02*
X148199409Y-170393104D01*
X148199409Y-170393104D02*
X148199409Y-170321676D01*
X148199409Y-170321676D02*
X148223218Y-170226438D01*
X148223218Y-170226438D02*
X148247028Y-170178819D01*
X148247028Y-170178819D02*
X148294647Y-170131200D01*
X148294647Y-170131200D02*
X148366075Y-170107390D01*
X148366075Y-170107390D02*
X148413694Y-170107390D01*
X148413694Y-170107390D02*
X148485123Y-170131200D01*
X148485123Y-170131200D02*
X148508932Y-170155009D01*
X149008932Y-170559771D02*
X148985123Y-170583580D01*
X148985123Y-170583580D02*
X148913694Y-170607390D01*
X148913694Y-170607390D02*
X148866075Y-170607390D01*
X148866075Y-170607390D02*
X148794647Y-170583580D01*
X148794647Y-170583580D02*
X148747028Y-170535961D01*
X148747028Y-170535961D02*
X148723218Y-170488342D01*
X148723218Y-170488342D02*
X148699409Y-170393104D01*
X148699409Y-170393104D02*
X148699409Y-170321676D01*
X148699409Y-170321676D02*
X148723218Y-170226438D01*
X148723218Y-170226438D02*
X148747028Y-170178819D01*
X148747028Y-170178819D02*
X148794647Y-170131200D01*
X148794647Y-170131200D02*
X148866075Y-170107390D01*
X148866075Y-170107390D02*
X148913694Y-170107390D01*
X148913694Y-170107390D02*
X148985123Y-170131200D01*
X148985123Y-170131200D02*
X149008932Y-170155009D01*
X150399409Y-170583580D02*
X150470837Y-170607390D01*
X150470837Y-170607390D02*
X150589885Y-170607390D01*
X150589885Y-170607390D02*
X150637504Y-170583580D01*
X150637504Y-170583580D02*
X150661313Y-170559771D01*
X150661313Y-170559771D02*
X150685123Y-170512152D01*
X150685123Y-170512152D02*
X150685123Y-170464533D01*
X150685123Y-170464533D02*
X150661313Y-170416914D01*
X150661313Y-170416914D02*
X150637504Y-170393104D01*
X150637504Y-170393104D02*
X150589885Y-170369295D01*
X150589885Y-170369295D02*
X150494647Y-170345485D01*
X150494647Y-170345485D02*
X150447028Y-170321676D01*
X150447028Y-170321676D02*
X150423218Y-170297866D01*
X150423218Y-170297866D02*
X150399409Y-170250247D01*
X150399409Y-170250247D02*
X150399409Y-170202628D01*
X150399409Y-170202628D02*
X150423218Y-170155009D01*
X150423218Y-170155009D02*
X150447028Y-170131200D01*
X150447028Y-170131200D02*
X150494647Y-170107390D01*
X150494647Y-170107390D02*
X150613694Y-170107390D01*
X150613694Y-170107390D02*
X150685123Y-170131200D01*
X151185122Y-170559771D02*
X151161313Y-170583580D01*
X151161313Y-170583580D02*
X151089884Y-170607390D01*
X151089884Y-170607390D02*
X151042265Y-170607390D01*
X151042265Y-170607390D02*
X150970837Y-170583580D01*
X150970837Y-170583580D02*
X150923218Y-170535961D01*
X150923218Y-170535961D02*
X150899408Y-170488342D01*
X150899408Y-170488342D02*
X150875599Y-170393104D01*
X150875599Y-170393104D02*
X150875599Y-170321676D01*
X150875599Y-170321676D02*
X150899408Y-170226438D01*
X150899408Y-170226438D02*
X150923218Y-170178819D01*
X150923218Y-170178819D02*
X150970837Y-170131200D01*
X150970837Y-170131200D02*
X151042265Y-170107390D01*
X151042265Y-170107390D02*
X151089884Y-170107390D01*
X151089884Y-170107390D02*
X151161313Y-170131200D01*
X151161313Y-170131200D02*
X151185122Y-170155009D01*
X151399408Y-170345485D02*
X151566075Y-170345485D01*
X151637503Y-170607390D02*
X151399408Y-170607390D01*
X151399408Y-170607390D02*
X151399408Y-170107390D01*
X151399408Y-170107390D02*
X151637503Y-170107390D01*
X152751789Y-170607390D02*
X152751789Y-170107390D01*
X152751789Y-170107390D02*
X152870837Y-170107390D01*
X152870837Y-170107390D02*
X152942265Y-170131200D01*
X152942265Y-170131200D02*
X152989884Y-170178819D01*
X152989884Y-170178819D02*
X153013694Y-170226438D01*
X153013694Y-170226438D02*
X153037503Y-170321676D01*
X153037503Y-170321676D02*
X153037503Y-170393104D01*
X153037503Y-170393104D02*
X153013694Y-170488342D01*
X153013694Y-170488342D02*
X152989884Y-170535961D01*
X152989884Y-170535961D02*
X152942265Y-170583580D01*
X152942265Y-170583580D02*
X152870837Y-170607390D01*
X152870837Y-170607390D02*
X152751789Y-170607390D01*
X153608932Y-170083580D02*
X153180361Y-170726438D01*
X154061313Y-170559771D02*
X154037504Y-170583580D01*
X154037504Y-170583580D02*
X153966075Y-170607390D01*
X153966075Y-170607390D02*
X153918456Y-170607390D01*
X153918456Y-170607390D02*
X153847028Y-170583580D01*
X153847028Y-170583580D02*
X153799409Y-170535961D01*
X153799409Y-170535961D02*
X153775599Y-170488342D01*
X153775599Y-170488342D02*
X153751790Y-170393104D01*
X153751790Y-170393104D02*
X153751790Y-170321676D01*
X153751790Y-170321676D02*
X153775599Y-170226438D01*
X153775599Y-170226438D02*
X153799409Y-170178819D01*
X153799409Y-170178819D02*
X153847028Y-170131200D01*
X153847028Y-170131200D02*
X153918456Y-170107390D01*
X153918456Y-170107390D02*
X153966075Y-170107390D01*
X153966075Y-170107390D02*
X154037504Y-170131200D01*
X154037504Y-170131200D02*
X154061313Y-170155009D01*
X155451790Y-170583580D02*
X155523218Y-170607390D01*
X155523218Y-170607390D02*
X155642266Y-170607390D01*
X155642266Y-170607390D02*
X155689885Y-170583580D01*
X155689885Y-170583580D02*
X155713694Y-170559771D01*
X155713694Y-170559771D02*
X155737504Y-170512152D01*
X155737504Y-170512152D02*
X155737504Y-170464533D01*
X155737504Y-170464533D02*
X155713694Y-170416914D01*
X155713694Y-170416914D02*
X155689885Y-170393104D01*
X155689885Y-170393104D02*
X155642266Y-170369295D01*
X155642266Y-170369295D02*
X155547028Y-170345485D01*
X155547028Y-170345485D02*
X155499409Y-170321676D01*
X155499409Y-170321676D02*
X155475599Y-170297866D01*
X155475599Y-170297866D02*
X155451790Y-170250247D01*
X155451790Y-170250247D02*
X155451790Y-170202628D01*
X155451790Y-170202628D02*
X155475599Y-170155009D01*
X155475599Y-170155009D02*
X155499409Y-170131200D01*
X155499409Y-170131200D02*
X155547028Y-170107390D01*
X155547028Y-170107390D02*
X155666075Y-170107390D01*
X155666075Y-170107390D02*
X155737504Y-170131200D01*
X156237503Y-170559771D02*
X156213694Y-170583580D01*
X156213694Y-170583580D02*
X156142265Y-170607390D01*
X156142265Y-170607390D02*
X156094646Y-170607390D01*
X156094646Y-170607390D02*
X156023218Y-170583580D01*
X156023218Y-170583580D02*
X155975599Y-170535961D01*
X155975599Y-170535961D02*
X155951789Y-170488342D01*
X155951789Y-170488342D02*
X155927980Y-170393104D01*
X155927980Y-170393104D02*
X155927980Y-170321676D01*
X155927980Y-170321676D02*
X155951789Y-170226438D01*
X155951789Y-170226438D02*
X155975599Y-170178819D01*
X155975599Y-170178819D02*
X156023218Y-170131200D01*
X156023218Y-170131200D02*
X156094646Y-170107390D01*
X156094646Y-170107390D02*
X156142265Y-170107390D01*
X156142265Y-170107390D02*
X156213694Y-170131200D01*
X156213694Y-170131200D02*
X156237503Y-170155009D01*
X156689884Y-170607390D02*
X156451789Y-170607390D01*
X156451789Y-170607390D02*
X156451789Y-170107390D01*
X156856551Y-170607390D02*
X156856551Y-170107390D01*
X157142265Y-170607390D02*
X156927980Y-170321676D01*
X157142265Y-170107390D02*
X156856551Y-170393104D01*
X148056552Y-170941200D02*
X148008933Y-170917390D01*
X148008933Y-170917390D02*
X147937504Y-170917390D01*
X147937504Y-170917390D02*
X147866076Y-170941200D01*
X147866076Y-170941200D02*
X147818457Y-170988819D01*
X147818457Y-170988819D02*
X147794647Y-171036438D01*
X147794647Y-171036438D02*
X147770838Y-171131676D01*
X147770838Y-171131676D02*
X147770838Y-171203104D01*
X147770838Y-171203104D02*
X147794647Y-171298342D01*
X147794647Y-171298342D02*
X147818457Y-171345961D01*
X147818457Y-171345961D02*
X147866076Y-171393580D01*
X147866076Y-171393580D02*
X147937504Y-171417390D01*
X147937504Y-171417390D02*
X147985123Y-171417390D01*
X147985123Y-171417390D02*
X148056552Y-171393580D01*
X148056552Y-171393580D02*
X148080361Y-171369771D01*
X148080361Y-171369771D02*
X148080361Y-171203104D01*
X148080361Y-171203104D02*
X147985123Y-171203104D01*
X148294647Y-171417390D02*
X148294647Y-170917390D01*
X148294647Y-170917390D02*
X148580361Y-171417390D01*
X148580361Y-171417390D02*
X148580361Y-170917390D01*
X148818457Y-171417390D02*
X148818457Y-170917390D01*
X148818457Y-170917390D02*
X148937505Y-170917390D01*
X148937505Y-170917390D02*
X149008933Y-170941200D01*
X149008933Y-170941200D02*
X149056552Y-170988819D01*
X149056552Y-170988819D02*
X149080362Y-171036438D01*
X149080362Y-171036438D02*
X149104171Y-171131676D01*
X149104171Y-171131676D02*
X149104171Y-171203104D01*
X149104171Y-171203104D02*
X149080362Y-171298342D01*
X149080362Y-171298342D02*
X149056552Y-171345961D01*
X149056552Y-171345961D02*
X149008933Y-171393580D01*
X149008933Y-171393580D02*
X148937505Y-171417390D01*
X148937505Y-171417390D02*
X148818457Y-171417390D01*
X150804171Y-171417390D02*
X150637505Y-171179295D01*
X150518457Y-171417390D02*
X150518457Y-170917390D01*
X150518457Y-170917390D02*
X150708933Y-170917390D01*
X150708933Y-170917390D02*
X150756552Y-170941200D01*
X150756552Y-170941200D02*
X150780362Y-170965009D01*
X150780362Y-170965009D02*
X150804171Y-171012628D01*
X150804171Y-171012628D02*
X150804171Y-171084057D01*
X150804171Y-171084057D02*
X150780362Y-171131676D01*
X150780362Y-171131676D02*
X150756552Y-171155485D01*
X150756552Y-171155485D02*
X150708933Y-171179295D01*
X150708933Y-171179295D02*
X150518457Y-171179295D01*
X150994648Y-171393580D02*
X151066076Y-171417390D01*
X151066076Y-171417390D02*
X151185124Y-171417390D01*
X151185124Y-171417390D02*
X151232743Y-171393580D01*
X151232743Y-171393580D02*
X151256552Y-171369771D01*
X151256552Y-171369771D02*
X151280362Y-171322152D01*
X151280362Y-171322152D02*
X151280362Y-171274533D01*
X151280362Y-171274533D02*
X151256552Y-171226914D01*
X151256552Y-171226914D02*
X151232743Y-171203104D01*
X151232743Y-171203104D02*
X151185124Y-171179295D01*
X151185124Y-171179295D02*
X151089886Y-171155485D01*
X151089886Y-171155485D02*
X151042267Y-171131676D01*
X151042267Y-171131676D02*
X151018457Y-171107866D01*
X151018457Y-171107866D02*
X150994648Y-171060247D01*
X150994648Y-171060247D02*
X150994648Y-171012628D01*
X150994648Y-171012628D02*
X151018457Y-170965009D01*
X151018457Y-170965009D02*
X151042267Y-170941200D01*
X151042267Y-170941200D02*
X151089886Y-170917390D01*
X151089886Y-170917390D02*
X151208933Y-170917390D01*
X151208933Y-170917390D02*
X151280362Y-170941200D01*
X151423219Y-170917390D02*
X151708933Y-170917390D01*
X151566076Y-171417390D02*
X151566076Y-170917390D01*
X152775599Y-171417390D02*
X152775599Y-170917390D01*
X152775599Y-170917390D02*
X152942266Y-171274533D01*
X152942266Y-171274533D02*
X153108932Y-170917390D01*
X153108932Y-170917390D02*
X153108932Y-171417390D01*
X153442266Y-170917390D02*
X153537504Y-170917390D01*
X153537504Y-170917390D02*
X153585123Y-170941200D01*
X153585123Y-170941200D02*
X153632742Y-170988819D01*
X153632742Y-170988819D02*
X153656552Y-171084057D01*
X153656552Y-171084057D02*
X153656552Y-171250723D01*
X153656552Y-171250723D02*
X153632742Y-171345961D01*
X153632742Y-171345961D02*
X153585123Y-171393580D01*
X153585123Y-171393580D02*
X153537504Y-171417390D01*
X153537504Y-171417390D02*
X153442266Y-171417390D01*
X153442266Y-171417390D02*
X153394647Y-171393580D01*
X153394647Y-171393580D02*
X153347028Y-171345961D01*
X153347028Y-171345961D02*
X153323219Y-171250723D01*
X153323219Y-171250723D02*
X153323219Y-171084057D01*
X153323219Y-171084057D02*
X153347028Y-170988819D01*
X153347028Y-170988819D02*
X153394647Y-170941200D01*
X153394647Y-170941200D02*
X153442266Y-170917390D01*
X153847029Y-171393580D02*
X153918457Y-171417390D01*
X153918457Y-171417390D02*
X154037505Y-171417390D01*
X154037505Y-171417390D02*
X154085124Y-171393580D01*
X154085124Y-171393580D02*
X154108933Y-171369771D01*
X154108933Y-171369771D02*
X154132743Y-171322152D01*
X154132743Y-171322152D02*
X154132743Y-171274533D01*
X154132743Y-171274533D02*
X154108933Y-171226914D01*
X154108933Y-171226914D02*
X154085124Y-171203104D01*
X154085124Y-171203104D02*
X154037505Y-171179295D01*
X154037505Y-171179295D02*
X153942267Y-171155485D01*
X153942267Y-171155485D02*
X153894648Y-171131676D01*
X153894648Y-171131676D02*
X153870838Y-171107866D01*
X153870838Y-171107866D02*
X153847029Y-171060247D01*
X153847029Y-171060247D02*
X153847029Y-171012628D01*
X153847029Y-171012628D02*
X153870838Y-170965009D01*
X153870838Y-170965009D02*
X153894648Y-170941200D01*
X153894648Y-170941200D02*
X153942267Y-170917390D01*
X153942267Y-170917390D02*
X154061314Y-170917390D01*
X154061314Y-170917390D02*
X154132743Y-170941200D01*
X154347028Y-171417390D02*
X154347028Y-170917390D01*
X156023218Y-171417390D02*
X155785123Y-171417390D01*
X155785123Y-171417390D02*
X155785123Y-170917390D01*
X156189885Y-171155485D02*
X156356552Y-171155485D01*
X156427980Y-171417390D02*
X156189885Y-171417390D01*
X156189885Y-171417390D02*
X156189885Y-170917390D01*
X156189885Y-170917390D02*
X156427980Y-170917390D01*
X156642266Y-171417390D02*
X156642266Y-170917390D01*
X156642266Y-170917390D02*
X156761314Y-170917390D01*
X156761314Y-170917390D02*
X156832742Y-170941200D01*
X156832742Y-170941200D02*
X156880361Y-170988819D01*
X156880361Y-170988819D02*
X156904171Y-171036438D01*
X156904171Y-171036438D02*
X156927980Y-171131676D01*
X156927980Y-171131676D02*
X156927980Y-171203104D01*
X156927980Y-171203104D02*
X156904171Y-171298342D01*
X156904171Y-171298342D02*
X156880361Y-171345961D01*
X156880361Y-171345961D02*
X156832742Y-171393580D01*
X156832742Y-171393580D02*
X156761314Y-171417390D01*
X156761314Y-171417390D02*
X156642266Y-171417390D01*
X141673247Y-160996228D02*
X142054200Y-160996228D01*
X141863723Y-161377180D02*
X141863723Y-160615276D01*
X142244676Y-160377180D02*
X142554200Y-160377180D01*
X142554200Y-160377180D02*
X142387533Y-160758133D01*
X142387533Y-160758133D02*
X142458962Y-160758133D01*
X142458962Y-160758133D02*
X142506581Y-160805752D01*
X142506581Y-160805752D02*
X142530390Y-160853371D01*
X142530390Y-160853371D02*
X142554200Y-160948609D01*
X142554200Y-160948609D02*
X142554200Y-161186704D01*
X142554200Y-161186704D02*
X142530390Y-161281942D01*
X142530390Y-161281942D02*
X142506581Y-161329561D01*
X142506581Y-161329561D02*
X142458962Y-161377180D01*
X142458962Y-161377180D02*
X142316105Y-161377180D01*
X142316105Y-161377180D02*
X142268486Y-161329561D01*
X142268486Y-161329561D02*
X142244676Y-161281942D01*
X142697057Y-160377180D02*
X142863723Y-161377180D01*
X142863723Y-161377180D02*
X143030390Y-160377180D01*
X143149437Y-160377180D02*
X143458961Y-160377180D01*
X143458961Y-160377180D02*
X143292294Y-160758133D01*
X143292294Y-160758133D02*
X143363723Y-160758133D01*
X143363723Y-160758133D02*
X143411342Y-160805752D01*
X143411342Y-160805752D02*
X143435151Y-160853371D01*
X143435151Y-160853371D02*
X143458961Y-160948609D01*
X143458961Y-160948609D02*
X143458961Y-161186704D01*
X143458961Y-161186704D02*
X143435151Y-161281942D01*
X143435151Y-161281942D02*
X143411342Y-161329561D01*
X143411342Y-161329561D02*
X143363723Y-161377180D01*
X143363723Y-161377180D02*
X143220866Y-161377180D01*
X143220866Y-161377180D02*
X143173247Y-161329561D01*
X143173247Y-161329561D02*
X143149437Y-161281942D01*
X143554199Y-161472419D02*
X143935151Y-161472419D01*
X144316103Y-161377180D02*
X144030389Y-161377180D01*
X144173246Y-161377180D02*
X144173246Y-160377180D01*
X144173246Y-160377180D02*
X144125627Y-160520038D01*
X144125627Y-160520038D02*
X144078008Y-160615276D01*
X144078008Y-160615276D02*
X144030389Y-160662895D01*
D10*
X162848895Y-162350228D02*
X163610800Y-162350228D01*
X163229847Y-162731180D02*
X163229847Y-161969276D01*
X162848895Y-158735628D02*
X163610800Y-158735628D01*
X163229847Y-159116580D02*
X163229847Y-158354676D01*
X158989580Y-165184200D02*
X158989580Y-165517533D01*
X158989580Y-165517533D02*
X157989580Y-165517533D01*
X158465771Y-164950866D02*
X158465771Y-164717533D01*
X158989580Y-164617533D02*
X158989580Y-164950866D01*
X158989580Y-164950866D02*
X157989580Y-164950866D01*
X157989580Y-164950866D02*
X157989580Y-164617533D01*
X158989580Y-164317533D02*
X157989580Y-164317533D01*
X157989580Y-164317533D02*
X157989580Y-164150866D01*
X157989580Y-164150866D02*
X158037200Y-164050866D01*
X158037200Y-164050866D02*
X158132438Y-163984200D01*
X158132438Y-163984200D02*
X158227676Y-163950866D01*
X158227676Y-163950866D02*
X158418152Y-163917533D01*
X158418152Y-163917533D02*
X158561009Y-163917533D01*
X158561009Y-163917533D02*
X158751485Y-163950866D01*
X158751485Y-163950866D02*
X158846723Y-163984200D01*
X158846723Y-163984200D02*
X158941961Y-164050866D01*
X158941961Y-164050866D02*
X158989580Y-164150866D01*
X158989580Y-164150866D02*
X158989580Y-164317533D01*
X159084819Y-163784200D02*
X159084819Y-163250866D01*
X158989580Y-162684200D02*
X158513390Y-162917533D01*
X158989580Y-163084200D02*
X157989580Y-163084200D01*
X157989580Y-163084200D02*
X157989580Y-162817533D01*
X157989580Y-162817533D02*
X158037200Y-162750867D01*
X158037200Y-162750867D02*
X158084819Y-162717533D01*
X158084819Y-162717533D02*
X158180057Y-162684200D01*
X158180057Y-162684200D02*
X158322914Y-162684200D01*
X158322914Y-162684200D02*
X158418152Y-162717533D01*
X158418152Y-162717533D02*
X158465771Y-162750867D01*
X158465771Y-162750867D02*
X158513390Y-162817533D01*
X158513390Y-162817533D02*
X158513390Y-163084200D01*
X160298895Y-151386228D02*
X161060800Y-151386228D01*
X157964180Y-168865561D02*
X157964180Y-168294133D01*
X158964180Y-168579847D02*
X157964180Y-168579847D01*
X157916561Y-167246514D02*
X159202276Y-168103656D01*
X158868942Y-166341752D02*
X158916561Y-166389371D01*
X158916561Y-166389371D02*
X158964180Y-166532228D01*
X158964180Y-166532228D02*
X158964180Y-166627466D01*
X158964180Y-166627466D02*
X158916561Y-166770323D01*
X158916561Y-166770323D02*
X158821323Y-166865561D01*
X158821323Y-166865561D02*
X158726085Y-166913180D01*
X158726085Y-166913180D02*
X158535609Y-166960799D01*
X158535609Y-166960799D02*
X158392752Y-166960799D01*
X158392752Y-166960799D02*
X158202276Y-166913180D01*
X158202276Y-166913180D02*
X158107038Y-166865561D01*
X158107038Y-166865561D02*
X158011800Y-166770323D01*
X158011800Y-166770323D02*
X157964180Y-166627466D01*
X157964180Y-166627466D02*
X157964180Y-166532228D01*
X157964180Y-166532228D02*
X158011800Y-166389371D01*
X158011800Y-166389371D02*
X158059419Y-166341752D01*
D13*
X166643800Y-150185400D02*
X167383800Y-150185400D01*
X167383800Y-150185400D02*
X167383800Y-149685400D01*
X157222800Y-149945400D02*
X167143800Y-149945400D01*
X157222800Y-149945400D02*
X157222800Y-134585400D01*
X160182800Y-149945400D02*
X160182800Y-134585400D01*
X165083800Y-149945400D02*
X165083800Y-134585400D01*
X166583800Y-149945400D02*
X166583800Y-134585400D01*
X167143800Y-149945400D02*
X167143800Y-134585400D01*
X163506800Y-143492400D02*
X163552800Y-143539400D01*
X163722800Y-143299400D02*
X163757800Y-143334400D01*
X161208800Y-141195400D02*
X161244800Y-141230400D01*
X161414800Y-140990400D02*
X161460800Y-141037400D01*
X163506800Y-138412400D02*
X163552800Y-138459400D01*
X163722800Y-138219400D02*
X163757800Y-138254400D01*
X161208800Y-136115400D02*
X161244800Y-136150400D01*
X161414800Y-135910400D02*
X161460800Y-135957400D01*
X157222800Y-134585400D02*
X167143800Y-134585400D01*
X161799801Y-148880399D02*
G75*
G03*
X163166842Y-148880826I684000J1534992D01*
G01*
X160948801Y-146661401D02*
G75*
G03*
X160948374Y-148028442I1534992J-684000D01*
G01*
X164018799Y-148029400D02*
G75*
G03*
X164164052Y-147316595I-1535000J683999D01*
G01*
X164163799Y-147345400D02*
G75*
G03*
X164018555Y-146662082I-1679999J0D01*
G01*
X163167800Y-145810400D02*
G75*
G03*
X161800758Y-145809974I-684000J-1535000D01*
G01*
X164163800Y-142265400D02*
G75*
G03*
X164163800Y-142265400I-1680000J0D01*
G01*
X164163800Y-137185400D02*
G75*
G03*
X164163800Y-137185400I-1680000J0D01*
G01*
X133524000Y-185242600D02*
X146344000Y-185242600D01*
X133524000Y-185242600D02*
X133524000Y-176612600D01*
X133644000Y-185242600D02*
X133644000Y-176612600D01*
X133762095Y-185242600D02*
X133762095Y-176612600D01*
X133880190Y-185242600D02*
X133880190Y-176612600D01*
X133998285Y-185242600D02*
X133998285Y-176612600D01*
X134116380Y-185242600D02*
X134116380Y-176612600D01*
X134234475Y-185242600D02*
X134234475Y-176612600D01*
X134352570Y-185242600D02*
X134352570Y-176612600D01*
X134470665Y-185242600D02*
X134470665Y-176612600D01*
X134588760Y-185242600D02*
X134588760Y-176612600D01*
X134706855Y-185242600D02*
X134706855Y-176612600D01*
X134824950Y-185242600D02*
X134824950Y-176612600D01*
X134943045Y-185242600D02*
X134943045Y-176612600D01*
X135061140Y-185242600D02*
X135061140Y-176612600D01*
X135179235Y-185242600D02*
X135179235Y-176612600D01*
X135297330Y-185242600D02*
X135297330Y-176612600D01*
X135415425Y-185242600D02*
X135415425Y-176612600D01*
X135533520Y-185242600D02*
X135533520Y-176612600D01*
X135651615Y-185242600D02*
X135651615Y-176612600D01*
X135769710Y-185242600D02*
X135769710Y-176612600D01*
X135887805Y-185242600D02*
X135887805Y-176612600D01*
X136005900Y-185242600D02*
X136005900Y-176612600D01*
X136124000Y-185242600D02*
X136124000Y-176612600D01*
X138664000Y-185242600D02*
X138664000Y-176612600D01*
X141204000Y-185242600D02*
X141204000Y-176612600D01*
X143744000Y-185242600D02*
X143744000Y-176612600D01*
X146344000Y-185242600D02*
X146344000Y-176612600D01*
X133524000Y-176612600D02*
X146344000Y-176612600D01*
X134494000Y-176612600D02*
X134494000Y-176262600D01*
X135214000Y-176612600D02*
X135214000Y-176262600D01*
X137034000Y-176612600D02*
X137034000Y-176202600D01*
X137754000Y-176612600D02*
X137754000Y-176202600D01*
X139574000Y-176612600D02*
X139574000Y-176202600D01*
X140294000Y-176612600D02*
X140294000Y-176202600D01*
X142114000Y-176612600D02*
X142114000Y-176202600D01*
X142834000Y-176612600D02*
X142834000Y-176202600D01*
X144654000Y-176612600D02*
X144654000Y-176202600D01*
X145374000Y-176612600D02*
X145374000Y-176202600D01*
X133524000Y-175152600D02*
X133524000Y-174042600D01*
X133524000Y-174042600D02*
X134854000Y-174042600D01*
X132308700Y-163347100D02*
X130508700Y-163347100D01*
X132308700Y-163347100D02*
X133108700Y-163347100D01*
X132308700Y-166467100D02*
X131508700Y-166467100D01*
X132308700Y-166467100D02*
X133108700Y-166467100D01*
X151345020Y-157071600D02*
X151626180Y-157071600D01*
X151345020Y-158091600D02*
X151626180Y-158091600D01*
X106832000Y-158954800D02*
X106832000Y-169234800D01*
X106832000Y-158954800D02*
X115462000Y-158954800D01*
X106832000Y-159074800D02*
X115462000Y-159074800D01*
X106832000Y-159192895D02*
X115462000Y-159192895D01*
X106832000Y-159310990D02*
X115462000Y-159310990D01*
X106832000Y-159429085D02*
X115462000Y-159429085D01*
X106832000Y-159547180D02*
X115462000Y-159547180D01*
X106832000Y-159665275D02*
X115462000Y-159665275D01*
X106832000Y-159783370D02*
X115462000Y-159783370D01*
X106832000Y-159901465D02*
X115462000Y-159901465D01*
X106832000Y-160019560D02*
X115462000Y-160019560D01*
X106832000Y-160137655D02*
X115462000Y-160137655D01*
X106832000Y-160255750D02*
X115462000Y-160255750D01*
X106832000Y-160373845D02*
X115462000Y-160373845D01*
X106832000Y-160491940D02*
X115462000Y-160491940D01*
X106832000Y-160610035D02*
X115462000Y-160610035D01*
X106832000Y-160728130D02*
X115462000Y-160728130D01*
X106832000Y-160846225D02*
X115462000Y-160846225D01*
X106832000Y-160964320D02*
X115462000Y-160964320D01*
X106832000Y-161082415D02*
X115462000Y-161082415D01*
X106832000Y-161200510D02*
X115462000Y-161200510D01*
X106832000Y-161318605D02*
X115462000Y-161318605D01*
X106832000Y-161436700D02*
X115462000Y-161436700D01*
X106832000Y-161554800D02*
X115462000Y-161554800D01*
X106832000Y-164094800D02*
X115462000Y-164094800D01*
X106832000Y-166634800D02*
X115462000Y-166634800D01*
X106832000Y-169234800D02*
X115462000Y-169234800D01*
X115462000Y-158954800D02*
X115462000Y-169234800D01*
X115462000Y-159924800D02*
X115812000Y-159924800D01*
X115462000Y-160644800D02*
X115812000Y-160644800D01*
X115462000Y-162464800D02*
X115872000Y-162464800D01*
X115462000Y-163184800D02*
X115872000Y-163184800D01*
X115462000Y-165004800D02*
X115872000Y-165004800D01*
X115462000Y-165724800D02*
X115872000Y-165724800D01*
X115462000Y-167544800D02*
X115872000Y-167544800D01*
X115462000Y-168264800D02*
X115872000Y-168264800D01*
X116922000Y-158954800D02*
X118032000Y-158954800D01*
X118032000Y-158954800D02*
X118032000Y-160284800D01*
X131609320Y-161806300D02*
X131890480Y-161806300D01*
X131609320Y-162826300D02*
X131890480Y-162826300D01*
X161995800Y-165498400D02*
X164595800Y-165498400D01*
X161995800Y-165498400D02*
X161995800Y-162838400D01*
X164595800Y-165498400D02*
X164595800Y-162838400D01*
X159395800Y-164168400D02*
X159395800Y-162838400D01*
X159395800Y-162838400D02*
X160725800Y-162838400D01*
X161995800Y-162838400D02*
X164595800Y-162838400D01*
X120843800Y-156057800D02*
X122843800Y-156057800D01*
X120843800Y-156057800D02*
X120843800Y-152197800D01*
X122843800Y-156057800D02*
X122843800Y-152197800D01*
X137158759Y-163881800D02*
X137466041Y-163881800D01*
X137158759Y-164641800D02*
X137466041Y-164641800D01*
X137764400Y-166786000D02*
X137764400Y-167986000D01*
X139184400Y-167386000D02*
X139184400Y-167986000D01*
X122856200Y-163427200D02*
X122856200Y-162677200D01*
X123606200Y-157207200D02*
X122856200Y-157207200D01*
X123606200Y-163427200D02*
X122856200Y-163427200D01*
X128326200Y-157207200D02*
X129076200Y-157207200D01*
X128326200Y-163427200D02*
X129076200Y-163427200D01*
X129076200Y-157207200D02*
X129076200Y-157957200D01*
X129076200Y-163427200D02*
X129076200Y-162677200D01*
X155514600Y-143230000D02*
X155514600Y-138710000D01*
X155514600Y-138710000D02*
X147454600Y-138710000D01*
X147454600Y-143230000D02*
X155514600Y-143230000D01*
X161995800Y-154644800D02*
X164595800Y-154644800D01*
X161995800Y-154644800D02*
X161995800Y-151984800D01*
X164595800Y-154644800D02*
X164595800Y-151984800D01*
X159395800Y-153314800D02*
X159395800Y-151984800D01*
X159395800Y-151984800D02*
X160725800Y-151984800D01*
X161995800Y-151984800D02*
X164595800Y-151984800D01*
X148040800Y-160018800D02*
X149240800Y-160018800D01*
X148640800Y-158598800D02*
X149240800Y-158598800D01*
D14*
X144539800Y-160523606D02*
G75*
G03*
X144539800Y-160523606I-50000J0D01*
G01*
X136272400Y-165328600D02*
G75*
G03*
X136272400Y-165328600I-50000J0D01*
G01*
D13*
X155932136Y-159234200D02*
X156386264Y-159234200D01*
X155932136Y-160704200D02*
X156386264Y-160704200D01*
X155489200Y-148233800D02*
X155489200Y-143713800D01*
X155489200Y-143713800D02*
X147429200Y-143713800D01*
X147429200Y-148233800D02*
X155489200Y-148233800D01*
X155932136Y-162790200D02*
X156386264Y-162790200D01*
X155932136Y-164260200D02*
X156386264Y-164260200D01*
X148146380Y-158091600D02*
X147865220Y-158091600D01*
X148146380Y-157071600D02*
X147865220Y-157071600D01*
X144636600Y-155907600D02*
X148936600Y-155907600D01*
X144636600Y-155907600D02*
X144636600Y-150097600D01*
X148936600Y-155907600D02*
X148936600Y-150097600D01*
X161995800Y-161883800D02*
X164595800Y-161883800D01*
X161995800Y-161883800D02*
X161995800Y-159223800D01*
X164595800Y-161883800D02*
X164595800Y-159223800D01*
X159395800Y-160553800D02*
X159395800Y-159223800D01*
X159395800Y-159223800D02*
X160725800Y-159223800D01*
X161995800Y-159223800D02*
X164595800Y-159223800D01*
X138011780Y-169851800D02*
X137730620Y-169851800D01*
X138011780Y-168831800D02*
X137730620Y-168831800D01*
X147347000Y-185287600D02*
X157627000Y-185287600D01*
X147347000Y-185287600D02*
X147347000Y-176657600D01*
X147467000Y-185287600D02*
X147467000Y-176657600D01*
X147585095Y-185287600D02*
X147585095Y-176657600D01*
X147703190Y-185287600D02*
X147703190Y-176657600D01*
X147821285Y-185287600D02*
X147821285Y-176657600D01*
X147939380Y-185287600D02*
X147939380Y-176657600D01*
X148057475Y-185287600D02*
X148057475Y-176657600D01*
X148175570Y-185287600D02*
X148175570Y-176657600D01*
X148293665Y-185287600D02*
X148293665Y-176657600D01*
X148411760Y-185287600D02*
X148411760Y-176657600D01*
X148529855Y-185287600D02*
X148529855Y-176657600D01*
X148647950Y-185287600D02*
X148647950Y-176657600D01*
X148766045Y-185287600D02*
X148766045Y-176657600D01*
X148884140Y-185287600D02*
X148884140Y-176657600D01*
X149002235Y-185287600D02*
X149002235Y-176657600D01*
X149120330Y-185287600D02*
X149120330Y-176657600D01*
X149238425Y-185287600D02*
X149238425Y-176657600D01*
X149356520Y-185287600D02*
X149356520Y-176657600D01*
X149474615Y-185287600D02*
X149474615Y-176657600D01*
X149592710Y-185287600D02*
X149592710Y-176657600D01*
X149710805Y-185287600D02*
X149710805Y-176657600D01*
X149828900Y-185287600D02*
X149828900Y-176657600D01*
X149947000Y-185287600D02*
X149947000Y-176657600D01*
X152487000Y-185287600D02*
X152487000Y-176657600D01*
X155027000Y-185287600D02*
X155027000Y-176657600D01*
X157627000Y-185287600D02*
X157627000Y-176657600D01*
X147347000Y-176657600D02*
X157627000Y-176657600D01*
X148317000Y-176657600D02*
X148317000Y-176247600D01*
X149037000Y-176657600D02*
X149037000Y-176247600D01*
X150857000Y-176657600D02*
X150857000Y-176247600D01*
X151577000Y-176657600D02*
X151577000Y-176247600D01*
X153397000Y-176657600D02*
X153397000Y-176247600D01*
X154117000Y-176657600D02*
X154117000Y-176247600D01*
X155937000Y-176657600D02*
X155937000Y-176247600D01*
X156657000Y-176657600D02*
X156657000Y-176247600D01*
X148317000Y-174147600D02*
X148317000Y-173767600D01*
X149037000Y-174147600D02*
X149037000Y-173767600D01*
X150857000Y-174147600D02*
X150857000Y-173707600D01*
X151577000Y-174147600D02*
X151577000Y-173707600D01*
X153397000Y-174147600D02*
X153397000Y-173707600D01*
X154117000Y-174147600D02*
X154117000Y-173707600D01*
X155937000Y-174147600D02*
X155937000Y-173707600D01*
X156657000Y-174147600D02*
X156657000Y-173707600D01*
X147347000Y-172657600D02*
X147347000Y-171547600D01*
X147347000Y-171547600D02*
X148677000Y-171547600D01*
X145426159Y-161286606D02*
X145733441Y-161286606D01*
X145426159Y-162046606D02*
X145733441Y-162046606D01*
D14*
X152143000Y-156108400D02*
G75*
G03*
X152143000Y-156108400I-50000J0D01*
G01*
D13*
X120688980Y-168353200D02*
X120407820Y-168353200D01*
X120688980Y-167333200D02*
X120407820Y-167333200D01*
X145150621Y-170279600D02*
X145476179Y-170279600D01*
X145150621Y-171299600D02*
X145476179Y-171299600D01*
X124968000Y-171028800D02*
X126643000Y-171028800D01*
X124968000Y-171028800D02*
X124318000Y-171028800D01*
X124968000Y-167908800D02*
X125618000Y-167908800D01*
X124968000Y-167908800D02*
X124318000Y-167908800D01*
X156796200Y-168315421D02*
X156796200Y-168640979D01*
X155776200Y-168315421D02*
X155776200Y-168640979D01*
D15*
X130581400Y-138760200D02*
X130581400Y-144409160D01*
X130581400Y-146573240D02*
X130581400Y-152222200D01*
X130581400Y-152222200D02*
X144043400Y-152222200D01*
X144043400Y-138760200D02*
X130581400Y-138760200D01*
X144043400Y-144409160D02*
X144043400Y-138760200D01*
X144043400Y-152222200D02*
X144043400Y-146573240D01*
D13*
X155937164Y-155398800D02*
X156391292Y-155398800D01*
X155937164Y-156868800D02*
X156391292Y-156868800D01*
X161995800Y-158251600D02*
X164595800Y-158251600D01*
X161995800Y-158251600D02*
X161995800Y-155591600D01*
X164595800Y-158251600D02*
X164595800Y-155591600D01*
X159395800Y-156921600D02*
X159395800Y-155591600D01*
X159395800Y-155591600D02*
X160725800Y-155591600D01*
X161995800Y-155591600D02*
X164595800Y-155591600D01*
X113873600Y-134289600D02*
X113133600Y-134289600D01*
X113133600Y-134289600D02*
X113133600Y-134789600D01*
X123294600Y-134529600D02*
X113373600Y-134529600D01*
X123294600Y-134529600D02*
X123294600Y-149889600D01*
X120334600Y-134529600D02*
X120334600Y-149889600D01*
X115433600Y-134529600D02*
X115433600Y-149889600D01*
X113933600Y-134529600D02*
X113933600Y-149889600D01*
X113373600Y-134529600D02*
X113373600Y-149889600D01*
X117010600Y-140982600D02*
X116964600Y-140935600D01*
X116794600Y-141175600D02*
X116759600Y-141140600D01*
X119308600Y-143279600D02*
X119272600Y-143244600D01*
X119102600Y-143484600D02*
X119056600Y-143437600D01*
X117010600Y-146062600D02*
X116964600Y-146015600D01*
X116794600Y-146255600D02*
X116759600Y-146220600D01*
X119308600Y-148359600D02*
X119272600Y-148324600D01*
X119102600Y-148564600D02*
X119056600Y-148517600D01*
X123294600Y-149889600D02*
X113373600Y-149889600D01*
X118717599Y-135594601D02*
G75*
G03*
X117350558Y-135594174I-684000J-1534992D01*
G01*
X119568599Y-137813599D02*
G75*
G03*
X119569026Y-136446558I-1534992J684000D01*
G01*
X116498601Y-136445600D02*
G75*
G03*
X116353348Y-137158405I1535000J-683999D01*
G01*
X116353601Y-137129600D02*
G75*
G03*
X116498845Y-137812918I1679999J0D01*
G01*
X117349600Y-138664600D02*
G75*
G03*
X118716642Y-138665026I684000J1535000D01*
G01*
X119713600Y-142209600D02*
G75*
G03*
X119713600Y-142209600I-1680000J0D01*
G01*
X119713600Y-147289600D02*
G75*
G03*
X119713600Y-147289600I-1680000J0D01*
G01*
D14*
X117197000Y-154305000D02*
G75*
G03*
X117197000Y-154305000I-50000J0D01*
G01*
D13*
X145186980Y-159662006D02*
X144905820Y-159662006D01*
X145186980Y-158642006D02*
X144905820Y-158642006D01*
X153109959Y-155728400D02*
X153417241Y-155728400D01*
X153109959Y-156488400D02*
X153417241Y-156488400D01*
D15*
X155981001Y-153594801D02*
X155981001Y-150290799D01*
X155981001Y-150290799D02*
X154381001Y-148765799D01*
X154381001Y-155119801D02*
X155981001Y-153594801D01*
X154381001Y-148765799D02*
X150926999Y-148765799D01*
X150926999Y-155119801D02*
X154381001Y-155119801D01*
X150926999Y-148765799D02*
X149326999Y-150290799D01*
X149326999Y-153594801D02*
X150926999Y-155119801D01*
X149326999Y-150290799D02*
X149326999Y-153594801D01*
D13*
X138656600Y-164681780D02*
X138656600Y-164400620D01*
X139676600Y-164681780D02*
X139676600Y-164400620D01*
G36*
X147704092Y-165239160D02*
G01*
X147761095Y-165258594D01*
X147839608Y-165288376D01*
X147908046Y-165315626D01*
X147991048Y-165348926D01*
X148053310Y-165374516D01*
X148097093Y-165394979D01*
X148124655Y-165412899D01*
X148138258Y-165430858D01*
X148140161Y-165451441D01*
X148132626Y-165477229D01*
X148117911Y-165510807D01*
X148104583Y-165540253D01*
X148081969Y-165583995D01*
X148062281Y-165605193D01*
X148051383Y-165608026D01*
X148032817Y-165603074D01*
X147995157Y-165589993D01*
X147942574Y-165570338D01*
X147879235Y-165545664D01*
X147815170Y-165519917D01*
X147746398Y-165491516D01*
X147685517Y-165465677D01*
X147636469Y-165444127D01*
X147603197Y-165428597D01*
X147589855Y-165421062D01*
X147588059Y-165404242D01*
X147594166Y-165371751D01*
X147605800Y-165330923D01*
X147620583Y-165289092D01*
X147636141Y-165253595D01*
X147650096Y-165231766D01*
X147651633Y-165230345D01*
X147667853Y-165229827D01*
X147704092Y-165239160D01*
G37*
G36*
X147566471Y-163612917D02*
G01*
X147601164Y-163623956D01*
X147650075Y-163641576D01*
X147708862Y-163664009D01*
X147773179Y-163689489D01*
X147838682Y-163716248D01*
X147901025Y-163742520D01*
X147955866Y-163766536D01*
X147998859Y-163786530D01*
X148025658Y-163800735D01*
X148032470Y-163806324D01*
X148030372Y-163824087D01*
X148020569Y-163858192D01*
X148005085Y-163901739D01*
X148002531Y-163908319D01*
X147979216Y-163960941D01*
X147959941Y-163989402D01*
X147947906Y-163995278D01*
X147930353Y-163990341D01*
X147893514Y-163977292D01*
X147841393Y-163957640D01*
X147777992Y-163932895D01*
X147707316Y-163904569D01*
X147704928Y-163903599D01*
X147634921Y-163874918D01*
X147573034Y-163849088D01*
X147523035Y-163827720D01*
X147488693Y-163812426D01*
X147473774Y-163804817D01*
X147473601Y-163804662D01*
X147473617Y-163789436D01*
X147481967Y-163758503D01*
X147495917Y-163718793D01*
X147512730Y-163677236D01*
X147529673Y-163640762D01*
X147544009Y-163616301D01*
X147550344Y-163610225D01*
X147566471Y-163612917D01*
G37*
G36*
X148648543Y-164276763D02*
G01*
X148688365Y-164290972D01*
X148729718Y-164308557D01*
X148765791Y-164326675D01*
X148789775Y-164342482D01*
X148795723Y-164351244D01*
X148790338Y-164372351D01*
X148777257Y-164410696D01*
X148758195Y-164462079D01*
X148734865Y-164522299D01*
X148708979Y-164587157D01*
X148682251Y-164652451D01*
X148656394Y-164713982D01*
X148633121Y-164767550D01*
X148614146Y-164808955D01*
X148601181Y-164833995D01*
X148596555Y-164839536D01*
X148578800Y-164834392D01*
X148545154Y-164821883D01*
X148502832Y-164804694D01*
X148501977Y-164804334D01*
X148460911Y-164785390D01*
X148430212Y-164768172D01*
X148416340Y-164756314D01*
X148416246Y-164756065D01*
X148419286Y-164740920D01*
X148430089Y-164706796D01*
X148446993Y-164658081D01*
X148468330Y-164599164D01*
X148492435Y-164534433D01*
X148517645Y-164468276D01*
X148542293Y-164405082D01*
X148564714Y-164349239D01*
X148583244Y-164305136D01*
X148596217Y-164277162D01*
X148600736Y-164269845D01*
X148617064Y-164268773D01*
X148648543Y-164276763D01*
G37*
G36*
X147021904Y-164398647D02*
G01*
X147055173Y-164407668D01*
X147098691Y-164423165D01*
X147110718Y-164427957D01*
X147157275Y-164447728D01*
X147184347Y-164462177D01*
X147196154Y-164474519D01*
X147196921Y-164487969D01*
X147195652Y-164492626D01*
X147188538Y-164512435D01*
X147173786Y-164551500D01*
X147153002Y-164605633D01*
X147127793Y-164670650D01*
X147099768Y-164742364D01*
X147099546Y-164742928D01*
X147066267Y-164826207D01*
X147040118Y-164887855D01*
X147020028Y-164930067D01*
X147004925Y-164955039D01*
X146993740Y-164964968D01*
X146991060Y-164965346D01*
X146969220Y-164960130D01*
X146932454Y-164947693D01*
X146891563Y-164931861D01*
X146851887Y-164913721D01*
X146823575Y-164897183D01*
X146812759Y-164885833D01*
X146817192Y-164868496D01*
X146829403Y-164832712D01*
X146847676Y-164782832D01*
X146870292Y-164723207D01*
X146895535Y-164658188D01*
X146921688Y-164592127D01*
X146947033Y-164529376D01*
X146969854Y-164474285D01*
X146988432Y-164431207D01*
X147001052Y-164404492D01*
X147005297Y-164397927D01*
X147021904Y-164398647D01*
G37*
G36*
X148356622Y-166521512D02*
G01*
X148540136Y-166521512D01*
X148541473Y-166583285D01*
X148544588Y-166611016D01*
X148561012Y-166664145D01*
X148589597Y-166703577D01*
X148625931Y-166726849D01*
X148665601Y-166731498D01*
X148704193Y-166715062D01*
X148714633Y-166705919D01*
X148739371Y-166666400D01*
X148755702Y-166610296D01*
X148763152Y-166544940D01*
X148761251Y-166477666D01*
X148749523Y-166415804D01*
X148735626Y-166380439D01*
X148705442Y-166345577D01*
X148665244Y-166329212D01*
X148622340Y-166331755D01*
X148584040Y-166353614D01*
X148569413Y-166371126D01*
X148554954Y-166407237D01*
X148544913Y-166460098D01*
X148540136Y-166521512D01*
X148356622Y-166521512D01*
X148361584Y-166429337D01*
X148377310Y-166354126D01*
X148405599Y-166291360D01*
X148448309Y-166235464D01*
X148454326Y-166229125D01*
X148511968Y-166186602D01*
X148581037Y-166162168D01*
X148655796Y-166155458D01*
X148730511Y-166166110D01*
X148799447Y-166193758D01*
X148856868Y-166238041D01*
X148871811Y-166255582D01*
X148912963Y-166328136D01*
X148939703Y-166415825D01*
X148950839Y-166512334D01*
X148945181Y-166611347D01*
X148942254Y-166629124D01*
X148916378Y-166724013D01*
X148876894Y-166798036D01*
X148823319Y-166851836D01*
X148755171Y-166886057D01*
X148748003Y-166888289D01*
X148679717Y-166903254D01*
X148618198Y-166902910D01*
X148550785Y-166887392D01*
X148480935Y-166854400D01*
X148426871Y-166803045D01*
X148388312Y-166732805D01*
X148364980Y-166643154D01*
X148356596Y-166533568D01*
X148356565Y-166522566D01*
X148356622Y-166521512D01*
G37*
G36*
X149730474Y-166502852D02*
G01*
X149914049Y-166502852D01*
X149914131Y-166564958D01*
X149922787Y-166623971D01*
X149940325Y-166674432D01*
X149967053Y-166710885D01*
X149971738Y-166714704D01*
X150009264Y-166728993D01*
X150051922Y-166725897D01*
X150087524Y-166706339D01*
X150087947Y-166705919D01*
X150113720Y-166665236D01*
X150130613Y-166606945D01*
X150137145Y-166537525D01*
X150135772Y-166496799D01*
X150123333Y-166420759D01*
X150099874Y-166367364D01*
X150065371Y-166336587D01*
X150019800Y-166328400D01*
X149993302Y-166332657D01*
X149962168Y-166352556D01*
X149938376Y-166391193D01*
X149922234Y-166443111D01*
X149914049Y-166502852D01*
X149730474Y-166502852D01*
X149730969Y-166464083D01*
X149734336Y-166416941D01*
X149741366Y-166379923D01*
X149753186Y-166345512D01*
X149759915Y-166329880D01*
X149804609Y-166257814D01*
X149863484Y-166203967D01*
X149932516Y-166169139D01*
X150007679Y-166154127D01*
X150084950Y-166159732D01*
X150160302Y-166186750D01*
X150229713Y-166235982D01*
X150230316Y-166236545D01*
X150267405Y-166285820D01*
X150296177Y-166353247D01*
X150315319Y-166432775D01*
X150323516Y-166518350D01*
X150319454Y-166603920D01*
X150315568Y-166629124D01*
X150289692Y-166724013D01*
X150250207Y-166798036D01*
X150196632Y-166851836D01*
X150128484Y-166886057D01*
X150121316Y-166888289D01*
X150052871Y-166903271D01*
X149991335Y-166902884D01*
X149924822Y-166887449D01*
X149861773Y-166858035D01*
X149810931Y-166811258D01*
X149768702Y-166743660D01*
X149762928Y-166731594D01*
X149747656Y-166695537D01*
X149737975Y-166661972D01*
X149732655Y-166623299D01*
X149730466Y-166571917D01*
X149730142Y-166528866D01*
X149730474Y-166502852D01*
G37*
G36*
X147113402Y-166374979D02*
G01*
X147139773Y-166386249D01*
X147151709Y-166398163D01*
X147173407Y-166424951D01*
X147209122Y-166398935D01*
X147254992Y-166379227D01*
X147312622Y-166374088D01*
X147373224Y-166383495D01*
X147413992Y-166399384D01*
X147450486Y-166425161D01*
X147486913Y-166461446D01*
X147499475Y-166477480D01*
X147514607Y-166499638D01*
X147525042Y-166519293D01*
X147531652Y-166541641D01*
X147535311Y-166571873D01*
X147536890Y-166615183D01*
X147537265Y-166676764D01*
X147537272Y-166702303D01*
X147537272Y-166873663D01*
X147496325Y-166884313D01*
X147453518Y-166888725D01*
X147414430Y-166884398D01*
X147373483Y-166873832D01*
X147367183Y-166731720D01*
X147364007Y-166669244D01*
X147360319Y-166626838D01*
X147355008Y-166599379D01*
X147346963Y-166581748D01*
X147335073Y-166568821D01*
X147331139Y-166565537D01*
X147288380Y-166544299D01*
X147243322Y-166543346D01*
X147203832Y-166562163D01*
X147191708Y-166574662D01*
X147179262Y-166593970D01*
X147171460Y-166617530D01*
X147167286Y-166651426D01*
X147165720Y-166701738D01*
X147165596Y-166730610D01*
X147164267Y-166795862D01*
X147160044Y-166838934D01*
X147152567Y-166862717D01*
X147148646Y-166867427D01*
X147118007Y-166881399D01*
X147074986Y-166888271D01*
X147031853Y-166886160D01*
X147029475Y-166885696D01*
X147002607Y-166869382D01*
X146987718Y-166846231D01*
X146982839Y-166820260D01*
X146979671Y-166776164D01*
X146978100Y-166719101D01*
X146978007Y-166654231D01*
X146979277Y-166586713D01*
X146981793Y-166521705D01*
X146985437Y-166464367D01*
X146990093Y-166419857D01*
X146995645Y-166393334D01*
X146998064Y-166388943D01*
X147019153Y-166379559D01*
X147054645Y-166373548D01*
X147071616Y-166372598D01*
X147113402Y-166374979D01*
G37*
G36*
X149413330Y-166371598D02*
G01*
X149473380Y-166372509D01*
X149515946Y-166374478D01*
X149544882Y-166377872D01*
X149564044Y-166383060D01*
X149577288Y-166390410D01*
X149583303Y-166395377D01*
X149604183Y-166427443D01*
X149609842Y-166454958D01*
X149606735Y-166472582D01*
X149595492Y-166492559D01*
X149573232Y-166518196D01*
X149537073Y-166552801D01*
X149484132Y-166599681D01*
X149482561Y-166601046D01*
X149355280Y-166711554D01*
X149473112Y-166717854D01*
X149526403Y-166721657D01*
X149570860Y-166726589D01*
X149599947Y-166731845D01*
X149606692Y-166734347D01*
X149616385Y-166752827D01*
X149621833Y-166788397D01*
X149622441Y-166807104D01*
X149620911Y-166845511D01*
X149614051Y-166866681D01*
X149598456Y-166878500D01*
X149590123Y-166881956D01*
X149564605Y-166886660D01*
X149519716Y-166890090D01*
X149460711Y-166892280D01*
X149392843Y-166893263D01*
X149321365Y-166893073D01*
X149251532Y-166891746D01*
X149188597Y-166889314D01*
X149137815Y-166885813D01*
X149104439Y-166881276D01*
X149096150Y-166878744D01*
X149068483Y-166852585D01*
X149056806Y-166812834D01*
X149060512Y-166777700D01*
X149073545Y-166758302D01*
X149103685Y-166726900D01*
X149147714Y-166686384D01*
X149202414Y-166639645D01*
X149264566Y-166589573D01*
X149302944Y-166560003D01*
X149311908Y-166551254D01*
X149308044Y-166545902D01*
X149287710Y-166543103D01*
X149247268Y-166542013D01*
X149224824Y-166541866D01*
X149160160Y-166539500D01*
X149116715Y-166531522D01*
X149090736Y-166515700D01*
X149078473Y-166489806D01*
X149076118Y-166453491D01*
X149080351Y-166416924D01*
X149089203Y-166390409D01*
X149092303Y-166386196D01*
X149109267Y-166380090D01*
X149147075Y-166375657D01*
X149206992Y-166372819D01*
X149290281Y-166371498D01*
X149331939Y-166371376D01*
X149413330Y-166371598D01*
G37*
G36*
X146312558Y-166589276D02*
G01*
X146503355Y-166589276D01*
X146504172Y-166591918D01*
X146521883Y-166600454D01*
X146555506Y-166604132D01*
X146596286Y-166603253D01*
X146635468Y-166598113D01*
X146664299Y-166589013D01*
X146668669Y-166586300D01*
X146684946Y-166564449D01*
X146679115Y-166543409D01*
X146654098Y-166526896D01*
X146615587Y-166518814D01*
X146574495Y-166520805D01*
X146542301Y-166537556D01*
X146531117Y-166547218D01*
X146510551Y-166570975D01*
X146503355Y-166589276D01*
X146312558Y-166589276D01*
X146312771Y-166578090D01*
X146330893Y-166515617D01*
X146367550Y-166461713D01*
X146375279Y-166453470D01*
X146430252Y-166408010D01*
X146492377Y-166379957D01*
X146567732Y-166367045D01*
X146611231Y-166365560D01*
X146694256Y-166372719D01*
X146759691Y-166395338D01*
X146810931Y-166434925D01*
X146834494Y-166464775D01*
X146857037Y-166514164D01*
X146864345Y-166567426D01*
X146856436Y-166616502D01*
X146834054Y-166652662D01*
X146819294Y-166664505D01*
X146801589Y-166672358D01*
X146775760Y-166677028D01*
X146736629Y-166679317D01*
X146679016Y-166680030D01*
X146657666Y-166680056D01*
X146593280Y-166680569D01*
X146550231Y-166682428D01*
X146524668Y-166686121D01*
X146512745Y-166692133D01*
X146510437Y-166698632D01*
X146521593Y-166718138D01*
X146549721Y-166736861D01*
X146586814Y-166750715D01*
X146622243Y-166755652D01*
X146656707Y-166752763D01*
X146701994Y-166745421D01*
X146725273Y-166740517D01*
X146764015Y-166732476D01*
X146786837Y-166732105D01*
X146802206Y-166740731D01*
X146814428Y-166754512D01*
X146836833Y-166795390D01*
X146835179Y-166831407D01*
X146810347Y-166861295D01*
X146763217Y-166883791D01*
X146716915Y-166894547D01*
X146649433Y-166903507D01*
X146595473Y-166904744D01*
X146544491Y-166897995D01*
X146508530Y-166889356D01*
X146430173Y-166857497D01*
X146371121Y-166809553D01*
X146331736Y-166745956D01*
X146312383Y-166667139D01*
X146311303Y-166655054D01*
X146312558Y-166589276D01*
G37*
G36*
X147672586Y-166629660D02*
G01*
X147858552Y-166629660D01*
X147869183Y-166670756D01*
X147896728Y-166700111D01*
X147934670Y-166715242D01*
X147976489Y-166713672D01*
X148015666Y-166692919D01*
X148018380Y-166690459D01*
X148043072Y-166653480D01*
X148043191Y-166613922D01*
X148018780Y-166574603D01*
X148016615Y-166572391D01*
X147978263Y-166548266D01*
X147936927Y-166543835D01*
X147898969Y-166556792D01*
X147870751Y-166584832D01*
X147858635Y-166625651D01*
X147858552Y-166629660D01*
X147672586Y-166629660D01*
X147671867Y-166597881D01*
X147692813Y-166527541D01*
X147735291Y-166464321D01*
X147788249Y-166418623D01*
X147830584Y-166393311D01*
X147868315Y-166381084D01*
X147915130Y-166377692D01*
X147920168Y-166377676D01*
X147974371Y-166381904D01*
X148013362Y-166393593D01*
X148019538Y-166397289D01*
X148047540Y-166416902D01*
X148047540Y-166299299D01*
X148049344Y-166229164D01*
X148056071Y-166180418D01*
X148069699Y-166149423D01*
X148092202Y-166132541D01*
X148125557Y-166126136D01*
X148141849Y-166125691D01*
X148168570Y-166125932D01*
X148189723Y-166128409D01*
X148205958Y-166135759D01*
X148217926Y-166150617D01*
X148226276Y-166175619D01*
X148231659Y-166213400D01*
X148234727Y-166266596D01*
X148236128Y-166337841D01*
X148236514Y-166429773D01*
X148236528Y-166509324D01*
X148236512Y-166616521D01*
X148236008Y-166701177D01*
X148234332Y-166765950D01*
X148230799Y-166813498D01*
X148224725Y-166846478D01*
X148215426Y-166867547D01*
X148202218Y-166879364D01*
X148184416Y-166884585D01*
X148161337Y-166885867D01*
X148139579Y-166885844D01*
X148095275Y-166881646D01*
X148069215Y-166867884D01*
X148065049Y-166862975D01*
X148048747Y-166847789D01*
X148031810Y-166853877D01*
X148029392Y-166855822D01*
X147992081Y-166874224D01*
X147940895Y-166883518D01*
X147886052Y-166881983D01*
X147879853Y-166881014D01*
X147819481Y-166859722D01*
X147761460Y-166820231D01*
X147714106Y-166768827D01*
X147698879Y-166744221D01*
X147673530Y-166671416D01*
X147672586Y-166629660D01*
G37*
G36*
X148447884Y-163783539D02*
G01*
X148530734Y-163783539D01*
X148555735Y-163825653D01*
X148564425Y-163834891D01*
X148604029Y-163862083D01*
X148643633Y-163864163D01*
X148683636Y-163841103D01*
X148699549Y-163825159D01*
X148723826Y-163783377D01*
X148722930Y-163740661D01*
X148698393Y-163698947D01*
X148659563Y-163670156D01*
X148616301Y-163664353D01*
X148574498Y-163681538D01*
X148555814Y-163698947D01*
X148530785Y-163741694D01*
X148530734Y-163783539D01*
X148447884Y-163783539D01*
X148443947Y-163746710D01*
X148459557Y-163682835D01*
X148498166Y-163628663D01*
X148506568Y-163620880D01*
X148564364Y-163584162D01*
X148625600Y-163572405D01*
X148690125Y-163585626D01*
X148711638Y-163595234D01*
X148767782Y-163634338D01*
X148801414Y-163684446D01*
X148813306Y-163746927D01*
X148812327Y-163773728D01*
X148797129Y-163839040D01*
X148762928Y-163888992D01*
X148707360Y-163927032D01*
X148707162Y-163927130D01*
X148656239Y-163952328D01*
X148493631Y-164366279D01*
X148455801Y-164462597D01*
X148420923Y-164551431D01*
X148390061Y-164630070D01*
X148364278Y-164695800D01*
X148344639Y-164745910D01*
X148332206Y-164777688D01*
X148328065Y-164788352D01*
X148337740Y-164796065D01*
X148366211Y-164810569D01*
X148408761Y-164829603D01*
X148447758Y-164845764D01*
X148500328Y-164867418D01*
X148544906Y-164886759D01*
X148575766Y-164901246D01*
X148586156Y-164907153D01*
X148600239Y-164933596D01*
X148596885Y-164977231D01*
X148577154Y-165034815D01*
X148558912Y-165071042D01*
X148541671Y-165088027D01*
X148523608Y-165091226D01*
X148502780Y-165086043D01*
X148463302Y-165072535D01*
X148409655Y-165052370D01*
X148346320Y-165027219D01*
X148295379Y-165006181D01*
X148229141Y-164977555D01*
X148171008Y-164950875D01*
X148125024Y-164928124D01*
X148095237Y-164911282D01*
X148085873Y-164903568D01*
X148083128Y-164896753D01*
X148082173Y-164887695D01*
X148083734Y-164874352D01*
X148088534Y-164854679D01*
X148097297Y-164826633D01*
X148110748Y-164788170D01*
X148129612Y-164737247D01*
X148154612Y-164671820D01*
X148186473Y-164589846D01*
X148225920Y-164489279D01*
X148273676Y-164368078D01*
X148293209Y-164318575D01*
X148466909Y-163878473D01*
X148451679Y-163819048D01*
X148447884Y-163783539D01*
G37*
G36*
X148403327Y-165443884D02*
G01*
X148539310Y-165443884D01*
X148551288Y-165489423D01*
X148586282Y-165525153D01*
X148595606Y-165530910D01*
X148631906Y-165544594D01*
X148666852Y-165538480D01*
X148681478Y-165531471D01*
X148721485Y-165498541D01*
X148739175Y-165456911D01*
X148733583Y-165411083D01*
X148714384Y-165377738D01*
X148679686Y-165350724D01*
X148638948Y-165343319D01*
X148598446Y-165353151D01*
X148564459Y-165377848D01*
X148543266Y-165415038D01*
X148539310Y-165443884D01*
X148403327Y-165443884D01*
X148394585Y-165439489D01*
X148347525Y-165419641D01*
X148289290Y-165396605D01*
X148226172Y-165371885D01*
X148146491Y-165340614D01*
X148057124Y-165305493D01*
X147964945Y-165269224D01*
X147876831Y-165234510D01*
X147875185Y-165233861D01*
X147620935Y-165133613D01*
X147568455Y-165261125D01*
X147541059Y-165326885D01*
X147519993Y-165372260D01*
X147501966Y-165400153D01*
X147483688Y-165413468D01*
X147461868Y-165415111D01*
X147433217Y-165407984D01*
X147410603Y-165400444D01*
X147370390Y-165384034D01*
X147339989Y-165366613D01*
X147328474Y-165355437D01*
X147327525Y-165338872D01*
X147335048Y-165306569D01*
X147351647Y-165256679D01*
X147377924Y-165187352D01*
X147406625Y-165115907D01*
X147434919Y-165046964D01*
X147459994Y-164986442D01*
X147480292Y-164938060D01*
X147494252Y-164905531D01*
X147500316Y-164892573D01*
X147500341Y-164892544D01*
X147508926Y-164888828D01*
X147525407Y-164889464D01*
X147551673Y-164895102D01*
X147589614Y-164906392D01*
X147641118Y-164923983D01*
X147708074Y-164948526D01*
X147792372Y-164980668D01*
X147895900Y-165021060D01*
X148020548Y-165070352D01*
X148040346Y-165078220D01*
X148518221Y-165268243D01*
X148607310Y-165261005D01*
X148656481Y-165258048D01*
X148689403Y-165259949D01*
X148714795Y-165268190D01*
X148740496Y-165283656D01*
X148790489Y-165330739D01*
X148819180Y-165386803D01*
X148826584Y-165447392D01*
X148812717Y-165508052D01*
X148777593Y-165564326D01*
X148739406Y-165599439D01*
X148695154Y-165620294D01*
X148641370Y-165629507D01*
X148590661Y-165625417D01*
X148576707Y-165620847D01*
X148528735Y-165590525D01*
X148487450Y-165546387D01*
X148462821Y-165500536D01*
X148455710Y-165483203D01*
X148444651Y-165468859D01*
X148425618Y-165455091D01*
X148403327Y-165443884D01*
G37*
G36*
X146121871Y-166169280D02*
G01*
X146154856Y-166183102D01*
X146163481Y-166189783D01*
X146170124Y-166198297D01*
X146175044Y-166211736D01*
X146178499Y-166233193D01*
X146180748Y-166265762D01*
X146182049Y-166312535D01*
X146182662Y-166376606D01*
X146182846Y-166461067D01*
X146182858Y-166517810D01*
X146182345Y-166616898D01*
X146180874Y-166702508D01*
X146178545Y-166771969D01*
X146175459Y-166822614D01*
X146171716Y-166851771D01*
X146170105Y-166856731D01*
X146145964Y-166878085D01*
X146107627Y-166889179D01*
X146064568Y-166888401D01*
X146035889Y-166879552D01*
X146000169Y-166862460D01*
X145993869Y-166667315D01*
X145987570Y-166472170D01*
X145905675Y-166575182D01*
X145867813Y-166620120D01*
X145831653Y-166658365D01*
X145802234Y-166684814D01*
X145789132Y-166693253D01*
X145758015Y-166701077D01*
X145727030Y-166695169D01*
X145692989Y-166673503D01*
X145652705Y-166634055D01*
X145603294Y-166575182D01*
X145521399Y-166472170D01*
X145515100Y-166667113D01*
X145512586Y-166741058D01*
X145510119Y-166793818D01*
X145506978Y-166829398D01*
X145502448Y-166851800D01*
X145495810Y-166865026D01*
X145486348Y-166873080D01*
X145477302Y-166877964D01*
X145443970Y-166890375D01*
X145409521Y-166890621D01*
X145382808Y-166885419D01*
X145366128Y-166880348D01*
X145353080Y-166871962D01*
X145343219Y-166857406D01*
X145336101Y-166833826D01*
X145331283Y-166798365D01*
X145328320Y-166748168D01*
X145326768Y-166680380D01*
X145326183Y-166592146D01*
X145326112Y-166520873D01*
X145326167Y-166423251D01*
X145326504Y-166347751D01*
X145327377Y-166291297D01*
X145329041Y-166250812D01*
X145331752Y-166223221D01*
X145335764Y-166205446D01*
X145341332Y-166194413D01*
X145348712Y-166187044D01*
X145354113Y-166183102D01*
X145398894Y-166165810D01*
X145450474Y-166167324D01*
X145479859Y-166177245D01*
X145497973Y-166191625D01*
X145528113Y-166221814D01*
X145566622Y-166263898D01*
X145609839Y-166313966D01*
X145627118Y-166334735D01*
X145669294Y-166385269D01*
X145706080Y-166428028D01*
X145734446Y-166459589D01*
X145751359Y-166476528D01*
X145754430Y-166478469D01*
X145765179Y-166469269D01*
X145788876Y-166443903D01*
X145822532Y-166405728D01*
X145863160Y-166358099D01*
X145886282Y-166330428D01*
X145930452Y-166278240D01*
X145970404Y-166232952D01*
X146002803Y-166198200D01*
X146024313Y-166177624D01*
X146029853Y-166173824D01*
X146074408Y-166164882D01*
X146121871Y-166169280D01*
G37*
G36*
X146800449Y-163775939D02*
G01*
X146888413Y-163775939D01*
X146898540Y-163824518D01*
X146925214Y-163858747D01*
X146962875Y-163876371D01*
X147005962Y-163875132D01*
X147048915Y-163852774D01*
X147057872Y-163844721D01*
X147076607Y-163811158D01*
X147082044Y-163768006D01*
X147073558Y-163727414D01*
X147064690Y-163712808D01*
X147025655Y-163683788D01*
X146978100Y-163677271D01*
X146951615Y-163683262D01*
X146911482Y-163707474D01*
X146891418Y-163746201D01*
X146888413Y-163775939D01*
X146800449Y-163775939D01*
X146800266Y-163773415D01*
X146809478Y-163723804D01*
X146833078Y-163671936D01*
X146865142Y-163629933D01*
X146874259Y-163622026D01*
X146922882Y-163597817D01*
X146981802Y-163587463D01*
X147038453Y-163592941D01*
X147077202Y-163610775D01*
X147115446Y-163640119D01*
X147146571Y-163674460D01*
X147163963Y-163707287D01*
X147165596Y-163718139D01*
X147173535Y-163744816D01*
X147181345Y-163754321D01*
X147198904Y-163763959D01*
X147235795Y-163780811D01*
X147288750Y-163803586D01*
X147354501Y-163830996D01*
X147429779Y-163861750D01*
X147511317Y-163894559D01*
X147595847Y-163928133D01*
X147680100Y-163961183D01*
X147760809Y-163992419D01*
X147834706Y-164020551D01*
X147898522Y-164044290D01*
X147948990Y-164062346D01*
X147982841Y-164073429D01*
X147996808Y-164076250D01*
X147996913Y-164076165D01*
X148005403Y-164060644D01*
X148020728Y-164027296D01*
X148040388Y-163981698D01*
X148053845Y-163949260D01*
X148075897Y-163898094D01*
X148096518Y-163855116D01*
X148112775Y-163826207D01*
X148119258Y-163818026D01*
X148141263Y-163813192D01*
X148177242Y-163817340D01*
X148218650Y-163828149D01*
X148256942Y-163843295D01*
X148283570Y-163860457D01*
X148286339Y-163863427D01*
X148289740Y-163874558D01*
X148287174Y-163895190D01*
X148277734Y-163928167D01*
X148260510Y-163976331D01*
X148234595Y-164042524D01*
X148208892Y-164105749D01*
X148176511Y-164183984D01*
X148151699Y-164241843D01*
X148132783Y-164282395D01*
X148118094Y-164308707D01*
X148105961Y-164323847D01*
X148094712Y-164330882D01*
X148085270Y-164332734D01*
X148053103Y-164331741D01*
X148034941Y-164327669D01*
X148019371Y-164321350D01*
X147983146Y-164306574D01*
X147928930Y-164284428D01*
X147859387Y-164256003D01*
X147777182Y-164222388D01*
X147684979Y-164184671D01*
X147585442Y-164143941D01*
X147568770Y-164137118D01*
X147121498Y-163954063D01*
X147012297Y-163953195D01*
X146957896Y-163952060D01*
X146921975Y-163948689D01*
X146897830Y-163941564D01*
X146878754Y-163929165D01*
X146869359Y-163920830D01*
X146823903Y-163864701D01*
X146802394Y-163802772D01*
X146800449Y-163775939D01*
G37*
G36*
X146830780Y-165486980D02*
G01*
X146913313Y-165486980D01*
X146928677Y-165526171D01*
X146946809Y-165545213D01*
X146990990Y-165568105D01*
X147034359Y-165565963D01*
X147062794Y-165551156D01*
X147095088Y-165516083D01*
X147107423Y-165474957D01*
X147101600Y-165433832D01*
X147079419Y-165398757D01*
X147042681Y-165375784D01*
X147008918Y-165370140D01*
X146966086Y-165380317D01*
X146934332Y-165407531D01*
X146915970Y-165445259D01*
X146913313Y-165486980D01*
X146830780Y-165486980D01*
X146828441Y-165446839D01*
X146833121Y-165407567D01*
X146842429Y-165379699D01*
X146861198Y-165354310D01*
X146894262Y-165322475D01*
X146897255Y-165319758D01*
X146914393Y-165303823D01*
X146929318Y-165288101D01*
X146943314Y-165269942D01*
X146957667Y-165246695D01*
X146973660Y-165215710D01*
X146992577Y-165174338D01*
X147015703Y-165119929D01*
X147044322Y-165049833D01*
X147079718Y-164961400D01*
X147119627Y-164860924D01*
X147157193Y-164765790D01*
X147191604Y-164677800D01*
X147221787Y-164599765D01*
X147246668Y-164534498D01*
X147265173Y-164484811D01*
X147276228Y-164453514D01*
X147278988Y-164443680D01*
X147268082Y-164432781D01*
X147238504Y-164415073D01*
X147194961Y-164393139D01*
X147149847Y-164372826D01*
X147092378Y-164347524D01*
X147054384Y-164328586D01*
X147031814Y-164313347D01*
X147020616Y-164299142D01*
X147016954Y-164285399D01*
X147019426Y-164250903D01*
X147031314Y-164211025D01*
X147049061Y-164173359D01*
X147069112Y-164145495D01*
X147087387Y-164135017D01*
X147108551Y-164139871D01*
X147147412Y-164153105D01*
X147199235Y-164172727D01*
X147259289Y-164196745D01*
X147322841Y-164223166D01*
X147385157Y-164249997D01*
X147441505Y-164275247D01*
X147487152Y-164296923D01*
X147517366Y-164313033D01*
X147526873Y-164320024D01*
X147531043Y-164325008D01*
X147534163Y-164330016D01*
X147535510Y-164337109D01*
X147534361Y-164348348D01*
X147529993Y-164365791D01*
X147521685Y-164391500D01*
X147508712Y-164427534D01*
X147490354Y-164475954D01*
X147465885Y-164538820D01*
X147434585Y-164618191D01*
X147395731Y-164716129D01*
X147348598Y-164834694D01*
X147329302Y-164883234D01*
X147283725Y-164998005D01*
X147246712Y-165091715D01*
X147217498Y-165166709D01*
X147195316Y-165225331D01*
X147179401Y-165269928D01*
X147168986Y-165302844D01*
X147163305Y-165326426D01*
X147161592Y-165343017D01*
X147163080Y-165354964D01*
X147167003Y-165364612D01*
X147170191Y-165370247D01*
X147188996Y-165424488D01*
X147189740Y-165485757D01*
X147174185Y-165546210D01*
X147144088Y-165598005D01*
X147112650Y-165626701D01*
X147074699Y-165642524D01*
X147025224Y-165652299D01*
X146977589Y-165653946D01*
X146957709Y-165650826D01*
X146899042Y-165623006D01*
X146856687Y-165577521D01*
X146832552Y-165517384D01*
X146830780Y-165486980D01*
G37*
X121698500Y-163176100D02*
X119398500Y-163176100D01*
X119398500Y-163176100D02*
X119398500Y-165876100D01*
X127522900Y-153959700D02*
X127522900Y-155759700D01*
X127522900Y-153959700D02*
X127522900Y-153159700D01*
X130642900Y-153959700D02*
X130642900Y-154759700D01*
X130642900Y-153959700D02*
X130642900Y-153159700D01*
X124240000Y-172249200D02*
X124660000Y-172249200D01*
X124240000Y-174229200D02*
X124240000Y-172249200D01*
X124240000Y-176599200D02*
X124240000Y-176199200D01*
X126240000Y-172019200D02*
X126240000Y-171569200D01*
X126690000Y-171569200D02*
X126240000Y-171569200D01*
X131760000Y-172249200D02*
X131340000Y-172249200D01*
X131760000Y-174229200D02*
X131760000Y-172249200D01*
X131760000Y-176199200D02*
X131760000Y-176599200D01*
X128691200Y-169240200D02*
X128691200Y-170915200D01*
X128691200Y-169240200D02*
X128691200Y-168590200D01*
X131811200Y-169240200D02*
X131811200Y-169890200D01*
X131811200Y-169240200D02*
X131811200Y-168590200D01*
X145453980Y-172849000D02*
X145172820Y-172849000D01*
X145453980Y-171829000D02*
X145172820Y-171829000D01*
X144239100Y-158082900D02*
X143451600Y-158082900D01*
X143845350Y-158476650D02*
X143845350Y-157689150D01*
X143211600Y-158580963D02*
X143211600Y-157295400D01*
X143211600Y-158580963D02*
X142147163Y-159645400D01*
X143211600Y-153889837D02*
X143211600Y-155175400D01*
X143211600Y-153889837D02*
X142147163Y-152825400D01*
X142147163Y-159645400D02*
X136391600Y-159645400D01*
X142147163Y-152825400D02*
X136391600Y-152825400D01*
X136391600Y-159645400D02*
X136391600Y-157295400D01*
X136391600Y-152825400D02*
X136391600Y-155175400D01*
X161995800Y-169122800D02*
X164595800Y-169122800D01*
X161995800Y-169122800D02*
X161995800Y-166462800D01*
X164595800Y-169122800D02*
X164595800Y-166462800D01*
X159395800Y-167792800D02*
X159395800Y-166462800D01*
X159395800Y-166462800D02*
X160725800Y-166462800D01*
X161995800Y-166462800D02*
X164595800Y-166462800D01*
X118860180Y-157761400D02*
X118579020Y-157761400D01*
X118860180Y-156741400D02*
X118579020Y-156741400D01*
D16*
X130300400Y-127248000D02*
X130300400Y-128048000D01*
X130300400Y-132098000D02*
X130300400Y-138248000D01*
X130300400Y-138248000D02*
X156700400Y-138248000D01*
X156700400Y-127248000D02*
X130300400Y-127248000D01*
X156700400Y-127248000D02*
X156700400Y-128048000D01*
X156700400Y-132098000D02*
X156700400Y-138248000D01*
D17*
X129450400Y-130048000D02*
G75*
G03*
X129450400Y-130048000I-100000J0D01*
G01*
D10*
X130347600Y-133103400D02*
X123347600Y-133103400D01*
X130347600Y-133103400D02*
X130347600Y-149903400D01*
X123347600Y-133103400D02*
X123347600Y-149903400D01*
X130347600Y-149903400D02*
X123347600Y-149903400D01*
%LPC*%
D18*
X120769493Y-142196706D02*
X125204106Y-137762093D01*
X118033600Y-142209600D02*
X120769493Y-142196706D01*
D19*
X162483799Y-147345399D03*
D20*
X162483800Y-142265400D03*
X162483800Y-137185400D03*
D21*
X140563600Y-171587200D03*
X140563600Y-172227200D03*
D22*
X134853999Y-175152599D03*
D23*
X137393999Y-175152599D03*
X139933999Y-175152599D03*
X142473999Y-175152599D03*
X145013999Y-175152599D03*
D24*
X119380000Y-130810000D03*
D25*
X119380000Y-130810000D03*
D26*
X131171200Y-163957100D03*
X131171200Y-164907100D03*
X131171200Y-165857100D03*
X133446200Y-165857100D03*
X133446200Y-163957100D03*
D27*
X150710600Y-157581600D03*
X152260600Y-157581600D03*
D22*
X116921999Y-160284799D03*
D23*
X116921999Y-162824799D03*
X116921999Y-165364799D03*
X116921999Y-167904799D03*
D27*
X130974900Y-162316300D03*
X132524900Y-162316300D03*
D28*
X139598400Y-172227200D03*
X139598400Y-171587200D03*
D22*
X160725799Y-164168399D03*
D23*
X163265799Y-164168399D03*
D29*
X130667900Y-161122500D03*
X131307900Y-161122500D03*
D28*
X155168600Y-162016400D03*
X155168600Y-161376400D03*
X155166386Y-165574945D03*
X155166386Y-164934945D03*
D21*
X157149800Y-161376400D03*
X157149800Y-162016400D03*
D30*
X157495200Y-153670000D03*
X156855200Y-153670000D03*
D21*
X154965400Y-168894800D03*
X154965400Y-169534800D03*
X126669800Y-153959600D03*
X126669800Y-154599600D03*
D31*
X121843800Y-155247800D03*
X121843800Y-152447800D03*
D21*
X153974800Y-168894800D03*
X153974800Y-169534800D03*
X125501400Y-153975193D03*
X125501400Y-154615193D03*
D32*
X136802400Y-164261800D03*
X137822400Y-164261800D03*
D21*
X124993400Y-165796000D03*
X124993400Y-166436000D03*
D33*
X138874400Y-166911000D03*
X138474400Y-166911000D03*
X138074400Y-166911000D03*
X138074400Y-167861000D03*
X138474400Y-167861000D03*
X138874400Y-167861000D03*
D34*
X138474399Y-167385999D03*
D35*
X123128700Y-158367200D03*
X123128700Y-159017200D03*
X123128700Y-159667200D03*
X123128700Y-160317200D03*
X123128700Y-160967200D03*
X123128700Y-161617200D03*
X123128700Y-162267200D03*
D36*
X124016200Y-163154700D03*
X124666200Y-163154700D03*
X125316200Y-163154700D03*
X125966200Y-163154700D03*
X126616200Y-163154700D03*
X127266200Y-163154700D03*
X127916200Y-163154700D03*
D35*
X128803700Y-162267200D03*
X128803700Y-161617200D03*
X128803700Y-160967200D03*
X128803700Y-160317200D03*
X128803700Y-159667200D03*
X128803700Y-159017200D03*
X128803700Y-158367200D03*
D36*
X127916200Y-157479700D03*
X127266200Y-157479700D03*
X126616200Y-157479700D03*
X125966200Y-157479700D03*
X125316200Y-157479700D03*
X124666200Y-157479700D03*
X124016200Y-157479700D03*
D37*
X125966199Y-160317199D03*
D38*
X154217100Y-140970000D03*
X147992100Y-140970000D03*
D28*
X155158400Y-158181000D03*
X155158400Y-157541000D03*
D29*
X127721400Y-151155400D03*
X128361400Y-151155400D03*
D22*
X160725799Y-153314799D03*
D23*
X163265799Y-153314799D03*
D39*
X125577600Y-129514600D03*
D40*
X148165800Y-158908800D03*
X148165800Y-159308800D03*
X148165800Y-159708800D03*
X149115800Y-159708800D03*
X149115800Y-159308800D03*
X149115800Y-158908800D03*
D41*
X148640799Y-159308799D03*
D42*
X145094800Y-160523606D03*
X146064800Y-160523606D03*
X136827400Y-165328600D03*
X137797400Y-165328600D03*
D21*
X137388600Y-171587200D03*
X137388600Y-172227200D03*
D24*
X161290000Y-172720000D03*
D25*
X161290000Y-172720000D03*
D28*
X136541600Y-167601200D03*
X136541600Y-166961200D03*
D43*
X155246700Y-159969200D03*
X157071700Y-159969200D03*
D38*
X154191700Y-145973800D03*
X147966700Y-145973800D03*
D43*
X155246700Y-163525200D03*
X157071700Y-163525200D03*
D29*
X133766600Y-162712400D03*
X134406600Y-162712400D03*
D44*
X148780800Y-157581600D03*
X147230800Y-157581600D03*
D21*
X123621800Y-153985000D03*
X123621800Y-154625000D03*
D45*
X146786600Y-154397600D03*
X146786600Y-150097600D03*
D29*
X125892600Y-166448300D03*
X126532600Y-166448300D03*
D22*
X160725799Y-160553799D03*
D23*
X163265799Y-160553799D03*
D44*
X138646200Y-169341800D03*
X137096200Y-169341800D03*
D30*
X131307900Y-160309700D03*
X130667900Y-160309700D03*
D28*
X128854200Y-166436000D03*
X128854200Y-165796000D03*
D22*
X148676999Y-172657599D03*
D23*
X148676999Y-175197599D03*
X151216999Y-172657599D03*
X151216999Y-175197599D03*
X153756999Y-172657599D03*
X153756999Y-175197599D03*
X156296999Y-172657599D03*
X156296999Y-175197599D03*
D32*
X145069800Y-161666606D03*
X146089800Y-161666606D03*
D46*
X151488000Y-156108400D03*
X150518000Y-156108400D03*
D28*
X127381000Y-170754000D03*
X127381000Y-170114000D03*
D44*
X121323400Y-167843200D03*
X119773400Y-167843200D03*
D47*
X144525900Y-170789600D03*
X146100900Y-170789600D03*
D21*
X149123400Y-161118006D03*
X149123400Y-161758006D03*
D30*
X121450900Y-166594700D03*
X120810900Y-166594700D03*
X120258900Y-162544900D03*
X119618900Y-162544900D03*
X120258800Y-159664400D03*
X119618800Y-159664400D03*
D28*
X128092200Y-170754000D03*
X128092200Y-170114000D03*
D48*
X125905500Y-170418800D03*
X125905500Y-168518800D03*
X124030500Y-169468800D03*
D49*
X156286200Y-167690700D03*
X156286200Y-169265700D03*
D21*
X157149800Y-164932400D03*
X157149800Y-165572400D03*
D30*
X119372300Y-155295600D03*
X118732300Y-155295600D03*
D50*
X132308599Y-145491199D03*
X142316199Y-145491199D03*
D21*
X152984200Y-168894800D03*
X152984200Y-169534800D03*
D28*
X150037800Y-161754941D03*
X150037800Y-161114941D03*
D43*
X155251728Y-156133800D03*
X157076728Y-156133800D03*
D21*
X157139600Y-157541000D03*
X157139600Y-158181000D03*
D22*
X160725799Y-156921599D03*
D23*
X163265799Y-156921599D03*
D19*
X118033599Y-137129599D03*
D20*
X118033600Y-142209600D03*
X118033600Y-147289600D03*
D42*
X117752000Y-154305000D03*
X118722000Y-154305000D03*
D24*
X161290000Y-130810000D03*
D25*
X161290000Y-130810000D03*
D30*
X150992800Y-168579800D03*
X150352800Y-168579800D03*
D44*
X145821400Y-159152006D03*
X144271400Y-159152006D03*
D21*
X135686800Y-166964400D03*
X135686800Y-167604400D03*
D24*
X119380000Y-172720000D03*
D25*
X119380000Y-172720000D03*
D30*
X131206200Y-158369000D03*
X130566200Y-158369000D03*
D32*
X152753600Y-156108400D03*
X153773600Y-156108400D03*
D51*
X154753999Y-151942799D03*
X150553999Y-151942799D03*
D52*
X139166600Y-165316200D03*
X139166600Y-163766200D03*
D53*
X119998499Y-163826099D03*
X119998499Y-165226099D03*
X121098499Y-165226099D03*
X121098499Y-163826099D03*
D54*
X128132900Y-155097200D03*
X129082900Y-155097200D03*
X130032900Y-155097200D03*
X130032900Y-152822200D03*
X128132900Y-152822200D03*
D39*
X158419800Y-170180000D03*
D55*
X126699999Y-172509199D03*
X127349999Y-172509199D03*
X127999999Y-172509199D03*
X128649999Y-172509199D03*
X129299999Y-172509199D03*
D56*
X124499999Y-175209199D03*
D57*
X125099999Y-175209199D03*
D58*
X125499999Y-172509199D03*
D59*
X126999999Y-175209199D03*
X128999999Y-175209199D03*
D58*
X130499999Y-172509199D03*
D57*
X130899999Y-175209199D03*
D56*
X131499999Y-175209199D03*
D60*
X129301200Y-170177700D03*
X131201200Y-170177700D03*
X130251200Y-168302700D03*
D28*
X122350100Y-165543100D03*
X122350100Y-164903100D03*
D44*
X146088400Y-172339000D03*
X144538400Y-172339000D03*
D61*
X142501600Y-156235400D03*
X137101600Y-156235400D03*
D21*
X151993600Y-168894800D03*
X151993600Y-169534800D03*
D22*
X160725799Y-167792799D03*
D23*
X163265799Y-167792799D03*
D44*
X119494600Y-157251400D03*
X117944600Y-157251400D03*
D62*
X131500400Y-130048000D03*
X135500400Y-130048000D03*
X139500400Y-130048000D03*
D63*
X143540399Y-130017999D03*
X151470399Y-130047999D03*
D62*
X155500400Y-130048000D03*
D30*
X127980400Y-166446200D03*
X127340400Y-166446200D03*
D28*
X124536200Y-154614700D03*
X124536200Y-153974700D03*
D64*
X127497600Y-137753400D03*
X126197600Y-145253400D03*
D30*
X144033200Y-168249600D03*
X143393200Y-168249600D03*
D29*
X150352800Y-169570400D03*
X150992800Y-169570400D03*
D21*
X134848600Y-171587200D03*
X134848600Y-172227200D03*
D29*
X156855200Y-152730200D03*
X157495200Y-152730200D03*
M02*
