G04 #@! TF.GenerationSoftware,KiCad,Pcbnew,(7.0.0)*
G04 #@! TF.CreationDate,2023-09-29T14:02:52-04:00*
G04 #@! TF.ProjectId,_HW_HotPlate,5f48575f-486f-4745-906c-6174652e6b69,rev?*
G04 #@! TF.SameCoordinates,Original*
G04 #@! TF.FileFunction,Paste,Top*
G04 #@! TF.FilePolarity,Positive*
%FSLAX46Y46*%
G04 Gerber Fmt 4.6, Leading zero omitted, Abs format (unit mm)*
G04 Created by KiCad (PCBNEW (7.0.0)) date 2023-09-29 14:02:52*
%MOMM*%
%LPD*%
G01*
G04 APERTURE LIST*
G04 Aperture macros list*
%AMRoundRect*
0 Rectangle with rounded corners*
0 $1 Rounding radius*
0 $2 $3 $4 $5 $6 $7 $8 $9 X,Y pos of 4 corners*
0 Add a 4 corners polygon primitive as box body*
4,1,4,$2,$3,$4,$5,$6,$7,$8,$9,$2,$3,0*
0 Add four circle primitives for the rounded corners*
1,1,$1+$1,$2,$3*
1,1,$1+$1,$4,$5*
1,1,$1+$1,$6,$7*
1,1,$1+$1,$8,$9*
0 Add four rect primitives between the rounded corners*
20,1,$1+$1,$2,$3,$4,$5,0*
20,1,$1+$1,$4,$5,$6,$7,0*
20,1,$1+$1,$6,$7,$8,$9,0*
20,1,$1+$1,$8,$9,$2,$3,0*%
%AMFreePoly0*
4,1,48,0.193769,0.277084,0.210256,0.277084,0.223594,0.267393,0.239272,0.262299,0.248962,0.248962,0.262299,0.239272,0.267393,0.223594,0.277084,0.210256,0.277084,0.193769,0.282178,0.178092,0.282178,-0.091864,0.279582,-0.099852,0.280896,-0.108146,0.269831,-0.129862,0.262299,-0.153044,0.255505,-0.157980,0.251692,-0.165464,0.165464,-0.251692,0.157980,-0.255505,0.153044,-0.262299,
0.129864,-0.269830,0.108147,-0.280896,0.099852,-0.279582,0.091864,-0.282178,-0.178092,-0.282178,-0.193769,-0.277084,-0.210256,-0.277084,-0.223594,-0.267393,-0.239272,-0.262299,-0.248962,-0.248962,-0.262299,-0.239272,-0.267393,-0.223594,-0.277084,-0.210256,-0.277084,-0.193769,-0.282178,-0.178092,-0.282178,0.178092,-0.277084,0.193769,-0.277084,0.210256,-0.267393,0.223594,-0.262299,0.239272,
-0.248962,0.248962,-0.239272,0.262299,-0.223594,0.267393,-0.210256,0.277084,-0.193769,0.277084,-0.178092,0.282178,0.178092,0.282178,0.193769,0.277084,0.193769,0.277084,$1*%
%AMFreePoly1*
4,1,51,0.128495,0.382019,0.130758,0.382626,0.134224,0.381009,0.152922,0.377713,0.167464,0.365510,0.184669,0.357488,0.256709,0.285449,0.259806,0.281025,0.261834,0.279855,0.263141,0.276262,0.274032,0.260710,0.275686,0.241796,0.282179,0.223959,0.282179,-0.223959,0.281241,-0.229277,0.281847,-0.231539,0.280231,-0.235002,0.276935,-0.253701,0.264731,-0.268244,0.256709,-0.285449,
0.184669,-0.357488,0.180246,-0.360584,0.179076,-0.362612,0.175483,-0.363919,0.159930,-0.374810,0.141017,-0.376464,0.123180,-0.382957,-0.195220,-0.382957,-0.206516,-0.380965,-0.210320,-0.381636,-0.213664,-0.379704,-0.224962,-0.377713,-0.242270,-0.363189,-0.261834,-0.351894,-0.264517,-0.344521,-0.270529,-0.339477,-0.274452,-0.317226,-0.282179,-0.295998,-0.282179,0.295998,-0.280187,0.307294,
-0.280858,0.311098,-0.278926,0.314442,-0.276935,0.325740,-0.262411,0.343048,-0.251116,0.362612,-0.243743,0.365295,-0.238699,0.371307,-0.216448,0.375230,-0.195220,0.382957,0.123180,0.382957,0.128495,0.382019,0.128495,0.382019,$1*%
%AMFreePoly2*
4,1,48,0.099852,0.279582,0.108147,0.280896,0.129864,0.269830,0.153044,0.262299,0.157980,0.255505,0.165464,0.251692,0.251692,0.165464,0.255505,0.157980,0.262299,0.153044,0.269831,0.129862,0.280896,0.108146,0.279582,0.099852,0.282178,0.091864,0.282178,-0.178092,0.277084,-0.193769,0.277084,-0.210256,0.267393,-0.223594,0.262299,-0.239272,0.248962,-0.248962,0.239272,-0.262299,
0.223594,-0.267393,0.210256,-0.277084,0.193769,-0.277084,0.178092,-0.282178,-0.178092,-0.282178,-0.193769,-0.277084,-0.210256,-0.277084,-0.223594,-0.267393,-0.239272,-0.262299,-0.248962,-0.248962,-0.262299,-0.239272,-0.267393,-0.223594,-0.277084,-0.210256,-0.277084,-0.193769,-0.282178,-0.178092,-0.282178,0.178092,-0.277084,0.193769,-0.277084,0.210256,-0.267393,0.223594,-0.262299,0.239272,
-0.248962,0.248962,-0.239272,0.262299,-0.223594,0.267393,-0.210256,0.277084,-0.193769,0.277084,-0.178092,0.282178,0.091864,0.282178,0.099852,0.279582,0.099852,0.279582,$1*%
%AMFreePoly3*
4,1,51,0.307294,0.280187,0.311098,0.280858,0.314442,0.278926,0.325740,0.276935,0.343048,0.262411,0.362612,0.251116,0.365295,0.243743,0.371307,0.238699,0.375230,0.216448,0.382957,0.195220,0.382957,-0.123180,0.382019,-0.128495,0.382626,-0.130758,0.381009,-0.134224,0.377713,-0.152922,0.365510,-0.167464,0.357488,-0.184669,0.285449,-0.256709,0.281025,-0.259806,0.279855,-0.261834,
0.276262,-0.263141,0.260710,-0.274032,0.241796,-0.275686,0.223959,-0.282179,-0.223959,-0.282179,-0.229277,-0.281241,-0.231539,-0.281847,-0.235002,-0.280231,-0.253701,-0.276935,-0.268244,-0.264731,-0.285449,-0.256709,-0.357488,-0.184669,-0.360584,-0.180246,-0.362612,-0.179076,-0.363919,-0.175483,-0.374810,-0.159930,-0.376464,-0.141017,-0.382957,-0.123180,-0.382957,0.195220,-0.380965,0.206516,
-0.381636,0.210320,-0.379704,0.213664,-0.377713,0.224962,-0.363189,0.242270,-0.351894,0.261834,-0.344521,0.264517,-0.339477,0.270529,-0.317226,0.274452,-0.295998,0.282179,0.295998,0.282179,0.307294,0.280187,0.307294,0.280187,$1*%
%AMFreePoly4*
4,1,51,0.229275,0.281241,0.231538,0.281848,0.235004,0.280231,0.253701,0.276935,0.268243,0.264731,0.285449,0.256709,0.357488,0.184669,0.360584,0.180246,0.362612,0.179076,0.363919,0.175483,0.374810,0.159930,0.376464,0.141018,0.382957,0.123180,0.382957,-0.195220,0.380965,-0.206516,0.381636,-0.210320,0.379704,-0.213664,0.377713,-0.224962,0.363189,-0.242270,0.351894,-0.261834,
0.344521,-0.264517,0.339477,-0.270529,0.317226,-0.274452,0.295998,-0.282179,-0.295998,-0.282179,-0.307294,-0.280187,-0.311098,-0.280858,-0.314442,-0.278926,-0.325740,-0.276935,-0.343048,-0.262411,-0.362612,-0.251116,-0.365295,-0.243743,-0.371307,-0.238699,-0.375230,-0.216448,-0.382957,-0.195220,-0.382957,0.123180,-0.382019,0.128495,-0.382626,0.130758,-0.381009,0.134224,-0.377713,0.152922,
-0.365510,0.167464,-0.357488,0.184669,-0.285449,0.256709,-0.281025,0.259806,-0.279855,0.261834,-0.276262,0.263141,-0.260710,0.274032,-0.241796,0.275686,-0.223959,0.282179,0.223959,0.282179,0.229275,0.281241,0.229275,0.281241,$1*%
%AMFreePoly5*
4,1,48,0.193769,0.277084,0.210256,0.277084,0.223594,0.267393,0.239272,0.262299,0.248962,0.248962,0.262299,0.239272,0.267393,0.223594,0.277084,0.210256,0.277084,0.193769,0.282178,0.178092,0.282178,-0.178092,0.277084,-0.193769,0.277084,-0.210256,0.267393,-0.223594,0.262299,-0.239272,0.248962,-0.248962,0.239272,-0.262299,0.223594,-0.267393,0.210256,-0.277084,0.193769,-0.277084,
0.178092,-0.282178,-0.091864,-0.282178,-0.099852,-0.279582,-0.108146,-0.280896,-0.129862,-0.269831,-0.153044,-0.262299,-0.157980,-0.255505,-0.165464,-0.251692,-0.251692,-0.165464,-0.255505,-0.157980,-0.262299,-0.153044,-0.269830,-0.129864,-0.280896,-0.108147,-0.279582,-0.099852,-0.282178,-0.091864,-0.282178,0.178092,-0.277084,0.193769,-0.277084,0.210256,-0.267393,0.223594,-0.262299,0.239272,
-0.248962,0.248962,-0.239272,0.262299,-0.223594,0.267393,-0.210256,0.277084,-0.193769,0.277084,-0.178092,0.282178,0.178092,0.282178,0.193769,0.277084,0.193769,0.277084,$1*%
%AMFreePoly6*
4,1,51,0.206516,0.380965,0.210320,0.381636,0.213664,0.379704,0.224962,0.377713,0.242270,0.363189,0.261834,0.351894,0.264517,0.344521,0.270529,0.339477,0.274452,0.317226,0.282179,0.295998,0.282179,-0.295998,0.280187,-0.307294,0.280858,-0.311098,0.278926,-0.314442,0.276935,-0.325740,0.262411,-0.343048,0.251116,-0.362612,0.243743,-0.365295,0.238699,-0.371307,0.216448,-0.375230,
0.195220,-0.382957,-0.123180,-0.382957,-0.128495,-0.382019,-0.130758,-0.382626,-0.134224,-0.381009,-0.152922,-0.377713,-0.167464,-0.365510,-0.184669,-0.357488,-0.256709,-0.285449,-0.259806,-0.281025,-0.261834,-0.279855,-0.263141,-0.276262,-0.274032,-0.260710,-0.275686,-0.241796,-0.282179,-0.223959,-0.282179,0.223959,-0.281241,0.229275,-0.281848,0.231538,-0.280231,0.235004,-0.276935,0.253701,
-0.264731,0.268243,-0.256709,0.285449,-0.184669,0.357488,-0.180246,0.360584,-0.179076,0.362612,-0.175483,0.363919,-0.159930,0.374810,-0.141018,0.376464,-0.123180,0.382957,0.195220,0.382957,0.206516,0.380965,0.206516,0.380965,$1*%
%AMFreePoly7*
4,1,48,0.193769,0.277084,0.210256,0.277084,0.223594,0.267393,0.239272,0.262299,0.248962,0.248962,0.262299,0.239272,0.267393,0.223594,0.277084,0.210256,0.277084,0.193769,0.282178,0.178092,0.282178,-0.178092,0.277084,-0.193769,0.277084,-0.210256,0.267393,-0.223594,0.262299,-0.239272,0.248962,-0.248962,0.239272,-0.262299,0.223594,-0.267393,0.210256,-0.277084,0.193769,-0.277084,
0.178092,-0.282178,-0.178092,-0.282178,-0.193769,-0.277084,-0.210256,-0.277084,-0.223594,-0.267393,-0.239272,-0.262299,-0.248962,-0.248962,-0.262299,-0.239272,-0.267393,-0.223594,-0.277084,-0.210256,-0.277084,-0.193769,-0.282178,-0.178092,-0.282178,0.091864,-0.279582,0.099852,-0.280896,0.108147,-0.269830,0.129864,-0.262299,0.153044,-0.255505,0.157980,-0.251692,0.165464,-0.165464,0.251692,
-0.157980,0.255505,-0.153044,0.262299,-0.129862,0.269831,-0.108146,0.280896,-0.099852,0.279582,-0.091864,0.282178,0.178092,0.282178,0.193769,0.277084,0.193769,0.277084,$1*%
G04 Aperture macros list end*
%ADD10C,2.540000*%
%ADD11RoundRect,0.079500X-0.100500X0.079500X-0.100500X-0.079500X0.100500X-0.079500X0.100500X0.079500X0*%
%ADD12RoundRect,0.150000X-0.512500X-0.150000X0.512500X-0.150000X0.512500X0.150000X-0.512500X0.150000X0*%
%ADD13RoundRect,0.225000X-0.225000X-0.250000X0.225000X-0.250000X0.225000X0.250000X-0.225000X0.250000X0*%
%ADD14RoundRect,0.079500X0.100500X-0.079500X0.100500X0.079500X-0.100500X0.079500X-0.100500X-0.079500X0*%
%ADD15RoundRect,0.079500X-0.079500X-0.100500X0.079500X-0.100500X0.079500X0.100500X-0.079500X0.100500X0*%
%ADD16RoundRect,0.079500X0.079500X0.100500X-0.079500X0.100500X-0.079500X-0.100500X0.079500X-0.100500X0*%
%ADD17RoundRect,0.250000X0.300000X-0.300000X0.300000X0.300000X-0.300000X0.300000X-0.300000X-0.300000X0*%
%ADD18RoundRect,0.135000X-0.135000X-0.185000X0.135000X-0.185000X0.135000X0.185000X-0.135000X0.185000X0*%
%ADD19RoundRect,0.060000X-0.130000X0.060000X-0.130000X-0.060000X0.130000X-0.060000X0.130000X0.060000X0*%
%ADD20RoundRect,0.062500X-0.087500X0.062500X-0.087500X-0.062500X0.087500X-0.062500X0.087500X0.062500X0*%
%ADD21FreePoly0,0.000000*%
%ADD22FreePoly1,0.000000*%
%ADD23FreePoly2,0.000000*%
%ADD24FreePoly3,0.000000*%
%ADD25RoundRect,0.191479X-0.191478X-0.191478X0.191478X-0.191478X0.191478X0.191478X-0.191478X0.191478X0*%
%ADD26FreePoly4,0.000000*%
%ADD27FreePoly5,0.000000*%
%ADD28FreePoly6,0.000000*%
%ADD29FreePoly7,0.000000*%
%ADD30RoundRect,0.075000X-0.437500X-0.075000X0.437500X-0.075000X0.437500X0.075000X-0.437500X0.075000X0*%
%ADD31RoundRect,0.075000X-0.075000X-0.437500X0.075000X-0.437500X0.075000X0.437500X-0.075000X0.437500X0*%
%ADD32RoundRect,0.250000X0.787500X1.025000X-0.787500X1.025000X-0.787500X-1.025000X0.787500X-1.025000X0*%
%ADD33RoundRect,0.060000X-0.060000X-0.130000X0.060000X-0.130000X0.060000X0.130000X-0.060000X0.130000X0*%
%ADD34RoundRect,0.062500X-0.062500X-0.087500X0.062500X-0.087500X0.062500X0.087500X-0.062500X0.087500X0*%
%ADD35RoundRect,0.147500X-0.147500X-0.172500X0.147500X-0.172500X0.147500X0.172500X-0.147500X0.172500X0*%
%ADD36RoundRect,0.250000X-0.262500X-0.450000X0.262500X-0.450000X0.262500X0.450000X-0.262500X0.450000X0*%
%ADD37RoundRect,0.225000X0.225000X0.250000X-0.225000X0.250000X-0.225000X-0.250000X0.225000X-0.250000X0*%
%ADD38RoundRect,0.250000X0.900000X-1.000000X0.900000X1.000000X-0.900000X1.000000X-0.900000X-1.000000X0*%
%ADD39RoundRect,0.147500X0.147500X0.172500X-0.147500X0.172500X-0.147500X-0.172500X0.147500X-0.172500X0*%
%ADD40RoundRect,0.218750X-0.218750X-0.256250X0.218750X-0.256250X0.218750X0.256250X-0.218750X0.256250X0*%
%ADD41RoundRect,0.150000X0.587500X0.150000X-0.587500X0.150000X-0.587500X-0.150000X0.587500X-0.150000X0*%
%ADD42RoundRect,0.218750X-0.256250X0.218750X-0.256250X-0.218750X0.256250X-0.218750X0.256250X0.218750X0*%
%ADD43R,5.308600X1.498600*%
%ADD44R,1.700000X2.200000*%
%ADD45RoundRect,0.225000X0.250000X-0.225000X0.250000X0.225000X-0.250000X0.225000X-0.250000X-0.225000X0*%
%ADD46R,0.800000X0.900000*%
%ADD47RoundRect,0.150000X0.150000X-0.512500X0.150000X0.512500X-0.150000X0.512500X-0.150000X-0.512500X0*%
%ADD48O,0.890000X1.550000*%
%ADD49O,1.250000X0.950000*%
%ADD50R,0.400000X1.350000*%
%ADD51R,1.200000X1.550000*%
%ADD52R,1.500000X1.550000*%
%ADD53RoundRect,0.150000X0.150000X-0.587500X0.150000X0.587500X-0.150000X0.587500X-0.150000X-0.587500X0*%
%ADD54RoundRect,0.250000X1.500000X0.550000X-1.500000X0.550000X-1.500000X-0.550000X1.500000X-0.550000X0*%
G04 APERTURE END LIST*
D10*
X120878600Y-142087600D02*
X118084600Y-142214600D01*
X125095000Y-137871200D02*
X120878600Y-142087600D01*
D11*
X140563600Y-171562200D03*
X140563600Y-172252200D03*
D12*
X131171200Y-163957100D03*
X131171200Y-164907100D03*
X131171200Y-165857100D03*
X133446200Y-165857100D03*
X133446200Y-163957100D03*
D13*
X150710600Y-157581600D03*
X152260600Y-157581600D03*
X130974900Y-162316300D03*
X132524900Y-162316300D03*
D14*
X139598400Y-172252200D03*
X139598400Y-171562200D03*
D15*
X130642900Y-161122500D03*
X131332900Y-161122500D03*
D14*
X155168600Y-162041400D03*
X155168600Y-161351400D03*
X155166386Y-165599945D03*
X155166386Y-164909945D03*
D11*
X157149800Y-161351400D03*
X157149800Y-162041400D03*
D16*
X157520200Y-153670000D03*
X156830200Y-153670000D03*
D11*
X154965400Y-168869800D03*
X154965400Y-169559800D03*
X126669800Y-153934600D03*
X126669800Y-154624600D03*
D17*
X121843800Y-155247800D03*
X121843800Y-152447800D03*
D11*
X153974800Y-168869800D03*
X153974800Y-169559800D03*
X125501400Y-153950193D03*
X125501400Y-154640193D03*
D18*
X136802400Y-164261800D03*
X137822400Y-164261800D03*
D11*
X124993400Y-165771000D03*
X124993400Y-166461000D03*
D19*
X138709400Y-167386000D03*
X138239400Y-167386000D03*
D20*
X138874400Y-166911000D03*
X138474400Y-166911000D03*
X138074400Y-166911000D03*
X138074400Y-167861000D03*
X138474400Y-167861000D03*
X138874400Y-167861000D03*
D21*
X124191200Y-158542200D03*
D22*
X124191200Y-159367200D03*
X124191200Y-160317200D03*
X124191200Y-161267200D03*
D23*
X124191200Y-162092200D03*
D24*
X125016200Y-158542200D03*
D25*
X125016200Y-159367200D03*
X125016200Y-160317200D03*
X125016200Y-161267200D03*
D26*
X125016200Y-162092200D03*
D24*
X125966200Y-158542200D03*
D25*
X125966200Y-159367200D03*
X125966200Y-160317200D03*
X125966200Y-161267200D03*
D26*
X125966200Y-162092200D03*
D24*
X126916200Y-158542200D03*
D25*
X126916200Y-159367200D03*
X126916200Y-160317200D03*
X126916200Y-161267200D03*
D26*
X126916200Y-162092200D03*
D27*
X127741200Y-158542200D03*
D28*
X127741200Y-159367200D03*
X127741200Y-160317200D03*
X127741200Y-161267200D03*
D29*
X127741200Y-162092200D03*
D30*
X123128700Y-158367200D03*
X123128700Y-159017200D03*
X123128700Y-159667200D03*
X123128700Y-160317200D03*
X123128700Y-160967200D03*
X123128700Y-161617200D03*
X123128700Y-162267200D03*
D31*
X124016200Y-163154700D03*
X124666200Y-163154700D03*
X125316200Y-163154700D03*
X125966200Y-163154700D03*
X126616200Y-163154700D03*
X127266200Y-163154700D03*
X127916200Y-163154700D03*
D30*
X128803700Y-162267200D03*
X128803700Y-161617200D03*
X128803700Y-160967200D03*
X128803700Y-160317200D03*
X128803700Y-159667200D03*
X128803700Y-159017200D03*
X128803700Y-158367200D03*
D31*
X127916200Y-157479700D03*
X127266200Y-157479700D03*
X126616200Y-157479700D03*
X125966200Y-157479700D03*
X125316200Y-157479700D03*
X124666200Y-157479700D03*
X124016200Y-157479700D03*
D32*
X154217100Y-140970000D03*
X147992100Y-140970000D03*
D14*
X155158400Y-158206000D03*
X155158400Y-157516000D03*
D15*
X127696400Y-151155400D03*
X128386400Y-151155400D03*
D33*
X148640800Y-159073800D03*
X148640800Y-159543800D03*
D34*
X148165800Y-158908800D03*
X148165800Y-159308800D03*
X148165800Y-159708800D03*
X149115800Y-159708800D03*
X149115800Y-159308800D03*
X149115800Y-158908800D03*
D35*
X145094800Y-160523606D03*
X146064800Y-160523606D03*
X136827400Y-165328600D03*
X137797400Y-165328600D03*
D11*
X137388600Y-171562200D03*
X137388600Y-172252200D03*
D14*
X136541600Y-167626200D03*
X136541600Y-166936200D03*
D36*
X155246700Y-159969200D03*
X157071700Y-159969200D03*
D32*
X154191700Y-145973800D03*
X147966700Y-145973800D03*
D36*
X155246700Y-163525200D03*
X157071700Y-163525200D03*
D15*
X133741600Y-162712400D03*
X134431600Y-162712400D03*
D37*
X148780800Y-157581600D03*
X147230800Y-157581600D03*
D11*
X123621800Y-153960000D03*
X123621800Y-154650000D03*
D38*
X146786600Y-154397600D03*
X146786600Y-150097600D03*
D15*
X125867600Y-166448300D03*
X126557600Y-166448300D03*
D37*
X138646200Y-169341800D03*
X137096200Y-169341800D03*
D16*
X131332900Y-160309700D03*
X130642900Y-160309700D03*
D14*
X128854200Y-166461000D03*
X128854200Y-165771000D03*
D18*
X145069800Y-161666606D03*
X146089800Y-161666606D03*
D39*
X151488000Y-156108400D03*
X150518000Y-156108400D03*
D14*
X127381000Y-170779000D03*
X127381000Y-170089000D03*
D37*
X121323400Y-167843200D03*
X119773400Y-167843200D03*
D40*
X144525900Y-170789600D03*
X146100900Y-170789600D03*
D11*
X149123400Y-161093006D03*
X149123400Y-161783006D03*
D16*
X121475900Y-166594700D03*
X120785900Y-166594700D03*
X120283900Y-162544900D03*
X119593900Y-162544900D03*
X120283800Y-159664400D03*
X119593800Y-159664400D03*
D14*
X128092200Y-170779000D03*
X128092200Y-170089000D03*
D41*
X125905500Y-170418800D03*
X125905500Y-168518800D03*
X124030500Y-169468800D03*
D42*
X156286200Y-167690700D03*
X156286200Y-169265700D03*
D11*
X157149800Y-164907400D03*
X157149800Y-165597400D03*
D16*
X119397300Y-155295600D03*
X118707300Y-155295600D03*
D43*
X132308599Y-145491199D03*
X142316199Y-145491199D03*
D11*
X152984200Y-168869800D03*
X152984200Y-169559800D03*
D14*
X150037800Y-161779941D03*
X150037800Y-161089941D03*
D36*
X155251728Y-156133800D03*
X157076728Y-156133800D03*
D11*
X157139600Y-157516000D03*
X157139600Y-158206000D03*
D35*
X117752000Y-154305000D03*
X118722000Y-154305000D03*
D16*
X151017800Y-168579800D03*
X150327800Y-168579800D03*
D37*
X145821400Y-159152006D03*
X144271400Y-159152006D03*
D11*
X135686800Y-166939400D03*
X135686800Y-167629400D03*
D16*
X131231200Y-158369000D03*
X130541200Y-158369000D03*
D18*
X152753600Y-156108400D03*
X153773600Y-156108400D03*
D44*
X154753999Y-151942799D03*
X150553999Y-151942799D03*
D45*
X139166600Y-165316200D03*
X139166600Y-163766200D03*
D46*
X119998499Y-163826099D03*
X119998499Y-165226099D03*
X121098499Y-165226099D03*
X121098499Y-163826099D03*
D47*
X128132900Y-155097200D03*
X129082900Y-155097200D03*
X130032900Y-155097200D03*
X130032900Y-152822200D03*
X128132900Y-152822200D03*
D48*
X124499999Y-175209199D03*
D49*
X125499999Y-172509199D03*
X130499999Y-172509199D03*
D48*
X131499999Y-175209199D03*
D50*
X126699999Y-172509199D03*
X127349999Y-172509199D03*
X127999999Y-172509199D03*
X128649999Y-172509199D03*
X129299999Y-172509199D03*
D51*
X125099999Y-175209199D03*
D52*
X126999999Y-175209199D03*
X128999999Y-175209199D03*
D51*
X130899999Y-175209199D03*
D53*
X129301200Y-170177700D03*
X131201200Y-170177700D03*
X130251200Y-168302700D03*
D14*
X122350100Y-165568100D03*
X122350100Y-164878100D03*
D37*
X146088400Y-172339000D03*
X144538400Y-172339000D03*
D54*
X142501600Y-156235400D03*
X137101600Y-156235400D03*
D11*
X151993600Y-168869800D03*
X151993600Y-169559800D03*
D37*
X119494600Y-157251400D03*
X117944600Y-157251400D03*
D16*
X128005400Y-166446200D03*
X127315400Y-166446200D03*
D14*
X124536200Y-154639700D03*
X124536200Y-153949700D03*
D16*
X144058200Y-168249600D03*
X143368200Y-168249600D03*
D15*
X150327800Y-169570400D03*
X151017800Y-169570400D03*
D11*
X134848600Y-171562200D03*
X134848600Y-172252200D03*
D15*
X156830200Y-152730200D03*
X157520200Y-152730200D03*
M02*
