G04 #@! TF.GenerationSoftware,KiCad,Pcbnew,(7.0.0)*
G04 #@! TF.CreationDate,2023-09-29T14:02:52-04:00*
G04 #@! TF.ProjectId,_HW_HotPlate,5f48575f-486f-4745-906c-6174652e6b69,rev?*
G04 #@! TF.SameCoordinates,Original*
G04 #@! TF.FileFunction,Paste,Bot*
G04 #@! TF.FilePolarity,Positive*
%FSLAX46Y46*%
G04 Gerber Fmt 4.6, Leading zero omitted, Abs format (unit mm)*
G04 Created by KiCad (PCBNEW (7.0.0)) date 2023-09-29 14:02:52*
%MOMM*%
%LPD*%
G01*
G04 APERTURE LIST*
G04 Aperture macros list*
%AMRoundRect*
0 Rectangle with rounded corners*
0 $1 Rounding radius*
0 $2 $3 $4 $5 $6 $7 $8 $9 X,Y pos of 4 corners*
0 Add a 4 corners polygon primitive as box body*
4,1,4,$2,$3,$4,$5,$6,$7,$8,$9,$2,$3,0*
0 Add four circle primitives for the rounded corners*
1,1,$1+$1,$2,$3*
1,1,$1+$1,$4,$5*
1,1,$1+$1,$6,$7*
1,1,$1+$1,$8,$9*
0 Add four rect primitives between the rounded corners*
20,1,$1+$1,$2,$3,$4,$5,0*
20,1,$1+$1,$4,$5,$6,$7,0*
20,1,$1+$1,$6,$7,$8,$9,0*
20,1,$1+$1,$8,$9,$2,$3,0*%
G04 Aperture macros list end*
%ADD10C,2.159000*%
%ADD11C,3.810000*%
%ADD12R,2.997200X1.193800*%
%ADD13O,2.997200X1.193800*%
%ADD14RoundRect,0.150000X0.150000X-0.512500X0.150000X0.512500X-0.150000X0.512500X-0.150000X-0.512500X0*%
%ADD15RoundRect,0.250000X-0.362500X-1.425000X0.362500X-1.425000X0.362500X1.425000X-0.362500X1.425000X0*%
%ADD16RoundRect,0.150000X-0.587500X-0.150000X0.587500X-0.150000X0.587500X0.150000X-0.587500X0.150000X0*%
%ADD17RoundRect,0.250000X-2.050000X-0.300000X2.050000X-0.300000X2.050000X0.300000X-2.050000X0.300000X0*%
%ADD18RoundRect,0.250000X-2.025000X-2.375000X2.025000X-2.375000X2.025000X2.375000X-2.025000X2.375000X0*%
%ADD19RoundRect,0.225000X0.250000X-0.225000X0.250000X0.225000X-0.250000X0.225000X-0.250000X-0.225000X0*%
%ADD20RoundRect,0.250000X-1.000000X-0.650000X1.000000X-0.650000X1.000000X0.650000X-1.000000X0.650000X0*%
%ADD21RoundRect,0.250000X0.262500X0.450000X-0.262500X0.450000X-0.262500X-0.450000X0.262500X-0.450000X0*%
%ADD22RoundRect,0.250000X0.300000X0.300000X-0.300000X0.300000X-0.300000X-0.300000X0.300000X-0.300000X0*%
%ADD23R,1.780000X2.000000*%
%ADD24RoundRect,0.150000X-0.512500X-0.150000X0.512500X-0.150000X0.512500X0.150000X-0.512500X0.150000X0*%
%ADD25RoundRect,0.079500X-0.079500X-0.100500X0.079500X-0.100500X0.079500X0.100500X-0.079500X0.100500X0*%
%ADD26R,2.100000X2.600000*%
%ADD27RoundRect,0.112500X0.187500X0.112500X-0.187500X0.112500X-0.187500X-0.112500X0.187500X-0.112500X0*%
%ADD28RoundRect,0.135000X0.185000X-0.135000X0.185000X0.135000X-0.185000X0.135000X-0.185000X-0.135000X0*%
%ADD29RoundRect,0.150000X0.150000X-0.825000X0.150000X0.825000X-0.150000X0.825000X-0.150000X-0.825000X0*%
%ADD30R,2.895600X2.603500*%
%ADD31RoundRect,0.250000X0.250000X0.475000X-0.250000X0.475000X-0.250000X-0.475000X0.250000X-0.475000X0*%
%ADD32RoundRect,0.218750X-0.218750X-0.256250X0.218750X-0.256250X0.218750X0.256250X-0.218750X0.256250X0*%
G04 APERTURE END LIST*
D10*
X128914030Y-137753230D02*
X127546100Y-137753230D01*
X131267200Y-140106400D02*
X128914030Y-137753230D01*
X145389600Y-142748000D02*
X142290800Y-142748000D01*
X141960600Y-142748000D02*
X139345724Y-140133124D01*
D11*
X162483800Y-142240000D02*
X156997400Y-142240000D01*
D10*
X139344400Y-140144500D02*
X131330700Y-140144500D01*
D12*
X133108699Y-136905999D03*
D13*
X133108699Y-134416799D03*
X140601699Y-134416799D03*
X140601699Y-136905999D03*
D14*
X138643400Y-172409700D03*
X137693400Y-172409700D03*
X136743400Y-172409700D03*
X136743400Y-170134700D03*
X138643400Y-170134700D03*
D15*
X130997100Y-143687800D03*
X136922100Y-143687800D03*
D16*
X143918700Y-172628600D03*
X143918700Y-170728600D03*
X145793700Y-171678600D03*
D17*
X146100800Y-142824200D03*
D18*
X152825800Y-137509200D03*
X152825800Y-143059200D03*
X157675800Y-137509200D03*
X157675800Y-143059200D03*
D17*
X146100800Y-137744200D03*
D19*
X142138400Y-168237200D03*
X142138400Y-166687200D03*
D20*
X123018800Y-148234400D03*
X127018800Y-148234400D03*
D21*
X153337900Y-170180000D03*
X151512900Y-170180000D03*
D22*
X157991000Y-167817800D03*
X155191000Y-167817800D03*
D23*
X130454399Y-147421599D03*
X132994399Y-147421599D03*
X132994399Y-155041599D03*
X130454399Y-155041599D03*
D24*
X155656700Y-161503400D03*
X155656700Y-159603400D03*
X157931700Y-160553400D03*
X155656700Y-154264400D03*
X155656700Y-152364400D03*
X157931700Y-153314400D03*
D25*
X147660800Y-170586400D03*
X148350800Y-170586400D03*
D26*
X127468799Y-141757399D03*
X122568799Y-141757399D03*
D19*
X144018000Y-168237200D03*
X144018000Y-166687200D03*
D24*
X155656700Y-157871200D03*
X155656700Y-155971200D03*
X157931700Y-156921200D03*
D27*
X162975000Y-155143200D03*
X160875000Y-155143200D03*
D28*
X142519400Y-158830200D03*
X142519400Y-157810200D03*
D22*
X158016400Y-170180000D03*
X155216400Y-170180000D03*
D29*
X149758400Y-168311600D03*
X148488400Y-168311600D03*
X147218400Y-168311600D03*
X145948400Y-168311600D03*
X145948400Y-163361600D03*
X147218400Y-163361600D03*
X148488400Y-163361600D03*
X149758400Y-163361600D03*
D30*
X124942599Y-134905749D03*
X124942599Y-129508249D03*
D19*
X138658600Y-168237200D03*
X138658600Y-166687200D03*
D14*
X135163600Y-172409700D03*
X134213600Y-172409700D03*
X133263600Y-172409700D03*
X133263600Y-170134700D03*
X135163600Y-170134700D03*
D21*
X153363300Y-167792400D03*
X151538300Y-167792400D03*
D31*
X148270000Y-133045200D03*
X146370000Y-133045200D03*
D14*
X142123200Y-172435100D03*
X141173200Y-172435100D03*
X140223200Y-172435100D03*
X140223200Y-170160100D03*
X142123200Y-170160100D03*
D19*
X135178800Y-168237200D03*
X135178800Y-166687200D03*
D23*
X142519399Y-155066999D03*
X139979399Y-155066999D03*
X137439399Y-155066999D03*
X137439399Y-147446999D03*
X139979399Y-147446999D03*
X142519399Y-147446999D03*
D32*
X161696300Y-151333200D03*
X163271300Y-151333200D03*
D24*
X155656700Y-165110200D03*
X155656700Y-163210200D03*
X157931700Y-164160200D03*
M02*
