G04 #@! TF.GenerationSoftware,KiCad,Pcbnew,(7.0.0)*
G04 #@! TF.CreationDate,2023-09-29T14:02:52-04:00*
G04 #@! TF.ProjectId,_HW_HotPlate,5f48575f-486f-4745-906c-6174652e6b69,rev?*
G04 #@! TF.SameCoordinates,Original*
G04 #@! TF.FileFunction,Soldermask,Top*
G04 #@! TF.FilePolarity,Negative*
%FSLAX46Y46*%
G04 Gerber Fmt 4.6, Leading zero omitted, Abs format (unit mm)*
G04 Created by KiCad (PCBNEW (7.0.0)) date 2023-09-29 14:02:52*
%MOMM*%
%LPD*%
G01*
G04 APERTURE LIST*
G04 Aperture macros list*
%AMRoundRect*
0 Rectangle with rounded corners*
0 $1 Rounding radius*
0 $2 $3 $4 $5 $6 $7 $8 $9 X,Y pos of 4 corners*
0 Add a 4 corners polygon primitive as box body*
4,1,4,$2,$3,$4,$5,$6,$7,$8,$9,$2,$3,0*
0 Add four circle primitives for the rounded corners*
1,1,$1+$1,$2,$3*
1,1,$1+$1,$4,$5*
1,1,$1+$1,$6,$7*
1,1,$1+$1,$8,$9*
0 Add four rect primitives between the rounded corners*
20,1,$1+$1,$2,$3,$4,$5,0*
20,1,$1+$1,$4,$5,$6,$7,0*
20,1,$1+$1,$6,$7,$8,$9,0*
20,1,$1+$1,$8,$9,$2,$3,0*%
G04 Aperture macros list end*
%ADD10C,2.540000*%
%ADD11R,2.600000X2.600000*%
%ADD12C,2.600000*%
%ADD13RoundRect,0.100000X-0.100000X0.130000X-0.100000X-0.130000X0.100000X-0.130000X0.100000X0.130000X0*%
%ADD14R,1.700000X1.700000*%
%ADD15O,1.700000X1.700000*%
%ADD16C,3.600000*%
%ADD17C,5.600000*%
%ADD18RoundRect,0.150000X-0.512500X-0.150000X0.512500X-0.150000X0.512500X0.150000X-0.512500X0.150000X0*%
%ADD19RoundRect,0.225000X-0.225000X-0.250000X0.225000X-0.250000X0.225000X0.250000X-0.225000X0.250000X0*%
%ADD20RoundRect,0.100000X0.100000X-0.130000X0.100000X0.130000X-0.100000X0.130000X-0.100000X-0.130000X0*%
%ADD21RoundRect,0.100000X-0.130000X-0.100000X0.130000X-0.100000X0.130000X0.100000X-0.130000X0.100000X0*%
%ADD22RoundRect,0.100000X0.130000X0.100000X-0.130000X0.100000X-0.130000X-0.100000X0.130000X-0.100000X0*%
%ADD23RoundRect,0.250000X0.300000X-0.300000X0.300000X0.300000X-0.300000X0.300000X-0.300000X-0.300000X0*%
%ADD24RoundRect,0.135000X-0.135000X-0.185000X0.135000X-0.185000X0.135000X0.185000X-0.135000X0.185000X0*%
%ADD25RoundRect,0.062500X-0.087500X0.062500X-0.087500X-0.062500X0.087500X-0.062500X0.087500X0.062500X0*%
%ADD26R,0.940000X0.300000*%
%ADD27RoundRect,0.075000X-0.437500X-0.075000X0.437500X-0.075000X0.437500X0.075000X-0.437500X0.075000X0*%
%ADD28RoundRect,0.075000X-0.075000X-0.437500X0.075000X-0.437500X0.075000X0.437500X-0.075000X0.437500X0*%
%ADD29R,4.250000X4.250000*%
%ADD30RoundRect,0.250000X0.787500X1.025000X-0.787500X1.025000X-0.787500X-1.025000X0.787500X-1.025000X0*%
%ADD31C,1.000000*%
%ADD32RoundRect,0.062500X-0.062500X-0.087500X0.062500X-0.087500X0.062500X0.087500X-0.062500X0.087500X0*%
%ADD33R,0.300000X0.940000*%
%ADD34RoundRect,0.147500X-0.147500X-0.172500X0.147500X-0.172500X0.147500X0.172500X-0.147500X0.172500X0*%
%ADD35RoundRect,0.250000X-0.262500X-0.450000X0.262500X-0.450000X0.262500X0.450000X-0.262500X0.450000X0*%
%ADD36RoundRect,0.225000X0.225000X0.250000X-0.225000X0.250000X-0.225000X-0.250000X0.225000X-0.250000X0*%
%ADD37RoundRect,0.250000X0.900000X-1.000000X0.900000X1.000000X-0.900000X1.000000X-0.900000X-1.000000X0*%
%ADD38RoundRect,0.147500X0.147500X0.172500X-0.147500X0.172500X-0.147500X-0.172500X0.147500X-0.172500X0*%
%ADD39RoundRect,0.218750X-0.218750X-0.256250X0.218750X-0.256250X0.218750X0.256250X-0.218750X0.256250X0*%
%ADD40RoundRect,0.150000X0.587500X0.150000X-0.587500X0.150000X-0.587500X-0.150000X0.587500X-0.150000X0*%
%ADD41RoundRect,0.218750X-0.256250X0.218750X-0.256250X-0.218750X0.256250X-0.218750X0.256250X0.218750X0*%
%ADD42R,5.308600X1.498600*%
%ADD43R,1.700000X2.200000*%
%ADD44RoundRect,0.225000X0.250000X-0.225000X0.250000X0.225000X-0.250000X0.225000X-0.250000X-0.225000X0*%
%ADD45R,0.800000X0.900000*%
%ADD46RoundRect,0.150000X0.150000X-0.512500X0.150000X0.512500X-0.150000X0.512500X-0.150000X-0.512500X0*%
%ADD47R,0.400000X1.350000*%
%ADD48O,0.890000X1.550000*%
%ADD49R,1.200000X1.550000*%
%ADD50O,1.250000X0.950000*%
%ADD51R,1.500000X1.550000*%
%ADD52RoundRect,0.150000X0.150000X-0.587500X0.150000X0.587500X-0.150000X0.587500X-0.150000X-0.587500X0*%
%ADD53RoundRect,0.250000X1.500000X0.550000X-1.500000X0.550000X-1.500000X-0.550000X1.500000X-0.550000X0*%
%ADD54RoundRect,0.102000X-1.500000X-1.500000X1.500000X-1.500000X1.500000X1.500000X-1.500000X1.500000X0*%
%ADD55R,3.000000X3.000000*%
%ADD56C,1.800000*%
G04 APERTURE END LIST*
D10*
X120769493Y-142196706D02*
X125204106Y-137762093D01*
X118033600Y-142209600D02*
X120769493Y-142196706D01*
D11*
X162483799Y-147345399D03*
D12*
X162483800Y-142265400D03*
X162483800Y-137185400D03*
D13*
X140563600Y-171587200D03*
X140563600Y-172227200D03*
D14*
X134853999Y-175152599D03*
D15*
X137393999Y-175152599D03*
X139933999Y-175152599D03*
X142473999Y-175152599D03*
X145013999Y-175152599D03*
D16*
X119380000Y-130810000D03*
D17*
X119380000Y-130810000D03*
D18*
X131171200Y-163957100D03*
X131171200Y-164907100D03*
X131171200Y-165857100D03*
X133446200Y-165857100D03*
X133446200Y-163957100D03*
D19*
X150710600Y-157581600D03*
X152260600Y-157581600D03*
D14*
X116921999Y-160284799D03*
D15*
X116921999Y-162824799D03*
X116921999Y-165364799D03*
X116921999Y-167904799D03*
D19*
X130974900Y-162316300D03*
X132524900Y-162316300D03*
D20*
X139598400Y-172227200D03*
X139598400Y-171587200D03*
D14*
X160725799Y-164168399D03*
D15*
X163265799Y-164168399D03*
D21*
X130667900Y-161122500D03*
X131307900Y-161122500D03*
D20*
X155168600Y-162016400D03*
X155168600Y-161376400D03*
X155166386Y-165574945D03*
X155166386Y-164934945D03*
D13*
X157149800Y-161376400D03*
X157149800Y-162016400D03*
D22*
X157495200Y-153670000D03*
X156855200Y-153670000D03*
D13*
X154965400Y-168894800D03*
X154965400Y-169534800D03*
X126669800Y-153959600D03*
X126669800Y-154599600D03*
D23*
X121843800Y-155247800D03*
X121843800Y-152447800D03*
D13*
X153974800Y-168894800D03*
X153974800Y-169534800D03*
X125501400Y-153975193D03*
X125501400Y-154615193D03*
D24*
X136802400Y-164261800D03*
X137822400Y-164261800D03*
D13*
X124993400Y-165796000D03*
X124993400Y-166436000D03*
D25*
X138874400Y-166911000D03*
X138474400Y-166911000D03*
X138074400Y-166911000D03*
X138074400Y-167861000D03*
X138474400Y-167861000D03*
X138874400Y-167861000D03*
D26*
X138474399Y-167385999D03*
D27*
X123128700Y-158367200D03*
X123128700Y-159017200D03*
X123128700Y-159667200D03*
X123128700Y-160317200D03*
X123128700Y-160967200D03*
X123128700Y-161617200D03*
X123128700Y-162267200D03*
D28*
X124016200Y-163154700D03*
X124666200Y-163154700D03*
X125316200Y-163154700D03*
X125966200Y-163154700D03*
X126616200Y-163154700D03*
X127266200Y-163154700D03*
X127916200Y-163154700D03*
D27*
X128803700Y-162267200D03*
X128803700Y-161617200D03*
X128803700Y-160967200D03*
X128803700Y-160317200D03*
X128803700Y-159667200D03*
X128803700Y-159017200D03*
X128803700Y-158367200D03*
D28*
X127916200Y-157479700D03*
X127266200Y-157479700D03*
X126616200Y-157479700D03*
X125966200Y-157479700D03*
X125316200Y-157479700D03*
X124666200Y-157479700D03*
X124016200Y-157479700D03*
D29*
X125966199Y-160317199D03*
D30*
X154217100Y-140970000D03*
X147992100Y-140970000D03*
D20*
X155158400Y-158181000D03*
X155158400Y-157541000D03*
D21*
X127721400Y-151155400D03*
X128361400Y-151155400D03*
D14*
X160725799Y-153314799D03*
D15*
X163265799Y-153314799D03*
D31*
X125577600Y-129514600D03*
D32*
X148165800Y-158908800D03*
X148165800Y-159308800D03*
X148165800Y-159708800D03*
X149115800Y-159708800D03*
X149115800Y-159308800D03*
X149115800Y-158908800D03*
D33*
X148640799Y-159308799D03*
D34*
X145094800Y-160523606D03*
X146064800Y-160523606D03*
X136827400Y-165328600D03*
X137797400Y-165328600D03*
D13*
X137388600Y-171587200D03*
X137388600Y-172227200D03*
D16*
X161290000Y-172720000D03*
D17*
X161290000Y-172720000D03*
D20*
X136541600Y-167601200D03*
X136541600Y-166961200D03*
D35*
X155246700Y-159969200D03*
X157071700Y-159969200D03*
D30*
X154191700Y-145973800D03*
X147966700Y-145973800D03*
D35*
X155246700Y-163525200D03*
X157071700Y-163525200D03*
D21*
X133766600Y-162712400D03*
X134406600Y-162712400D03*
D36*
X148780800Y-157581600D03*
X147230800Y-157581600D03*
D13*
X123621800Y-153985000D03*
X123621800Y-154625000D03*
D37*
X146786600Y-154397600D03*
X146786600Y-150097600D03*
D21*
X125892600Y-166448300D03*
X126532600Y-166448300D03*
D14*
X160725799Y-160553799D03*
D15*
X163265799Y-160553799D03*
D36*
X138646200Y-169341800D03*
X137096200Y-169341800D03*
D22*
X131307900Y-160309700D03*
X130667900Y-160309700D03*
D20*
X128854200Y-166436000D03*
X128854200Y-165796000D03*
D14*
X148676999Y-172657599D03*
D15*
X148676999Y-175197599D03*
X151216999Y-172657599D03*
X151216999Y-175197599D03*
X153756999Y-172657599D03*
X153756999Y-175197599D03*
X156296999Y-172657599D03*
X156296999Y-175197599D03*
D24*
X145069800Y-161666606D03*
X146089800Y-161666606D03*
D38*
X151488000Y-156108400D03*
X150518000Y-156108400D03*
D20*
X127381000Y-170754000D03*
X127381000Y-170114000D03*
D36*
X121323400Y-167843200D03*
X119773400Y-167843200D03*
D39*
X144525900Y-170789600D03*
X146100900Y-170789600D03*
D13*
X149123400Y-161118006D03*
X149123400Y-161758006D03*
D22*
X121450900Y-166594700D03*
X120810900Y-166594700D03*
X120258900Y-162544900D03*
X119618900Y-162544900D03*
X120258800Y-159664400D03*
X119618800Y-159664400D03*
D20*
X128092200Y-170754000D03*
X128092200Y-170114000D03*
D40*
X125905500Y-170418800D03*
X125905500Y-168518800D03*
X124030500Y-169468800D03*
D41*
X156286200Y-167690700D03*
X156286200Y-169265700D03*
D13*
X157149800Y-164932400D03*
X157149800Y-165572400D03*
D22*
X119372300Y-155295600D03*
X118732300Y-155295600D03*
D42*
X132308599Y-145491199D03*
X142316199Y-145491199D03*
D13*
X152984200Y-168894800D03*
X152984200Y-169534800D03*
D20*
X150037800Y-161754941D03*
X150037800Y-161114941D03*
D35*
X155251728Y-156133800D03*
X157076728Y-156133800D03*
D13*
X157139600Y-157541000D03*
X157139600Y-158181000D03*
D14*
X160725799Y-156921599D03*
D15*
X163265799Y-156921599D03*
D11*
X118033599Y-137129599D03*
D12*
X118033600Y-142209600D03*
X118033600Y-147289600D03*
D34*
X117752000Y-154305000D03*
X118722000Y-154305000D03*
D16*
X161290000Y-130810000D03*
D17*
X161290000Y-130810000D03*
D22*
X150992800Y-168579800D03*
X150352800Y-168579800D03*
D36*
X145821400Y-159152006D03*
X144271400Y-159152006D03*
D13*
X135686800Y-166964400D03*
X135686800Y-167604400D03*
D16*
X119380000Y-172720000D03*
D17*
X119380000Y-172720000D03*
D22*
X131206200Y-158369000D03*
X130566200Y-158369000D03*
D24*
X152753600Y-156108400D03*
X153773600Y-156108400D03*
D43*
X154753999Y-151942799D03*
X150553999Y-151942799D03*
D44*
X139166600Y-165316200D03*
X139166600Y-163766200D03*
D45*
X119998499Y-163826099D03*
X119998499Y-165226099D03*
X121098499Y-165226099D03*
X121098499Y-163826099D03*
D46*
X128132900Y-155097200D03*
X129082900Y-155097200D03*
X130032900Y-155097200D03*
X130032900Y-152822200D03*
X128132900Y-152822200D03*
D31*
X158419800Y-170180000D03*
D47*
X126699999Y-172509199D03*
X127349999Y-172509199D03*
X127999999Y-172509199D03*
X128649999Y-172509199D03*
X129299999Y-172509199D03*
D48*
X124499999Y-175209199D03*
D49*
X125099999Y-175209199D03*
D50*
X125499999Y-172509199D03*
D51*
X126999999Y-175209199D03*
X128999999Y-175209199D03*
D50*
X130499999Y-172509199D03*
D49*
X130899999Y-175209199D03*
D48*
X131499999Y-175209199D03*
D52*
X129301200Y-170177700D03*
X131201200Y-170177700D03*
X130251200Y-168302700D03*
D20*
X122350100Y-165543100D03*
X122350100Y-164903100D03*
D36*
X146088400Y-172339000D03*
X144538400Y-172339000D03*
D53*
X142501600Y-156235400D03*
X137101600Y-156235400D03*
D13*
X151993600Y-168894800D03*
X151993600Y-169534800D03*
D14*
X160725799Y-167792799D03*
D15*
X163265799Y-167792799D03*
D36*
X119494600Y-157251400D03*
X117944600Y-157251400D03*
D54*
X131500400Y-130048000D03*
X135500400Y-130048000D03*
X139500400Y-130048000D03*
D55*
X143540399Y-130017999D03*
X151470399Y-130047999D03*
D54*
X155500400Y-130048000D03*
D22*
X127980400Y-166446200D03*
X127340400Y-166446200D03*
D20*
X124536200Y-154614700D03*
X124536200Y-153974700D03*
D56*
X127497600Y-137753400D03*
X126197600Y-145253400D03*
D22*
X144033200Y-168249600D03*
X143393200Y-168249600D03*
D21*
X150352800Y-169570400D03*
X150992800Y-169570400D03*
D13*
X134848600Y-171587200D03*
X134848600Y-172227200D03*
D21*
X156855200Y-152730200D03*
X157495200Y-152730200D03*
M02*
