G04 #@! TF.GenerationSoftware,KiCad,Pcbnew,(7.0.0)*
G04 #@! TF.CreationDate,2023-09-29T14:02:52-04:00*
G04 #@! TF.ProjectId,_HW_HotPlate,5f48575f-486f-4745-906c-6174652e6b69,rev?*
G04 #@! TF.SameCoordinates,Original*
G04 #@! TF.FileFunction,Copper,L3,Inr*
G04 #@! TF.FilePolarity,Positive*
%FSLAX46Y46*%
G04 Gerber Fmt 4.6, Leading zero omitted, Abs format (unit mm)*
G04 Created by KiCad (PCBNEW (7.0.0)) date 2023-09-29 14:02:52*
%MOMM*%
%LPD*%
G01*
G04 APERTURE LIST*
G04 #@! TA.AperFunction,ComponentPad*
%ADD10R,2.600000X2.600000*%
G04 #@! TD*
G04 #@! TA.AperFunction,ComponentPad*
%ADD11C,2.600000*%
G04 #@! TD*
G04 #@! TA.AperFunction,ComponentPad*
%ADD12R,1.700000X1.700000*%
G04 #@! TD*
G04 #@! TA.AperFunction,ComponentPad*
%ADD13O,1.700000X1.700000*%
G04 #@! TD*
G04 #@! TA.AperFunction,ComponentPad*
%ADD14C,3.600000*%
G04 #@! TD*
G04 #@! TA.AperFunction,ComponentPad*
%ADD15C,0.500000*%
G04 #@! TD*
G04 #@! TA.AperFunction,ComponentPad*
%ADD16O,0.890000X1.550000*%
G04 #@! TD*
G04 #@! TA.AperFunction,ComponentPad*
%ADD17O,1.250000X0.950000*%
G04 #@! TD*
G04 #@! TA.AperFunction,ComponentPad*
%ADD18R,3.000000X3.000000*%
G04 #@! TD*
G04 #@! TA.AperFunction,ComponentPad*
%ADD19C,1.800000*%
G04 #@! TD*
G04 #@! TA.AperFunction,ViaPad*
%ADD20C,0.800000*%
G04 #@! TD*
G04 #@! TA.AperFunction,Conductor*
%ADD21C,3.810000*%
G04 #@! TD*
G04 #@! TA.AperFunction,Conductor*
%ADD22C,2.540000*%
G04 #@! TD*
G04 APERTURE END LIST*
D10*
X162483799Y-147345399D03*
D11*
X162483800Y-142265400D03*
X162483800Y-137185400D03*
D12*
X134853999Y-175152599D03*
D13*
X137393999Y-175152599D03*
X139933999Y-175152599D03*
X142473999Y-175152599D03*
X145013999Y-175152599D03*
D14*
X119380000Y-130810000D03*
D12*
X116921999Y-160284799D03*
D13*
X116921999Y-162824799D03*
X116921999Y-165364799D03*
X116921999Y-167904799D03*
D12*
X160725799Y-164168399D03*
D13*
X163265799Y-164168399D03*
D15*
X124541200Y-158892200D03*
X124541200Y-159842200D03*
X124541200Y-160792200D03*
X124541200Y-161742200D03*
X125491200Y-158892200D03*
X125491200Y-159842200D03*
X125491200Y-160792200D03*
X125491200Y-161742200D03*
X126441200Y-158892200D03*
X126441200Y-159842200D03*
X126441200Y-160792200D03*
X126441200Y-161742200D03*
X127391200Y-158892200D03*
X127391200Y-159842200D03*
X127391200Y-160792200D03*
X127391200Y-161742200D03*
D12*
X160725799Y-153314799D03*
D13*
X163265799Y-153314799D03*
D14*
X161290000Y-172720000D03*
D12*
X160725799Y-160553799D03*
D13*
X163265799Y-160553799D03*
D12*
X148676999Y-172657599D03*
D13*
X148676999Y-175197599D03*
X151216999Y-172657599D03*
X151216999Y-175197599D03*
X153756999Y-172657599D03*
X153756999Y-175197599D03*
X156296999Y-172657599D03*
X156296999Y-175197599D03*
D12*
X160725799Y-156921599D03*
D13*
X163265799Y-156921599D03*
D10*
X118033599Y-137129599D03*
D11*
X118033600Y-142209600D03*
X118033600Y-147289600D03*
D14*
X161290000Y-130810000D03*
X119380000Y-172720000D03*
D16*
X124499999Y-175209199D03*
D17*
X125499999Y-172509199D03*
X130499999Y-172509199D03*
D16*
X131499999Y-175209199D03*
D12*
X160725799Y-167792799D03*
D13*
X163265799Y-167792799D03*
D18*
X131500399Y-130047999D03*
X135500399Y-130047999D03*
X139500399Y-130047999D03*
X143540399Y-130017999D03*
X151470399Y-130047999D03*
X155500399Y-130047999D03*
D19*
X127497600Y-137753400D03*
X126197600Y-145253400D03*
D20*
X159025832Y-162221940D03*
X137109200Y-157988000D03*
X131978400Y-157226000D03*
X137744200Y-159080200D03*
X137134600Y-166446200D03*
X153405417Y-157266217D03*
X138633200Y-173990000D03*
X158978600Y-158693486D03*
X135788400Y-157988000D03*
X124039174Y-170473826D03*
X136423400Y-159080200D03*
X118918900Y-166594700D03*
X132232400Y-161432300D03*
X117754400Y-155575000D03*
X137134600Y-162941000D03*
X153720800Y-154457400D03*
X157861000Y-166522400D03*
X149775580Y-170429015D03*
X121005600Y-153233100D03*
X124993400Y-167421500D03*
X121539000Y-162433000D03*
X132816600Y-173888400D03*
X135943289Y-171490700D03*
X155094600Y-171373800D03*
X132334000Y-168706800D03*
X138277600Y-157988000D03*
X154000200Y-164363400D03*
X140722500Y-165322100D03*
X121880174Y-169254626D03*
X126492000Y-151155400D03*
X143383000Y-169443400D03*
X144526000Y-169443400D03*
X140004800Y-168249600D03*
X129982100Y-161122500D03*
X128854200Y-167386000D03*
X132511800Y-158316100D03*
X134213600Y-169164000D03*
X140385800Y-162880100D03*
X147091400Y-159531300D03*
X149326600Y-156184600D03*
X143332200Y-171602400D03*
X160172400Y-151333200D03*
X149352000Y-154813000D03*
X149352000Y-153644600D03*
X147170967Y-171270527D03*
X154228800Y-166276045D03*
X152094747Y-166268853D03*
X136017000Y-137769600D03*
X136017000Y-136804400D03*
X128813500Y-164744400D03*
X124841000Y-151206200D03*
X124180600Y-152044400D03*
X144678400Y-163372800D03*
X146685000Y-174294800D03*
X158419800Y-154305000D03*
X135686800Y-163017200D03*
X125196600Y-164896800D03*
X130556000Y-157378400D03*
X123418600Y-164490400D03*
X123926600Y-155956000D03*
X152348747Y-163854947D03*
X121704100Y-157899100D03*
X152298400Y-162026600D03*
X121666000Y-156870400D03*
X152349200Y-159740600D03*
X142570200Y-164579753D03*
X121412000Y-160807400D03*
X123445726Y-165660526D03*
X158140400Y-151511000D03*
X127025400Y-155549600D03*
X158165800Y-165218686D03*
X158089600Y-161503400D03*
X158089600Y-157871200D03*
X125196600Y-152857200D03*
X126669800Y-152933400D03*
X133451600Y-160731200D03*
D21*
X136017000Y-147294600D02*
X136017000Y-136804400D01*
D22*
X126197600Y-147345400D02*
X124105600Y-147345400D01*
D21*
X162483800Y-147345400D02*
X135966200Y-147345400D01*
X124105600Y-147345400D02*
X118089400Y-147345400D01*
X126197600Y-145253400D02*
X126197600Y-147345400D01*
D22*
X118089400Y-147345400D02*
X118033600Y-147289600D01*
X135966200Y-147345400D02*
X136017000Y-147294600D01*
D21*
X135966200Y-147345400D02*
X124105600Y-147345400D01*
G04 #@! TA.AperFunction,Conductor*
G36*
X124004666Y-151022006D02*
G01*
X124050414Y-151073199D01*
X124061914Y-151140884D01*
X124056904Y-151185348D01*
X124030631Y-151248777D01*
X123974639Y-151288505D01*
X123845947Y-151333536D01*
X123845931Y-151333543D01*
X123839374Y-151335838D01*
X123833486Y-151339537D01*
X123833483Y-151339539D01*
X123696160Y-151425825D01*
X123696155Y-151425828D01*
X123690260Y-151429533D01*
X123685335Y-151434457D01*
X123685331Y-151434461D01*
X123570661Y-151549131D01*
X123570657Y-151549135D01*
X123565733Y-151554060D01*
X123562028Y-151559955D01*
X123562025Y-151559960D01*
X123475739Y-151697283D01*
X123475737Y-151697286D01*
X123472038Y-151703174D01*
X123469742Y-151709732D01*
X123469740Y-151709739D01*
X123422180Y-151845660D01*
X123413873Y-151869400D01*
X123413093Y-151876319D01*
X123413093Y-151876321D01*
X123400219Y-151990580D01*
X123394155Y-152044400D01*
X123394935Y-152051323D01*
X123397124Y-152070755D01*
X123413873Y-152219400D01*
X123416172Y-152225970D01*
X123467144Y-152371642D01*
X123472038Y-152385626D01*
X123475739Y-152391516D01*
X123538118Y-152490792D01*
X123565733Y-152534740D01*
X123690260Y-152659267D01*
X123839374Y-152752962D01*
X124005600Y-152811127D01*
X124180600Y-152830845D01*
X124281126Y-152819518D01*
X124344594Y-152829084D01*
X124394778Y-152869104D01*
X124418228Y-152928854D01*
X124429093Y-153025278D01*
X124429873Y-153032200D01*
X124432172Y-153038770D01*
X124473331Y-153156398D01*
X124488038Y-153198426D01*
X124491739Y-153204316D01*
X124553981Y-153303374D01*
X124581733Y-153347540D01*
X124706260Y-153472067D01*
X124855374Y-153565762D01*
X125021600Y-153623927D01*
X125196600Y-153643645D01*
X125371600Y-153623927D01*
X125537826Y-153565762D01*
X125686940Y-153472067D01*
X125811467Y-153347540D01*
X125812992Y-153345111D01*
X125857754Y-153310429D01*
X125915354Y-153299807D01*
X125971405Y-153316808D01*
X126013398Y-153357639D01*
X126051223Y-153417837D01*
X126051225Y-153417839D01*
X126054933Y-153423740D01*
X126179460Y-153548267D01*
X126328574Y-153641962D01*
X126494800Y-153700127D01*
X126669800Y-153719845D01*
X126844800Y-153700127D01*
X127011026Y-153641962D01*
X127160140Y-153548267D01*
X127284667Y-153423740D01*
X127378362Y-153274626D01*
X127436527Y-153108400D01*
X127456245Y-152933400D01*
X127436527Y-152758400D01*
X127378362Y-152592174D01*
X127284667Y-152443060D01*
X127160140Y-152318533D01*
X127125337Y-152296665D01*
X127016916Y-152228539D01*
X127011026Y-152224838D01*
X127004463Y-152222541D01*
X127004460Y-152222540D01*
X126851370Y-152168972D01*
X126844800Y-152166673D01*
X126837880Y-152165893D01*
X126837879Y-152165893D01*
X126721522Y-152152782D01*
X126660288Y-152128219D01*
X126620320Y-152075726D01*
X126612934Y-152010163D01*
X126640220Y-151950093D01*
X126694450Y-151912521D01*
X126833226Y-151863962D01*
X126982340Y-151770267D01*
X127106867Y-151645740D01*
X127200562Y-151496626D01*
X127258727Y-151330400D01*
X127278445Y-151155400D01*
X127276809Y-151140884D01*
X127288308Y-151073201D01*
X127334056Y-151022007D01*
X127400029Y-151003000D01*
X157315672Y-151003000D01*
X157375653Y-151018472D01*
X157420666Y-151061028D01*
X157439477Y-151120048D01*
X157429732Y-151169037D01*
X157431838Y-151169774D01*
X157378055Y-151323478D01*
X157373673Y-151336000D01*
X157353955Y-151511000D01*
X157354735Y-151517923D01*
X157359471Y-151559960D01*
X157373673Y-151686000D01*
X157379682Y-151703174D01*
X157423524Y-151828468D01*
X157431838Y-151852226D01*
X157446978Y-151876321D01*
X157462436Y-151900923D01*
X157525533Y-152001340D01*
X157650060Y-152125867D01*
X157799174Y-152219562D01*
X157965400Y-152277727D01*
X158140400Y-152297445D01*
X158315400Y-152277727D01*
X158481626Y-152219562D01*
X158630740Y-152125867D01*
X158755267Y-152001340D01*
X158848962Y-151852226D01*
X158907127Y-151686000D01*
X158926845Y-151511000D01*
X158907127Y-151336000D01*
X158848962Y-151169774D01*
X158851067Y-151169037D01*
X158841323Y-151120048D01*
X158860134Y-151061028D01*
X158905147Y-151018472D01*
X158965128Y-151003000D01*
X159286405Y-151003000D01*
X159340206Y-151015280D01*
X159383352Y-151049687D01*
X159407296Y-151099406D01*
X159407296Y-151153562D01*
X159405673Y-151158200D01*
X159404894Y-151165111D01*
X159404893Y-151165117D01*
X159395467Y-151248777D01*
X159385955Y-151333200D01*
X159386735Y-151340123D01*
X159397364Y-151434461D01*
X159405673Y-151508200D01*
X159407972Y-151514770D01*
X159455524Y-151650668D01*
X159463838Y-151674426D01*
X159557533Y-151823540D01*
X159562461Y-151828468D01*
X159682060Y-151948067D01*
X159680830Y-151949296D01*
X159711947Y-151990580D01*
X159720717Y-152051718D01*
X159698907Y-152109502D01*
X159666777Y-152136922D01*
X159668647Y-152139541D01*
X159660287Y-152145510D01*
X159651054Y-152150024D01*
X159643790Y-152157287D01*
X159643787Y-152157290D01*
X159568290Y-152232787D01*
X159568287Y-152232790D01*
X159561024Y-152240054D01*
X159556512Y-152249282D01*
X159556510Y-152249286D01*
X159509332Y-152345789D01*
X159509330Y-152345793D01*
X159505104Y-152354439D01*
X159503716Y-152363962D01*
X159503716Y-152363964D01*
X159502435Y-152372760D01*
X159494300Y-152428594D01*
X159494300Y-154201006D01*
X159505104Y-154275161D01*
X159509331Y-154283808D01*
X159509332Y-154283810D01*
X159523076Y-154311923D01*
X159561024Y-154389546D01*
X159651054Y-154479576D01*
X159765439Y-154535496D01*
X159839594Y-154546300D01*
X161607520Y-154546300D01*
X161612006Y-154546300D01*
X161686161Y-154535496D01*
X161800546Y-154479576D01*
X161890576Y-154389546D01*
X161946496Y-154275161D01*
X161957300Y-154201006D01*
X161957300Y-153982017D01*
X161975012Y-153918151D01*
X162023087Y-153872531D01*
X162087792Y-153858187D01*
X162150643Y-153879218D01*
X162188930Y-153924051D01*
X162190221Y-153923306D01*
X162192926Y-153927991D01*
X162195216Y-153932902D01*
X162198322Y-153937339D01*
X162198324Y-153937341D01*
X162227676Y-153979260D01*
X162318813Y-154109417D01*
X162471183Y-154261787D01*
X162647698Y-154385384D01*
X162842993Y-154476452D01*
X163051135Y-154532223D01*
X163265800Y-154551004D01*
X163480465Y-154532223D01*
X163650846Y-154486570D01*
X163673407Y-154480525D01*
X163729691Y-154478683D01*
X163780987Y-154501924D01*
X163816712Y-154545456D01*
X163829500Y-154600300D01*
X163829500Y-155636100D01*
X163816712Y-155690944D01*
X163780987Y-155734476D01*
X163729691Y-155757717D01*
X163673407Y-155755875D01*
X163485690Y-155705577D01*
X163485689Y-155705576D01*
X163480465Y-155704177D01*
X163475077Y-155703705D01*
X163475074Y-155703705D01*
X163271195Y-155685868D01*
X163265800Y-155685396D01*
X163260405Y-155685868D01*
X163056525Y-155703705D01*
X163056520Y-155703705D01*
X163051135Y-155704177D01*
X163045910Y-155705576D01*
X163045910Y-155705577D01*
X162848225Y-155758545D01*
X162848213Y-155758549D01*
X162842993Y-155759948D01*
X162838088Y-155762234D01*
X162838083Y-155762237D01*
X162652608Y-155848726D01*
X162652604Y-155848728D01*
X162647698Y-155851016D01*
X162643265Y-155854119D01*
X162643258Y-155854124D01*
X162475618Y-155971507D01*
X162475613Y-155971510D01*
X162471183Y-155974613D01*
X162467359Y-155978436D01*
X162467353Y-155978442D01*
X162322642Y-156123153D01*
X162322636Y-156123159D01*
X162318813Y-156126983D01*
X162315710Y-156131413D01*
X162315707Y-156131418D01*
X162198324Y-156299058D01*
X162198319Y-156299065D01*
X162195216Y-156303498D01*
X162192927Y-156308406D01*
X162190221Y-156313094D01*
X162188930Y-156312348D01*
X162150643Y-156357182D01*
X162087792Y-156378213D01*
X162023087Y-156363869D01*
X161975012Y-156318249D01*
X161957300Y-156254383D01*
X161957300Y-156039880D01*
X161957300Y-156035394D01*
X161946496Y-155961239D01*
X161890576Y-155846854D01*
X161800546Y-155756824D01*
X161754833Y-155734476D01*
X161694810Y-155705132D01*
X161694808Y-155705131D01*
X161686161Y-155700904D01*
X161676635Y-155699516D01*
X161616442Y-155690746D01*
X161616437Y-155690745D01*
X161612006Y-155690100D01*
X159839594Y-155690100D01*
X159835163Y-155690745D01*
X159835157Y-155690746D01*
X159774964Y-155699516D01*
X159774962Y-155699516D01*
X159765439Y-155700904D01*
X159756793Y-155705130D01*
X159756789Y-155705132D01*
X159660286Y-155752310D01*
X159660282Y-155752312D01*
X159651054Y-155756824D01*
X159643790Y-155764087D01*
X159643787Y-155764090D01*
X159568290Y-155839587D01*
X159568287Y-155839590D01*
X159561024Y-155846854D01*
X159556512Y-155856082D01*
X159556510Y-155856086D01*
X159509332Y-155952589D01*
X159509330Y-155952593D01*
X159505104Y-155961239D01*
X159503716Y-155970762D01*
X159503716Y-155970764D01*
X159497050Y-156016521D01*
X159494300Y-156035394D01*
X159494300Y-157807806D01*
X159494945Y-157812237D01*
X159494946Y-157812242D01*
X159502597Y-157864757D01*
X159505104Y-157881961D01*
X159561024Y-157996346D01*
X159651054Y-158086376D01*
X159765439Y-158142296D01*
X159839594Y-158153100D01*
X161607520Y-158153100D01*
X161612006Y-158153100D01*
X161686161Y-158142296D01*
X161800546Y-158086376D01*
X161890576Y-157996346D01*
X161946496Y-157881961D01*
X161957300Y-157807806D01*
X161957300Y-157588817D01*
X161975012Y-157524951D01*
X162023087Y-157479331D01*
X162087792Y-157464987D01*
X162150643Y-157486018D01*
X162188930Y-157530851D01*
X162190221Y-157530106D01*
X162192926Y-157534791D01*
X162195216Y-157539702D01*
X162198322Y-157544139D01*
X162198324Y-157544141D01*
X162203597Y-157551672D01*
X162318813Y-157716217D01*
X162471183Y-157868587D01*
X162647698Y-157992184D01*
X162842993Y-158083252D01*
X163051135Y-158139023D01*
X163265800Y-158157804D01*
X163480465Y-158139023D01*
X163640552Y-158096128D01*
X163673407Y-158087325D01*
X163729691Y-158085483D01*
X163780987Y-158108724D01*
X163816712Y-158152256D01*
X163829500Y-158207100D01*
X163829500Y-159268300D01*
X163816712Y-159323144D01*
X163780987Y-159366676D01*
X163729691Y-159389917D01*
X163673407Y-159388075D01*
X163485690Y-159337777D01*
X163485689Y-159337776D01*
X163480465Y-159336377D01*
X163475077Y-159335905D01*
X163475074Y-159335905D01*
X163271195Y-159318068D01*
X163265800Y-159317596D01*
X163260405Y-159318068D01*
X163056525Y-159335905D01*
X163056520Y-159335905D01*
X163051135Y-159336377D01*
X163045910Y-159337776D01*
X163045910Y-159337777D01*
X162848225Y-159390745D01*
X162848213Y-159390749D01*
X162842993Y-159392148D01*
X162838088Y-159394434D01*
X162838083Y-159394437D01*
X162652608Y-159480926D01*
X162652604Y-159480928D01*
X162647698Y-159483216D01*
X162643265Y-159486319D01*
X162643258Y-159486324D01*
X162475618Y-159603707D01*
X162475613Y-159603710D01*
X162471183Y-159606813D01*
X162467359Y-159610636D01*
X162467353Y-159610642D01*
X162322642Y-159755353D01*
X162322636Y-159755359D01*
X162318813Y-159759183D01*
X162315710Y-159763613D01*
X162315707Y-159763618D01*
X162198324Y-159931258D01*
X162198319Y-159931265D01*
X162195216Y-159935698D01*
X162192927Y-159940606D01*
X162190221Y-159945294D01*
X162188930Y-159944548D01*
X162150643Y-159989382D01*
X162087792Y-160010413D01*
X162023087Y-159996069D01*
X161975012Y-159950449D01*
X161957300Y-159886583D01*
X161957300Y-159672080D01*
X161957300Y-159667594D01*
X161946496Y-159593439D01*
X161890576Y-159479054D01*
X161800546Y-159389024D01*
X161695720Y-159337777D01*
X161694810Y-159337332D01*
X161694808Y-159337331D01*
X161686161Y-159333104D01*
X161676635Y-159331716D01*
X161616442Y-159322946D01*
X161616437Y-159322945D01*
X161612006Y-159322300D01*
X159839594Y-159322300D01*
X159835163Y-159322945D01*
X159835157Y-159322946D01*
X159774964Y-159331716D01*
X159774962Y-159331716D01*
X159765439Y-159333104D01*
X159756793Y-159337330D01*
X159756789Y-159337332D01*
X159660286Y-159384510D01*
X159660282Y-159384512D01*
X159651054Y-159389024D01*
X159643790Y-159396287D01*
X159643787Y-159396290D01*
X159568290Y-159471787D01*
X159568287Y-159471790D01*
X159561024Y-159479054D01*
X159556512Y-159488282D01*
X159556510Y-159488286D01*
X159509332Y-159584789D01*
X159509330Y-159584793D01*
X159505104Y-159593439D01*
X159503716Y-159602962D01*
X159503716Y-159602964D01*
X159502598Y-159610642D01*
X159494300Y-159667594D01*
X159494300Y-161440006D01*
X159494945Y-161444437D01*
X159494946Y-161444442D01*
X159502597Y-161496957D01*
X159505104Y-161514161D01*
X159509331Y-161522808D01*
X159509332Y-161522810D01*
X159550461Y-161606939D01*
X159561024Y-161628546D01*
X159651054Y-161718576D01*
X159765439Y-161774496D01*
X159839594Y-161785300D01*
X161607520Y-161785300D01*
X161612006Y-161785300D01*
X161686161Y-161774496D01*
X161800546Y-161718576D01*
X161890576Y-161628546D01*
X161946496Y-161514161D01*
X161957300Y-161440006D01*
X161957300Y-161221017D01*
X161975012Y-161157151D01*
X162023087Y-161111531D01*
X162087792Y-161097187D01*
X162150643Y-161118218D01*
X162188930Y-161163051D01*
X162190221Y-161162306D01*
X162192926Y-161166991D01*
X162195216Y-161171902D01*
X162198322Y-161176339D01*
X162198324Y-161176341D01*
X162256268Y-161259093D01*
X162318813Y-161348417D01*
X162471183Y-161500787D01*
X162647698Y-161624384D01*
X162842993Y-161715452D01*
X163051135Y-161771223D01*
X163265800Y-161790004D01*
X163480465Y-161771223D01*
X163640552Y-161728328D01*
X163673407Y-161719525D01*
X163729691Y-161717683D01*
X163780987Y-161740924D01*
X163816712Y-161784456D01*
X163829500Y-161839300D01*
X163829500Y-162882900D01*
X163816712Y-162937744D01*
X163780987Y-162981276D01*
X163729691Y-163004517D01*
X163673407Y-163002675D01*
X163485690Y-162952377D01*
X163485689Y-162952376D01*
X163480465Y-162950977D01*
X163475077Y-162950505D01*
X163475074Y-162950505D01*
X163271195Y-162932668D01*
X163265800Y-162932196D01*
X163260405Y-162932668D01*
X163056525Y-162950505D01*
X163056520Y-162950505D01*
X163051135Y-162950977D01*
X163045910Y-162952376D01*
X163045910Y-162952377D01*
X162848225Y-163005345D01*
X162848213Y-163005349D01*
X162842993Y-163006748D01*
X162838088Y-163009034D01*
X162838083Y-163009037D01*
X162652608Y-163095526D01*
X162652604Y-163095528D01*
X162647698Y-163097816D01*
X162643265Y-163100919D01*
X162643258Y-163100924D01*
X162475618Y-163218307D01*
X162475613Y-163218310D01*
X162471183Y-163221413D01*
X162467359Y-163225236D01*
X162467353Y-163225242D01*
X162322642Y-163369953D01*
X162322636Y-163369959D01*
X162318813Y-163373783D01*
X162315710Y-163378213D01*
X162315707Y-163378218D01*
X162198324Y-163545858D01*
X162198319Y-163545865D01*
X162195216Y-163550298D01*
X162192927Y-163555206D01*
X162190221Y-163559894D01*
X162188930Y-163559148D01*
X162150643Y-163603982D01*
X162087792Y-163625013D01*
X162023087Y-163610669D01*
X161975012Y-163565049D01*
X161957300Y-163501183D01*
X161957300Y-163286680D01*
X161957300Y-163282194D01*
X161946496Y-163208039D01*
X161890576Y-163093654D01*
X161800546Y-163003624D01*
X161695720Y-162952377D01*
X161694810Y-162951932D01*
X161694808Y-162951931D01*
X161686161Y-162947704D01*
X161676635Y-162946316D01*
X161616442Y-162937546D01*
X161616437Y-162937545D01*
X161612006Y-162936900D01*
X159839594Y-162936900D01*
X159835163Y-162937545D01*
X159835157Y-162937546D01*
X159774964Y-162946316D01*
X159774962Y-162946316D01*
X159765439Y-162947704D01*
X159756793Y-162951930D01*
X159756789Y-162951932D01*
X159660286Y-162999110D01*
X159660282Y-162999112D01*
X159651054Y-163003624D01*
X159643790Y-163010887D01*
X159643787Y-163010890D01*
X159568290Y-163086387D01*
X159568287Y-163086390D01*
X159561024Y-163093654D01*
X159556512Y-163102882D01*
X159556510Y-163102886D01*
X159509332Y-163199389D01*
X159509330Y-163199393D01*
X159505104Y-163208039D01*
X159503716Y-163217562D01*
X159503716Y-163217564D01*
X159499718Y-163245008D01*
X159494300Y-163282194D01*
X159494300Y-165054606D01*
X159494945Y-165059037D01*
X159494946Y-165059042D01*
X159500580Y-165097713D01*
X159505104Y-165128761D01*
X159509331Y-165137408D01*
X159509332Y-165137410D01*
X159555311Y-165231460D01*
X159561024Y-165243146D01*
X159651054Y-165333176D01*
X159765439Y-165389096D01*
X159839594Y-165399900D01*
X161607520Y-165399900D01*
X161612006Y-165399900D01*
X161686161Y-165389096D01*
X161800546Y-165333176D01*
X161890576Y-165243146D01*
X161946496Y-165128761D01*
X161957300Y-165054606D01*
X161957300Y-164835617D01*
X161975012Y-164771751D01*
X162023087Y-164726131D01*
X162087792Y-164711787D01*
X162150643Y-164732818D01*
X162188930Y-164777651D01*
X162190221Y-164776906D01*
X162192926Y-164781591D01*
X162195216Y-164786502D01*
X162198322Y-164790939D01*
X162198324Y-164790941D01*
X162226812Y-164831626D01*
X162318813Y-164963017D01*
X162471183Y-165115387D01*
X162647698Y-165238984D01*
X162842993Y-165330052D01*
X163051135Y-165385823D01*
X163265800Y-165404604D01*
X163480465Y-165385823D01*
X163640552Y-165342928D01*
X163673407Y-165334125D01*
X163729691Y-165332283D01*
X163780987Y-165355524D01*
X163816712Y-165399056D01*
X163829500Y-165453900D01*
X163829500Y-166507300D01*
X163816712Y-166562144D01*
X163780987Y-166605676D01*
X163729691Y-166628917D01*
X163673407Y-166627075D01*
X163485690Y-166576777D01*
X163485689Y-166576776D01*
X163480465Y-166575377D01*
X163475077Y-166574905D01*
X163475074Y-166574905D01*
X163271195Y-166557068D01*
X163265800Y-166556596D01*
X163260405Y-166557068D01*
X163056525Y-166574905D01*
X163056520Y-166574905D01*
X163051135Y-166575377D01*
X163045910Y-166576776D01*
X163045910Y-166576777D01*
X162848225Y-166629745D01*
X162848213Y-166629749D01*
X162842993Y-166631148D01*
X162838088Y-166633434D01*
X162838083Y-166633437D01*
X162652608Y-166719926D01*
X162652604Y-166719928D01*
X162647698Y-166722216D01*
X162643265Y-166725319D01*
X162643258Y-166725324D01*
X162475618Y-166842707D01*
X162475613Y-166842710D01*
X162471183Y-166845813D01*
X162467359Y-166849636D01*
X162467353Y-166849642D01*
X162322642Y-166994353D01*
X162322636Y-166994359D01*
X162318813Y-166998183D01*
X162315710Y-167002613D01*
X162315707Y-167002618D01*
X162198324Y-167170258D01*
X162198319Y-167170265D01*
X162195216Y-167174698D01*
X162192927Y-167179606D01*
X162190221Y-167184294D01*
X162188930Y-167183548D01*
X162150643Y-167228382D01*
X162087792Y-167249413D01*
X162023087Y-167235069D01*
X161975012Y-167189449D01*
X161957300Y-167125583D01*
X161957300Y-166911080D01*
X161957300Y-166906594D01*
X161946496Y-166832439D01*
X161890576Y-166718054D01*
X161800546Y-166628024D01*
X161790599Y-166623161D01*
X161694810Y-166576332D01*
X161694808Y-166576331D01*
X161686161Y-166572104D01*
X161676635Y-166570716D01*
X161616442Y-166561946D01*
X161616437Y-166561945D01*
X161612006Y-166561300D01*
X159839594Y-166561300D01*
X159835163Y-166561945D01*
X159835157Y-166561946D01*
X159774964Y-166570716D01*
X159774962Y-166570716D01*
X159765439Y-166572104D01*
X159756793Y-166576330D01*
X159756789Y-166576332D01*
X159660286Y-166623510D01*
X159660282Y-166623512D01*
X159651054Y-166628024D01*
X159643790Y-166635287D01*
X159643787Y-166635290D01*
X159568290Y-166710787D01*
X159568287Y-166710790D01*
X159561024Y-166718054D01*
X159556512Y-166727282D01*
X159556510Y-166727286D01*
X159509332Y-166823789D01*
X159509330Y-166823793D01*
X159505104Y-166832439D01*
X159503716Y-166841962D01*
X159503716Y-166841964D01*
X159496045Y-166894619D01*
X159494300Y-166906594D01*
X159494300Y-168679006D01*
X159494945Y-168683437D01*
X159494946Y-168683442D01*
X159502318Y-168734039D01*
X159505104Y-168753161D01*
X159509331Y-168761808D01*
X159509332Y-168761810D01*
X159551447Y-168847957D01*
X159561024Y-168867546D01*
X159651054Y-168957576D01*
X159765439Y-169013496D01*
X159839594Y-169024300D01*
X161607520Y-169024300D01*
X161612006Y-169024300D01*
X161686161Y-169013496D01*
X161800546Y-168957576D01*
X161890576Y-168867546D01*
X161946496Y-168753161D01*
X161957300Y-168679006D01*
X161957300Y-168460017D01*
X161975012Y-168396151D01*
X162023087Y-168350531D01*
X162087792Y-168336187D01*
X162150643Y-168357218D01*
X162188930Y-168402051D01*
X162190221Y-168401306D01*
X162192926Y-168405991D01*
X162195216Y-168410902D01*
X162198322Y-168415339D01*
X162198324Y-168415341D01*
X162204807Y-168424600D01*
X162318813Y-168587417D01*
X162471183Y-168739787D01*
X162647698Y-168863384D01*
X162842993Y-168954452D01*
X163051135Y-169010223D01*
X163265800Y-169029004D01*
X163480465Y-169010223D01*
X163640552Y-168967328D01*
X163673407Y-168958525D01*
X163729691Y-168956683D01*
X163780987Y-168979924D01*
X163816712Y-169023456D01*
X163829500Y-169078300D01*
X163829500Y-171653948D01*
X163829351Y-171660033D01*
X163811839Y-172016474D01*
X163810646Y-172028583D01*
X163758733Y-172378560D01*
X163756359Y-172390496D01*
X163709395Y-172577984D01*
X163674518Y-172637752D01*
X163613042Y-172669523D01*
X163544113Y-172663401D01*
X163489198Y-172621294D01*
X163465400Y-172556317D01*
X163456231Y-172422258D01*
X163395512Y-172130063D01*
X163295571Y-171848857D01*
X163158271Y-171583879D01*
X162986168Y-171340065D01*
X162782469Y-171121956D01*
X162779187Y-171119286D01*
X162779184Y-171119283D01*
X162554259Y-170936294D01*
X162554256Y-170936292D01*
X162550967Y-170933616D01*
X162547343Y-170931412D01*
X162547340Y-170931410D01*
X162299595Y-170780753D01*
X162299593Y-170780752D01*
X162295977Y-170778553D01*
X162271654Y-170767988D01*
X162026128Y-170661340D01*
X162026118Y-170661336D01*
X162022247Y-170659655D01*
X162007989Y-170655660D01*
X161738955Y-170580280D01*
X161738942Y-170580277D01*
X161734876Y-170579138D01*
X161730686Y-170578562D01*
X161730676Y-170578560D01*
X161443416Y-170539076D01*
X161443403Y-170539075D01*
X161439219Y-170538500D01*
X161140781Y-170538500D01*
X161136597Y-170539074D01*
X161136583Y-170539076D01*
X160849323Y-170578560D01*
X160849310Y-170578562D01*
X160845124Y-170579138D01*
X160841059Y-170580276D01*
X160841044Y-170580280D01*
X160561824Y-170658514D01*
X160561819Y-170658515D01*
X160557753Y-170659655D01*
X160553886Y-170661334D01*
X160553871Y-170661340D01*
X160287906Y-170776866D01*
X160287901Y-170776868D01*
X160284023Y-170778553D01*
X160280412Y-170780748D01*
X160280404Y-170780753D01*
X160032659Y-170931410D01*
X160032648Y-170931417D01*
X160029033Y-170933616D01*
X160025749Y-170936287D01*
X160025740Y-170936294D01*
X159800815Y-171119283D01*
X159800804Y-171119292D01*
X159797531Y-171121956D01*
X159794643Y-171125047D01*
X159794640Y-171125051D01*
X159596727Y-171336965D01*
X159593832Y-171340065D01*
X159591389Y-171343525D01*
X159591384Y-171343532D01*
X159424175Y-171580413D01*
X159424171Y-171580418D01*
X159421729Y-171583879D01*
X159419783Y-171587633D01*
X159419779Y-171587641D01*
X159286378Y-171845094D01*
X159286373Y-171845103D01*
X159284429Y-171848857D01*
X159283012Y-171852842D01*
X159283008Y-171852853D01*
X159185909Y-172126062D01*
X159185905Y-172126074D01*
X159184488Y-172130063D01*
X159183625Y-172134213D01*
X159183624Y-172134219D01*
X159124632Y-172418101D01*
X159124630Y-172418112D01*
X159123769Y-172422258D01*
X159123480Y-172426482D01*
X159123479Y-172426490D01*
X159109029Y-172637752D01*
X159103403Y-172720000D01*
X159123769Y-173017742D01*
X159124630Y-173021889D01*
X159124632Y-173021898D01*
X159176353Y-173270791D01*
X159184488Y-173309937D01*
X159185906Y-173313928D01*
X159185909Y-173313937D01*
X159283008Y-173587146D01*
X159284429Y-173591143D01*
X159286376Y-173594901D01*
X159286378Y-173594905D01*
X159399043Y-173812339D01*
X159421729Y-173856121D01*
X159573116Y-174070587D01*
X159578245Y-174077854D01*
X159593832Y-174099935D01*
X159797531Y-174318044D01*
X159800812Y-174320713D01*
X159800815Y-174320716D01*
X159907387Y-174407418D01*
X160029033Y-174506384D01*
X160284023Y-174661447D01*
X160557753Y-174780345D01*
X160762589Y-174837737D01*
X160841044Y-174859719D01*
X160841046Y-174859719D01*
X160845124Y-174860862D01*
X161140781Y-174901500D01*
X161145018Y-174901500D01*
X161374652Y-174901500D01*
X161440477Y-174920414D01*
X161486221Y-174971385D01*
X161497930Y-175038865D01*
X161472031Y-175102268D01*
X161416428Y-175142249D01*
X161188349Y-175223857D01*
X161176715Y-175227387D01*
X160833496Y-175313359D01*
X160821560Y-175315733D01*
X160471583Y-175367646D01*
X160459474Y-175368839D01*
X160103033Y-175386351D01*
X160096948Y-175386500D01*
X157651999Y-175386500D01*
X157586902Y-175368038D01*
X157541188Y-175318150D01*
X157528471Y-175251692D01*
X157533204Y-175197600D01*
X157514423Y-174982935D01*
X157462745Y-174790068D01*
X157460054Y-174780025D01*
X157460053Y-174780023D01*
X157458652Y-174774793D01*
X157367584Y-174579498D01*
X157243987Y-174402983D01*
X157091617Y-174250613D01*
X156915102Y-174127016D01*
X156728455Y-174039981D01*
X156676281Y-173994225D01*
X156656862Y-173927600D01*
X156676281Y-173860975D01*
X156728455Y-173815218D01*
X156915102Y-173728184D01*
X157091617Y-173604587D01*
X157243987Y-173452217D01*
X157367584Y-173275702D01*
X157458652Y-173080407D01*
X157514423Y-172872265D01*
X157533204Y-172657600D01*
X157514423Y-172442935D01*
X157458652Y-172234793D01*
X157367584Y-172039498D01*
X157243987Y-171862983D01*
X157091617Y-171710613D01*
X156915102Y-171587016D01*
X156719807Y-171495948D01*
X156714582Y-171494548D01*
X156714574Y-171494545D01*
X156556151Y-171452097D01*
X156511665Y-171440177D01*
X156506277Y-171439705D01*
X156506274Y-171439705D01*
X156302395Y-171421868D01*
X156297000Y-171421396D01*
X156291605Y-171421868D01*
X156087725Y-171439705D01*
X156087720Y-171439705D01*
X156082335Y-171440177D01*
X156077110Y-171441576D01*
X156077110Y-171441577D01*
X155879425Y-171494545D01*
X155879413Y-171494549D01*
X155874193Y-171495948D01*
X155869288Y-171498234D01*
X155869283Y-171498237D01*
X155683808Y-171584726D01*
X155683804Y-171584728D01*
X155678898Y-171587016D01*
X155674465Y-171590119D01*
X155674458Y-171590124D01*
X155506818Y-171707507D01*
X155506813Y-171707510D01*
X155502383Y-171710613D01*
X155498559Y-171714436D01*
X155498553Y-171714442D01*
X155353842Y-171859153D01*
X155353836Y-171859159D01*
X155350013Y-171862983D01*
X155346910Y-171867413D01*
X155346907Y-171867418D01*
X155229524Y-172035058D01*
X155229519Y-172035065D01*
X155226416Y-172039498D01*
X155224128Y-172044404D01*
X155224126Y-172044408D01*
X155139382Y-172226142D01*
X155093625Y-172278318D01*
X155027000Y-172297737D01*
X154960375Y-172278318D01*
X154914618Y-172226142D01*
X154869815Y-172130063D01*
X154827584Y-172039498D01*
X154703987Y-171862983D01*
X154551617Y-171710613D01*
X154375102Y-171587016D01*
X154179807Y-171495948D01*
X154174582Y-171494548D01*
X154174574Y-171494545D01*
X154016151Y-171452097D01*
X153971665Y-171440177D01*
X153966277Y-171439705D01*
X153966274Y-171439705D01*
X153762395Y-171421868D01*
X153757000Y-171421396D01*
X153751605Y-171421868D01*
X153547725Y-171439705D01*
X153547720Y-171439705D01*
X153542335Y-171440177D01*
X153537110Y-171441576D01*
X153537110Y-171441577D01*
X153339425Y-171494545D01*
X153339413Y-171494549D01*
X153334193Y-171495948D01*
X153329288Y-171498234D01*
X153329283Y-171498237D01*
X153143808Y-171584726D01*
X153143804Y-171584728D01*
X153138898Y-171587016D01*
X153134465Y-171590119D01*
X153134458Y-171590124D01*
X152966818Y-171707507D01*
X152966813Y-171707510D01*
X152962383Y-171710613D01*
X152958559Y-171714436D01*
X152958553Y-171714442D01*
X152813842Y-171859153D01*
X152813836Y-171859159D01*
X152810013Y-171862983D01*
X152806910Y-171867413D01*
X152806907Y-171867418D01*
X152689524Y-172035058D01*
X152689519Y-172035065D01*
X152686416Y-172039498D01*
X152684128Y-172044404D01*
X152684126Y-172044408D01*
X152599382Y-172226142D01*
X152553625Y-172278318D01*
X152487000Y-172297737D01*
X152420375Y-172278318D01*
X152374618Y-172226142D01*
X152329815Y-172130063D01*
X152287584Y-172039498D01*
X152163987Y-171862983D01*
X152011617Y-171710613D01*
X151835102Y-171587016D01*
X151639807Y-171495948D01*
X151634582Y-171494548D01*
X151634574Y-171494545D01*
X151476151Y-171452097D01*
X151431665Y-171440177D01*
X151426277Y-171439705D01*
X151426274Y-171439705D01*
X151222395Y-171421868D01*
X151217000Y-171421396D01*
X151211605Y-171421868D01*
X151007725Y-171439705D01*
X151007720Y-171439705D01*
X151002335Y-171440177D01*
X150997110Y-171441576D01*
X150997110Y-171441577D01*
X150799425Y-171494545D01*
X150799413Y-171494549D01*
X150794193Y-171495948D01*
X150789288Y-171498234D01*
X150789283Y-171498237D01*
X150603808Y-171584726D01*
X150603804Y-171584728D01*
X150598898Y-171587016D01*
X150594465Y-171590119D01*
X150594458Y-171590124D01*
X150426818Y-171707507D01*
X150426813Y-171707510D01*
X150422383Y-171710613D01*
X150418559Y-171714436D01*
X150418553Y-171714442D01*
X150273842Y-171859153D01*
X150273836Y-171859159D01*
X150270013Y-171862983D01*
X150266910Y-171867413D01*
X150266907Y-171867418D01*
X150149524Y-172035058D01*
X150149519Y-172035065D01*
X150146416Y-172039498D01*
X150144127Y-172044406D01*
X150141421Y-172049094D01*
X150140130Y-172048348D01*
X150101843Y-172093182D01*
X150038992Y-172114213D01*
X149974287Y-172099869D01*
X149926212Y-172054249D01*
X149908500Y-171990383D01*
X149908500Y-171775880D01*
X149908500Y-171771394D01*
X149897696Y-171697239D01*
X149841776Y-171582854D01*
X149751746Y-171492824D01*
X149742513Y-171488310D01*
X149646010Y-171441132D01*
X149646008Y-171441131D01*
X149637361Y-171436904D01*
X149627835Y-171435516D01*
X149567642Y-171426746D01*
X149567637Y-171426745D01*
X149563206Y-171426100D01*
X149558720Y-171426100D01*
X148078639Y-171426100D01*
X148012667Y-171407094D01*
X147966919Y-171355902D01*
X147955419Y-171288217D01*
X147956632Y-171277451D01*
X147956632Y-171277450D01*
X147957412Y-171270527D01*
X147937694Y-171095527D01*
X147879529Y-170929301D01*
X147785834Y-170780187D01*
X147661307Y-170655660D01*
X147512193Y-170561965D01*
X147505630Y-170559668D01*
X147505627Y-170559667D01*
X147352537Y-170506099D01*
X147345967Y-170503800D01*
X147339045Y-170503020D01*
X147177890Y-170484862D01*
X147170967Y-170484082D01*
X147164044Y-170484862D01*
X147002888Y-170503020D01*
X147002886Y-170503020D01*
X146995967Y-170503800D01*
X146989398Y-170506098D01*
X146989396Y-170506099D01*
X146836306Y-170559667D01*
X146836299Y-170559669D01*
X146829741Y-170561965D01*
X146823853Y-170565664D01*
X146823850Y-170565666D01*
X146686527Y-170651952D01*
X146686522Y-170651955D01*
X146680627Y-170655660D01*
X146675702Y-170660584D01*
X146675698Y-170660588D01*
X146561028Y-170775258D01*
X146561024Y-170775262D01*
X146556100Y-170780187D01*
X146552395Y-170786082D01*
X146552392Y-170786087D01*
X146466106Y-170923410D01*
X146466104Y-170923413D01*
X146462405Y-170929301D01*
X146460109Y-170935859D01*
X146460107Y-170935866D01*
X146440304Y-170992461D01*
X146404240Y-171095527D01*
X146403460Y-171102446D01*
X146403460Y-171102448D01*
X146402377Y-171112060D01*
X146384522Y-171270527D01*
X146385302Y-171277450D01*
X146402197Y-171427400D01*
X146404240Y-171445527D01*
X146406539Y-171452097D01*
X146456709Y-171595477D01*
X146462405Y-171611753D01*
X146466106Y-171617643D01*
X146522571Y-171707507D01*
X146556100Y-171760867D01*
X146680627Y-171885394D01*
X146829741Y-171979089D01*
X146995967Y-172037254D01*
X147170967Y-172056972D01*
X147307616Y-172041575D01*
X147375301Y-172053075D01*
X147426494Y-172098823D01*
X147445500Y-172164795D01*
X147445500Y-173543806D01*
X147456304Y-173617961D01*
X147460532Y-173626610D01*
X147463376Y-173635812D01*
X147460634Y-173636659D01*
X147469826Y-173689079D01*
X147443760Y-173752745D01*
X147387771Y-173792718D01*
X147319091Y-173796696D01*
X147258861Y-173763454D01*
X147180268Y-173684861D01*
X147175340Y-173679933D01*
X147026226Y-173586238D01*
X147019663Y-173583941D01*
X147019660Y-173583940D01*
X146866570Y-173530372D01*
X146860000Y-173528073D01*
X146853078Y-173527293D01*
X146691923Y-173509135D01*
X146685000Y-173508355D01*
X146678077Y-173509135D01*
X146516921Y-173527293D01*
X146516919Y-173527293D01*
X146510000Y-173528073D01*
X146503431Y-173530371D01*
X146503429Y-173530372D01*
X146350339Y-173583940D01*
X146350332Y-173583942D01*
X146343774Y-173586238D01*
X146337886Y-173589937D01*
X146337883Y-173589939D01*
X146200560Y-173676225D01*
X146200555Y-173676228D01*
X146194660Y-173679933D01*
X146189735Y-173684857D01*
X146189731Y-173684861D01*
X146075061Y-173799531D01*
X146075057Y-173799535D01*
X146070133Y-173804460D01*
X146066428Y-173810355D01*
X146066425Y-173810360D01*
X145980139Y-173947683D01*
X145980137Y-173947686D01*
X145976438Y-173953574D01*
X145974142Y-173960132D01*
X145974140Y-173960139D01*
X145920572Y-174113229D01*
X145918273Y-174119800D01*
X145917493Y-174126719D01*
X145917493Y-174126721D01*
X145901756Y-174266394D01*
X145898555Y-174294800D01*
X145918273Y-174469800D01*
X145920572Y-174476370D01*
X145967055Y-174609213D01*
X145976438Y-174636026D01*
X145980139Y-174641916D01*
X146063631Y-174774793D01*
X146070133Y-174785140D01*
X146194660Y-174909667D01*
X146343774Y-175003362D01*
X146510000Y-175061527D01*
X146685000Y-175081245D01*
X146860000Y-175061527D01*
X147026226Y-175003362D01*
X147175340Y-174909667D01*
X147299867Y-174785140D01*
X147393562Y-174636026D01*
X147451727Y-174469800D01*
X147471445Y-174294800D01*
X147451727Y-174119800D01*
X147393562Y-173953574D01*
X147392483Y-173951857D01*
X147381315Y-173886140D01*
X147407587Y-173822710D01*
X147463579Y-173782979D01*
X147532128Y-173779129D01*
X147586570Y-173809218D01*
X147586627Y-173809140D01*
X147587305Y-173809624D01*
X147592217Y-173812339D01*
X147602254Y-173822376D01*
X147716639Y-173878296D01*
X147790794Y-173889100D01*
X149558720Y-173889100D01*
X149563206Y-173889100D01*
X149637361Y-173878296D01*
X149751746Y-173822376D01*
X149841776Y-173732346D01*
X149897696Y-173617961D01*
X149908500Y-173543806D01*
X149908500Y-173324817D01*
X149926212Y-173260951D01*
X149974287Y-173215331D01*
X150038992Y-173200987D01*
X150101843Y-173222018D01*
X150140130Y-173266851D01*
X150141421Y-173266106D01*
X150144126Y-173270791D01*
X150146416Y-173275702D01*
X150149522Y-173280139D01*
X150149524Y-173280141D01*
X150173188Y-173313937D01*
X150270013Y-173452217D01*
X150422383Y-173604587D01*
X150598898Y-173728184D01*
X150762472Y-173804460D01*
X150785542Y-173815218D01*
X150837718Y-173860975D01*
X150857137Y-173927600D01*
X150837718Y-173994225D01*
X150785542Y-174039982D01*
X150603808Y-174124726D01*
X150603804Y-174124728D01*
X150598898Y-174127016D01*
X150594465Y-174130119D01*
X150594458Y-174130124D01*
X150426818Y-174247507D01*
X150426813Y-174247510D01*
X150422383Y-174250613D01*
X150418559Y-174254436D01*
X150418553Y-174254442D01*
X150273842Y-174399153D01*
X150273836Y-174399159D01*
X150270013Y-174402983D01*
X150266910Y-174407413D01*
X150266907Y-174407418D01*
X150149524Y-174575058D01*
X150149519Y-174575065D01*
X150146416Y-174579498D01*
X150144128Y-174584404D01*
X150144126Y-174584408D01*
X150057637Y-174769883D01*
X150057634Y-174769888D01*
X150055348Y-174774793D01*
X150053949Y-174780013D01*
X150053945Y-174780025D01*
X150010190Y-174943325D01*
X149999577Y-174982935D01*
X149999105Y-174988320D01*
X149999105Y-174988325D01*
X149989107Y-175102609D01*
X149980796Y-175197600D01*
X149985528Y-175251692D01*
X149972812Y-175318150D01*
X149927098Y-175368038D01*
X149862001Y-175386500D01*
X143825062Y-175386500D01*
X143759965Y-175368038D01*
X143714251Y-175318151D01*
X143701534Y-175251692D01*
X143701535Y-175251691D01*
X143710204Y-175152600D01*
X143691423Y-174937935D01*
X143635652Y-174729793D01*
X143544584Y-174534498D01*
X143420987Y-174357983D01*
X143268617Y-174205613D01*
X143205523Y-174161434D01*
X143096541Y-174085124D01*
X143096539Y-174085122D01*
X143092102Y-174082016D01*
X142896807Y-173990948D01*
X142891582Y-173989548D01*
X142891574Y-173989545D01*
X142735338Y-173947683D01*
X142688665Y-173935177D01*
X142683277Y-173934705D01*
X142683274Y-173934705D01*
X142479395Y-173916868D01*
X142474000Y-173916396D01*
X142468605Y-173916868D01*
X142264725Y-173934705D01*
X142264720Y-173934705D01*
X142259335Y-173935177D01*
X142254110Y-173936576D01*
X142254110Y-173936577D01*
X142056425Y-173989545D01*
X142056413Y-173989549D01*
X142051193Y-173990948D01*
X142046288Y-173993234D01*
X142046283Y-173993237D01*
X141860808Y-174079726D01*
X141860804Y-174079728D01*
X141855898Y-174082016D01*
X141851465Y-174085119D01*
X141851458Y-174085124D01*
X141683818Y-174202507D01*
X141683813Y-174202510D01*
X141679383Y-174205613D01*
X141675559Y-174209436D01*
X141675553Y-174209442D01*
X141530842Y-174354153D01*
X141530836Y-174354159D01*
X141527013Y-174357983D01*
X141523910Y-174362413D01*
X141523907Y-174362418D01*
X141406524Y-174530058D01*
X141406519Y-174530065D01*
X141403416Y-174534498D01*
X141401128Y-174539404D01*
X141401126Y-174539408D01*
X141316382Y-174721142D01*
X141270625Y-174773318D01*
X141204000Y-174792737D01*
X141137375Y-174773318D01*
X141091618Y-174721142D01*
X141064568Y-174663133D01*
X141004584Y-174534498D01*
X140880987Y-174357983D01*
X140728617Y-174205613D01*
X140665523Y-174161434D01*
X140556541Y-174085124D01*
X140556539Y-174085122D01*
X140552102Y-174082016D01*
X140356807Y-173990948D01*
X140351582Y-173989548D01*
X140351574Y-173989545D01*
X140195338Y-173947683D01*
X140148665Y-173935177D01*
X140143277Y-173934705D01*
X140143274Y-173934705D01*
X139939395Y-173916868D01*
X139934000Y-173916396D01*
X139928605Y-173916868D01*
X139724725Y-173934705D01*
X139724720Y-173934705D01*
X139719335Y-173935177D01*
X139714110Y-173936576D01*
X139714110Y-173936577D01*
X139516425Y-173989545D01*
X139516413Y-173989549D01*
X139511193Y-173990948D01*
X139506288Y-173993234D01*
X139506283Y-173993237D01*
X139320808Y-174079726D01*
X139320804Y-174079728D01*
X139315898Y-174082016D01*
X139311465Y-174085119D01*
X139311458Y-174085124D01*
X139143818Y-174202507D01*
X139143813Y-174202510D01*
X139139383Y-174205613D01*
X139135559Y-174209436D01*
X139135553Y-174209442D01*
X138990842Y-174354153D01*
X138990836Y-174354159D01*
X138987013Y-174357983D01*
X138983910Y-174362413D01*
X138983907Y-174362418D01*
X138866524Y-174530058D01*
X138866519Y-174530065D01*
X138863416Y-174534498D01*
X138861128Y-174539404D01*
X138861126Y-174539408D01*
X138776382Y-174721142D01*
X138730625Y-174773318D01*
X138664000Y-174792737D01*
X138597375Y-174773318D01*
X138551618Y-174721142D01*
X138524568Y-174663133D01*
X138464584Y-174534498D01*
X138340987Y-174357983D01*
X138188617Y-174205613D01*
X138125523Y-174161434D01*
X138016541Y-174085124D01*
X138016539Y-174085122D01*
X138012102Y-174082016D01*
X137816807Y-173990948D01*
X137811582Y-173989548D01*
X137811574Y-173989545D01*
X137655338Y-173947683D01*
X137608665Y-173935177D01*
X137603277Y-173934705D01*
X137603274Y-173934705D01*
X137399395Y-173916868D01*
X137394000Y-173916396D01*
X137388605Y-173916868D01*
X137184725Y-173934705D01*
X137184720Y-173934705D01*
X137179335Y-173935177D01*
X137174110Y-173936576D01*
X137174110Y-173936577D01*
X136976425Y-173989545D01*
X136976413Y-173989549D01*
X136971193Y-173990948D01*
X136966288Y-173993234D01*
X136966283Y-173993237D01*
X136780808Y-174079726D01*
X136780804Y-174079728D01*
X136775898Y-174082016D01*
X136771465Y-174085119D01*
X136771458Y-174085124D01*
X136603818Y-174202507D01*
X136603813Y-174202510D01*
X136599383Y-174205613D01*
X136595559Y-174209436D01*
X136595553Y-174209442D01*
X136450842Y-174354153D01*
X136450836Y-174354159D01*
X136447013Y-174357983D01*
X136443910Y-174362413D01*
X136443907Y-174362418D01*
X136326524Y-174530058D01*
X136326519Y-174530065D01*
X136323416Y-174534498D01*
X136321127Y-174539406D01*
X136318421Y-174544094D01*
X136317130Y-174543348D01*
X136278843Y-174588182D01*
X136215992Y-174609213D01*
X136151287Y-174594869D01*
X136103212Y-174549249D01*
X136085500Y-174485383D01*
X136085500Y-174270880D01*
X136085500Y-174266394D01*
X136074696Y-174192239D01*
X136018776Y-174077854D01*
X135928746Y-173987824D01*
X135913104Y-173980177D01*
X135823010Y-173936132D01*
X135823008Y-173936131D01*
X135814361Y-173931904D01*
X135804835Y-173930516D01*
X135744642Y-173921746D01*
X135744637Y-173921745D01*
X135740206Y-173921100D01*
X133967794Y-173921100D01*
X133963363Y-173921745D01*
X133963357Y-173921746D01*
X133903164Y-173930516D01*
X133903162Y-173930516D01*
X133893639Y-173931904D01*
X133884993Y-173936130D01*
X133884989Y-173936132D01*
X133788486Y-173983310D01*
X133788482Y-173983312D01*
X133779254Y-173987824D01*
X133771990Y-173995087D01*
X133771987Y-173995090D01*
X133696490Y-174070587D01*
X133696487Y-174070590D01*
X133689224Y-174077854D01*
X133684712Y-174087082D01*
X133684710Y-174087086D01*
X133637532Y-174183589D01*
X133637530Y-174183593D01*
X133633304Y-174192239D01*
X133631916Y-174201762D01*
X133631916Y-174201764D01*
X133625252Y-174247507D01*
X133622500Y-174266394D01*
X133622500Y-174270880D01*
X133622500Y-175262500D01*
X133605887Y-175324500D01*
X133560500Y-175369887D01*
X133498500Y-175386500D01*
X120446052Y-175386500D01*
X120439967Y-175386351D01*
X120083525Y-175368839D01*
X120071416Y-175367646D01*
X119721439Y-175315733D01*
X119709503Y-175313359D01*
X119366284Y-175227387D01*
X119354643Y-175223855D01*
X119253768Y-175187761D01*
X119092920Y-175130209D01*
X119042965Y-175096894D01*
X119014519Y-175044015D01*
X119014252Y-174983970D01*
X119042228Y-174930840D01*
X119091885Y-174897082D01*
X119151577Y-174890613D01*
X119230781Y-174901500D01*
X119524982Y-174901500D01*
X119529219Y-174901500D01*
X119824876Y-174860862D01*
X120112247Y-174780345D01*
X120385977Y-174661447D01*
X120640967Y-174506384D01*
X120872469Y-174318044D01*
X121076168Y-174099935D01*
X121248271Y-173856121D01*
X121385571Y-173591143D01*
X121485512Y-173309937D01*
X121546231Y-173017742D01*
X121566597Y-172720000D01*
X121546231Y-172422258D01*
X121485512Y-172130063D01*
X121385571Y-171848857D01*
X121257868Y-171602400D01*
X142545755Y-171602400D01*
X142565473Y-171777400D01*
X142567772Y-171783970D01*
X142603261Y-171885394D01*
X142623638Y-171943626D01*
X142627339Y-171949516D01*
X142689439Y-172048348D01*
X142717333Y-172092740D01*
X142841860Y-172217267D01*
X142990974Y-172310962D01*
X143157200Y-172369127D01*
X143332200Y-172388845D01*
X143507200Y-172369127D01*
X143673426Y-172310962D01*
X143822540Y-172217267D01*
X143947067Y-172092740D01*
X144040762Y-171943626D01*
X144098927Y-171777400D01*
X144118645Y-171602400D01*
X144098927Y-171427400D01*
X144040762Y-171261174D01*
X143947067Y-171112060D01*
X143822540Y-170987533D01*
X143673426Y-170893838D01*
X143666863Y-170891541D01*
X143666860Y-170891540D01*
X143513770Y-170837972D01*
X143507200Y-170835673D01*
X143500278Y-170834893D01*
X143339123Y-170816735D01*
X143332200Y-170815955D01*
X143325277Y-170816735D01*
X143164121Y-170834893D01*
X143164119Y-170834893D01*
X143157200Y-170835673D01*
X143150631Y-170837971D01*
X143150629Y-170837972D01*
X142997539Y-170891540D01*
X142997532Y-170891542D01*
X142990974Y-170893838D01*
X142985086Y-170897537D01*
X142985083Y-170897539D01*
X142847760Y-170983825D01*
X142847755Y-170983828D01*
X142841860Y-170987533D01*
X142836935Y-170992457D01*
X142836931Y-170992461D01*
X142722261Y-171107131D01*
X142722257Y-171107135D01*
X142717333Y-171112060D01*
X142713628Y-171117955D01*
X142713625Y-171117960D01*
X142627339Y-171255283D01*
X142627337Y-171255286D01*
X142623638Y-171261174D01*
X142621342Y-171267732D01*
X142621340Y-171267739D01*
X142590491Y-171355902D01*
X142565473Y-171427400D01*
X142564693Y-171434319D01*
X142564693Y-171434321D01*
X142562690Y-171452097D01*
X142545755Y-171602400D01*
X121257868Y-171602400D01*
X121248271Y-171583879D01*
X121076168Y-171340065D01*
X120872469Y-171121956D01*
X120869187Y-171119286D01*
X120869184Y-171119283D01*
X120644259Y-170936294D01*
X120644256Y-170936292D01*
X120640967Y-170933616D01*
X120637343Y-170931412D01*
X120637340Y-170931410D01*
X120389595Y-170780753D01*
X120389593Y-170780752D01*
X120385977Y-170778553D01*
X120361654Y-170767988D01*
X120116128Y-170661340D01*
X120116118Y-170661336D01*
X120112247Y-170659655D01*
X120097989Y-170655660D01*
X119828955Y-170580280D01*
X119828942Y-170580277D01*
X119824876Y-170579138D01*
X119820686Y-170578562D01*
X119820676Y-170578560D01*
X119533416Y-170539076D01*
X119533403Y-170539075D01*
X119529219Y-170538500D01*
X119230781Y-170538500D01*
X119226597Y-170539074D01*
X119226583Y-170539076D01*
X118939323Y-170578560D01*
X118939310Y-170578562D01*
X118935124Y-170579138D01*
X118931059Y-170580276D01*
X118931044Y-170580280D01*
X118651824Y-170658514D01*
X118651819Y-170658515D01*
X118647753Y-170659655D01*
X118643886Y-170661334D01*
X118643871Y-170661340D01*
X118377906Y-170776866D01*
X118377901Y-170776868D01*
X118374023Y-170778553D01*
X118370412Y-170780748D01*
X118370404Y-170780753D01*
X118122659Y-170931410D01*
X118122648Y-170931417D01*
X118119033Y-170933616D01*
X118115749Y-170936287D01*
X118115740Y-170936294D01*
X117890815Y-171119283D01*
X117890804Y-171119292D01*
X117887531Y-171121956D01*
X117884643Y-171125047D01*
X117884640Y-171125051D01*
X117686727Y-171336965D01*
X117683832Y-171340065D01*
X117681389Y-171343525D01*
X117681384Y-171343532D01*
X117514175Y-171580413D01*
X117514171Y-171580418D01*
X117511729Y-171583879D01*
X117509783Y-171587633D01*
X117509779Y-171587641D01*
X117376378Y-171845094D01*
X117376373Y-171845103D01*
X117374429Y-171848857D01*
X117373012Y-171852842D01*
X117373008Y-171852853D01*
X117275909Y-172126062D01*
X117275905Y-172126074D01*
X117274488Y-172130063D01*
X117273625Y-172134213D01*
X117273624Y-172134219D01*
X117214632Y-172418101D01*
X117214630Y-172418112D01*
X117213769Y-172422258D01*
X117213480Y-172426482D01*
X117213479Y-172426490D01*
X117199029Y-172637752D01*
X117193403Y-172720000D01*
X117193692Y-172724225D01*
X117209450Y-172954600D01*
X117199491Y-173012423D01*
X117164062Y-173059194D01*
X117111097Y-173084441D01*
X117052454Y-173082511D01*
X117001264Y-173053836D01*
X116968988Y-173004837D01*
X116919624Y-172866874D01*
X116876140Y-172745343D01*
X116872615Y-172733726D01*
X116786637Y-172390483D01*
X116784268Y-172378573D01*
X116732352Y-172028579D01*
X116731160Y-172016473D01*
X116729323Y-171979089D01*
X116713649Y-171660032D01*
X116713500Y-171653948D01*
X116713500Y-169258085D01*
X116714481Y-169254626D01*
X121093729Y-169254626D01*
X121113447Y-169429626D01*
X121115746Y-169436196D01*
X121141961Y-169511116D01*
X121171612Y-169595852D01*
X121265307Y-169744966D01*
X121389834Y-169869493D01*
X121538948Y-169963188D01*
X121705174Y-170021353D01*
X121880174Y-170041071D01*
X122055174Y-170021353D01*
X122221400Y-169963188D01*
X122370514Y-169869493D01*
X122495041Y-169744966D01*
X122588736Y-169595852D01*
X122646901Y-169429626D01*
X122666619Y-169254626D01*
X122656408Y-169164000D01*
X133427155Y-169164000D01*
X133446873Y-169339000D01*
X133449172Y-169345570D01*
X133485826Y-169450323D01*
X133505038Y-169505226D01*
X133508739Y-169511116D01*
X133580278Y-169624970D01*
X133598733Y-169654340D01*
X133723260Y-169778867D01*
X133872374Y-169872562D01*
X134038600Y-169930727D01*
X134213600Y-169950445D01*
X134388600Y-169930727D01*
X134554826Y-169872562D01*
X134703940Y-169778867D01*
X134828467Y-169654340D01*
X134922162Y-169505226D01*
X134943796Y-169443400D01*
X142596555Y-169443400D01*
X142616273Y-169618400D01*
X142618572Y-169624970D01*
X142662284Y-169749894D01*
X142674438Y-169784626D01*
X142768133Y-169933740D01*
X142892660Y-170058267D01*
X143041774Y-170151962D01*
X143208000Y-170210127D01*
X143383000Y-170229845D01*
X143558000Y-170210127D01*
X143724226Y-170151962D01*
X143873340Y-170058267D01*
X143877607Y-170053999D01*
X143926906Y-170030257D01*
X143982094Y-170030257D01*
X144031392Y-170053999D01*
X144035660Y-170058267D01*
X144184774Y-170151962D01*
X144351000Y-170210127D01*
X144526000Y-170229845D01*
X144701000Y-170210127D01*
X144867226Y-170151962D01*
X145016340Y-170058267D01*
X145140867Y-169933740D01*
X145234562Y-169784626D01*
X145292727Y-169618400D01*
X145312445Y-169443400D01*
X145292727Y-169268400D01*
X145234562Y-169102174D01*
X145140867Y-168953060D01*
X145016340Y-168828533D01*
X144867226Y-168734838D01*
X144860663Y-168732541D01*
X144860660Y-168732540D01*
X144720345Y-168683442D01*
X144701000Y-168676673D01*
X144694078Y-168675893D01*
X144532923Y-168657735D01*
X144526000Y-168656955D01*
X144519077Y-168657735D01*
X144357921Y-168675893D01*
X144357919Y-168675893D01*
X144351000Y-168676673D01*
X144344431Y-168678971D01*
X144344429Y-168678972D01*
X144191339Y-168732540D01*
X144191332Y-168732542D01*
X144184774Y-168734838D01*
X144178886Y-168738537D01*
X144178883Y-168738539D01*
X144041555Y-168824828D01*
X144041549Y-168824832D01*
X144035660Y-168828533D01*
X144031392Y-168832800D01*
X143982093Y-168856542D01*
X143926907Y-168856542D01*
X143877607Y-168832800D01*
X143873340Y-168828533D01*
X143854799Y-168816883D01*
X143730116Y-168738539D01*
X143724226Y-168734838D01*
X143717663Y-168732541D01*
X143717660Y-168732540D01*
X143577345Y-168683442D01*
X143558000Y-168676673D01*
X143551078Y-168675893D01*
X143389923Y-168657735D01*
X143383000Y-168656955D01*
X143376077Y-168657735D01*
X143214921Y-168675893D01*
X143214919Y-168675893D01*
X143208000Y-168676673D01*
X143201431Y-168678971D01*
X143201429Y-168678972D01*
X143048339Y-168732540D01*
X143048332Y-168732542D01*
X143041774Y-168734838D01*
X143035886Y-168738537D01*
X143035883Y-168738539D01*
X142898560Y-168824825D01*
X142898555Y-168824828D01*
X142892660Y-168828533D01*
X142887735Y-168833457D01*
X142887731Y-168833461D01*
X142773061Y-168948131D01*
X142773057Y-168948135D01*
X142768133Y-168953060D01*
X142764428Y-168958955D01*
X142764425Y-168958960D01*
X142678139Y-169096283D01*
X142678137Y-169096286D01*
X142674438Y-169102174D01*
X142672142Y-169108732D01*
X142672140Y-169108739D01*
X142619882Y-169258085D01*
X142616273Y-169268400D01*
X142596555Y-169443400D01*
X134943796Y-169443400D01*
X134980327Y-169339000D01*
X135000045Y-169164000D01*
X134980327Y-168989000D01*
X134922162Y-168822774D01*
X134828467Y-168673660D01*
X134703940Y-168549133D01*
X134669258Y-168527341D01*
X134560716Y-168459139D01*
X134554826Y-168455438D01*
X134548263Y-168453141D01*
X134548260Y-168453140D01*
X134395170Y-168399572D01*
X134388600Y-168397273D01*
X134381678Y-168396493D01*
X134220523Y-168378335D01*
X134213600Y-168377555D01*
X134206677Y-168378335D01*
X134045521Y-168396493D01*
X134045519Y-168396493D01*
X134038600Y-168397273D01*
X134032031Y-168399571D01*
X134032029Y-168399572D01*
X133878939Y-168453140D01*
X133878932Y-168453142D01*
X133872374Y-168455438D01*
X133866486Y-168459137D01*
X133866483Y-168459139D01*
X133729160Y-168545425D01*
X133729155Y-168545428D01*
X133723260Y-168549133D01*
X133718335Y-168554057D01*
X133718331Y-168554061D01*
X133603661Y-168668731D01*
X133603657Y-168668735D01*
X133598733Y-168673660D01*
X133595028Y-168679555D01*
X133595025Y-168679560D01*
X133508739Y-168816883D01*
X133508737Y-168816886D01*
X133505038Y-168822774D01*
X133502742Y-168829332D01*
X133502740Y-168829339D01*
X133452725Y-168972275D01*
X133446873Y-168989000D01*
X133446093Y-168995919D01*
X133446093Y-168995921D01*
X133441660Y-169035265D01*
X133427155Y-169164000D01*
X122656408Y-169164000D01*
X122646901Y-169079626D01*
X122588736Y-168913400D01*
X122495041Y-168764286D01*
X122370514Y-168639759D01*
X122221400Y-168546064D01*
X122214837Y-168543767D01*
X122214834Y-168543766D01*
X122061744Y-168490198D01*
X122055174Y-168487899D01*
X122048252Y-168487119D01*
X121887097Y-168468961D01*
X121880174Y-168468181D01*
X121873251Y-168468961D01*
X121712095Y-168487119D01*
X121712093Y-168487119D01*
X121705174Y-168487899D01*
X121698605Y-168490197D01*
X121698603Y-168490198D01*
X121545513Y-168543766D01*
X121545506Y-168543768D01*
X121538948Y-168546064D01*
X121533060Y-168549763D01*
X121533057Y-168549765D01*
X121395734Y-168636051D01*
X121395729Y-168636054D01*
X121389834Y-168639759D01*
X121384909Y-168644683D01*
X121384905Y-168644687D01*
X121270235Y-168759357D01*
X121270231Y-168759361D01*
X121265307Y-168764286D01*
X121261602Y-168770181D01*
X121261599Y-168770186D01*
X121175313Y-168907509D01*
X121175311Y-168907512D01*
X121171612Y-168913400D01*
X121169316Y-168919958D01*
X121169314Y-168919965D01*
X121117566Y-169067854D01*
X121113447Y-169079626D01*
X121093729Y-169254626D01*
X116714481Y-169254626D01*
X116731961Y-169192988D01*
X116781849Y-169147275D01*
X116848307Y-169134557D01*
X116916604Y-169140532D01*
X116916605Y-169140532D01*
X116922000Y-169141004D01*
X117136665Y-169122223D01*
X117344807Y-169066452D01*
X117540102Y-168975384D01*
X117716617Y-168851787D01*
X117868987Y-168699417D01*
X117992584Y-168522902D01*
X118083652Y-168327607D01*
X118104554Y-168249600D01*
X139218355Y-168249600D01*
X139219135Y-168256523D01*
X139234867Y-168396151D01*
X139238073Y-168424600D01*
X139240372Y-168431170D01*
X139293492Y-168582981D01*
X139296238Y-168590826D01*
X139299939Y-168596716D01*
X139366876Y-168703246D01*
X139389933Y-168739940D01*
X139514460Y-168864467D01*
X139663574Y-168958162D01*
X139829800Y-169016327D01*
X140004800Y-169036045D01*
X140179800Y-169016327D01*
X140346026Y-168958162D01*
X140495140Y-168864467D01*
X140619667Y-168739940D01*
X140713362Y-168590826D01*
X140771527Y-168424600D01*
X140791245Y-168249600D01*
X140771527Y-168074600D01*
X140713362Y-167908374D01*
X140619667Y-167759260D01*
X140495140Y-167634733D01*
X140346026Y-167541038D01*
X140339463Y-167538741D01*
X140339460Y-167538740D01*
X140186370Y-167485172D01*
X140179800Y-167482873D01*
X140172878Y-167482093D01*
X140011723Y-167463935D01*
X140004800Y-167463155D01*
X139997877Y-167463935D01*
X139836721Y-167482093D01*
X139836719Y-167482093D01*
X139829800Y-167482873D01*
X139823231Y-167485171D01*
X139823229Y-167485172D01*
X139670139Y-167538740D01*
X139670132Y-167538742D01*
X139663574Y-167541038D01*
X139657686Y-167544737D01*
X139657683Y-167544739D01*
X139520360Y-167631025D01*
X139520355Y-167631028D01*
X139514460Y-167634733D01*
X139509535Y-167639657D01*
X139509531Y-167639661D01*
X139394861Y-167754331D01*
X139394857Y-167754335D01*
X139389933Y-167759260D01*
X139386228Y-167765155D01*
X139386225Y-167765160D01*
X139299939Y-167902483D01*
X139299937Y-167902486D01*
X139296238Y-167908374D01*
X139293942Y-167914932D01*
X139293940Y-167914939D01*
X139240372Y-168068029D01*
X139238073Y-168074600D01*
X139218355Y-168249600D01*
X118104554Y-168249600D01*
X118139423Y-168119465D01*
X118158204Y-167904800D01*
X118139423Y-167690135D01*
X118083652Y-167481993D01*
X118038890Y-167386000D01*
X128067755Y-167386000D01*
X128087473Y-167561000D01*
X128089772Y-167567570D01*
X128114997Y-167639661D01*
X128145638Y-167727226D01*
X128239333Y-167876340D01*
X128363860Y-168000867D01*
X128512974Y-168094562D01*
X128679200Y-168152727D01*
X128854200Y-168172445D01*
X129029200Y-168152727D01*
X129195426Y-168094562D01*
X129344540Y-168000867D01*
X129469067Y-167876340D01*
X129562762Y-167727226D01*
X129620927Y-167561000D01*
X129640645Y-167386000D01*
X129620927Y-167211000D01*
X129562762Y-167044774D01*
X129469067Y-166895660D01*
X129344540Y-166771133D01*
X129316146Y-166753292D01*
X129201316Y-166681139D01*
X129195426Y-166677438D01*
X129188863Y-166675141D01*
X129188860Y-166675140D01*
X129035770Y-166621572D01*
X129029200Y-166619273D01*
X129022278Y-166618493D01*
X128861123Y-166600335D01*
X128854200Y-166599555D01*
X128847277Y-166600335D01*
X128686121Y-166618493D01*
X128686119Y-166618493D01*
X128679200Y-166619273D01*
X128672631Y-166621571D01*
X128672629Y-166621572D01*
X128519539Y-166675140D01*
X128519532Y-166675142D01*
X128512974Y-166677438D01*
X128507086Y-166681137D01*
X128507083Y-166681139D01*
X128369760Y-166767425D01*
X128369755Y-166767428D01*
X128363860Y-166771133D01*
X128358935Y-166776057D01*
X128358931Y-166776061D01*
X128244261Y-166890731D01*
X128244257Y-166890735D01*
X128239333Y-166895660D01*
X128235628Y-166901555D01*
X128235625Y-166901560D01*
X128149339Y-167038883D01*
X128149337Y-167038886D01*
X128145638Y-167044774D01*
X128143342Y-167051332D01*
X128143340Y-167051339D01*
X128095014Y-167189449D01*
X128087473Y-167211000D01*
X128086693Y-167217919D01*
X128086693Y-167217921D01*
X128069559Y-167369993D01*
X128067755Y-167386000D01*
X118038890Y-167386000D01*
X117992584Y-167286698D01*
X117868987Y-167110183D01*
X117716617Y-166957813D01*
X117562133Y-166849642D01*
X117544541Y-166837324D01*
X117544539Y-166837322D01*
X117540102Y-166834216D01*
X117353455Y-166747181D01*
X117301281Y-166701425D01*
X117281862Y-166634800D01*
X117301281Y-166568175D01*
X117353455Y-166522418D01*
X117540102Y-166435384D01*
X117716617Y-166311787D01*
X117868987Y-166159417D01*
X117992584Y-165982902D01*
X118083652Y-165787607D01*
X118139423Y-165579465D01*
X118158204Y-165364800D01*
X118139423Y-165150135D01*
X118083652Y-164941993D01*
X117992584Y-164746698D01*
X117868987Y-164570183D01*
X117789204Y-164490400D01*
X122632155Y-164490400D01*
X122632935Y-164497323D01*
X122640392Y-164563509D01*
X122651873Y-164665400D01*
X122654172Y-164671970D01*
X122695801Y-164790941D01*
X122710038Y-164831626D01*
X122713739Y-164837516D01*
X122789809Y-164958581D01*
X122803733Y-164980740D01*
X122808660Y-164985667D01*
X122808661Y-164985668D01*
X122825072Y-165002079D01*
X122855882Y-165053209D01*
X122859230Y-165112811D01*
X122834649Y-165166395D01*
X122830859Y-165170186D01*
X122827162Y-165176068D01*
X122827156Y-165176077D01*
X122740865Y-165313409D01*
X122740863Y-165313412D01*
X122737164Y-165319300D01*
X122734868Y-165325858D01*
X122734866Y-165325865D01*
X122690065Y-165453900D01*
X122678999Y-165485526D01*
X122678219Y-165492445D01*
X122678219Y-165492447D01*
X122665238Y-165607659D01*
X122659281Y-165660526D01*
X122678999Y-165835526D01*
X122681298Y-165842096D01*
X122731446Y-165985413D01*
X122737164Y-166001752D01*
X122830859Y-166150866D01*
X122955386Y-166275393D01*
X123104500Y-166369088D01*
X123270726Y-166427253D01*
X123445726Y-166446971D01*
X123620726Y-166427253D01*
X123786952Y-166369088D01*
X123936066Y-166275393D01*
X123942606Y-166268853D01*
X151308302Y-166268853D01*
X151328020Y-166443853D01*
X151330319Y-166450423D01*
X151383009Y-166601004D01*
X151386185Y-166610079D01*
X151389886Y-166615969D01*
X151458598Y-166725324D01*
X151479880Y-166759193D01*
X151604407Y-166883720D01*
X151753521Y-166977415D01*
X151919747Y-167035580D01*
X152094747Y-167055298D01*
X152269747Y-167035580D01*
X152435973Y-166977415D01*
X152585087Y-166883720D01*
X152709614Y-166759193D01*
X152803309Y-166610079D01*
X152861474Y-166443853D01*
X152880382Y-166276045D01*
X153442355Y-166276045D01*
X153443135Y-166282968D01*
X153452838Y-166369088D01*
X153462073Y-166451045D01*
X153464372Y-166457615D01*
X153516180Y-166605676D01*
X153520238Y-166617271D01*
X153523939Y-166623161D01*
X153588132Y-166725324D01*
X153613933Y-166766385D01*
X153738460Y-166890912D01*
X153887574Y-166984607D01*
X154053800Y-167042772D01*
X154228800Y-167062490D01*
X154403800Y-167042772D01*
X154570026Y-166984607D01*
X154719140Y-166890912D01*
X154843667Y-166766385D01*
X154937362Y-166617271D01*
X154995527Y-166451045D01*
X155015245Y-166276045D01*
X154995527Y-166101045D01*
X154937362Y-165934819D01*
X154843667Y-165785705D01*
X154719140Y-165661178D01*
X154570026Y-165567483D01*
X154563463Y-165565186D01*
X154563460Y-165565185D01*
X154410370Y-165511617D01*
X154403800Y-165509318D01*
X154396878Y-165508538D01*
X154235723Y-165490380D01*
X154228800Y-165489600D01*
X154221877Y-165490380D01*
X154060721Y-165508538D01*
X154060719Y-165508538D01*
X154053800Y-165509318D01*
X154047231Y-165511616D01*
X154047229Y-165511617D01*
X153894139Y-165565185D01*
X153894132Y-165565187D01*
X153887574Y-165567483D01*
X153881686Y-165571182D01*
X153881683Y-165571184D01*
X153744360Y-165657470D01*
X153744355Y-165657473D01*
X153738460Y-165661178D01*
X153733535Y-165666102D01*
X153733531Y-165666106D01*
X153618861Y-165780776D01*
X153618857Y-165780780D01*
X153613933Y-165785705D01*
X153610228Y-165791600D01*
X153610225Y-165791605D01*
X153523939Y-165928928D01*
X153523937Y-165928931D01*
X153520238Y-165934819D01*
X153517942Y-165941377D01*
X153517940Y-165941384D01*
X153464372Y-166094474D01*
X153462073Y-166101045D01*
X153461293Y-166107964D01*
X153461293Y-166107966D01*
X153443945Y-166261930D01*
X153442355Y-166276045D01*
X152880382Y-166276045D01*
X152881192Y-166268853D01*
X152861474Y-166093853D01*
X152803309Y-165927627D01*
X152709614Y-165778513D01*
X152585087Y-165653986D01*
X152435973Y-165560291D01*
X152429410Y-165557994D01*
X152429407Y-165557993D01*
X152276317Y-165504425D01*
X152269747Y-165502126D01*
X152262825Y-165501346D01*
X152101670Y-165483188D01*
X152094747Y-165482408D01*
X152087824Y-165483188D01*
X151926668Y-165501346D01*
X151926666Y-165501346D01*
X151919747Y-165502126D01*
X151913178Y-165504424D01*
X151913176Y-165504425D01*
X151760086Y-165557993D01*
X151760079Y-165557995D01*
X151753521Y-165560291D01*
X151747633Y-165563990D01*
X151747630Y-165563992D01*
X151610307Y-165650278D01*
X151610302Y-165650281D01*
X151604407Y-165653986D01*
X151599482Y-165658910D01*
X151599478Y-165658914D01*
X151484808Y-165773584D01*
X151484804Y-165773588D01*
X151479880Y-165778513D01*
X151476175Y-165784408D01*
X151476172Y-165784413D01*
X151389886Y-165921736D01*
X151389884Y-165921739D01*
X151386185Y-165927627D01*
X151383889Y-165934185D01*
X151383887Y-165934192D01*
X151330319Y-166087282D01*
X151328020Y-166093853D01*
X151327240Y-166100772D01*
X151327240Y-166100774D01*
X151320201Y-166163246D01*
X151308302Y-166268853D01*
X123942606Y-166268853D01*
X124060593Y-166150866D01*
X124154288Y-166001752D01*
X124212453Y-165835526D01*
X124232171Y-165660526D01*
X124212453Y-165485526D01*
X124154288Y-165319300D01*
X124060593Y-165170186D01*
X124039253Y-165148846D01*
X124008442Y-165097713D01*
X124005096Y-165038108D01*
X124029679Y-164984527D01*
X124033467Y-164980740D01*
X124086210Y-164896800D01*
X124410155Y-164896800D01*
X124410935Y-164903723D01*
X124428757Y-165061900D01*
X124429873Y-165071800D01*
X124432172Y-165078370D01*
X124481270Y-165218686D01*
X124488038Y-165238026D01*
X124491739Y-165243916D01*
X124556184Y-165346480D01*
X124581733Y-165387140D01*
X124706260Y-165511667D01*
X124855374Y-165605362D01*
X125021600Y-165663527D01*
X125196600Y-165683245D01*
X125371600Y-165663527D01*
X125537826Y-165605362D01*
X125686940Y-165511667D01*
X125811467Y-165387140D01*
X125905162Y-165238026D01*
X125963327Y-165071800D01*
X125983045Y-164896800D01*
X125965873Y-164744400D01*
X128027055Y-164744400D01*
X128027835Y-164751323D01*
X128044226Y-164896800D01*
X128046773Y-164919400D01*
X128049072Y-164925970D01*
X128099502Y-165070093D01*
X128104938Y-165085626D01*
X128108639Y-165091516D01*
X128192895Y-165225609D01*
X128198633Y-165234740D01*
X128323160Y-165359267D01*
X128472274Y-165452962D01*
X128638500Y-165511127D01*
X128813500Y-165530845D01*
X128988500Y-165511127D01*
X129154726Y-165452962D01*
X129303840Y-165359267D01*
X129428367Y-165234740D01*
X129522062Y-165085626D01*
X129580227Y-164919400D01*
X129598344Y-164758605D01*
X129599165Y-164751323D01*
X129599945Y-164744400D01*
X129581394Y-164579753D01*
X141783755Y-164579753D01*
X141803473Y-164754753D01*
X141805772Y-164761323D01*
X141855599Y-164903723D01*
X141861638Y-164920979D01*
X141865339Y-164926869D01*
X141899188Y-164980740D01*
X141955333Y-165070093D01*
X142079860Y-165194620D01*
X142228974Y-165288315D01*
X142395200Y-165346480D01*
X142541587Y-165362974D01*
X142557792Y-165364800D01*
X142570200Y-165366198D01*
X142582608Y-165364800D01*
X142598813Y-165362974D01*
X142745200Y-165346480D01*
X142911426Y-165288315D01*
X143022239Y-165218686D01*
X157379355Y-165218686D01*
X157380135Y-165225609D01*
X157397670Y-165381239D01*
X157399073Y-165393686D01*
X157401372Y-165400256D01*
X157439362Y-165508827D01*
X157457238Y-165559912D01*
X157483470Y-165601660D01*
X157534243Y-165682465D01*
X157550933Y-165709026D01*
X157675460Y-165833553D01*
X157824574Y-165927248D01*
X157990800Y-165985413D01*
X158165800Y-166005131D01*
X158340800Y-165985413D01*
X158507026Y-165927248D01*
X158656140Y-165833553D01*
X158780667Y-165709026D01*
X158874362Y-165559912D01*
X158932527Y-165393686D01*
X158952245Y-165218686D01*
X158932527Y-165043686D01*
X158874362Y-164877460D01*
X158780667Y-164728346D01*
X158656140Y-164603819D01*
X158617839Y-164579753D01*
X158512916Y-164513825D01*
X158507026Y-164510124D01*
X158500463Y-164507827D01*
X158500460Y-164507826D01*
X158347370Y-164454258D01*
X158340800Y-164451959D01*
X158333878Y-164451179D01*
X158172723Y-164433021D01*
X158165800Y-164432241D01*
X158158877Y-164433021D01*
X157997721Y-164451179D01*
X157997719Y-164451179D01*
X157990800Y-164451959D01*
X157984231Y-164454257D01*
X157984229Y-164454258D01*
X157831139Y-164507826D01*
X157831132Y-164507828D01*
X157824574Y-164510124D01*
X157818686Y-164513823D01*
X157818683Y-164513825D01*
X157681360Y-164600111D01*
X157681355Y-164600114D01*
X157675460Y-164603819D01*
X157670535Y-164608743D01*
X157670531Y-164608747D01*
X157555861Y-164723417D01*
X157555857Y-164723421D01*
X157550933Y-164728346D01*
X157547228Y-164734241D01*
X157547225Y-164734246D01*
X157460939Y-164871569D01*
X157460937Y-164871572D01*
X157457238Y-164877460D01*
X157454942Y-164884018D01*
X157454940Y-164884025D01*
X157420011Y-164983848D01*
X157399073Y-165043686D01*
X157398293Y-165050605D01*
X157398293Y-165050607D01*
X157389487Y-165128761D01*
X157379355Y-165218686D01*
X143022239Y-165218686D01*
X143060540Y-165194620D01*
X143185067Y-165070093D01*
X143278762Y-164920979D01*
X143336927Y-164754753D01*
X143356645Y-164579753D01*
X143355478Y-164569400D01*
X143353257Y-164549683D01*
X143336927Y-164404753D01*
X143278762Y-164238527D01*
X143185067Y-164089413D01*
X143060540Y-163964886D01*
X143049509Y-163957955D01*
X142917316Y-163874892D01*
X142911426Y-163871191D01*
X142904863Y-163868894D01*
X142904860Y-163868893D01*
X142751770Y-163815325D01*
X142745200Y-163813026D01*
X142738278Y-163812246D01*
X142577123Y-163794088D01*
X142570200Y-163793308D01*
X142563277Y-163794088D01*
X142402121Y-163812246D01*
X142402119Y-163812246D01*
X142395200Y-163813026D01*
X142388631Y-163815324D01*
X142388629Y-163815325D01*
X142235539Y-163868893D01*
X142235532Y-163868895D01*
X142228974Y-163871191D01*
X142223086Y-163874890D01*
X142223083Y-163874892D01*
X142085760Y-163961178D01*
X142085755Y-163961181D01*
X142079860Y-163964886D01*
X142074935Y-163969810D01*
X142074931Y-163969814D01*
X141960261Y-164084484D01*
X141960257Y-164084488D01*
X141955333Y-164089413D01*
X141951628Y-164095308D01*
X141951625Y-164095313D01*
X141865339Y-164232636D01*
X141865337Y-164232639D01*
X141861638Y-164238527D01*
X141859342Y-164245085D01*
X141859340Y-164245092D01*
X141811062Y-164383065D01*
X141803473Y-164404753D01*
X141802693Y-164411672D01*
X141802693Y-164411674D01*
X141784833Y-164570183D01*
X141783755Y-164579753D01*
X129581394Y-164579753D01*
X129580227Y-164569400D01*
X129522062Y-164403174D01*
X129428367Y-164254060D01*
X129303840Y-164129533D01*
X129249379Y-164095313D01*
X129160616Y-164039539D01*
X129154726Y-164035838D01*
X129148163Y-164033541D01*
X129148160Y-164033540D01*
X128995070Y-163979972D01*
X128988500Y-163977673D01*
X128981578Y-163976893D01*
X128820423Y-163958735D01*
X128813500Y-163957955D01*
X128806577Y-163958735D01*
X128645421Y-163976893D01*
X128645419Y-163976893D01*
X128638500Y-163977673D01*
X128631931Y-163979971D01*
X128631929Y-163979972D01*
X128478839Y-164033540D01*
X128478832Y-164033542D01*
X128472274Y-164035838D01*
X128466386Y-164039537D01*
X128466383Y-164039539D01*
X128329060Y-164125825D01*
X128329055Y-164125828D01*
X128323160Y-164129533D01*
X128318235Y-164134457D01*
X128318231Y-164134461D01*
X128203561Y-164249131D01*
X128203557Y-164249135D01*
X128198633Y-164254060D01*
X128194928Y-164259955D01*
X128194925Y-164259960D01*
X128108639Y-164397283D01*
X128108637Y-164397286D01*
X128104938Y-164403174D01*
X128102642Y-164409732D01*
X128102640Y-164409739D01*
X128049072Y-164562829D01*
X128046773Y-164569400D01*
X128045993Y-164576319D01*
X128045993Y-164576321D01*
X128041142Y-164619374D01*
X128027055Y-164744400D01*
X125965873Y-164744400D01*
X125963327Y-164721800D01*
X125905162Y-164555574D01*
X125811467Y-164406460D01*
X125686940Y-164281933D01*
X125537826Y-164188238D01*
X125531263Y-164185941D01*
X125531260Y-164185940D01*
X125378170Y-164132372D01*
X125371600Y-164130073D01*
X125364678Y-164129293D01*
X125203523Y-164111135D01*
X125196600Y-164110355D01*
X125189677Y-164111135D01*
X125028521Y-164129293D01*
X125028519Y-164129293D01*
X125021600Y-164130073D01*
X125015031Y-164132371D01*
X125015029Y-164132372D01*
X124861939Y-164185940D01*
X124861932Y-164185942D01*
X124855374Y-164188238D01*
X124849486Y-164191937D01*
X124849483Y-164191939D01*
X124712160Y-164278225D01*
X124712155Y-164278228D01*
X124706260Y-164281933D01*
X124701335Y-164286857D01*
X124701331Y-164286861D01*
X124586661Y-164401531D01*
X124586657Y-164401535D01*
X124581733Y-164406460D01*
X124578028Y-164412355D01*
X124578025Y-164412360D01*
X124491739Y-164549683D01*
X124491737Y-164549686D01*
X124488038Y-164555574D01*
X124485742Y-164562132D01*
X124485740Y-164562139D01*
X124432172Y-164715229D01*
X124429873Y-164721800D01*
X124429093Y-164728719D01*
X124429093Y-164728721D01*
X124418238Y-164825060D01*
X124410155Y-164896800D01*
X124086210Y-164896800D01*
X124127162Y-164831626D01*
X124185327Y-164665400D01*
X124205045Y-164490400D01*
X124185327Y-164315400D01*
X124127162Y-164149174D01*
X124033467Y-164000060D01*
X123908940Y-163875533D01*
X123879825Y-163857239D01*
X123765716Y-163785539D01*
X123759826Y-163781838D01*
X123753263Y-163779541D01*
X123753260Y-163779540D01*
X123600170Y-163725972D01*
X123593600Y-163723673D01*
X123586678Y-163722893D01*
X123425523Y-163704735D01*
X123418600Y-163703955D01*
X123411677Y-163704735D01*
X123250521Y-163722893D01*
X123250519Y-163722893D01*
X123243600Y-163723673D01*
X123237031Y-163725971D01*
X123237029Y-163725972D01*
X123083939Y-163779540D01*
X123083932Y-163779542D01*
X123077374Y-163781838D01*
X123071486Y-163785537D01*
X123071483Y-163785539D01*
X122934160Y-163871825D01*
X122934155Y-163871828D01*
X122928260Y-163875533D01*
X122923335Y-163880457D01*
X122923331Y-163880461D01*
X122808661Y-163995131D01*
X122808657Y-163995135D01*
X122803733Y-164000060D01*
X122800028Y-164005955D01*
X122800025Y-164005960D01*
X122713739Y-164143283D01*
X122713737Y-164143286D01*
X122710038Y-164149174D01*
X122707742Y-164155732D01*
X122707740Y-164155739D01*
X122658198Y-164297324D01*
X122651873Y-164315400D01*
X122651093Y-164322319D01*
X122651093Y-164322321D01*
X122634057Y-164473521D01*
X122632155Y-164490400D01*
X117789204Y-164490400D01*
X117716617Y-164417813D01*
X117540102Y-164294216D01*
X117344807Y-164203148D01*
X117339582Y-164201748D01*
X117339574Y-164201745D01*
X117178046Y-164158465D01*
X117136665Y-164147377D01*
X117131277Y-164146905D01*
X117131274Y-164146905D01*
X116927395Y-164129068D01*
X116922000Y-164128596D01*
X116916605Y-164129068D01*
X116916604Y-164129068D01*
X116848307Y-164135043D01*
X116781849Y-164122325D01*
X116731961Y-164076612D01*
X116713500Y-164011515D01*
X116713500Y-163017200D01*
X134900355Y-163017200D01*
X134901135Y-163024123D01*
X134909788Y-163100924D01*
X134920073Y-163192200D01*
X134922372Y-163198770D01*
X134950010Y-163277757D01*
X134978238Y-163358426D01*
X134988883Y-163375368D01*
X135067938Y-163501183D01*
X135071933Y-163507540D01*
X135196460Y-163632067D01*
X135345574Y-163725762D01*
X135511800Y-163783927D01*
X135686800Y-163803645D01*
X135861800Y-163783927D01*
X136028026Y-163725762D01*
X136177140Y-163632067D01*
X136301667Y-163507540D01*
X136395362Y-163358426D01*
X136453527Y-163192200D01*
X136473245Y-163017200D01*
X136457797Y-162880100D01*
X139599355Y-162880100D01*
X139619073Y-163055100D01*
X139625143Y-163072448D01*
X139672588Y-163208039D01*
X139677238Y-163221326D01*
X139770933Y-163370440D01*
X139895460Y-163494967D01*
X140044574Y-163588662D01*
X140210800Y-163646827D01*
X140385800Y-163666545D01*
X140560800Y-163646827D01*
X140727026Y-163588662D01*
X140876140Y-163494967D01*
X140998307Y-163372800D01*
X143891955Y-163372800D01*
X143911673Y-163547800D01*
X143913972Y-163554370D01*
X143966586Y-163704735D01*
X143969838Y-163714026D01*
X143973539Y-163719916D01*
X144025659Y-163802865D01*
X144063533Y-163863140D01*
X144188060Y-163987667D01*
X144337174Y-164081362D01*
X144503400Y-164139527D01*
X144678400Y-164159245D01*
X144853400Y-164139527D01*
X145019626Y-164081362D01*
X145168740Y-163987667D01*
X145293267Y-163863140D01*
X145298415Y-163854947D01*
X151562302Y-163854947D01*
X151563082Y-163861870D01*
X151578652Y-164000060D01*
X151582020Y-164029947D01*
X151584319Y-164036517D01*
X151630466Y-164168400D01*
X151640185Y-164196173D01*
X151733880Y-164345287D01*
X151858407Y-164469814D01*
X152007521Y-164563509D01*
X152173747Y-164621674D01*
X152348747Y-164641392D01*
X152523747Y-164621674D01*
X152689973Y-164563509D01*
X152839087Y-164469814D01*
X152963614Y-164345287D01*
X153057309Y-164196173D01*
X153115474Y-164029947D01*
X153135192Y-163854947D01*
X153115474Y-163679947D01*
X153057309Y-163513721D01*
X152963614Y-163364607D01*
X152839087Y-163240080D01*
X152761341Y-163191229D01*
X152695863Y-163150086D01*
X152689973Y-163146385D01*
X152683410Y-163144088D01*
X152683407Y-163144087D01*
X152530317Y-163090519D01*
X152523747Y-163088220D01*
X152516825Y-163087440D01*
X152355670Y-163069282D01*
X152348747Y-163068502D01*
X152341824Y-163069282D01*
X152180668Y-163087440D01*
X152180666Y-163087440D01*
X152173747Y-163088220D01*
X152167178Y-163090518D01*
X152167176Y-163090519D01*
X152014086Y-163144087D01*
X152014079Y-163144089D01*
X152007521Y-163146385D01*
X152001633Y-163150084D01*
X152001630Y-163150086D01*
X151864307Y-163236372D01*
X151864302Y-163236375D01*
X151858407Y-163240080D01*
X151853482Y-163245004D01*
X151853478Y-163245008D01*
X151738808Y-163359678D01*
X151738804Y-163359682D01*
X151733880Y-163364607D01*
X151730175Y-163370502D01*
X151730172Y-163370507D01*
X151643886Y-163507830D01*
X151643884Y-163507833D01*
X151640185Y-163513721D01*
X151637889Y-163520279D01*
X151637887Y-163520286D01*
X151584319Y-163673376D01*
X151582020Y-163679947D01*
X151581240Y-163686866D01*
X151581240Y-163686868D01*
X151570304Y-163783927D01*
X151562302Y-163854947D01*
X145298415Y-163854947D01*
X145386962Y-163714026D01*
X145445127Y-163547800D01*
X145464845Y-163372800D01*
X145445127Y-163197800D01*
X145386962Y-163031574D01*
X145293267Y-162882460D01*
X145168740Y-162757933D01*
X145019626Y-162664238D01*
X145013063Y-162661941D01*
X145013060Y-162661940D01*
X144859970Y-162608372D01*
X144853400Y-162606073D01*
X144846478Y-162605293D01*
X144685323Y-162587135D01*
X144678400Y-162586355D01*
X144671477Y-162587135D01*
X144510321Y-162605293D01*
X144510319Y-162605293D01*
X144503400Y-162606073D01*
X144496831Y-162608371D01*
X144496829Y-162608372D01*
X144343739Y-162661940D01*
X144343732Y-162661942D01*
X144337174Y-162664238D01*
X144331286Y-162667937D01*
X144331283Y-162667939D01*
X144193960Y-162754225D01*
X144193955Y-162754228D01*
X144188060Y-162757933D01*
X144183135Y-162762857D01*
X144183131Y-162762861D01*
X144068461Y-162877531D01*
X144068457Y-162877535D01*
X144063533Y-162882460D01*
X144059828Y-162888355D01*
X144059825Y-162888360D01*
X143973539Y-163025683D01*
X143973537Y-163025686D01*
X143969838Y-163031574D01*
X143967542Y-163038132D01*
X143967540Y-163038139D01*
X143913972Y-163191229D01*
X143911673Y-163197800D01*
X143910893Y-163204719D01*
X143910893Y-163204721D01*
X143892911Y-163364316D01*
X143891955Y-163372800D01*
X140998307Y-163372800D01*
X141000667Y-163370440D01*
X141094362Y-163221326D01*
X141152527Y-163055100D01*
X141172245Y-162880100D01*
X141152527Y-162705100D01*
X141094362Y-162538874D01*
X141000667Y-162389760D01*
X140876140Y-162265233D01*
X140851408Y-162249693D01*
X140732916Y-162175239D01*
X140727026Y-162171538D01*
X140720463Y-162169241D01*
X140720460Y-162169240D01*
X140567370Y-162115672D01*
X140560800Y-162113373D01*
X140553878Y-162112593D01*
X140392723Y-162094435D01*
X140385800Y-162093655D01*
X140378877Y-162094435D01*
X140217721Y-162112593D01*
X140217719Y-162112593D01*
X140210800Y-162113373D01*
X140204231Y-162115671D01*
X140204229Y-162115672D01*
X140051139Y-162169240D01*
X140051132Y-162169242D01*
X140044574Y-162171538D01*
X140038686Y-162175237D01*
X140038683Y-162175239D01*
X139901360Y-162261525D01*
X139901355Y-162261528D01*
X139895460Y-162265233D01*
X139890535Y-162270157D01*
X139890531Y-162270161D01*
X139775861Y-162384831D01*
X139775857Y-162384835D01*
X139770933Y-162389760D01*
X139767228Y-162395655D01*
X139767225Y-162395660D01*
X139680939Y-162532983D01*
X139680937Y-162532986D01*
X139677238Y-162538874D01*
X139674942Y-162545432D01*
X139674940Y-162545439D01*
X139626967Y-162682539D01*
X139619073Y-162705100D01*
X139618293Y-162712019D01*
X139618293Y-162712021D01*
X139600135Y-162873177D01*
X139599355Y-162880100D01*
X136457797Y-162880100D01*
X136453527Y-162842200D01*
X136395362Y-162675974D01*
X136301667Y-162526860D01*
X136177140Y-162402333D01*
X136028026Y-162308638D01*
X136021463Y-162306341D01*
X136021460Y-162306340D01*
X135868370Y-162252772D01*
X135861800Y-162250473D01*
X135854878Y-162249693D01*
X135693723Y-162231535D01*
X135686800Y-162230755D01*
X135679877Y-162231535D01*
X135518721Y-162249693D01*
X135518719Y-162249693D01*
X135511800Y-162250473D01*
X135505231Y-162252771D01*
X135505229Y-162252772D01*
X135352139Y-162306340D01*
X135352132Y-162306342D01*
X135345574Y-162308638D01*
X135339686Y-162312337D01*
X135339683Y-162312339D01*
X135202360Y-162398625D01*
X135202355Y-162398628D01*
X135196460Y-162402333D01*
X135191535Y-162407257D01*
X135191531Y-162407261D01*
X135076861Y-162521931D01*
X135076857Y-162521935D01*
X135071933Y-162526860D01*
X135068228Y-162532755D01*
X135068225Y-162532760D01*
X134981939Y-162670083D01*
X134981937Y-162670086D01*
X134978238Y-162675974D01*
X134975942Y-162682532D01*
X134975940Y-162682539D01*
X134922372Y-162835629D01*
X134920073Y-162842200D01*
X134919293Y-162849119D01*
X134919293Y-162849121D01*
X134909403Y-162936900D01*
X134900355Y-163017200D01*
X116713500Y-163017200D01*
X116713500Y-162026600D01*
X151511955Y-162026600D01*
X151512735Y-162033523D01*
X151522283Y-162118267D01*
X151531673Y-162201600D01*
X151533972Y-162208170D01*
X151555663Y-162270161D01*
X151589838Y-162367826D01*
X151683533Y-162516940D01*
X151808060Y-162641467D01*
X151957174Y-162735162D01*
X152123400Y-162793327D01*
X152298400Y-162813045D01*
X152473400Y-162793327D01*
X152639626Y-162735162D01*
X152788740Y-162641467D01*
X152913267Y-162516940D01*
X153006962Y-162367826D01*
X153065127Y-162201600D01*
X153084845Y-162026600D01*
X153065127Y-161851600D01*
X153006962Y-161685374D01*
X152913267Y-161536260D01*
X152880407Y-161503400D01*
X157303155Y-161503400D01*
X157322873Y-161678400D01*
X157325172Y-161684970D01*
X157377095Y-161833359D01*
X157381038Y-161844626D01*
X157384739Y-161850516D01*
X157421452Y-161908945D01*
X157474733Y-161993740D01*
X157599260Y-162118267D01*
X157748374Y-162211962D01*
X157914600Y-162270127D01*
X158089600Y-162289845D01*
X158264600Y-162270127D01*
X158430826Y-162211962D01*
X158579940Y-162118267D01*
X158704467Y-161993740D01*
X158798162Y-161844626D01*
X158856327Y-161678400D01*
X158876045Y-161503400D01*
X158856327Y-161328400D01*
X158798162Y-161162174D01*
X158704467Y-161013060D01*
X158579940Y-160888533D01*
X158430826Y-160794838D01*
X158424263Y-160792541D01*
X158424260Y-160792540D01*
X158271170Y-160738972D01*
X158264600Y-160736673D01*
X158257678Y-160735893D01*
X158096523Y-160717735D01*
X158089600Y-160716955D01*
X158082677Y-160717735D01*
X157921521Y-160735893D01*
X157921519Y-160735893D01*
X157914600Y-160736673D01*
X157908031Y-160738971D01*
X157908029Y-160738972D01*
X157754939Y-160792540D01*
X157754932Y-160792542D01*
X157748374Y-160794838D01*
X157742486Y-160798537D01*
X157742483Y-160798539D01*
X157605160Y-160884825D01*
X157605155Y-160884828D01*
X157599260Y-160888533D01*
X157594335Y-160893457D01*
X157594331Y-160893461D01*
X157479661Y-161008131D01*
X157479657Y-161008135D01*
X157474733Y-161013060D01*
X157471028Y-161018955D01*
X157471025Y-161018960D01*
X157384739Y-161156283D01*
X157384737Y-161156286D01*
X157381038Y-161162174D01*
X157378742Y-161168732D01*
X157378740Y-161168739D01*
X157325172Y-161321829D01*
X157322873Y-161328400D01*
X157322093Y-161335319D01*
X157322093Y-161335321D01*
X157308711Y-161454089D01*
X157303155Y-161503400D01*
X152880407Y-161503400D01*
X152788740Y-161411733D01*
X152639626Y-161318038D01*
X152633063Y-161315741D01*
X152633060Y-161315740D01*
X152479970Y-161262172D01*
X152473400Y-161259873D01*
X152466478Y-161259093D01*
X152305323Y-161240935D01*
X152298400Y-161240155D01*
X152291477Y-161240935D01*
X152130321Y-161259093D01*
X152130319Y-161259093D01*
X152123400Y-161259873D01*
X152116831Y-161262171D01*
X152116829Y-161262172D01*
X151963739Y-161315740D01*
X151963732Y-161315742D01*
X151957174Y-161318038D01*
X151951286Y-161321737D01*
X151951283Y-161321739D01*
X151813960Y-161408025D01*
X151813955Y-161408028D01*
X151808060Y-161411733D01*
X151803135Y-161416657D01*
X151803131Y-161416661D01*
X151688461Y-161531331D01*
X151688457Y-161531335D01*
X151683533Y-161536260D01*
X151679828Y-161542155D01*
X151679825Y-161542160D01*
X151593539Y-161679483D01*
X151593537Y-161679486D01*
X151589838Y-161685374D01*
X151587542Y-161691932D01*
X151587540Y-161691939D01*
X151536411Y-161838060D01*
X151531673Y-161851600D01*
X151530893Y-161858519D01*
X151530893Y-161858521D01*
X151525212Y-161908945D01*
X151511955Y-162026600D01*
X116713500Y-162026600D01*
X116713500Y-161640300D01*
X116730113Y-161578300D01*
X116775500Y-161532913D01*
X116837500Y-161516300D01*
X117803720Y-161516300D01*
X117808206Y-161516300D01*
X117882361Y-161505496D01*
X117996746Y-161449576D01*
X118086776Y-161359546D01*
X118142696Y-161245161D01*
X118153500Y-161171006D01*
X118153500Y-160807400D01*
X120625555Y-160807400D01*
X120645273Y-160982400D01*
X120647572Y-160988970D01*
X120696718Y-161129423D01*
X120703438Y-161148626D01*
X120707139Y-161154516D01*
X120748924Y-161221017D01*
X120797133Y-161297740D01*
X120921660Y-161422267D01*
X121070774Y-161515962D01*
X121237000Y-161574127D01*
X121412000Y-161593845D01*
X121587000Y-161574127D01*
X121753226Y-161515962D01*
X121902340Y-161422267D01*
X122026867Y-161297740D01*
X122120562Y-161148626D01*
X122129704Y-161122500D01*
X129195655Y-161122500D01*
X129196435Y-161129423D01*
X129211045Y-161259093D01*
X129215373Y-161297500D01*
X129217672Y-161304070D01*
X129270165Y-161454089D01*
X129273538Y-161463726D01*
X129296825Y-161500787D01*
X129355297Y-161593845D01*
X129367233Y-161612840D01*
X129491760Y-161737367D01*
X129640874Y-161831062D01*
X129807100Y-161889227D01*
X129982100Y-161908945D01*
X130157100Y-161889227D01*
X130323326Y-161831062D01*
X130472440Y-161737367D01*
X130596967Y-161612840D01*
X130690662Y-161463726D01*
X130748827Y-161297500D01*
X130768545Y-161122500D01*
X130748827Y-160947500D01*
X130690662Y-160781274D01*
X130659198Y-160731200D01*
X132665155Y-160731200D01*
X132684873Y-160906200D01*
X132687172Y-160912770D01*
X132711536Y-160982400D01*
X132743038Y-161072426D01*
X132746739Y-161078316D01*
X132807767Y-161175442D01*
X132836733Y-161221540D01*
X132961260Y-161346067D01*
X133110374Y-161439762D01*
X133276600Y-161497927D01*
X133451600Y-161517645D01*
X133626600Y-161497927D01*
X133792826Y-161439762D01*
X133941940Y-161346067D01*
X134066467Y-161221540D01*
X134160162Y-161072426D01*
X134218327Y-160906200D01*
X134238045Y-160731200D01*
X134218327Y-160556200D01*
X134160162Y-160389974D01*
X134066467Y-160240860D01*
X133941940Y-160116333D01*
X133792826Y-160022638D01*
X133786263Y-160020341D01*
X133786260Y-160020340D01*
X133633170Y-159966772D01*
X133626600Y-159964473D01*
X133619678Y-159963693D01*
X133458523Y-159945535D01*
X133451600Y-159944755D01*
X133444677Y-159945535D01*
X133283521Y-159963693D01*
X133283519Y-159963693D01*
X133276600Y-159964473D01*
X133270031Y-159966771D01*
X133270029Y-159966772D01*
X133116939Y-160020340D01*
X133116932Y-160020342D01*
X133110374Y-160022638D01*
X133104486Y-160026337D01*
X133104483Y-160026339D01*
X132967160Y-160112625D01*
X132967155Y-160112628D01*
X132961260Y-160116333D01*
X132956335Y-160121257D01*
X132956331Y-160121261D01*
X132841661Y-160235931D01*
X132841657Y-160235935D01*
X132836733Y-160240860D01*
X132833028Y-160246755D01*
X132833025Y-160246760D01*
X132746739Y-160384083D01*
X132746737Y-160384086D01*
X132743038Y-160389974D01*
X132740742Y-160396532D01*
X132740740Y-160396539D01*
X132687172Y-160549629D01*
X132684873Y-160556200D01*
X132684093Y-160563119D01*
X132684093Y-160563121D01*
X132676870Y-160627231D01*
X132665155Y-160731200D01*
X130659198Y-160731200D01*
X130596967Y-160632160D01*
X130472440Y-160507633D01*
X130323326Y-160413938D01*
X130316763Y-160411641D01*
X130316760Y-160411640D01*
X130163670Y-160358072D01*
X130157100Y-160355773D01*
X130150178Y-160354993D01*
X129989023Y-160336835D01*
X129982100Y-160336055D01*
X129975177Y-160336835D01*
X129814021Y-160354993D01*
X129814019Y-160354993D01*
X129807100Y-160355773D01*
X129800531Y-160358071D01*
X129800529Y-160358072D01*
X129647439Y-160411640D01*
X129647432Y-160411642D01*
X129640874Y-160413938D01*
X129634986Y-160417637D01*
X129634983Y-160417639D01*
X129497660Y-160503925D01*
X129497655Y-160503928D01*
X129491760Y-160507633D01*
X129486835Y-160512557D01*
X129486831Y-160512561D01*
X129372161Y-160627231D01*
X129372157Y-160627235D01*
X129367233Y-160632160D01*
X129363528Y-160638055D01*
X129363525Y-160638060D01*
X129277239Y-160775383D01*
X129277237Y-160775386D01*
X129273538Y-160781274D01*
X129271242Y-160787832D01*
X129271240Y-160787839D01*
X129217672Y-160940929D01*
X129215373Y-160947500D01*
X129214593Y-160954419D01*
X129214593Y-160954421D01*
X129212093Y-160976607D01*
X129195655Y-161122500D01*
X122129704Y-161122500D01*
X122178727Y-160982400D01*
X122198445Y-160807400D01*
X122178727Y-160632400D01*
X122120562Y-160466174D01*
X122026867Y-160317060D01*
X121902340Y-160192533D01*
X121753226Y-160098838D01*
X121746663Y-160096541D01*
X121746660Y-160096540D01*
X121593570Y-160042972D01*
X121587000Y-160040673D01*
X121580078Y-160039893D01*
X121418923Y-160021735D01*
X121412000Y-160020955D01*
X121405077Y-160021735D01*
X121243921Y-160039893D01*
X121243919Y-160039893D01*
X121237000Y-160040673D01*
X121230431Y-160042971D01*
X121230429Y-160042972D01*
X121077339Y-160096540D01*
X121077332Y-160096542D01*
X121070774Y-160098838D01*
X121064886Y-160102537D01*
X121064883Y-160102539D01*
X120927560Y-160188825D01*
X120927555Y-160188828D01*
X120921660Y-160192533D01*
X120916735Y-160197457D01*
X120916731Y-160197461D01*
X120802061Y-160312131D01*
X120802057Y-160312135D01*
X120797133Y-160317060D01*
X120793428Y-160322955D01*
X120793425Y-160322960D01*
X120707139Y-160460283D01*
X120707137Y-160460286D01*
X120703438Y-160466174D01*
X120701142Y-160472732D01*
X120701140Y-160472739D01*
X120647572Y-160625829D01*
X120645273Y-160632400D01*
X120625555Y-160807400D01*
X118153500Y-160807400D01*
X118153500Y-159531300D01*
X146304955Y-159531300D01*
X146305735Y-159538223D01*
X146309599Y-159572521D01*
X146324673Y-159706300D01*
X146326972Y-159712870D01*
X146343177Y-159759183D01*
X146382838Y-159872526D01*
X146386539Y-159878416D01*
X146469478Y-160010413D01*
X146476533Y-160021640D01*
X146601060Y-160146167D01*
X146750174Y-160239862D01*
X146916400Y-160298027D01*
X147091400Y-160317745D01*
X147266400Y-160298027D01*
X147432626Y-160239862D01*
X147581740Y-160146167D01*
X147706267Y-160021640D01*
X147799962Y-159872526D01*
X147846125Y-159740600D01*
X151562755Y-159740600D01*
X151563535Y-159747523D01*
X151579203Y-159886583D01*
X151582473Y-159915600D01*
X151584772Y-159922170D01*
X151615649Y-160010413D01*
X151640638Y-160081826D01*
X151734333Y-160230940D01*
X151858860Y-160355467D01*
X152007974Y-160449162D01*
X152174200Y-160507327D01*
X152349200Y-160527045D01*
X152524200Y-160507327D01*
X152690426Y-160449162D01*
X152839540Y-160355467D01*
X152964067Y-160230940D01*
X153057762Y-160081826D01*
X153115927Y-159915600D01*
X153135645Y-159740600D01*
X153115927Y-159565600D01*
X153057762Y-159399374D01*
X152964067Y-159250260D01*
X152839540Y-159125733D01*
X152741458Y-159064104D01*
X152696316Y-159035739D01*
X152690426Y-159032038D01*
X152683863Y-159029741D01*
X152683860Y-159029740D01*
X152530770Y-158976172D01*
X152524200Y-158973873D01*
X152517278Y-158973093D01*
X152356123Y-158954935D01*
X152349200Y-158954155D01*
X152342277Y-158954935D01*
X152181121Y-158973093D01*
X152181119Y-158973093D01*
X152174200Y-158973873D01*
X152167631Y-158976171D01*
X152167629Y-158976172D01*
X152014539Y-159029740D01*
X152014532Y-159029742D01*
X152007974Y-159032038D01*
X152002086Y-159035737D01*
X152002083Y-159035739D01*
X151864760Y-159122025D01*
X151864755Y-159122028D01*
X151858860Y-159125733D01*
X151853935Y-159130657D01*
X151853931Y-159130661D01*
X151739261Y-159245331D01*
X151739257Y-159245335D01*
X151734333Y-159250260D01*
X151730628Y-159256155D01*
X151730625Y-159256160D01*
X151644339Y-159393483D01*
X151644337Y-159393486D01*
X151640638Y-159399374D01*
X151638342Y-159405932D01*
X151638340Y-159405939D01*
X151584772Y-159559029D01*
X151582473Y-159565600D01*
X151562755Y-159740600D01*
X147846125Y-159740600D01*
X147858127Y-159706300D01*
X147877845Y-159531300D01*
X147858127Y-159356300D01*
X147799962Y-159190074D01*
X147706267Y-159040960D01*
X147581740Y-158916433D01*
X147432626Y-158822738D01*
X147426063Y-158820441D01*
X147426060Y-158820440D01*
X147272970Y-158766872D01*
X147266400Y-158764573D01*
X147259478Y-158763793D01*
X147098323Y-158745635D01*
X147091400Y-158744855D01*
X147084477Y-158745635D01*
X146923321Y-158763793D01*
X146923319Y-158763793D01*
X146916400Y-158764573D01*
X146909831Y-158766871D01*
X146909829Y-158766872D01*
X146756739Y-158820440D01*
X146756732Y-158820442D01*
X146750174Y-158822738D01*
X146744286Y-158826437D01*
X146744283Y-158826439D01*
X146606960Y-158912725D01*
X146606955Y-158912728D01*
X146601060Y-158916433D01*
X146596135Y-158921357D01*
X146596131Y-158921361D01*
X146481461Y-159036031D01*
X146481457Y-159036035D01*
X146476533Y-159040960D01*
X146472828Y-159046855D01*
X146472825Y-159046860D01*
X146386539Y-159184183D01*
X146386537Y-159184186D01*
X146382838Y-159190074D01*
X146380542Y-159196632D01*
X146380540Y-159196639D01*
X146331644Y-159336377D01*
X146324673Y-159356300D01*
X146323893Y-159363219D01*
X146323893Y-159363221D01*
X146305735Y-159524377D01*
X146304955Y-159531300D01*
X118153500Y-159531300D01*
X118153500Y-159398594D01*
X118142696Y-159324439D01*
X118086776Y-159210054D01*
X117996746Y-159120024D01*
X117922253Y-159083606D01*
X117891010Y-159068332D01*
X117891008Y-159068331D01*
X117882361Y-159064104D01*
X117872835Y-159062716D01*
X117812642Y-159053946D01*
X117812637Y-159053945D01*
X117808206Y-159053300D01*
X117803720Y-159053300D01*
X116837500Y-159053300D01*
X116775500Y-159036687D01*
X116730113Y-158991300D01*
X116713500Y-158929300D01*
X116713500Y-156870400D01*
X120879555Y-156870400D01*
X120880335Y-156877323D01*
X120882378Y-156895459D01*
X120899273Y-157045400D01*
X120901572Y-157051970D01*
X120954559Y-157203400D01*
X120957438Y-157211626D01*
X120961139Y-157217516D01*
X121043816Y-157349095D01*
X121062822Y-157415066D01*
X121043816Y-157481038D01*
X120999241Y-157551978D01*
X120999235Y-157551989D01*
X120995538Y-157557874D01*
X120993242Y-157564432D01*
X120993240Y-157564439D01*
X120941236Y-157713060D01*
X120937373Y-157724100D01*
X120936593Y-157731019D01*
X120936593Y-157731021D01*
X120920019Y-157878123D01*
X120917655Y-157899100D01*
X120937373Y-158074100D01*
X120939672Y-158080670D01*
X120983911Y-158207100D01*
X120995538Y-158240326D01*
X121089233Y-158389440D01*
X121213760Y-158513967D01*
X121362874Y-158607662D01*
X121529100Y-158665827D01*
X121704100Y-158685545D01*
X121879100Y-158665827D01*
X122045326Y-158607662D01*
X122194440Y-158513967D01*
X122318967Y-158389440D01*
X122365050Y-158316100D01*
X131725355Y-158316100D01*
X131726135Y-158323023D01*
X131743950Y-158481138D01*
X131745073Y-158491100D01*
X131747372Y-158497670D01*
X131796722Y-158638706D01*
X131803238Y-158657326D01*
X131896933Y-158806440D01*
X132021460Y-158930967D01*
X132170574Y-159024662D01*
X132336800Y-159082827D01*
X132511800Y-159102545D01*
X132686800Y-159082827D01*
X132853026Y-159024662D01*
X133002140Y-158930967D01*
X133126667Y-158806440D01*
X133220362Y-158657326D01*
X133278527Y-158491100D01*
X133298245Y-158316100D01*
X133278527Y-158141100D01*
X133220362Y-157974874D01*
X133155219Y-157871200D01*
X157303155Y-157871200D01*
X157322873Y-158046200D01*
X157325172Y-158052770D01*
X157364388Y-158164845D01*
X157381038Y-158212426D01*
X157474733Y-158361540D01*
X157599260Y-158486067D01*
X157748374Y-158579762D01*
X157914600Y-158637927D01*
X158089600Y-158657645D01*
X158264600Y-158637927D01*
X158430826Y-158579762D01*
X158579940Y-158486067D01*
X158704467Y-158361540D01*
X158798162Y-158212426D01*
X158856327Y-158046200D01*
X158876045Y-157871200D01*
X158856327Y-157696200D01*
X158798162Y-157529974D01*
X158704467Y-157380860D01*
X158579940Y-157256333D01*
X158518163Y-157217516D01*
X158436716Y-157166339D01*
X158430826Y-157162638D01*
X158424263Y-157160341D01*
X158424260Y-157160340D01*
X158271170Y-157106772D01*
X158264600Y-157104473D01*
X158257678Y-157103693D01*
X158096523Y-157085535D01*
X158089600Y-157084755D01*
X158082677Y-157085535D01*
X157921521Y-157103693D01*
X157921519Y-157103693D01*
X157914600Y-157104473D01*
X157908031Y-157106771D01*
X157908029Y-157106772D01*
X157754939Y-157160340D01*
X157754932Y-157160342D01*
X157748374Y-157162638D01*
X157742486Y-157166337D01*
X157742483Y-157166339D01*
X157605160Y-157252625D01*
X157605155Y-157252628D01*
X157599260Y-157256333D01*
X157594335Y-157261257D01*
X157594331Y-157261261D01*
X157479661Y-157375931D01*
X157479657Y-157375935D01*
X157474733Y-157380860D01*
X157471028Y-157386755D01*
X157471025Y-157386760D01*
X157384739Y-157524083D01*
X157384737Y-157524086D01*
X157381038Y-157529974D01*
X157378742Y-157536532D01*
X157378740Y-157536539D01*
X157354701Y-157605240D01*
X157322873Y-157696200D01*
X157322093Y-157703119D01*
X157322093Y-157703121D01*
X157310803Y-157803320D01*
X157303155Y-157871200D01*
X133155219Y-157871200D01*
X133126667Y-157825760D01*
X133002140Y-157701233D01*
X132983672Y-157689629D01*
X132858916Y-157611239D01*
X132853026Y-157607538D01*
X132846463Y-157605241D01*
X132846460Y-157605240D01*
X132710426Y-157557640D01*
X132686800Y-157549373D01*
X132679878Y-157548593D01*
X132518723Y-157530435D01*
X132511800Y-157529655D01*
X132504877Y-157530435D01*
X132343721Y-157548593D01*
X132343719Y-157548593D01*
X132336800Y-157549373D01*
X132330231Y-157551671D01*
X132330229Y-157551672D01*
X132177139Y-157605240D01*
X132177132Y-157605242D01*
X132170574Y-157607538D01*
X132164686Y-157611237D01*
X132164683Y-157611239D01*
X132027360Y-157697525D01*
X132027355Y-157697528D01*
X132021460Y-157701233D01*
X132016535Y-157706157D01*
X132016531Y-157706161D01*
X131901861Y-157820831D01*
X131901857Y-157820835D01*
X131896933Y-157825760D01*
X131893228Y-157831655D01*
X131893225Y-157831660D01*
X131806939Y-157968983D01*
X131806937Y-157968986D01*
X131803238Y-157974874D01*
X131800942Y-157981432D01*
X131800940Y-157981439D01*
X131747372Y-158134529D01*
X131745073Y-158141100D01*
X131744293Y-158148019D01*
X131744293Y-158148021D01*
X131733893Y-158240326D01*
X131725355Y-158316100D01*
X122365050Y-158316100D01*
X122412662Y-158240326D01*
X122470827Y-158074100D01*
X122490545Y-157899100D01*
X122470827Y-157724100D01*
X122412662Y-157557874D01*
X122408960Y-157551982D01*
X122408957Y-157551976D01*
X122326284Y-157420404D01*
X122314182Y-157378400D01*
X129769555Y-157378400D01*
X129770335Y-157385323D01*
X129786597Y-157529655D01*
X129789273Y-157553400D01*
X129791572Y-157559970D01*
X129844692Y-157711781D01*
X129847438Y-157719626D01*
X129941133Y-157868740D01*
X130065660Y-157993267D01*
X130214774Y-158086962D01*
X130381000Y-158145127D01*
X130556000Y-158164845D01*
X130731000Y-158145127D01*
X130897226Y-158086962D01*
X131046340Y-157993267D01*
X131170867Y-157868740D01*
X131264562Y-157719626D01*
X131322727Y-157553400D01*
X131342445Y-157378400D01*
X131322727Y-157203400D01*
X131264562Y-157037174D01*
X131170867Y-156888060D01*
X131046340Y-156763533D01*
X131011537Y-156741665D01*
X130903116Y-156673539D01*
X130897226Y-156669838D01*
X130890663Y-156667541D01*
X130890660Y-156667540D01*
X130737570Y-156613972D01*
X130731000Y-156611673D01*
X130724078Y-156610893D01*
X130562923Y-156592735D01*
X130556000Y-156591955D01*
X130549077Y-156592735D01*
X130387921Y-156610893D01*
X130387919Y-156610893D01*
X130381000Y-156611673D01*
X130374431Y-156613971D01*
X130374429Y-156613972D01*
X130221339Y-156667540D01*
X130221332Y-156667542D01*
X130214774Y-156669838D01*
X130208886Y-156673537D01*
X130208883Y-156673539D01*
X130071560Y-156759825D01*
X130071555Y-156759828D01*
X130065660Y-156763533D01*
X130060735Y-156768457D01*
X130060731Y-156768461D01*
X129946061Y-156883131D01*
X129946057Y-156883135D01*
X129941133Y-156888060D01*
X129937428Y-156893955D01*
X129937425Y-156893960D01*
X129851139Y-157031283D01*
X129851137Y-157031286D01*
X129847438Y-157037174D01*
X129845142Y-157043732D01*
X129845140Y-157043739D01*
X129804340Y-157160340D01*
X129789273Y-157203400D01*
X129788493Y-157210319D01*
X129788493Y-157210321D01*
X129779689Y-157288459D01*
X129769555Y-157378400D01*
X122314182Y-157378400D01*
X122307277Y-157354432D01*
X122326284Y-157288459D01*
X122346471Y-157256333D01*
X122374562Y-157211626D01*
X122432727Y-157045400D01*
X122452445Y-156870400D01*
X122432727Y-156695400D01*
X122374562Y-156529174D01*
X122280867Y-156380060D01*
X122156340Y-156255533D01*
X122007226Y-156161838D01*
X122000663Y-156159541D01*
X122000660Y-156159540D01*
X121847570Y-156105972D01*
X121841000Y-156103673D01*
X121834078Y-156102893D01*
X121672923Y-156084735D01*
X121666000Y-156083955D01*
X121659077Y-156084735D01*
X121497921Y-156102893D01*
X121497919Y-156102893D01*
X121491000Y-156103673D01*
X121484431Y-156105971D01*
X121484429Y-156105972D01*
X121331339Y-156159540D01*
X121331332Y-156159542D01*
X121324774Y-156161838D01*
X121318886Y-156165537D01*
X121318883Y-156165539D01*
X121181560Y-156251825D01*
X121181555Y-156251828D01*
X121175660Y-156255533D01*
X121170735Y-156260457D01*
X121170731Y-156260461D01*
X121056061Y-156375131D01*
X121056057Y-156375135D01*
X121051133Y-156380060D01*
X121047428Y-156385955D01*
X121047425Y-156385960D01*
X120961139Y-156523283D01*
X120961137Y-156523286D01*
X120957438Y-156529174D01*
X120955142Y-156535732D01*
X120955140Y-156535739D01*
X120906922Y-156673539D01*
X120899273Y-156695400D01*
X120879555Y-156870400D01*
X116713500Y-156870400D01*
X116713500Y-155956000D01*
X123140155Y-155956000D01*
X123140935Y-155962923D01*
X123141818Y-155970764D01*
X123159873Y-156131000D01*
X123162172Y-156137570D01*
X123205172Y-156260459D01*
X123218038Y-156297226D01*
X123231248Y-156318249D01*
X123273793Y-156385960D01*
X123311733Y-156446340D01*
X123436260Y-156570867D01*
X123585374Y-156664562D01*
X123751600Y-156722727D01*
X123926600Y-156742445D01*
X124101600Y-156722727D01*
X124267826Y-156664562D01*
X124416940Y-156570867D01*
X124541467Y-156446340D01*
X124635162Y-156297226D01*
X124693327Y-156131000D01*
X124713045Y-155956000D01*
X124693327Y-155781000D01*
X124635162Y-155614774D01*
X124594210Y-155549600D01*
X126238955Y-155549600D01*
X126239735Y-155556523D01*
X126254858Y-155690746D01*
X126258673Y-155724600D01*
X126260972Y-155731170D01*
X126302106Y-155848726D01*
X126316838Y-155890826D01*
X126320539Y-155896716D01*
X126404888Y-156030957D01*
X126410533Y-156039940D01*
X126535060Y-156164467D01*
X126684174Y-156258162D01*
X126850400Y-156316327D01*
X127025400Y-156336045D01*
X127200400Y-156316327D01*
X127366626Y-156258162D01*
X127483699Y-156184600D01*
X148540155Y-156184600D01*
X148540935Y-156191523D01*
X148548443Y-156258162D01*
X148559873Y-156359600D01*
X148562172Y-156366170D01*
X148608578Y-156498793D01*
X148618038Y-156525826D01*
X148621739Y-156531716D01*
X148671979Y-156611673D01*
X148711733Y-156674940D01*
X148836260Y-156799467D01*
X148985374Y-156893162D01*
X149151600Y-156951327D01*
X149326600Y-156971045D01*
X149501600Y-156951327D01*
X149667826Y-156893162D01*
X149816940Y-156799467D01*
X149941467Y-156674940D01*
X150035162Y-156525826D01*
X150093327Y-156359600D01*
X150113045Y-156184600D01*
X150093327Y-156009600D01*
X150035162Y-155843374D01*
X149941467Y-155694260D01*
X149846388Y-155599181D01*
X149814294Y-155543594D01*
X149814294Y-155479406D01*
X149846388Y-155423819D01*
X149902178Y-155368029D01*
X149966867Y-155303340D01*
X150060562Y-155154226D01*
X150118727Y-154988000D01*
X150138445Y-154813000D01*
X150118727Y-154638000D01*
X150060562Y-154471774D01*
X149966867Y-154322660D01*
X149960688Y-154316481D01*
X149960024Y-154315331D01*
X149957602Y-154312294D01*
X149958059Y-154311928D01*
X149954059Y-154305000D01*
X157633355Y-154305000D01*
X157634135Y-154311923D01*
X157645270Y-154410752D01*
X157653073Y-154480000D01*
X157655372Y-154486570D01*
X157708359Y-154638000D01*
X157711238Y-154646226D01*
X157804933Y-154795340D01*
X157929460Y-154919867D01*
X158078574Y-155013562D01*
X158244800Y-155071727D01*
X158419800Y-155091445D01*
X158594800Y-155071727D01*
X158761026Y-155013562D01*
X158910140Y-154919867D01*
X159034667Y-154795340D01*
X159128362Y-154646226D01*
X159186527Y-154480000D01*
X159206245Y-154305000D01*
X159186527Y-154130000D01*
X159128362Y-153963774D01*
X159034667Y-153814660D01*
X158910140Y-153690133D01*
X158761026Y-153596438D01*
X158754463Y-153594141D01*
X158754460Y-153594140D01*
X158601370Y-153540572D01*
X158594800Y-153538273D01*
X158587878Y-153537493D01*
X158426723Y-153519335D01*
X158419800Y-153518555D01*
X158412877Y-153519335D01*
X158251721Y-153537493D01*
X158251719Y-153537493D01*
X158244800Y-153538273D01*
X158238231Y-153540571D01*
X158238229Y-153540572D01*
X158085139Y-153594140D01*
X158085132Y-153594142D01*
X158078574Y-153596438D01*
X158072686Y-153600137D01*
X158072683Y-153600139D01*
X157935360Y-153686425D01*
X157935355Y-153686428D01*
X157929460Y-153690133D01*
X157924535Y-153695057D01*
X157924531Y-153695061D01*
X157809861Y-153809731D01*
X157809857Y-153809735D01*
X157804933Y-153814660D01*
X157801228Y-153820555D01*
X157801225Y-153820560D01*
X157714939Y-153957883D01*
X157714937Y-153957886D01*
X157711238Y-153963774D01*
X157708942Y-153970332D01*
X157708940Y-153970339D01*
X157660275Y-154109417D01*
X157653073Y-154130000D01*
X157652293Y-154136919D01*
X157652293Y-154136921D01*
X157638325Y-154260894D01*
X157633355Y-154305000D01*
X149954059Y-154305000D01*
X149928594Y-154260894D01*
X149928594Y-154196706D01*
X149958059Y-154145671D01*
X149957602Y-154145306D01*
X149960024Y-154142268D01*
X149960688Y-154141119D01*
X149960688Y-154141118D01*
X149966867Y-154134940D01*
X150060562Y-153985826D01*
X150118727Y-153819600D01*
X150138445Y-153644600D01*
X150118727Y-153469600D01*
X150060562Y-153303374D01*
X149966867Y-153154260D01*
X149842340Y-153029733D01*
X149693226Y-152936038D01*
X149686663Y-152933741D01*
X149686660Y-152933740D01*
X149533570Y-152880172D01*
X149527000Y-152877873D01*
X149520078Y-152877093D01*
X149358923Y-152858935D01*
X149352000Y-152858155D01*
X149345077Y-152858935D01*
X149183921Y-152877093D01*
X149183919Y-152877093D01*
X149177000Y-152877873D01*
X149170431Y-152880171D01*
X149170429Y-152880172D01*
X149017339Y-152933740D01*
X149017332Y-152933742D01*
X149010774Y-152936038D01*
X149004886Y-152939737D01*
X149004883Y-152939739D01*
X148867560Y-153026025D01*
X148867555Y-153026028D01*
X148861660Y-153029733D01*
X148856735Y-153034657D01*
X148856731Y-153034661D01*
X148742061Y-153149331D01*
X148742057Y-153149335D01*
X148737133Y-153154260D01*
X148733428Y-153160155D01*
X148733425Y-153160160D01*
X148647139Y-153297483D01*
X148647137Y-153297486D01*
X148643438Y-153303374D01*
X148641142Y-153309932D01*
X148641140Y-153309939D01*
X148587572Y-153463029D01*
X148585273Y-153469600D01*
X148584493Y-153476519D01*
X148584493Y-153476521D01*
X148566335Y-153637677D01*
X148565555Y-153644600D01*
X148585273Y-153819600D01*
X148587572Y-153826170D01*
X148638018Y-153970339D01*
X148643438Y-153985826D01*
X148737133Y-154134940D01*
X148742061Y-154139868D01*
X148743312Y-154141119D01*
X148743975Y-154142268D01*
X148746398Y-154145306D01*
X148745940Y-154145671D01*
X148775406Y-154196706D01*
X148775406Y-154260894D01*
X148745940Y-154311928D01*
X148746398Y-154312294D01*
X148743975Y-154315331D01*
X148743312Y-154316481D01*
X148742061Y-154317731D01*
X148742057Y-154317735D01*
X148737133Y-154322660D01*
X148733428Y-154328555D01*
X148733425Y-154328560D01*
X148647139Y-154465883D01*
X148647137Y-154465886D01*
X148643438Y-154471774D01*
X148641142Y-154478332D01*
X148641140Y-154478339D01*
X148587572Y-154631429D01*
X148585273Y-154638000D01*
X148584493Y-154644919D01*
X148584493Y-154644921D01*
X148568210Y-154789439D01*
X148565555Y-154813000D01*
X148585273Y-154988000D01*
X148587572Y-154994570D01*
X148613765Y-155069427D01*
X148643438Y-155154226D01*
X148737133Y-155303340D01*
X148742060Y-155308267D01*
X148742061Y-155308268D01*
X148832212Y-155398419D01*
X148864306Y-155454006D01*
X148864306Y-155518194D01*
X148832212Y-155573781D01*
X148716661Y-155689331D01*
X148716657Y-155689335D01*
X148711733Y-155694260D01*
X148708028Y-155700155D01*
X148708025Y-155700160D01*
X148621739Y-155837483D01*
X148621737Y-155837486D01*
X148618038Y-155843374D01*
X148615742Y-155849932D01*
X148615740Y-155849939D01*
X148562172Y-156003029D01*
X148559873Y-156009600D01*
X148559093Y-156016519D01*
X148559093Y-156016521D01*
X148557119Y-156034039D01*
X148540155Y-156184600D01*
X127483699Y-156184600D01*
X127515740Y-156164467D01*
X127640267Y-156039940D01*
X127733962Y-155890826D01*
X127792127Y-155724600D01*
X127811845Y-155549600D01*
X127792127Y-155374600D01*
X127733962Y-155208374D01*
X127640267Y-155059260D01*
X127515740Y-154934733D01*
X127366626Y-154841038D01*
X127360063Y-154838741D01*
X127360060Y-154838740D01*
X127206970Y-154785172D01*
X127200400Y-154782873D01*
X127193478Y-154782093D01*
X127032323Y-154763935D01*
X127025400Y-154763155D01*
X127018477Y-154763935D01*
X126857321Y-154782093D01*
X126857319Y-154782093D01*
X126850400Y-154782873D01*
X126843831Y-154785171D01*
X126843829Y-154785172D01*
X126690739Y-154838740D01*
X126690732Y-154838742D01*
X126684174Y-154841038D01*
X126678286Y-154844737D01*
X126678283Y-154844739D01*
X126540960Y-154931025D01*
X126540955Y-154931028D01*
X126535060Y-154934733D01*
X126530135Y-154939657D01*
X126530131Y-154939661D01*
X126415461Y-155054331D01*
X126415457Y-155054335D01*
X126410533Y-155059260D01*
X126406828Y-155065155D01*
X126406825Y-155065160D01*
X126320539Y-155202483D01*
X126320537Y-155202486D01*
X126316838Y-155208374D01*
X126314542Y-155214932D01*
X126314540Y-155214939D01*
X126268659Y-155346061D01*
X126258673Y-155374600D01*
X126238955Y-155549600D01*
X124594210Y-155549600D01*
X124541467Y-155465660D01*
X124416940Y-155341133D01*
X124267826Y-155247438D01*
X124261263Y-155245141D01*
X124261260Y-155245140D01*
X124108170Y-155191572D01*
X124101600Y-155189273D01*
X124094678Y-155188493D01*
X123933523Y-155170335D01*
X123926600Y-155169555D01*
X123919677Y-155170335D01*
X123758521Y-155188493D01*
X123758519Y-155188493D01*
X123751600Y-155189273D01*
X123745031Y-155191571D01*
X123745029Y-155191572D01*
X123591939Y-155245140D01*
X123591932Y-155245142D01*
X123585374Y-155247438D01*
X123579486Y-155251137D01*
X123579483Y-155251139D01*
X123442160Y-155337425D01*
X123442155Y-155337428D01*
X123436260Y-155341133D01*
X123431335Y-155346057D01*
X123431331Y-155346061D01*
X123316661Y-155460731D01*
X123316657Y-155460735D01*
X123311733Y-155465660D01*
X123308028Y-155471555D01*
X123308025Y-155471560D01*
X123221739Y-155608883D01*
X123221737Y-155608886D01*
X123218038Y-155614774D01*
X123215742Y-155621332D01*
X123215740Y-155621339D01*
X123168020Y-155757717D01*
X123159873Y-155781000D01*
X123140155Y-155956000D01*
X116713500Y-155956000D01*
X116713500Y-151127000D01*
X116730113Y-151065000D01*
X116775500Y-151019613D01*
X116837500Y-151003000D01*
X123938694Y-151003000D01*
X124004666Y-151022006D01*
G37*
G04 #@! TD.AperFunction*
G04 #@! TA.AperFunction,Conductor*
G36*
X157493334Y-140981781D02*
G01*
X157536064Y-141014886D01*
X161140874Y-145365520D01*
X161141661Y-145367055D01*
X161145991Y-145371849D01*
X161146248Y-145372005D01*
X161153691Y-145380988D01*
X161153669Y-145385128D01*
X163706833Y-145412583D01*
X163768268Y-145429636D01*
X163813109Y-145474961D01*
X163829500Y-145536576D01*
X163829500Y-149275738D01*
X163820061Y-149323191D01*
X163793181Y-149363419D01*
X163764719Y-149391881D01*
X163724491Y-149418761D01*
X163677038Y-149428200D01*
X116837500Y-149428200D01*
X116775500Y-149411587D01*
X116730113Y-149366200D01*
X116713500Y-149304200D01*
X116713500Y-145564400D01*
X116730113Y-145502400D01*
X116775500Y-145457013D01*
X116837500Y-145440400D01*
X118935989Y-145440400D01*
X118948200Y-145440400D01*
X123382280Y-141006319D01*
X123422509Y-140979439D01*
X123469962Y-140970000D01*
X157440581Y-140970000D01*
X157493334Y-140981781D01*
G37*
G04 #@! TD.AperFunction*
M02*
