G04 #@! TF.GenerationSoftware,KiCad,Pcbnew,(7.0.0)*
G04 #@! TF.CreationDate,2023-09-29T14:02:52-04:00*
G04 #@! TF.ProjectId,_HW_HotPlate,5f48575f-486f-4745-906c-6174652e6b69,rev?*
G04 #@! TF.SameCoordinates,Original*
G04 #@! TF.FileFunction,Copper,L2,Inr*
G04 #@! TF.FilePolarity,Positive*
%FSLAX46Y46*%
G04 Gerber Fmt 4.6, Leading zero omitted, Abs format (unit mm)*
G04 Created by KiCad (PCBNEW (7.0.0)) date 2023-09-29 14:02:52*
%MOMM*%
%LPD*%
G01*
G04 APERTURE LIST*
G04 #@! TA.AperFunction,ComponentPad*
%ADD10R,2.600000X2.600000*%
G04 #@! TD*
G04 #@! TA.AperFunction,ComponentPad*
%ADD11C,2.600000*%
G04 #@! TD*
G04 #@! TA.AperFunction,ComponentPad*
%ADD12R,1.700000X1.700000*%
G04 #@! TD*
G04 #@! TA.AperFunction,ComponentPad*
%ADD13O,1.700000X1.700000*%
G04 #@! TD*
G04 #@! TA.AperFunction,ComponentPad*
%ADD14C,3.600000*%
G04 #@! TD*
G04 #@! TA.AperFunction,ComponentPad*
%ADD15C,0.500000*%
G04 #@! TD*
G04 #@! TA.AperFunction,ComponentPad*
%ADD16O,0.890000X1.550000*%
G04 #@! TD*
G04 #@! TA.AperFunction,ComponentPad*
%ADD17O,1.250000X0.950000*%
G04 #@! TD*
G04 #@! TA.AperFunction,ComponentPad*
%ADD18R,3.000000X3.000000*%
G04 #@! TD*
G04 #@! TA.AperFunction,ComponentPad*
%ADD19C,1.800000*%
G04 #@! TD*
G04 #@! TA.AperFunction,ViaPad*
%ADD20C,0.800000*%
G04 #@! TD*
G04 #@! TA.AperFunction,Conductor*
%ADD21C,0.635000*%
G04 #@! TD*
G04 #@! TA.AperFunction,Conductor*
%ADD22C,1.016000*%
G04 #@! TD*
G04 #@! TA.AperFunction,Conductor*
%ADD23C,1.270000*%
G04 #@! TD*
G04 #@! TA.AperFunction,Conductor*
%ADD24C,0.304800*%
G04 #@! TD*
G04 APERTURE END LIST*
D10*
X162483799Y-147345399D03*
D11*
X162483800Y-142265400D03*
X162483800Y-137185400D03*
D12*
X134853999Y-175152599D03*
D13*
X137393999Y-175152599D03*
X139933999Y-175152599D03*
X142473999Y-175152599D03*
X145013999Y-175152599D03*
D14*
X119380000Y-130810000D03*
D12*
X116921999Y-160284799D03*
D13*
X116921999Y-162824799D03*
X116921999Y-165364799D03*
X116921999Y-167904799D03*
D12*
X160725799Y-164168399D03*
D13*
X163265799Y-164168399D03*
D15*
X124541200Y-158892200D03*
X124541200Y-159842200D03*
X124541200Y-160792200D03*
X124541200Y-161742200D03*
X125491200Y-158892200D03*
X125491200Y-159842200D03*
X125491200Y-160792200D03*
X125491200Y-161742200D03*
X126441200Y-158892200D03*
X126441200Y-159842200D03*
X126441200Y-160792200D03*
X126441200Y-161742200D03*
X127391200Y-158892200D03*
X127391200Y-159842200D03*
X127391200Y-160792200D03*
X127391200Y-161742200D03*
D12*
X160725799Y-153314799D03*
D13*
X163265799Y-153314799D03*
D14*
X161290000Y-172720000D03*
D12*
X160725799Y-160553799D03*
D13*
X163265799Y-160553799D03*
D12*
X148676999Y-172657599D03*
D13*
X148676999Y-175197599D03*
X151216999Y-172657599D03*
X151216999Y-175197599D03*
X153756999Y-172657599D03*
X153756999Y-175197599D03*
X156296999Y-172657599D03*
X156296999Y-175197599D03*
D12*
X160725799Y-156921599D03*
D13*
X163265799Y-156921599D03*
D10*
X118033599Y-137129599D03*
D11*
X118033600Y-142209600D03*
X118033600Y-147289600D03*
D14*
X161290000Y-130810000D03*
X119380000Y-172720000D03*
D16*
X124499999Y-175209199D03*
D17*
X125499999Y-172509199D03*
X130499999Y-172509199D03*
D16*
X131499999Y-175209199D03*
D12*
X160725799Y-167792799D03*
D13*
X163265799Y-167792799D03*
D18*
X131500399Y-130047999D03*
X135500399Y-130047999D03*
X139500399Y-130047999D03*
X143540399Y-130017999D03*
X151470399Y-130047999D03*
X155500399Y-130047999D03*
D19*
X127497600Y-137753400D03*
X126197600Y-145253400D03*
D20*
X159025832Y-162221940D03*
X137109200Y-157988000D03*
X131978400Y-157226000D03*
X137744200Y-159080200D03*
X137134600Y-166446200D03*
X153405417Y-157266217D03*
X138633200Y-173990000D03*
X158978600Y-158693486D03*
X135788400Y-157988000D03*
X124039174Y-170473826D03*
X136423400Y-159080200D03*
X118918900Y-166594700D03*
X132232400Y-161432300D03*
X117754400Y-155575000D03*
X137134600Y-162941000D03*
X153720800Y-154457400D03*
X157861000Y-166522400D03*
X149775580Y-170429015D03*
X121005600Y-153233100D03*
X124993400Y-167421500D03*
X121539000Y-162433000D03*
X132816600Y-173888400D03*
X135943289Y-171490700D03*
X155094600Y-171373800D03*
X132334000Y-168706800D03*
X138277600Y-157988000D03*
X154000200Y-164363400D03*
X140722500Y-165322100D03*
X121880174Y-169254626D03*
X126492000Y-151155400D03*
X143383000Y-169443400D03*
X144526000Y-169443400D03*
X140004800Y-168249600D03*
X129982100Y-161122500D03*
X128854200Y-167386000D03*
X132511800Y-158316100D03*
X134213600Y-169164000D03*
X140385800Y-162880100D03*
X147091400Y-159531300D03*
X149326600Y-156184600D03*
X143332200Y-171602400D03*
X160172400Y-151333200D03*
X149352000Y-154813000D03*
X149352000Y-153644600D03*
X147170967Y-171270527D03*
X154228800Y-166276045D03*
X152094747Y-166268853D03*
X136017000Y-137769600D03*
X136017000Y-136804400D03*
X128813500Y-164744400D03*
X124841000Y-151206200D03*
X124180600Y-152044400D03*
X144678400Y-163372800D03*
X146685000Y-174294800D03*
X158419800Y-154305000D03*
X135686800Y-163017200D03*
X125196600Y-164896800D03*
X130556000Y-157378400D03*
X123418600Y-164490400D03*
X123926600Y-155956000D03*
X152348747Y-163854947D03*
X121704100Y-157899100D03*
X152298400Y-162026600D03*
X121666000Y-156870400D03*
X152349200Y-159740600D03*
X142570200Y-164579753D03*
X121412000Y-160807400D03*
X123445726Y-165660526D03*
X158140400Y-151511000D03*
X127025400Y-155549600D03*
X158165800Y-165218686D03*
X158089600Y-161503400D03*
X158089600Y-157871200D03*
X125196600Y-152857200D03*
X126669800Y-152933400D03*
X133451600Y-160731200D03*
D21*
X140385800Y-162880100D02*
X138216700Y-165049200D01*
X126492000Y-151155400D02*
X138715500Y-151155400D01*
X147091400Y-166878000D02*
X144526000Y-169443400D01*
X133858000Y-162585400D02*
X135864600Y-160578800D01*
X141052300Y-159531300D02*
X147091400Y-159531300D01*
X128854200Y-167386000D02*
X126985574Y-169254626D01*
X145135600Y-161290000D02*
X141975900Y-161290000D01*
X140004800Y-160578800D02*
X141052300Y-159531300D01*
X131191000Y-165049200D02*
X128854200Y-167386000D01*
X147091400Y-159531300D02*
X147091400Y-166878000D01*
X146894300Y-159531300D02*
X145135600Y-161290000D01*
X147091400Y-159531300D02*
X146894300Y-159531300D01*
X126985574Y-169254626D02*
X121880174Y-169254626D01*
D22*
X138715500Y-151155400D02*
X147091400Y-159531300D01*
D21*
X131445000Y-162585400D02*
X133858000Y-162585400D01*
X140004800Y-168249600D02*
X135128000Y-168249600D01*
X129982100Y-161122500D02*
X131445000Y-162585400D01*
X132511800Y-158316100D02*
X134338500Y-156489400D01*
X143383000Y-169443400D02*
X141198600Y-169443400D01*
X135864600Y-160578800D02*
X140004800Y-160578800D01*
X144526000Y-169443400D02*
X143383000Y-169443400D01*
X141198600Y-169443400D02*
X140004800Y-168249600D01*
X135128000Y-168249600D02*
X134213600Y-169164000D01*
X141975900Y-161290000D02*
X140385800Y-162880100D01*
X138216700Y-165049200D02*
X131191000Y-165049200D01*
X134338500Y-156489400D02*
X144049500Y-156489400D01*
D23*
X149352000Y-166776400D02*
X144526000Y-171602400D01*
D24*
X143431055Y-171602400D02*
X143332200Y-171602400D01*
D23*
X144526000Y-171602400D02*
X143431055Y-171602400D01*
X143332200Y-171602400D02*
X142474000Y-172460600D01*
X149352000Y-153644600D02*
X149352000Y-166776400D01*
X142474000Y-172460600D02*
X142474000Y-175152600D01*
D21*
X147170967Y-171270527D02*
X147170967Y-171192633D01*
X154228800Y-166276045D02*
X152101939Y-166276045D01*
D24*
X152101939Y-166276045D02*
X152094747Y-166268853D01*
D21*
X147170967Y-171192633D02*
X152094747Y-166268853D01*
D23*
X119583200Y-164211000D02*
X120853200Y-165481000D01*
X120853200Y-165481000D02*
X120853200Y-167259000D01*
X161290000Y-172720000D02*
X156591000Y-168021000D01*
X124841000Y-133451600D02*
X122199400Y-130810000D01*
X161290000Y-130810000D02*
X161290000Y-135991600D01*
X119354600Y-172694600D02*
X119380000Y-172720000D01*
X121869200Y-140965200D02*
X121869200Y-148590000D01*
X161290000Y-130810000D02*
X157835400Y-130810000D01*
X156591000Y-143078200D02*
X162483800Y-137185400D01*
X120853200Y-167259000D02*
X119354600Y-168757600D01*
X156591000Y-168021000D02*
X156591000Y-143078200D01*
X118033600Y-137129600D02*
X118033600Y-134975800D01*
X118033600Y-137129600D02*
X121869200Y-140965200D01*
X121869200Y-148590000D02*
X119583200Y-150876000D01*
X118033600Y-134975800D02*
X119380000Y-133629400D01*
X119380000Y-133629400D02*
X119380000Y-130810000D01*
X157835400Y-132383000D02*
X156766800Y-133451600D01*
X122199400Y-130810000D02*
X119380000Y-130810000D01*
X157835400Y-130810000D02*
X157835400Y-132383000D01*
X119354600Y-168757600D02*
X119354600Y-172694600D01*
X161290000Y-135991600D02*
X162483800Y-137185400D01*
X119583200Y-150876000D02*
X119583200Y-164211000D01*
X156766800Y-133451600D02*
X124841000Y-133451600D01*
G04 #@! TA.AperFunction,Conductor*
G36*
X155512500Y-151019613D02*
G01*
X155557887Y-151065000D01*
X155574500Y-151127000D01*
X155574500Y-167964967D01*
X155573903Y-167977121D01*
X155569581Y-168021000D01*
X155570178Y-168027061D01*
X155574815Y-168074135D01*
X155574815Y-168074137D01*
X155588610Y-168214206D01*
X155588611Y-168214214D01*
X155589208Y-168220269D01*
X155590973Y-168226090D01*
X155590975Y-168226096D01*
X155645566Y-168406057D01*
X155645568Y-168406062D01*
X155647333Y-168411880D01*
X155650201Y-168417247D01*
X155650203Y-168417250D01*
X155738846Y-168583090D01*
X155738850Y-168583096D01*
X155741722Y-168588469D01*
X155745588Y-168593180D01*
X155745589Y-168593181D01*
X155861066Y-168733892D01*
X155868748Y-168743252D01*
X155901567Y-168770186D01*
X155902830Y-168771222D01*
X155911847Y-168779395D01*
X159150563Y-172018111D01*
X159181695Y-172070303D01*
X159184288Y-172131020D01*
X159130369Y-172390496D01*
X159123769Y-172422258D01*
X159123480Y-172426482D01*
X159123479Y-172426490D01*
X159110023Y-172623222D01*
X159103403Y-172720000D01*
X159123769Y-173017742D01*
X159124630Y-173021889D01*
X159124632Y-173021898D01*
X159176353Y-173270791D01*
X159184488Y-173309937D01*
X159185906Y-173313928D01*
X159185909Y-173313937D01*
X159283008Y-173587146D01*
X159284429Y-173591143D01*
X159286376Y-173594901D01*
X159286378Y-173594905D01*
X159399043Y-173812339D01*
X159421729Y-173856121D01*
X159573116Y-174070587D01*
X159578245Y-174077854D01*
X159593832Y-174099935D01*
X159797531Y-174318044D01*
X159800812Y-174320713D01*
X159800815Y-174320716D01*
X159907387Y-174407418D01*
X160029033Y-174506384D01*
X160284023Y-174661447D01*
X160557753Y-174780345D01*
X160762589Y-174837737D01*
X160841044Y-174859719D01*
X160841046Y-174859719D01*
X160845124Y-174860862D01*
X161140781Y-174901500D01*
X161145018Y-174901500D01*
X161374652Y-174901500D01*
X161440477Y-174920414D01*
X161486221Y-174971385D01*
X161497930Y-175038865D01*
X161472031Y-175102268D01*
X161416428Y-175142249D01*
X161188349Y-175223857D01*
X161176715Y-175227387D01*
X160833496Y-175313359D01*
X160821560Y-175315733D01*
X160471583Y-175367646D01*
X160459474Y-175368839D01*
X160103033Y-175386351D01*
X160096948Y-175386500D01*
X157651999Y-175386500D01*
X157586902Y-175368038D01*
X157541188Y-175318150D01*
X157528471Y-175251692D01*
X157533204Y-175197600D01*
X157514423Y-174982935D01*
X157462745Y-174790068D01*
X157460054Y-174780025D01*
X157460053Y-174780023D01*
X157458652Y-174774793D01*
X157367584Y-174579498D01*
X157243987Y-174402983D01*
X157091617Y-174250613D01*
X156915102Y-174127016D01*
X156728455Y-174039981D01*
X156676281Y-173994225D01*
X156656862Y-173927600D01*
X156676281Y-173860975D01*
X156728455Y-173815218D01*
X156915102Y-173728184D01*
X157091617Y-173604587D01*
X157243987Y-173452217D01*
X157367584Y-173275702D01*
X157458652Y-173080407D01*
X157514423Y-172872265D01*
X157533204Y-172657600D01*
X157514423Y-172442935D01*
X157458652Y-172234793D01*
X157367584Y-172039498D01*
X157243987Y-171862983D01*
X157091617Y-171710613D01*
X156915102Y-171587016D01*
X156719807Y-171495948D01*
X156714582Y-171494548D01*
X156714574Y-171494545D01*
X156556155Y-171452098D01*
X156511665Y-171440177D01*
X156506277Y-171439705D01*
X156506274Y-171439705D01*
X156302395Y-171421868D01*
X156297000Y-171421396D01*
X156291605Y-171421868D01*
X156087725Y-171439705D01*
X156087720Y-171439705D01*
X156082335Y-171440177D01*
X156077110Y-171441576D01*
X156077110Y-171441577D01*
X155879425Y-171494545D01*
X155879413Y-171494549D01*
X155874193Y-171495948D01*
X155869288Y-171498234D01*
X155869283Y-171498237D01*
X155683808Y-171584726D01*
X155683804Y-171584728D01*
X155678898Y-171587016D01*
X155674465Y-171590119D01*
X155674458Y-171590124D01*
X155506818Y-171707507D01*
X155506813Y-171707510D01*
X155502383Y-171710613D01*
X155498559Y-171714436D01*
X155498553Y-171714442D01*
X155353842Y-171859153D01*
X155353836Y-171859159D01*
X155350013Y-171862983D01*
X155346910Y-171867413D01*
X155346907Y-171867418D01*
X155229524Y-172035058D01*
X155229519Y-172035065D01*
X155226416Y-172039498D01*
X155224128Y-172044404D01*
X155224126Y-172044408D01*
X155139382Y-172226142D01*
X155093625Y-172278318D01*
X155027000Y-172297737D01*
X154960375Y-172278318D01*
X154914618Y-172226142D01*
X154871753Y-172134219D01*
X154827584Y-172039498D01*
X154703987Y-171862983D01*
X154551617Y-171710613D01*
X154375102Y-171587016D01*
X154179807Y-171495948D01*
X154174582Y-171494548D01*
X154174574Y-171494545D01*
X154016155Y-171452098D01*
X153971665Y-171440177D01*
X153966277Y-171439705D01*
X153966274Y-171439705D01*
X153762395Y-171421868D01*
X153757000Y-171421396D01*
X153751605Y-171421868D01*
X153547725Y-171439705D01*
X153547720Y-171439705D01*
X153542335Y-171440177D01*
X153537110Y-171441576D01*
X153537110Y-171441577D01*
X153339425Y-171494545D01*
X153339413Y-171494549D01*
X153334193Y-171495948D01*
X153329288Y-171498234D01*
X153329283Y-171498237D01*
X153143808Y-171584726D01*
X153143804Y-171584728D01*
X153138898Y-171587016D01*
X153134465Y-171590119D01*
X153134458Y-171590124D01*
X152966818Y-171707507D01*
X152966813Y-171707510D01*
X152962383Y-171710613D01*
X152958559Y-171714436D01*
X152958553Y-171714442D01*
X152813842Y-171859153D01*
X152813836Y-171859159D01*
X152810013Y-171862983D01*
X152806910Y-171867413D01*
X152806907Y-171867418D01*
X152689524Y-172035058D01*
X152689519Y-172035065D01*
X152686416Y-172039498D01*
X152684128Y-172044404D01*
X152684126Y-172044408D01*
X152599382Y-172226142D01*
X152553625Y-172278318D01*
X152487000Y-172297737D01*
X152420375Y-172278318D01*
X152374618Y-172226142D01*
X152331753Y-172134219D01*
X152287584Y-172039498D01*
X152163987Y-171862983D01*
X152011617Y-171710613D01*
X151835102Y-171587016D01*
X151639807Y-171495948D01*
X151634582Y-171494548D01*
X151634574Y-171494545D01*
X151476155Y-171452098D01*
X151431665Y-171440177D01*
X151426277Y-171439705D01*
X151426274Y-171439705D01*
X151222395Y-171421868D01*
X151217000Y-171421396D01*
X151211605Y-171421868D01*
X151007725Y-171439705D01*
X151007720Y-171439705D01*
X151002335Y-171440177D01*
X150997110Y-171441576D01*
X150997110Y-171441577D01*
X150799425Y-171494545D01*
X150799413Y-171494549D01*
X150794193Y-171495948D01*
X150789288Y-171498234D01*
X150789283Y-171498237D01*
X150603808Y-171584726D01*
X150603804Y-171584728D01*
X150598898Y-171587016D01*
X150594465Y-171590119D01*
X150594458Y-171590124D01*
X150426818Y-171707507D01*
X150426813Y-171707510D01*
X150422383Y-171710613D01*
X150418559Y-171714436D01*
X150418553Y-171714442D01*
X150273842Y-171859153D01*
X150273836Y-171859159D01*
X150270013Y-171862983D01*
X150266910Y-171867413D01*
X150266907Y-171867418D01*
X150149524Y-172035058D01*
X150149519Y-172035065D01*
X150146416Y-172039498D01*
X150144127Y-172044406D01*
X150141421Y-172049094D01*
X150140130Y-172048348D01*
X150101843Y-172093182D01*
X150038992Y-172114213D01*
X149974287Y-172099869D01*
X149926212Y-172054249D01*
X149908500Y-171990383D01*
X149908500Y-171775880D01*
X149908500Y-171771394D01*
X149897696Y-171697239D01*
X149841776Y-171582854D01*
X149751746Y-171492824D01*
X149668441Y-171452098D01*
X149646010Y-171441132D01*
X149646008Y-171441131D01*
X149637361Y-171436904D01*
X149627835Y-171435516D01*
X149567642Y-171426746D01*
X149567637Y-171426745D01*
X149563206Y-171426100D01*
X149558720Y-171426100D01*
X148225397Y-171426100D01*
X148169102Y-171412585D01*
X148125079Y-171374985D01*
X148102924Y-171321498D01*
X148107466Y-171263782D01*
X148137716Y-171214419D01*
X149173561Y-170178574D01*
X152321737Y-167030396D01*
X152368461Y-167001038D01*
X152408855Y-166986904D01*
X152422862Y-166982003D01*
X152463815Y-166975045D01*
X153841212Y-166975045D01*
X153887243Y-166985551D01*
X153887574Y-166984607D01*
X154053800Y-167042772D01*
X154228800Y-167062490D01*
X154403800Y-167042772D01*
X154570026Y-166984607D01*
X154719140Y-166890912D01*
X154843667Y-166766385D01*
X154937362Y-166617271D01*
X154995527Y-166451045D01*
X155015245Y-166276045D01*
X154995527Y-166101045D01*
X154937362Y-165934819D01*
X154843667Y-165785705D01*
X154719140Y-165661178D01*
X154570026Y-165567483D01*
X154563463Y-165565186D01*
X154563460Y-165565185D01*
X154410370Y-165511617D01*
X154403800Y-165509318D01*
X154396878Y-165508538D01*
X154235723Y-165490380D01*
X154228800Y-165489600D01*
X154221877Y-165490380D01*
X154060721Y-165508538D01*
X154060719Y-165508538D01*
X154053800Y-165509318D01*
X154047231Y-165511616D01*
X154047229Y-165511617D01*
X153887574Y-165567483D01*
X153887243Y-165566538D01*
X153841212Y-165577045D01*
X152497269Y-165577045D01*
X152443466Y-165564765D01*
X152441870Y-165563996D01*
X152435973Y-165560291D01*
X152269747Y-165502126D01*
X152262825Y-165501346D01*
X152101670Y-165483188D01*
X152094747Y-165482408D01*
X152087824Y-165483188D01*
X151926668Y-165501346D01*
X151926666Y-165501346D01*
X151919747Y-165502126D01*
X151913178Y-165504424D01*
X151913176Y-165504425D01*
X151760086Y-165557993D01*
X151760079Y-165557995D01*
X151753521Y-165560291D01*
X151747633Y-165563990D01*
X151747630Y-165563992D01*
X151610307Y-165650278D01*
X151610302Y-165650281D01*
X151604407Y-165653986D01*
X151599482Y-165658910D01*
X151599478Y-165658914D01*
X151484808Y-165773584D01*
X151484804Y-165773588D01*
X151479880Y-165778513D01*
X151476175Y-165784408D01*
X151476172Y-165784413D01*
X151389887Y-165921734D01*
X151389884Y-165921739D01*
X151386185Y-165927627D01*
X151383888Y-165934190D01*
X151383887Y-165934193D01*
X151362561Y-165995138D01*
X151333201Y-166041862D01*
X150580181Y-166794883D01*
X150530818Y-166825133D01*
X150473102Y-166829675D01*
X150419615Y-166807520D01*
X150382015Y-166763497D01*
X150368500Y-166707202D01*
X150368500Y-163854947D01*
X151562302Y-163854947D01*
X151563082Y-163861870D01*
X151578652Y-164000060D01*
X151582020Y-164029947D01*
X151584319Y-164036517D01*
X151630466Y-164168400D01*
X151640185Y-164196173D01*
X151733880Y-164345287D01*
X151858407Y-164469814D01*
X152007521Y-164563509D01*
X152173747Y-164621674D01*
X152348747Y-164641392D01*
X152523747Y-164621674D01*
X152689973Y-164563509D01*
X152839087Y-164469814D01*
X152963614Y-164345287D01*
X153057309Y-164196173D01*
X153115474Y-164029947D01*
X153135192Y-163854947D01*
X153115474Y-163679947D01*
X153057309Y-163513721D01*
X152963614Y-163364607D01*
X152839087Y-163240080D01*
X152823299Y-163230160D01*
X152695863Y-163150086D01*
X152689973Y-163146385D01*
X152683410Y-163144088D01*
X152683407Y-163144087D01*
X152530317Y-163090519D01*
X152523747Y-163088220D01*
X152516825Y-163087440D01*
X152355670Y-163069282D01*
X152348747Y-163068502D01*
X152341824Y-163069282D01*
X152180668Y-163087440D01*
X152180666Y-163087440D01*
X152173747Y-163088220D01*
X152167178Y-163090518D01*
X152167176Y-163090519D01*
X152014086Y-163144087D01*
X152014079Y-163144089D01*
X152007521Y-163146385D01*
X152001633Y-163150084D01*
X152001630Y-163150086D01*
X151864307Y-163236372D01*
X151864302Y-163236375D01*
X151858407Y-163240080D01*
X151853482Y-163245004D01*
X151853478Y-163245008D01*
X151738808Y-163359678D01*
X151738804Y-163359682D01*
X151733880Y-163364607D01*
X151730175Y-163370502D01*
X151730172Y-163370507D01*
X151643886Y-163507830D01*
X151643884Y-163507833D01*
X151640185Y-163513721D01*
X151637889Y-163520279D01*
X151637887Y-163520286D01*
X151595422Y-163641646D01*
X151582020Y-163679947D01*
X151581240Y-163686866D01*
X151581240Y-163686868D01*
X151570304Y-163783927D01*
X151562302Y-163854947D01*
X150368500Y-163854947D01*
X150368500Y-162026600D01*
X151511955Y-162026600D01*
X151512735Y-162033523D01*
X151522283Y-162118267D01*
X151531673Y-162201600D01*
X151533972Y-162208170D01*
X151555663Y-162270161D01*
X151589838Y-162367826D01*
X151683533Y-162516940D01*
X151808060Y-162641467D01*
X151957174Y-162735162D01*
X152123400Y-162793327D01*
X152298400Y-162813045D01*
X152473400Y-162793327D01*
X152639626Y-162735162D01*
X152788740Y-162641467D01*
X152913267Y-162516940D01*
X153006962Y-162367826D01*
X153065127Y-162201600D01*
X153084845Y-162026600D01*
X153065127Y-161851600D01*
X153006962Y-161685374D01*
X152913267Y-161536260D01*
X152788740Y-161411733D01*
X152769540Y-161399669D01*
X152645516Y-161321739D01*
X152639626Y-161318038D01*
X152633063Y-161315741D01*
X152633060Y-161315740D01*
X152479970Y-161262172D01*
X152473400Y-161259873D01*
X152466478Y-161259093D01*
X152305323Y-161240935D01*
X152298400Y-161240155D01*
X152291477Y-161240935D01*
X152130321Y-161259093D01*
X152130319Y-161259093D01*
X152123400Y-161259873D01*
X152116831Y-161262171D01*
X152116829Y-161262172D01*
X151963739Y-161315740D01*
X151963732Y-161315742D01*
X151957174Y-161318038D01*
X151951286Y-161321737D01*
X151951283Y-161321739D01*
X151813960Y-161408025D01*
X151813955Y-161408028D01*
X151808060Y-161411733D01*
X151803135Y-161416657D01*
X151803131Y-161416661D01*
X151688461Y-161531331D01*
X151688457Y-161531335D01*
X151683533Y-161536260D01*
X151679828Y-161542155D01*
X151679825Y-161542160D01*
X151593539Y-161679483D01*
X151593537Y-161679486D01*
X151589838Y-161685374D01*
X151587542Y-161691932D01*
X151587540Y-161691939D01*
X151538055Y-161833361D01*
X151531673Y-161851600D01*
X151530893Y-161858519D01*
X151530893Y-161858521D01*
X151516166Y-161989226D01*
X151511955Y-162026600D01*
X150368500Y-162026600D01*
X150368500Y-159740600D01*
X151562755Y-159740600D01*
X151563535Y-159747523D01*
X151579203Y-159886583D01*
X151582473Y-159915600D01*
X151584772Y-159922170D01*
X151628621Y-160047485D01*
X151640638Y-160081826D01*
X151734333Y-160230940D01*
X151858860Y-160355467D01*
X152007974Y-160449162D01*
X152174200Y-160507327D01*
X152349200Y-160527045D01*
X152524200Y-160507327D01*
X152690426Y-160449162D01*
X152839540Y-160355467D01*
X152964067Y-160230940D01*
X153057762Y-160081826D01*
X153115927Y-159915600D01*
X153135645Y-159740600D01*
X153115927Y-159565600D01*
X153057762Y-159399374D01*
X152964067Y-159250260D01*
X152839540Y-159125733D01*
X152741458Y-159064104D01*
X152696316Y-159035739D01*
X152690426Y-159032038D01*
X152683863Y-159029741D01*
X152683860Y-159029740D01*
X152530770Y-158976172D01*
X152524200Y-158973873D01*
X152517278Y-158973093D01*
X152356123Y-158954935D01*
X152349200Y-158954155D01*
X152342277Y-158954935D01*
X152181121Y-158973093D01*
X152181119Y-158973093D01*
X152174200Y-158973873D01*
X152167631Y-158976171D01*
X152167629Y-158976172D01*
X152014539Y-159029740D01*
X152014532Y-159029742D01*
X152007974Y-159032038D01*
X152002086Y-159035737D01*
X152002083Y-159035739D01*
X151864760Y-159122025D01*
X151864755Y-159122028D01*
X151858860Y-159125733D01*
X151853935Y-159130657D01*
X151853931Y-159130661D01*
X151739261Y-159245331D01*
X151739257Y-159245335D01*
X151734333Y-159250260D01*
X151730628Y-159256155D01*
X151730625Y-159256160D01*
X151644339Y-159393483D01*
X151644337Y-159393486D01*
X151640638Y-159399374D01*
X151638342Y-159405932D01*
X151638340Y-159405939D01*
X151609526Y-159488286D01*
X151582473Y-159565600D01*
X151581693Y-159572519D01*
X151581693Y-159572521D01*
X151580340Y-159584530D01*
X151562755Y-159740600D01*
X150368500Y-159740600D01*
X150368500Y-153597716D01*
X150368500Y-153594666D01*
X150353792Y-153445331D01*
X150295667Y-153253720D01*
X150243647Y-153156398D01*
X150204153Y-153082509D01*
X150204151Y-153082506D01*
X150201278Y-153077131D01*
X150074252Y-152922348D01*
X149960608Y-152829084D01*
X149924181Y-152799189D01*
X149924180Y-152799188D01*
X149919469Y-152795322D01*
X149914096Y-152792450D01*
X149914090Y-152792446D01*
X149748250Y-152703803D01*
X149748247Y-152703801D01*
X149742880Y-152700933D01*
X149737062Y-152699168D01*
X149737057Y-152699166D01*
X149557096Y-152644575D01*
X149557090Y-152644573D01*
X149551269Y-152642808D01*
X149545214Y-152642211D01*
X149545206Y-152642210D01*
X149358062Y-152623779D01*
X149352000Y-152623182D01*
X149345938Y-152623779D01*
X149158793Y-152642210D01*
X149158783Y-152642211D01*
X149152731Y-152642808D01*
X149146911Y-152644573D01*
X149146903Y-152644575D01*
X148966942Y-152699166D01*
X148966933Y-152699169D01*
X148961120Y-152700933D01*
X148955756Y-152703800D01*
X148955749Y-152703803D01*
X148789909Y-152792446D01*
X148789898Y-152792452D01*
X148784531Y-152795322D01*
X148779823Y-152799185D01*
X148779818Y-152799189D01*
X148634454Y-152918485D01*
X148634448Y-152918490D01*
X148629748Y-152922348D01*
X148625890Y-152927048D01*
X148625885Y-152927054D01*
X148506589Y-153072418D01*
X148506585Y-153072423D01*
X148502722Y-153077131D01*
X148499852Y-153082498D01*
X148499846Y-153082509D01*
X148411203Y-153248349D01*
X148411200Y-153248356D01*
X148408333Y-153253720D01*
X148406569Y-153259533D01*
X148406566Y-153259542D01*
X148351975Y-153439503D01*
X148351973Y-153439511D01*
X148350208Y-153445331D01*
X148349611Y-153451383D01*
X148349610Y-153451393D01*
X148335798Y-153591631D01*
X148335797Y-153591649D01*
X148335500Y-153594666D01*
X148335500Y-153597716D01*
X148335500Y-166303990D01*
X148326061Y-166351443D01*
X148299181Y-166391671D01*
X148002081Y-166688770D01*
X147952718Y-166719020D01*
X147895002Y-166723562D01*
X147841515Y-166701407D01*
X147803915Y-166657384D01*
X147790400Y-166601089D01*
X147790400Y-160124856D01*
X147795506Y-160089638D01*
X147810405Y-160057321D01*
X147830525Y-160026339D01*
X147888316Y-159937349D01*
X147955324Y-159762787D01*
X147984574Y-159578109D01*
X147974788Y-159391385D01*
X147926394Y-159210775D01*
X147922324Y-159202787D01*
X147844454Y-159049960D01*
X147844452Y-159049957D01*
X147841506Y-159044175D01*
X147753337Y-158935294D01*
X140032724Y-151214681D01*
X140002474Y-151165318D01*
X139997932Y-151107602D01*
X140020087Y-151054115D01*
X140064110Y-151016515D01*
X140120405Y-151003000D01*
X155450500Y-151003000D01*
X155512500Y-151019613D01*
G37*
G04 #@! TD.AperFunction*
G04 #@! TA.AperFunction,Conductor*
G36*
X146315512Y-171340972D02*
G01*
X146371291Y-171374939D01*
X146402075Y-171432536D01*
X146403460Y-171438606D01*
X146404240Y-171445527D01*
X146406538Y-171452095D01*
X146406539Y-171452098D01*
X146454836Y-171590124D01*
X146462405Y-171611753D01*
X146466106Y-171617643D01*
X146522571Y-171707507D01*
X146556100Y-171760867D01*
X146680627Y-171885394D01*
X146829741Y-171979089D01*
X146995967Y-172037254D01*
X147170967Y-172056972D01*
X147307616Y-172041575D01*
X147375301Y-172053075D01*
X147426494Y-172098823D01*
X147445500Y-172164795D01*
X147445500Y-173543806D01*
X147456304Y-173617961D01*
X147460532Y-173626610D01*
X147463376Y-173635812D01*
X147460634Y-173636659D01*
X147469826Y-173689079D01*
X147443760Y-173752745D01*
X147387771Y-173792718D01*
X147319091Y-173796696D01*
X147258861Y-173763454D01*
X147180268Y-173684861D01*
X147175340Y-173679933D01*
X147026226Y-173586238D01*
X147019663Y-173583941D01*
X147019660Y-173583940D01*
X146866570Y-173530372D01*
X146860000Y-173528073D01*
X146853078Y-173527293D01*
X146691923Y-173509135D01*
X146685000Y-173508355D01*
X146678077Y-173509135D01*
X146516921Y-173527293D01*
X146516919Y-173527293D01*
X146510000Y-173528073D01*
X146503431Y-173530371D01*
X146503429Y-173530372D01*
X146350339Y-173583940D01*
X146350332Y-173583942D01*
X146343774Y-173586238D01*
X146337886Y-173589937D01*
X146337883Y-173589939D01*
X146200560Y-173676225D01*
X146200555Y-173676228D01*
X146194660Y-173679933D01*
X146189735Y-173684857D01*
X146189731Y-173684861D01*
X146075061Y-173799531D01*
X146075057Y-173799535D01*
X146070133Y-173804460D01*
X146066428Y-173810355D01*
X146066425Y-173810360D01*
X145980139Y-173947683D01*
X145980137Y-173947686D01*
X145976438Y-173953574D01*
X145974142Y-173960132D01*
X145974140Y-173960139D01*
X145920572Y-174113229D01*
X145918273Y-174119800D01*
X145917493Y-174126719D01*
X145917493Y-174126721D01*
X145901756Y-174266394D01*
X145898555Y-174294800D01*
X145918273Y-174469800D01*
X145920572Y-174476370D01*
X145967055Y-174609213D01*
X145976438Y-174636026D01*
X145980139Y-174641916D01*
X146063631Y-174774793D01*
X146070133Y-174785140D01*
X146194660Y-174909667D01*
X146343774Y-175003362D01*
X146510000Y-175061527D01*
X146685000Y-175081245D01*
X146860000Y-175061527D01*
X147026226Y-175003362D01*
X147175340Y-174909667D01*
X147299867Y-174785140D01*
X147393562Y-174636026D01*
X147451727Y-174469800D01*
X147471445Y-174294800D01*
X147451727Y-174119800D01*
X147393562Y-173953574D01*
X147392483Y-173951857D01*
X147381315Y-173886140D01*
X147407587Y-173822710D01*
X147463579Y-173782979D01*
X147532128Y-173779129D01*
X147586570Y-173809218D01*
X147586627Y-173809140D01*
X147587305Y-173809624D01*
X147592217Y-173812339D01*
X147602254Y-173822376D01*
X147716639Y-173878296D01*
X147790794Y-173889100D01*
X149558720Y-173889100D01*
X149563206Y-173889100D01*
X149637361Y-173878296D01*
X149751746Y-173822376D01*
X149841776Y-173732346D01*
X149897696Y-173617961D01*
X149908500Y-173543806D01*
X149908500Y-173324817D01*
X149926212Y-173260951D01*
X149974287Y-173215331D01*
X150038992Y-173200987D01*
X150101843Y-173222018D01*
X150140130Y-173266851D01*
X150141421Y-173266106D01*
X150144126Y-173270791D01*
X150146416Y-173275702D01*
X150149522Y-173280139D01*
X150149524Y-173280141D01*
X150173188Y-173313937D01*
X150270013Y-173452217D01*
X150422383Y-173604587D01*
X150598898Y-173728184D01*
X150762472Y-173804460D01*
X150785542Y-173815218D01*
X150837718Y-173860975D01*
X150857137Y-173927600D01*
X150837718Y-173994225D01*
X150785542Y-174039982D01*
X150603808Y-174124726D01*
X150603804Y-174124728D01*
X150598898Y-174127016D01*
X150594465Y-174130119D01*
X150594458Y-174130124D01*
X150426818Y-174247507D01*
X150426813Y-174247510D01*
X150422383Y-174250613D01*
X150418559Y-174254436D01*
X150418553Y-174254442D01*
X150273842Y-174399153D01*
X150273836Y-174399159D01*
X150270013Y-174402983D01*
X150266910Y-174407413D01*
X150266907Y-174407418D01*
X150149524Y-174575058D01*
X150149519Y-174575065D01*
X150146416Y-174579498D01*
X150144128Y-174584404D01*
X150144126Y-174584408D01*
X150057637Y-174769883D01*
X150057634Y-174769888D01*
X150055348Y-174774793D01*
X150053949Y-174780013D01*
X150053945Y-174780025D01*
X150010190Y-174943325D01*
X149999577Y-174982935D01*
X149999105Y-174988320D01*
X149999105Y-174988325D01*
X149989107Y-175102609D01*
X149980796Y-175197600D01*
X149985528Y-175251692D01*
X149972812Y-175318150D01*
X149927098Y-175368038D01*
X149862001Y-175386500D01*
X143825062Y-175386500D01*
X143759965Y-175368038D01*
X143714251Y-175318151D01*
X143701534Y-175251692D01*
X143701535Y-175251691D01*
X143710204Y-175152600D01*
X143691423Y-174937935D01*
X143635652Y-174729793D01*
X143544584Y-174534498D01*
X143512925Y-174489284D01*
X143496239Y-174455448D01*
X143490500Y-174418161D01*
X143490500Y-172933010D01*
X143499939Y-172885557D01*
X143526819Y-172845329D01*
X143716929Y-172655219D01*
X143757157Y-172628339D01*
X143804610Y-172618900D01*
X144469967Y-172618900D01*
X144482121Y-172619496D01*
X144526000Y-172623819D01*
X144625720Y-172613996D01*
X144725269Y-172604192D01*
X144916880Y-172546067D01*
X145093469Y-172451678D01*
X145248252Y-172324652D01*
X145276232Y-172290556D01*
X145284387Y-172281559D01*
X146193504Y-171372442D01*
X146250212Y-171340055D01*
X146315512Y-171340972D01*
G37*
G04 #@! TD.AperFunction*
G04 #@! TA.AperFunction,Conductor*
G36*
X124004666Y-151022006D02*
G01*
X124050414Y-151073199D01*
X124061914Y-151140884D01*
X124056904Y-151185348D01*
X124030631Y-151248777D01*
X123974639Y-151288505D01*
X123845947Y-151333536D01*
X123845931Y-151333543D01*
X123839374Y-151335838D01*
X123833486Y-151339537D01*
X123833483Y-151339539D01*
X123696160Y-151425825D01*
X123696155Y-151425828D01*
X123690260Y-151429533D01*
X123685335Y-151434457D01*
X123685331Y-151434461D01*
X123570661Y-151549131D01*
X123570657Y-151549135D01*
X123565733Y-151554060D01*
X123562028Y-151559955D01*
X123562025Y-151559960D01*
X123475739Y-151697283D01*
X123475737Y-151697286D01*
X123472038Y-151703174D01*
X123469742Y-151709732D01*
X123469740Y-151709739D01*
X123418168Y-151857125D01*
X123413873Y-151869400D01*
X123413093Y-151876319D01*
X123413093Y-151876321D01*
X123400219Y-151990580D01*
X123394155Y-152044400D01*
X123394935Y-152051323D01*
X123397124Y-152070755D01*
X123413873Y-152219400D01*
X123416172Y-152225970D01*
X123467144Y-152371642D01*
X123472038Y-152385626D01*
X123475739Y-152391516D01*
X123538118Y-152490792D01*
X123565733Y-152534740D01*
X123690260Y-152659267D01*
X123839374Y-152752962D01*
X124005600Y-152811127D01*
X124180600Y-152830845D01*
X124281126Y-152819518D01*
X124344594Y-152829084D01*
X124394778Y-152869104D01*
X124418228Y-152928854D01*
X124429093Y-153025278D01*
X124429873Y-153032200D01*
X124432172Y-153038770D01*
X124473331Y-153156398D01*
X124488038Y-153198426D01*
X124581733Y-153347540D01*
X124706260Y-153472067D01*
X124855374Y-153565762D01*
X125021600Y-153623927D01*
X125196600Y-153643645D01*
X125371600Y-153623927D01*
X125537826Y-153565762D01*
X125686940Y-153472067D01*
X125811467Y-153347540D01*
X125812992Y-153345111D01*
X125857754Y-153310429D01*
X125915354Y-153299807D01*
X125971405Y-153316808D01*
X126013398Y-153357639D01*
X126051223Y-153417837D01*
X126051225Y-153417839D01*
X126054933Y-153423740D01*
X126179460Y-153548267D01*
X126328574Y-153641962D01*
X126494800Y-153700127D01*
X126669800Y-153719845D01*
X126844800Y-153700127D01*
X127011026Y-153641962D01*
X127160140Y-153548267D01*
X127284667Y-153423740D01*
X127378362Y-153274626D01*
X127436527Y-153108400D01*
X127456245Y-152933400D01*
X127436527Y-152758400D01*
X127378362Y-152592174D01*
X127284667Y-152443060D01*
X127160140Y-152318533D01*
X127125337Y-152296665D01*
X127016916Y-152228539D01*
X127011026Y-152224838D01*
X127004463Y-152222541D01*
X127004460Y-152222540D01*
X126851370Y-152168972D01*
X126844800Y-152166673D01*
X126837880Y-152165893D01*
X126837879Y-152165893D01*
X126721522Y-152152782D01*
X126660288Y-152128219D01*
X126620320Y-152075726D01*
X126612934Y-152010163D01*
X126640220Y-151950093D01*
X126694450Y-151912521D01*
X126811344Y-151871619D01*
X126833227Y-151863962D01*
X126833557Y-151864906D01*
X126879588Y-151854400D01*
X138105195Y-151854400D01*
X138152648Y-151863839D01*
X138192876Y-151890719D01*
X141880876Y-155578719D01*
X141911126Y-155628082D01*
X141915668Y-155685798D01*
X141893513Y-155739285D01*
X141849490Y-155776885D01*
X141793195Y-155790400D01*
X134363373Y-155790400D01*
X134355887Y-155790174D01*
X134303472Y-155787003D01*
X134303465Y-155787003D01*
X134295985Y-155786551D01*
X134288608Y-155787902D01*
X134288605Y-155787903D01*
X134236967Y-155797366D01*
X134229564Y-155798493D01*
X134177432Y-155804823D01*
X134177429Y-155804823D01*
X134169990Y-155805727D01*
X134162978Y-155808385D01*
X134162977Y-155808386D01*
X134160543Y-155809309D01*
X134138958Y-155815326D01*
X134136392Y-155815796D01*
X134136381Y-155815799D01*
X134129018Y-155817149D01*
X134122188Y-155820222D01*
X134122178Y-155820226D01*
X134074299Y-155841774D01*
X134067383Y-155844639D01*
X134018285Y-155863260D01*
X134018280Y-155863262D01*
X134011273Y-155865920D01*
X134005108Y-155870174D01*
X134005097Y-155870181D01*
X134002961Y-155871656D01*
X133983423Y-155882676D01*
X133981067Y-155883736D01*
X133981063Y-155883738D01*
X133974225Y-155886816D01*
X133968323Y-155891439D01*
X133968319Y-155891442D01*
X133926987Y-155923822D01*
X133920961Y-155928256D01*
X133877748Y-155958085D01*
X133877744Y-155958087D01*
X133871573Y-155962348D01*
X133866599Y-155967961D01*
X133866598Y-155967963D01*
X133831785Y-156007258D01*
X133826653Y-156012709D01*
X132284807Y-157554555D01*
X132238082Y-157583915D01*
X132170574Y-157607538D01*
X132164686Y-157611237D01*
X132164677Y-157611242D01*
X132027360Y-157697525D01*
X132027355Y-157697528D01*
X132021460Y-157701233D01*
X132016535Y-157706157D01*
X132016531Y-157706161D01*
X131901861Y-157820831D01*
X131901857Y-157820835D01*
X131896933Y-157825760D01*
X131893228Y-157831655D01*
X131893225Y-157831660D01*
X131806939Y-157968983D01*
X131806937Y-157968986D01*
X131803238Y-157974874D01*
X131800942Y-157981432D01*
X131800940Y-157981439D01*
X131747372Y-158134529D01*
X131745073Y-158141100D01*
X131744293Y-158148019D01*
X131744293Y-158148021D01*
X131733893Y-158240326D01*
X131725355Y-158316100D01*
X131726135Y-158323023D01*
X131743950Y-158481138D01*
X131745073Y-158491100D01*
X131747372Y-158497670D01*
X131796722Y-158638706D01*
X131803238Y-158657326D01*
X131896933Y-158806440D01*
X132021460Y-158930967D01*
X132170574Y-159024662D01*
X132336800Y-159082827D01*
X132511800Y-159102545D01*
X132686800Y-159082827D01*
X132853026Y-159024662D01*
X133002140Y-158930967D01*
X133126667Y-158806440D01*
X133220362Y-158657326D01*
X133243983Y-158589818D01*
X133273342Y-158543092D01*
X134591716Y-157224719D01*
X134631945Y-157197839D01*
X134679398Y-157188400D01*
X143439195Y-157188400D01*
X143486648Y-157197839D01*
X143526876Y-157224719D01*
X144922776Y-158620619D01*
X144953026Y-158669982D01*
X144957568Y-158727698D01*
X144935413Y-158781185D01*
X144891390Y-158818785D01*
X144835095Y-158832300D01*
X141077173Y-158832300D01*
X141069687Y-158832074D01*
X141017273Y-158828903D01*
X141017265Y-158828903D01*
X141009785Y-158828451D01*
X141002408Y-158829802D01*
X141002403Y-158829803D01*
X140950767Y-158839265D01*
X140943367Y-158840392D01*
X140891233Y-158846723D01*
X140891231Y-158846723D01*
X140883790Y-158847627D01*
X140876784Y-158850283D01*
X140876771Y-158850287D01*
X140874358Y-158851203D01*
X140852745Y-158857228D01*
X140850198Y-158857694D01*
X140850186Y-158857697D01*
X140842818Y-158859048D01*
X140835985Y-158862123D01*
X140835979Y-158862125D01*
X140788086Y-158883679D01*
X140781172Y-158886543D01*
X140732082Y-158905161D01*
X140732077Y-158905163D01*
X140725073Y-158907820D01*
X140718904Y-158912077D01*
X140718898Y-158912081D01*
X140716766Y-158913553D01*
X140697237Y-158924568D01*
X140694867Y-158925634D01*
X140694857Y-158925639D01*
X140688025Y-158928715D01*
X140682125Y-158933337D01*
X140682117Y-158933342D01*
X140640774Y-158965731D01*
X140634747Y-158970166D01*
X140591548Y-158999985D01*
X140591545Y-158999987D01*
X140585373Y-159004248D01*
X140580399Y-159009861D01*
X140580398Y-159009863D01*
X140545585Y-159049158D01*
X140540453Y-159054609D01*
X139751583Y-159843481D01*
X139711355Y-159870361D01*
X139663902Y-159879800D01*
X135889473Y-159879800D01*
X135881987Y-159879574D01*
X135829572Y-159876403D01*
X135829565Y-159876403D01*
X135822085Y-159875951D01*
X135814708Y-159877302D01*
X135814705Y-159877303D01*
X135763067Y-159886766D01*
X135755664Y-159887893D01*
X135703532Y-159894223D01*
X135703529Y-159894223D01*
X135696090Y-159895127D01*
X135689078Y-159897785D01*
X135689077Y-159897786D01*
X135686643Y-159898709D01*
X135665058Y-159904726D01*
X135662492Y-159905196D01*
X135662481Y-159905199D01*
X135655118Y-159906549D01*
X135648288Y-159909622D01*
X135648278Y-159909626D01*
X135600399Y-159931174D01*
X135593483Y-159934039D01*
X135544385Y-159952660D01*
X135544380Y-159952662D01*
X135537373Y-159955320D01*
X135531208Y-159959574D01*
X135531197Y-159959581D01*
X135529061Y-159961056D01*
X135509523Y-159972076D01*
X135507167Y-159973136D01*
X135507163Y-159973138D01*
X135500325Y-159976216D01*
X135494423Y-159980839D01*
X135494419Y-159980842D01*
X135453087Y-160013222D01*
X135447061Y-160017656D01*
X135403848Y-160047485D01*
X135403844Y-160047487D01*
X135397673Y-160051748D01*
X135392699Y-160057361D01*
X135392698Y-160057363D01*
X135357885Y-160096658D01*
X135352753Y-160102109D01*
X134423943Y-161030919D01*
X134369250Y-161062769D01*
X134305963Y-161063479D01*
X134250570Y-161032864D01*
X134217501Y-160978899D01*
X134215371Y-160915644D01*
X134216024Y-160912779D01*
X134218327Y-160906200D01*
X134238045Y-160731200D01*
X134218327Y-160556200D01*
X134160162Y-160389974D01*
X134066467Y-160240860D01*
X133941940Y-160116333D01*
X133899455Y-160089638D01*
X133798716Y-160026339D01*
X133792826Y-160022638D01*
X133786263Y-160020341D01*
X133786260Y-160020340D01*
X133633170Y-159966772D01*
X133626600Y-159964473D01*
X133619678Y-159963693D01*
X133458523Y-159945535D01*
X133451600Y-159944755D01*
X133444677Y-159945535D01*
X133283521Y-159963693D01*
X133283519Y-159963693D01*
X133276600Y-159964473D01*
X133270031Y-159966771D01*
X133270029Y-159966772D01*
X133116939Y-160020340D01*
X133116932Y-160020342D01*
X133110374Y-160022638D01*
X133104486Y-160026337D01*
X133104483Y-160026339D01*
X132967160Y-160112625D01*
X132967155Y-160112628D01*
X132961260Y-160116333D01*
X132956335Y-160121257D01*
X132956331Y-160121261D01*
X132841661Y-160235931D01*
X132841657Y-160235935D01*
X132836733Y-160240860D01*
X132833028Y-160246755D01*
X132833025Y-160246760D01*
X132746739Y-160384083D01*
X132746737Y-160384086D01*
X132743038Y-160389974D01*
X132740742Y-160396532D01*
X132740740Y-160396539D01*
X132687172Y-160549629D01*
X132684873Y-160556200D01*
X132684093Y-160563119D01*
X132684093Y-160563121D01*
X132672742Y-160663860D01*
X132665155Y-160731200D01*
X132684873Y-160906200D01*
X132687172Y-160912770D01*
X132739658Y-161062769D01*
X132743038Y-161072426D01*
X132746739Y-161078316D01*
X132807767Y-161175442D01*
X132836733Y-161221540D01*
X132961260Y-161346067D01*
X133110374Y-161439762D01*
X133276600Y-161497927D01*
X133451600Y-161517645D01*
X133626600Y-161497927D01*
X133633176Y-161495625D01*
X133636046Y-161494971D01*
X133699301Y-161497101D01*
X133753265Y-161530170D01*
X133783880Y-161585563D01*
X133783170Y-161648850D01*
X133751321Y-161703542D01*
X133604780Y-161850083D01*
X133564555Y-161876961D01*
X133517102Y-161886400D01*
X131785898Y-161886400D01*
X131738445Y-161876961D01*
X131698217Y-161850081D01*
X130743644Y-160895508D01*
X130714283Y-160848780D01*
X130692961Y-160787844D01*
X130692959Y-160787839D01*
X130690662Y-160781274D01*
X130596967Y-160632160D01*
X130472440Y-160507633D01*
X130323326Y-160413938D01*
X130316763Y-160411641D01*
X130316760Y-160411640D01*
X130163670Y-160358072D01*
X130157100Y-160355773D01*
X130150178Y-160354993D01*
X129989023Y-160336835D01*
X129982100Y-160336055D01*
X129975177Y-160336835D01*
X129814021Y-160354993D01*
X129814019Y-160354993D01*
X129807100Y-160355773D01*
X129800531Y-160358071D01*
X129800529Y-160358072D01*
X129647439Y-160411640D01*
X129647432Y-160411642D01*
X129640874Y-160413938D01*
X129634986Y-160417637D01*
X129634983Y-160417639D01*
X129497660Y-160503925D01*
X129497655Y-160503928D01*
X129491760Y-160507633D01*
X129486835Y-160512557D01*
X129486831Y-160512561D01*
X129372161Y-160627231D01*
X129372157Y-160627235D01*
X129367233Y-160632160D01*
X129363528Y-160638055D01*
X129363525Y-160638060D01*
X129277239Y-160775383D01*
X129277237Y-160775386D01*
X129273538Y-160781274D01*
X129271242Y-160787832D01*
X129271240Y-160787839D01*
X129226520Y-160915644D01*
X129215373Y-160947500D01*
X129214593Y-160954419D01*
X129214593Y-160954421D01*
X129205974Y-161030919D01*
X129195655Y-161122500D01*
X129196435Y-161129423D01*
X129213434Y-161280296D01*
X129215373Y-161297500D01*
X129217672Y-161304070D01*
X129270165Y-161454089D01*
X129273538Y-161463726D01*
X129296825Y-161500787D01*
X129355297Y-161593845D01*
X129367233Y-161612840D01*
X129491760Y-161737367D01*
X129640874Y-161831062D01*
X129647443Y-161833360D01*
X129647444Y-161833361D01*
X129708380Y-161854683D01*
X129755108Y-161884044D01*
X130933152Y-163062088D01*
X130938286Y-163067542D01*
X130978073Y-163112452D01*
X131027233Y-163146385D01*
X131027464Y-163146544D01*
X131033493Y-163150981D01*
X131080725Y-163187984D01*
X131089916Y-163192120D01*
X131109468Y-163203147D01*
X131117773Y-163208880D01*
X131124791Y-163211541D01*
X131124790Y-163211541D01*
X131173884Y-163230160D01*
X131180799Y-163233024D01*
X131235517Y-163257651D01*
X131245437Y-163259468D01*
X131267057Y-163265496D01*
X131269471Y-163266411D01*
X131276490Y-163269073D01*
X131336058Y-163276305D01*
X131343450Y-163277429D01*
X131402485Y-163288249D01*
X131462381Y-163284626D01*
X131469869Y-163284400D01*
X133833131Y-163284400D01*
X133840618Y-163284626D01*
X133900515Y-163288249D01*
X133907898Y-163286896D01*
X133959539Y-163277432D01*
X133966940Y-163276305D01*
X134026510Y-163269073D01*
X134035935Y-163265498D01*
X134057562Y-163259468D01*
X134067483Y-163257651D01*
X134122221Y-163233014D01*
X134129086Y-163230170D01*
X134185227Y-163208880D01*
X134193529Y-163203148D01*
X134213082Y-163192120D01*
X134222275Y-163187984D01*
X134269516Y-163150972D01*
X134275541Y-163146540D01*
X134318749Y-163116716D01*
X134324927Y-163112452D01*
X134364729Y-163067523D01*
X134369831Y-163062103D01*
X134714458Y-162717476D01*
X134769147Y-162685628D01*
X134832432Y-162684917D01*
X134887826Y-162715529D01*
X134920896Y-162769491D01*
X134923030Y-162832744D01*
X134922372Y-162835629D01*
X134920073Y-162842200D01*
X134919293Y-162849117D01*
X134919293Y-162849120D01*
X134907709Y-162951932D01*
X134900355Y-163017200D01*
X134901135Y-163024123D01*
X134919076Y-163183356D01*
X134920073Y-163192200D01*
X134922372Y-163198770D01*
X134953208Y-163286896D01*
X134978238Y-163358426D01*
X134988883Y-163375368D01*
X135067938Y-163501183D01*
X135071933Y-163507540D01*
X135196460Y-163632067D01*
X135345574Y-163725762D01*
X135511800Y-163783927D01*
X135686800Y-163803645D01*
X135861800Y-163783927D01*
X136028026Y-163725762D01*
X136177140Y-163632067D01*
X136301667Y-163507540D01*
X136395362Y-163358426D01*
X136453527Y-163192200D01*
X136473245Y-163017200D01*
X136453527Y-162842200D01*
X136395362Y-162675974D01*
X136301667Y-162526860D01*
X136177140Y-162402333D01*
X136028026Y-162308638D01*
X136021463Y-162306341D01*
X136021460Y-162306340D01*
X135868370Y-162252772D01*
X135861800Y-162250473D01*
X135854878Y-162249693D01*
X135693723Y-162231535D01*
X135686800Y-162230755D01*
X135679877Y-162231535D01*
X135518715Y-162249693D01*
X135518707Y-162249694D01*
X135511800Y-162250473D01*
X135505238Y-162252769D01*
X135502347Y-162253429D01*
X135439093Y-162251297D01*
X135385131Y-162218226D01*
X135354518Y-162162833D01*
X135355229Y-162099547D01*
X135387078Y-162044857D01*
X136117816Y-161314119D01*
X136158045Y-161287239D01*
X136205498Y-161277800D01*
X139979931Y-161277800D01*
X139987418Y-161278026D01*
X140047315Y-161281649D01*
X140067084Y-161278026D01*
X140106339Y-161270832D01*
X140113740Y-161269705D01*
X140173310Y-161262473D01*
X140182735Y-161258898D01*
X140204362Y-161252868D01*
X140214283Y-161251051D01*
X140269021Y-161226414D01*
X140275886Y-161223570D01*
X140332027Y-161202280D01*
X140340329Y-161196548D01*
X140359882Y-161185520D01*
X140369075Y-161181384D01*
X140416316Y-161144372D01*
X140422341Y-161139940D01*
X140437578Y-161129423D01*
X140471727Y-161105852D01*
X140511529Y-161060923D01*
X140516631Y-161055503D01*
X141305516Y-160266619D01*
X141345745Y-160239739D01*
X141393198Y-160230300D01*
X144907402Y-160230300D01*
X144963697Y-160243815D01*
X145007720Y-160281415D01*
X145029875Y-160334902D01*
X145025333Y-160392618D01*
X144995083Y-160441981D01*
X144882383Y-160554681D01*
X144842155Y-160581561D01*
X144794702Y-160591000D01*
X142000769Y-160591000D01*
X141993282Y-160590774D01*
X141940872Y-160587603D01*
X141940864Y-160587603D01*
X141933385Y-160587151D01*
X141926008Y-160588502D01*
X141926005Y-160588503D01*
X141874367Y-160597966D01*
X141866964Y-160599093D01*
X141814832Y-160605423D01*
X141814829Y-160605423D01*
X141807390Y-160606327D01*
X141800378Y-160608985D01*
X141800377Y-160608986D01*
X141797943Y-160609909D01*
X141776358Y-160615926D01*
X141773792Y-160616396D01*
X141773781Y-160616399D01*
X141766418Y-160617749D01*
X141759588Y-160620822D01*
X141759578Y-160620826D01*
X141711699Y-160642374D01*
X141704783Y-160645239D01*
X141655685Y-160663860D01*
X141655680Y-160663862D01*
X141648673Y-160666520D01*
X141642508Y-160670774D01*
X141642497Y-160670781D01*
X141640361Y-160672256D01*
X141620823Y-160683276D01*
X141618467Y-160684336D01*
X141618463Y-160684338D01*
X141611625Y-160687416D01*
X141605723Y-160692039D01*
X141605719Y-160692042D01*
X141564387Y-160724422D01*
X141558361Y-160728856D01*
X141515148Y-160758685D01*
X141515144Y-160758687D01*
X141508973Y-160762948D01*
X141503999Y-160768561D01*
X141503998Y-160768563D01*
X141469185Y-160807858D01*
X141464053Y-160813309D01*
X140158807Y-162118555D01*
X140112082Y-162147915D01*
X140044574Y-162171538D01*
X140038686Y-162175237D01*
X140038677Y-162175242D01*
X139901360Y-162261525D01*
X139901355Y-162261528D01*
X139895460Y-162265233D01*
X139890535Y-162270157D01*
X139890531Y-162270161D01*
X139775861Y-162384831D01*
X139775857Y-162384835D01*
X139770933Y-162389760D01*
X139767228Y-162395655D01*
X139767225Y-162395660D01*
X139680940Y-162532981D01*
X139680937Y-162532986D01*
X139677238Y-162538874D01*
X139674940Y-162545440D01*
X139674940Y-162545441D01*
X139653614Y-162606384D01*
X139624254Y-162653108D01*
X137963483Y-164313881D01*
X137923255Y-164340761D01*
X137875802Y-164350200D01*
X131215868Y-164350200D01*
X131208381Y-164349974D01*
X131155972Y-164346803D01*
X131155964Y-164346803D01*
X131148485Y-164346351D01*
X131141108Y-164347702D01*
X131141104Y-164347703D01*
X131089465Y-164357166D01*
X131082063Y-164358293D01*
X131029935Y-164364622D01*
X131029927Y-164364623D01*
X131022490Y-164365527D01*
X131015483Y-164368183D01*
X131015471Y-164368187D01*
X131013047Y-164369107D01*
X130991443Y-164375129D01*
X130990456Y-164375310D01*
X130988892Y-164375597D01*
X130988890Y-164375597D01*
X130981517Y-164376949D01*
X130974680Y-164380025D01*
X130974680Y-164380026D01*
X130926807Y-164401571D01*
X130919892Y-164404435D01*
X130870783Y-164423060D01*
X130870773Y-164423064D01*
X130863773Y-164425720D01*
X130857608Y-164429974D01*
X130857597Y-164429981D01*
X130855461Y-164431456D01*
X130835923Y-164442476D01*
X130833565Y-164443537D01*
X130833561Y-164443538D01*
X130826725Y-164446616D01*
X130820826Y-164451236D01*
X130820820Y-164451241D01*
X130779506Y-164483608D01*
X130773479Y-164488043D01*
X130730248Y-164517884D01*
X130730239Y-164517891D01*
X130724073Y-164522148D01*
X130719100Y-164527760D01*
X130719100Y-164527761D01*
X130684277Y-164567067D01*
X130679145Y-164572518D01*
X128627207Y-166624455D01*
X128580482Y-166653815D01*
X128512974Y-166677438D01*
X128507086Y-166681137D01*
X128507077Y-166681142D01*
X128369760Y-166767425D01*
X128369755Y-166767428D01*
X128363860Y-166771133D01*
X128358935Y-166776057D01*
X128358931Y-166776061D01*
X128244261Y-166890731D01*
X128244257Y-166890735D01*
X128239333Y-166895660D01*
X128235628Y-166901555D01*
X128235625Y-166901560D01*
X128149340Y-167038881D01*
X128149337Y-167038886D01*
X128145638Y-167044774D01*
X128143340Y-167051340D01*
X128143340Y-167051341D01*
X128122014Y-167112284D01*
X128092654Y-167159008D01*
X126732357Y-168519307D01*
X126692129Y-168546187D01*
X126644676Y-168555626D01*
X122267762Y-168555626D01*
X122221730Y-168545119D01*
X122221400Y-168546064D01*
X122055174Y-168487899D01*
X122048252Y-168487119D01*
X121887097Y-168468961D01*
X121880174Y-168468181D01*
X121873251Y-168468961D01*
X121712095Y-168487119D01*
X121712093Y-168487119D01*
X121705174Y-168487899D01*
X121698605Y-168490197D01*
X121698603Y-168490198D01*
X121545513Y-168543766D01*
X121545506Y-168543768D01*
X121538948Y-168546064D01*
X121533060Y-168549763D01*
X121533057Y-168549765D01*
X121395734Y-168636051D01*
X121395729Y-168636054D01*
X121389834Y-168639759D01*
X121384909Y-168644683D01*
X121384905Y-168644687D01*
X121270235Y-168759357D01*
X121270231Y-168759361D01*
X121265307Y-168764286D01*
X121261602Y-168770181D01*
X121261599Y-168770186D01*
X121175313Y-168907509D01*
X121175311Y-168907512D01*
X121171612Y-168913400D01*
X121169316Y-168919958D01*
X121169314Y-168919965D01*
X121117566Y-169067854D01*
X121113447Y-169079626D01*
X121093729Y-169254626D01*
X121113447Y-169429626D01*
X121115746Y-169436196D01*
X121141961Y-169511116D01*
X121171612Y-169595852D01*
X121175313Y-169601742D01*
X121256727Y-169731312D01*
X121265307Y-169744966D01*
X121389834Y-169869493D01*
X121538948Y-169963188D01*
X121705174Y-170021353D01*
X121880174Y-170041071D01*
X122055174Y-170021353D01*
X122221400Y-169963188D01*
X122221730Y-169964132D01*
X122267762Y-169953626D01*
X126960705Y-169953626D01*
X126968192Y-169953852D01*
X127028089Y-169957475D01*
X127047858Y-169953852D01*
X127087113Y-169946658D01*
X127094514Y-169945531D01*
X127154084Y-169938299D01*
X127163509Y-169934724D01*
X127185136Y-169928694D01*
X127195057Y-169926877D01*
X127249795Y-169902240D01*
X127256660Y-169899396D01*
X127312801Y-169878106D01*
X127321103Y-169872374D01*
X127340656Y-169861346D01*
X127349849Y-169857210D01*
X127397090Y-169820198D01*
X127403115Y-169815766D01*
X127446323Y-169785942D01*
X127452501Y-169781678D01*
X127492303Y-169736749D01*
X127497405Y-169731329D01*
X129081190Y-168147544D01*
X129127915Y-168118185D01*
X129195426Y-168094562D01*
X129344540Y-168000867D01*
X129469067Y-167876340D01*
X129562762Y-167727226D01*
X129586383Y-167659718D01*
X129615742Y-167612992D01*
X131444215Y-165784519D01*
X131484444Y-165757639D01*
X131531897Y-165748200D01*
X138191831Y-165748200D01*
X138199318Y-165748426D01*
X138259215Y-165752049D01*
X138278984Y-165748426D01*
X138318239Y-165741232D01*
X138325640Y-165740105D01*
X138385210Y-165732873D01*
X138394635Y-165729298D01*
X138416262Y-165723268D01*
X138426183Y-165721451D01*
X138480921Y-165696814D01*
X138487786Y-165693970D01*
X138543927Y-165672680D01*
X138552229Y-165666948D01*
X138571782Y-165655920D01*
X138580975Y-165651784D01*
X138628216Y-165614772D01*
X138634241Y-165610340D01*
X138646816Y-165601660D01*
X138683627Y-165576252D01*
X138723429Y-165531323D01*
X138728531Y-165525903D01*
X139674681Y-164579753D01*
X141783755Y-164579753D01*
X141803473Y-164754753D01*
X141805772Y-164761323D01*
X141855599Y-164903723D01*
X141861638Y-164920979D01*
X141865339Y-164926869D01*
X141899188Y-164980740D01*
X141955333Y-165070093D01*
X142079860Y-165194620D01*
X142228974Y-165288315D01*
X142395200Y-165346480D01*
X142541587Y-165362974D01*
X142557792Y-165364800D01*
X142570200Y-165366198D01*
X142582608Y-165364800D01*
X142598813Y-165362974D01*
X142745200Y-165346480D01*
X142911426Y-165288315D01*
X143060540Y-165194620D01*
X143185067Y-165070093D01*
X143278762Y-164920979D01*
X143336927Y-164754753D01*
X143356645Y-164579753D01*
X143355478Y-164569400D01*
X143349217Y-164513827D01*
X143336927Y-164404753D01*
X143278762Y-164238527D01*
X143185067Y-164089413D01*
X143060540Y-163964886D01*
X143049509Y-163957955D01*
X142917316Y-163874892D01*
X142911426Y-163871191D01*
X142904863Y-163868894D01*
X142904860Y-163868893D01*
X142751770Y-163815325D01*
X142745200Y-163813026D01*
X142738278Y-163812246D01*
X142577123Y-163794088D01*
X142570200Y-163793308D01*
X142563277Y-163794088D01*
X142402121Y-163812246D01*
X142402119Y-163812246D01*
X142395200Y-163813026D01*
X142388631Y-163815324D01*
X142388629Y-163815325D01*
X142235539Y-163868893D01*
X142235532Y-163868895D01*
X142228974Y-163871191D01*
X142223086Y-163874890D01*
X142223083Y-163874892D01*
X142085760Y-163961178D01*
X142085755Y-163961181D01*
X142079860Y-163964886D01*
X142074935Y-163969810D01*
X142074931Y-163969814D01*
X141960261Y-164084484D01*
X141960257Y-164084488D01*
X141955333Y-164089413D01*
X141951628Y-164095308D01*
X141951625Y-164095313D01*
X141865339Y-164232636D01*
X141865337Y-164232639D01*
X141861638Y-164238527D01*
X141859342Y-164245085D01*
X141859340Y-164245092D01*
X141813675Y-164375597D01*
X141803473Y-164404753D01*
X141802693Y-164411672D01*
X141802693Y-164411674D01*
X141784868Y-164569871D01*
X141783755Y-164579753D01*
X139674681Y-164579753D01*
X140612790Y-163641644D01*
X140659515Y-163612285D01*
X140727026Y-163588662D01*
X140876140Y-163494967D01*
X140998307Y-163372800D01*
X143891955Y-163372800D01*
X143911673Y-163547800D01*
X143913972Y-163554370D01*
X143966586Y-163704735D01*
X143969838Y-163714026D01*
X143973539Y-163719916D01*
X144040366Y-163826271D01*
X144063533Y-163863140D01*
X144188060Y-163987667D01*
X144337174Y-164081362D01*
X144503400Y-164139527D01*
X144678400Y-164159245D01*
X144853400Y-164139527D01*
X145019626Y-164081362D01*
X145168740Y-163987667D01*
X145293267Y-163863140D01*
X145386962Y-163714026D01*
X145445127Y-163547800D01*
X145464845Y-163372800D01*
X145445127Y-163197800D01*
X145386962Y-163031574D01*
X145293267Y-162882460D01*
X145168740Y-162757933D01*
X145019626Y-162664238D01*
X145013063Y-162661941D01*
X145013060Y-162661940D01*
X144859970Y-162608372D01*
X144853400Y-162606073D01*
X144846478Y-162605293D01*
X144685323Y-162587135D01*
X144678400Y-162586355D01*
X144671477Y-162587135D01*
X144510321Y-162605293D01*
X144510319Y-162605293D01*
X144503400Y-162606073D01*
X144496831Y-162608371D01*
X144496829Y-162608372D01*
X144343739Y-162661940D01*
X144343732Y-162661942D01*
X144337174Y-162664238D01*
X144331286Y-162667937D01*
X144331283Y-162667939D01*
X144193960Y-162754225D01*
X144193955Y-162754228D01*
X144188060Y-162757933D01*
X144183135Y-162762857D01*
X144183131Y-162762861D01*
X144068461Y-162877531D01*
X144068457Y-162877535D01*
X144063533Y-162882460D01*
X144059828Y-162888355D01*
X144059825Y-162888360D01*
X143973539Y-163025683D01*
X143973537Y-163025686D01*
X143969838Y-163031574D01*
X143967542Y-163038132D01*
X143967540Y-163038139D01*
X143913972Y-163191229D01*
X143911673Y-163197800D01*
X143910893Y-163204719D01*
X143910893Y-163204721D01*
X143892911Y-163364316D01*
X143891955Y-163372800D01*
X140998307Y-163372800D01*
X141000667Y-163370440D01*
X141094362Y-163221326D01*
X141117983Y-163153818D01*
X141147342Y-163107092D01*
X142229116Y-162025319D01*
X142269345Y-161998439D01*
X142316798Y-161989000D01*
X145110731Y-161989000D01*
X145118218Y-161989226D01*
X145178115Y-161992849D01*
X145197884Y-161989226D01*
X145237139Y-161982032D01*
X145244540Y-161980905D01*
X145304110Y-161973673D01*
X145313535Y-161970098D01*
X145335162Y-161964068D01*
X145345083Y-161962251D01*
X145399821Y-161937614D01*
X145406686Y-161934770D01*
X145462827Y-161913480D01*
X145471129Y-161907748D01*
X145490682Y-161896720D01*
X145499875Y-161892584D01*
X145547116Y-161855572D01*
X145553141Y-161851140D01*
X145562578Y-161844626D01*
X145602527Y-161817052D01*
X145642329Y-161772123D01*
X145647431Y-161766703D01*
X146180718Y-161233417D01*
X146230082Y-161203167D01*
X146287798Y-161198625D01*
X146341285Y-161220780D01*
X146378885Y-161264803D01*
X146392400Y-161321098D01*
X146392400Y-166537103D01*
X146382961Y-166584556D01*
X146356081Y-166624784D01*
X144299007Y-168681855D01*
X144252282Y-168711215D01*
X144184775Y-168734837D01*
X144184445Y-168733892D01*
X144138414Y-168744400D01*
X143770588Y-168744400D01*
X143724556Y-168733893D01*
X143724226Y-168734838D01*
X143558000Y-168676673D01*
X143551078Y-168675893D01*
X143389923Y-168657735D01*
X143383000Y-168656955D01*
X143376077Y-168657735D01*
X143214921Y-168675893D01*
X143214919Y-168675893D01*
X143208000Y-168676673D01*
X143201431Y-168678971D01*
X143201429Y-168678972D01*
X143041774Y-168734838D01*
X143041443Y-168733893D01*
X142995412Y-168744400D01*
X141539497Y-168744400D01*
X141492044Y-168734961D01*
X141451816Y-168708081D01*
X141116277Y-168372542D01*
X140766344Y-168022608D01*
X140736983Y-167975880D01*
X140733164Y-167964967D01*
X140713362Y-167908374D01*
X140619667Y-167759260D01*
X140495140Y-167634733D01*
X140460536Y-167612990D01*
X140351916Y-167544739D01*
X140346026Y-167541038D01*
X140339463Y-167538741D01*
X140339460Y-167538740D01*
X140186370Y-167485172D01*
X140179800Y-167482873D01*
X140172878Y-167482093D01*
X140011723Y-167463935D01*
X140004800Y-167463155D01*
X139997877Y-167463935D01*
X139836721Y-167482093D01*
X139836719Y-167482093D01*
X139829800Y-167482873D01*
X139823231Y-167485171D01*
X139823229Y-167485172D01*
X139663574Y-167541038D01*
X139663243Y-167540093D01*
X139617212Y-167550600D01*
X135152873Y-167550600D01*
X135145387Y-167550374D01*
X135092972Y-167547203D01*
X135092965Y-167547203D01*
X135085485Y-167546751D01*
X135078108Y-167548102D01*
X135078105Y-167548103D01*
X135026467Y-167557566D01*
X135019064Y-167558693D01*
X134966932Y-167565023D01*
X134966929Y-167565023D01*
X134959490Y-167565927D01*
X134952478Y-167568585D01*
X134952477Y-167568586D01*
X134950043Y-167569509D01*
X134928458Y-167575526D01*
X134925892Y-167575996D01*
X134925881Y-167575999D01*
X134918518Y-167577349D01*
X134911688Y-167580422D01*
X134911678Y-167580426D01*
X134863799Y-167601974D01*
X134856883Y-167604839D01*
X134807785Y-167623460D01*
X134807780Y-167623462D01*
X134800773Y-167626120D01*
X134794608Y-167630374D01*
X134794597Y-167630381D01*
X134792461Y-167631856D01*
X134772923Y-167642876D01*
X134770567Y-167643936D01*
X134770563Y-167643938D01*
X134763725Y-167647016D01*
X134757823Y-167651639D01*
X134757819Y-167651642D01*
X134716487Y-167684022D01*
X134710461Y-167688456D01*
X134667248Y-167718285D01*
X134667244Y-167718287D01*
X134661073Y-167722548D01*
X134656099Y-167728161D01*
X134656098Y-167728163D01*
X134621285Y-167767458D01*
X134616153Y-167772909D01*
X133986607Y-168402455D01*
X133939882Y-168431815D01*
X133872374Y-168455438D01*
X133866486Y-168459137D01*
X133866477Y-168459142D01*
X133729160Y-168545425D01*
X133729155Y-168545428D01*
X133723260Y-168549133D01*
X133718335Y-168554057D01*
X133718331Y-168554061D01*
X133603661Y-168668731D01*
X133603657Y-168668735D01*
X133598733Y-168673660D01*
X133595028Y-168679555D01*
X133595025Y-168679560D01*
X133508739Y-168816883D01*
X133508737Y-168816886D01*
X133505038Y-168822774D01*
X133502742Y-168829332D01*
X133502740Y-168829339D01*
X133452725Y-168972275D01*
X133446873Y-168989000D01*
X133446093Y-168995919D01*
X133446093Y-168995921D01*
X133438404Y-169064162D01*
X133427155Y-169164000D01*
X133446873Y-169339000D01*
X133505038Y-169505226D01*
X133598733Y-169654340D01*
X133723260Y-169778867D01*
X133872374Y-169872562D01*
X134038600Y-169930727D01*
X134213600Y-169950445D01*
X134388600Y-169930727D01*
X134554826Y-169872562D01*
X134703940Y-169778867D01*
X134828467Y-169654340D01*
X134922162Y-169505226D01*
X134945783Y-169437718D01*
X134975142Y-169390992D01*
X135381216Y-168984919D01*
X135421445Y-168958039D01*
X135468898Y-168948600D01*
X139617213Y-168948600D01*
X139663242Y-168959106D01*
X139663573Y-168958162D01*
X139731080Y-168981783D01*
X139777808Y-169011144D01*
X140686744Y-169920079D01*
X140691878Y-169925533D01*
X140731673Y-169970452D01*
X140781082Y-170004556D01*
X140787084Y-170008972D01*
X140834325Y-170045984D01*
X140843516Y-170050120D01*
X140863068Y-170061147D01*
X140871373Y-170066880D01*
X140878391Y-170069541D01*
X140878390Y-170069541D01*
X140927484Y-170088160D01*
X140934399Y-170091024D01*
X140989117Y-170115651D01*
X140999037Y-170117468D01*
X141020657Y-170123496D01*
X141023076Y-170124413D01*
X141030090Y-170127073D01*
X141089658Y-170134305D01*
X141097050Y-170135429D01*
X141156085Y-170146249D01*
X141215980Y-170142626D01*
X141223468Y-170142400D01*
X142995412Y-170142400D01*
X143041443Y-170152906D01*
X143041774Y-170151962D01*
X143208000Y-170210127D01*
X143383000Y-170229845D01*
X143558000Y-170210127D01*
X143724226Y-170151962D01*
X143724556Y-170152906D01*
X143770588Y-170142400D01*
X144138412Y-170142400D01*
X144184442Y-170152906D01*
X144184773Y-170151962D01*
X144260826Y-170178574D01*
X144312331Y-170212989D01*
X144340763Y-170268023D01*
X144339026Y-170329943D01*
X144307554Y-170383297D01*
X144141268Y-170549583D01*
X144101043Y-170576461D01*
X144053590Y-170585900D01*
X143388233Y-170585900D01*
X143376078Y-170585303D01*
X143338261Y-170581578D01*
X143332200Y-170580981D01*
X143326139Y-170581578D01*
X143138986Y-170600012D01*
X143138980Y-170600013D01*
X143132931Y-170600609D01*
X143127111Y-170602374D01*
X143127108Y-170602375D01*
X142947148Y-170656965D01*
X142947144Y-170656966D01*
X142941321Y-170658733D01*
X142935955Y-170661600D01*
X142935948Y-170661604D01*
X142770106Y-170750248D01*
X142770102Y-170750250D01*
X142764730Y-170753122D01*
X142760022Y-170756985D01*
X142760017Y-170756989D01*
X142651085Y-170846388D01*
X142648735Y-170848317D01*
X142646592Y-170850459D01*
X142646582Y-170850469D01*
X141794844Y-171702206D01*
X141785830Y-171710376D01*
X141756456Y-171734483D01*
X141756449Y-171734489D01*
X141751748Y-171738348D01*
X141747890Y-171743048D01*
X141747885Y-171743054D01*
X141628589Y-171888418D01*
X141628585Y-171888423D01*
X141624722Y-171893131D01*
X141621852Y-171898498D01*
X141621846Y-171898509D01*
X141533203Y-172064349D01*
X141533200Y-172064356D01*
X141530333Y-172069720D01*
X141528569Y-172075533D01*
X141528566Y-172075542D01*
X141473975Y-172255503D01*
X141473973Y-172255511D01*
X141472208Y-172261331D01*
X141471611Y-172267383D01*
X141471610Y-172267393D01*
X141465591Y-172328514D01*
X141462533Y-172359565D01*
X141452581Y-172460600D01*
X141453178Y-172466661D01*
X141456903Y-172504478D01*
X141457500Y-172516633D01*
X141457500Y-174418161D01*
X141451761Y-174455448D01*
X141435075Y-174489284D01*
X141406524Y-174530058D01*
X141406519Y-174530065D01*
X141403416Y-174534498D01*
X141401128Y-174539404D01*
X141401126Y-174539408D01*
X141316382Y-174721142D01*
X141270625Y-174773318D01*
X141204000Y-174792737D01*
X141137375Y-174773318D01*
X141091618Y-174721142D01*
X141064568Y-174663133D01*
X141004584Y-174534498D01*
X140880987Y-174357983D01*
X140728617Y-174205613D01*
X140665523Y-174161434D01*
X140556541Y-174085124D01*
X140556539Y-174085122D01*
X140552102Y-174082016D01*
X140356807Y-173990948D01*
X140351582Y-173989548D01*
X140351574Y-173989545D01*
X140195338Y-173947683D01*
X140148665Y-173935177D01*
X140143277Y-173934705D01*
X140143274Y-173934705D01*
X139939395Y-173916868D01*
X139934000Y-173916396D01*
X139928605Y-173916868D01*
X139724725Y-173934705D01*
X139724720Y-173934705D01*
X139719335Y-173935177D01*
X139714110Y-173936576D01*
X139714110Y-173936577D01*
X139516425Y-173989545D01*
X139516413Y-173989549D01*
X139511193Y-173990948D01*
X139506288Y-173993234D01*
X139506283Y-173993237D01*
X139320808Y-174079726D01*
X139320804Y-174079728D01*
X139315898Y-174082016D01*
X139311465Y-174085119D01*
X139311458Y-174085124D01*
X139143818Y-174202507D01*
X139143813Y-174202510D01*
X139139383Y-174205613D01*
X139135559Y-174209436D01*
X139135553Y-174209442D01*
X138990842Y-174354153D01*
X138990836Y-174354159D01*
X138987013Y-174357983D01*
X138983910Y-174362413D01*
X138983907Y-174362418D01*
X138866524Y-174530058D01*
X138866519Y-174530065D01*
X138863416Y-174534498D01*
X138861128Y-174539404D01*
X138861126Y-174539408D01*
X138776382Y-174721142D01*
X138730625Y-174773318D01*
X138664000Y-174792737D01*
X138597375Y-174773318D01*
X138551618Y-174721142D01*
X138524568Y-174663133D01*
X138464584Y-174534498D01*
X138340987Y-174357983D01*
X138188617Y-174205613D01*
X138125523Y-174161434D01*
X138016541Y-174085124D01*
X138016539Y-174085122D01*
X138012102Y-174082016D01*
X137816807Y-173990948D01*
X137811582Y-173989548D01*
X137811574Y-173989545D01*
X137655338Y-173947683D01*
X137608665Y-173935177D01*
X137603277Y-173934705D01*
X137603274Y-173934705D01*
X137399395Y-173916868D01*
X137394000Y-173916396D01*
X137388605Y-173916868D01*
X137184725Y-173934705D01*
X137184720Y-173934705D01*
X137179335Y-173935177D01*
X137174110Y-173936576D01*
X137174110Y-173936577D01*
X136976425Y-173989545D01*
X136976413Y-173989549D01*
X136971193Y-173990948D01*
X136966288Y-173993234D01*
X136966283Y-173993237D01*
X136780808Y-174079726D01*
X136780804Y-174079728D01*
X136775898Y-174082016D01*
X136771465Y-174085119D01*
X136771458Y-174085124D01*
X136603818Y-174202507D01*
X136603813Y-174202510D01*
X136599383Y-174205613D01*
X136595559Y-174209436D01*
X136595553Y-174209442D01*
X136450842Y-174354153D01*
X136450836Y-174354159D01*
X136447013Y-174357983D01*
X136443910Y-174362413D01*
X136443907Y-174362418D01*
X136326524Y-174530058D01*
X136326519Y-174530065D01*
X136323416Y-174534498D01*
X136321127Y-174539406D01*
X136318421Y-174544094D01*
X136317130Y-174543348D01*
X136278843Y-174588182D01*
X136215992Y-174609213D01*
X136151287Y-174594869D01*
X136103212Y-174549249D01*
X136085500Y-174485383D01*
X136085500Y-174270880D01*
X136085500Y-174266394D01*
X136074696Y-174192239D01*
X136018776Y-174077854D01*
X135928746Y-173987824D01*
X135913104Y-173980177D01*
X135823010Y-173936132D01*
X135823008Y-173936131D01*
X135814361Y-173931904D01*
X135804835Y-173930516D01*
X135744642Y-173921746D01*
X135744637Y-173921745D01*
X135740206Y-173921100D01*
X133967794Y-173921100D01*
X133963363Y-173921745D01*
X133963357Y-173921746D01*
X133903164Y-173930516D01*
X133903162Y-173930516D01*
X133893639Y-173931904D01*
X133884993Y-173936130D01*
X133884989Y-173936132D01*
X133788486Y-173983310D01*
X133788482Y-173983312D01*
X133779254Y-173987824D01*
X133771990Y-173995087D01*
X133771987Y-173995090D01*
X133696490Y-174070587D01*
X133696487Y-174070590D01*
X133689224Y-174077854D01*
X133684712Y-174087082D01*
X133684710Y-174087086D01*
X133637532Y-174183589D01*
X133637530Y-174183593D01*
X133633304Y-174192239D01*
X133631916Y-174201762D01*
X133631916Y-174201764D01*
X133625252Y-174247507D01*
X133622500Y-174266394D01*
X133622500Y-174270880D01*
X133622500Y-175262500D01*
X133605887Y-175324500D01*
X133560500Y-175369887D01*
X133498500Y-175386500D01*
X120446052Y-175386500D01*
X120439967Y-175386351D01*
X120083525Y-175368839D01*
X120071416Y-175367646D01*
X119721439Y-175315733D01*
X119709503Y-175313359D01*
X119366284Y-175227387D01*
X119354643Y-175223855D01*
X119253768Y-175187761D01*
X119092920Y-175130209D01*
X119042965Y-175096894D01*
X119014519Y-175044015D01*
X119014252Y-174983970D01*
X119042228Y-174930840D01*
X119091885Y-174897082D01*
X119151577Y-174890613D01*
X119230781Y-174901500D01*
X119524982Y-174901500D01*
X119529219Y-174901500D01*
X119824876Y-174860862D01*
X120112247Y-174780345D01*
X120385977Y-174661447D01*
X120640967Y-174506384D01*
X120872469Y-174318044D01*
X121076168Y-174099935D01*
X121248271Y-173856121D01*
X121385571Y-173591143D01*
X121485512Y-173309937D01*
X121546231Y-173017742D01*
X121566597Y-172720000D01*
X121546231Y-172422258D01*
X121485512Y-172130063D01*
X121385571Y-171848857D01*
X121248271Y-171583879D01*
X121076168Y-171340065D01*
X120872469Y-171121956D01*
X120869187Y-171119286D01*
X120869184Y-171119283D01*
X120644259Y-170936294D01*
X120644256Y-170936292D01*
X120640967Y-170933616D01*
X120637343Y-170931412D01*
X120637340Y-170931410D01*
X120497527Y-170846388D01*
X120430671Y-170805732D01*
X120387014Y-170760559D01*
X120371100Y-170699785D01*
X120371100Y-169230010D01*
X120380539Y-169182557D01*
X120407419Y-169142329D01*
X120686364Y-168863384D01*
X121532359Y-168017387D01*
X121541356Y-168009232D01*
X121575452Y-167981252D01*
X121647107Y-167893939D01*
X121702478Y-167826470D01*
X121796867Y-167649880D01*
X121802861Y-167630121D01*
X121854992Y-167458269D01*
X121869700Y-167308934D01*
X121869700Y-167308931D01*
X121874618Y-167259000D01*
X121870297Y-167215130D01*
X121869700Y-167202975D01*
X121869700Y-165537025D01*
X121870297Y-165524870D01*
X121874021Y-165487061D01*
X121874618Y-165481000D01*
X121867107Y-165404739D01*
X121854992Y-165281731D01*
X121796867Y-165090120D01*
X121773102Y-165045659D01*
X121702478Y-164913530D01*
X121607283Y-164797534D01*
X121607279Y-164797529D01*
X121579315Y-164763455D01*
X121579314Y-164763454D01*
X121575452Y-164758748D01*
X121541373Y-164730780D01*
X121532357Y-164722608D01*
X121300149Y-164490400D01*
X122632155Y-164490400D01*
X122632935Y-164497323D01*
X122640392Y-164563509D01*
X122651873Y-164665400D01*
X122654172Y-164671970D01*
X122698108Y-164797534D01*
X122710038Y-164831626D01*
X122713739Y-164837516D01*
X122789809Y-164958581D01*
X122803733Y-164980740D01*
X122808660Y-164985667D01*
X122808661Y-164985668D01*
X122825072Y-165002079D01*
X122855882Y-165053209D01*
X122859230Y-165112811D01*
X122834649Y-165166395D01*
X122830859Y-165170186D01*
X122827162Y-165176068D01*
X122827156Y-165176077D01*
X122740865Y-165313409D01*
X122740863Y-165313412D01*
X122737164Y-165319300D01*
X122734868Y-165325858D01*
X122734866Y-165325865D01*
X122681298Y-165478955D01*
X122678999Y-165485526D01*
X122678219Y-165492445D01*
X122678219Y-165492447D01*
X122665238Y-165607659D01*
X122659281Y-165660526D01*
X122660061Y-165667449D01*
X122667534Y-165733777D01*
X122678999Y-165835526D01*
X122681298Y-165842096D01*
X122734849Y-165995138D01*
X122737164Y-166001752D01*
X122830859Y-166150866D01*
X122955386Y-166275393D01*
X123104500Y-166369088D01*
X123270726Y-166427253D01*
X123445726Y-166446971D01*
X123620726Y-166427253D01*
X123786952Y-166369088D01*
X123936066Y-166275393D01*
X124060593Y-166150866D01*
X124154288Y-166001752D01*
X124212453Y-165835526D01*
X124232171Y-165660526D01*
X124212453Y-165485526D01*
X124154288Y-165319300D01*
X124060593Y-165170186D01*
X124039253Y-165148846D01*
X124008442Y-165097713D01*
X124005096Y-165038108D01*
X124029679Y-164984527D01*
X124033467Y-164980740D01*
X124086210Y-164896800D01*
X124410155Y-164896800D01*
X124410935Y-164903723D01*
X124428757Y-165061900D01*
X124429873Y-165071800D01*
X124432172Y-165078370D01*
X124481270Y-165218686D01*
X124488038Y-165238026D01*
X124491739Y-165243916D01*
X124556184Y-165346480D01*
X124581733Y-165387140D01*
X124706260Y-165511667D01*
X124855374Y-165605362D01*
X125021600Y-165663527D01*
X125196600Y-165683245D01*
X125371600Y-165663527D01*
X125537826Y-165605362D01*
X125686940Y-165511667D01*
X125811467Y-165387140D01*
X125905162Y-165238026D01*
X125963327Y-165071800D01*
X125983045Y-164896800D01*
X125965873Y-164744400D01*
X128027055Y-164744400D01*
X128027835Y-164751323D01*
X128045580Y-164908817D01*
X128046773Y-164919400D01*
X128049072Y-164925970D01*
X128099502Y-165070093D01*
X128104938Y-165085626D01*
X128108639Y-165091516D01*
X128192895Y-165225609D01*
X128198633Y-165234740D01*
X128323160Y-165359267D01*
X128472274Y-165452962D01*
X128638500Y-165511127D01*
X128813500Y-165530845D01*
X128988500Y-165511127D01*
X129154726Y-165452962D01*
X129303840Y-165359267D01*
X129428367Y-165234740D01*
X129522062Y-165085626D01*
X129580227Y-164919400D01*
X129598764Y-164754884D01*
X129599165Y-164751323D01*
X129599945Y-164744400D01*
X129580227Y-164569400D01*
X129522062Y-164403174D01*
X129428367Y-164254060D01*
X129303840Y-164129533D01*
X129249379Y-164095313D01*
X129160616Y-164039539D01*
X129154726Y-164035838D01*
X129148163Y-164033541D01*
X129148160Y-164033540D01*
X128995070Y-163979972D01*
X128988500Y-163977673D01*
X128981578Y-163976893D01*
X128820423Y-163958735D01*
X128813500Y-163957955D01*
X128806577Y-163958735D01*
X128645421Y-163976893D01*
X128645419Y-163976893D01*
X128638500Y-163977673D01*
X128631931Y-163979971D01*
X128631929Y-163979972D01*
X128478839Y-164033540D01*
X128478832Y-164033542D01*
X128472274Y-164035838D01*
X128466386Y-164039537D01*
X128466383Y-164039539D01*
X128329060Y-164125825D01*
X128329055Y-164125828D01*
X128323160Y-164129533D01*
X128318235Y-164134457D01*
X128318231Y-164134461D01*
X128203561Y-164249131D01*
X128203557Y-164249135D01*
X128198633Y-164254060D01*
X128194928Y-164259955D01*
X128194925Y-164259960D01*
X128108639Y-164397283D01*
X128108637Y-164397286D01*
X128104938Y-164403174D01*
X128102642Y-164409732D01*
X128102640Y-164409739D01*
X128049072Y-164562829D01*
X128046773Y-164569400D01*
X128045993Y-164576319D01*
X128045993Y-164576321D01*
X128035216Y-164671970D01*
X128027055Y-164744400D01*
X125965873Y-164744400D01*
X125963327Y-164721800D01*
X125905162Y-164555574D01*
X125811467Y-164406460D01*
X125686940Y-164281933D01*
X125667436Y-164269678D01*
X125543716Y-164191939D01*
X125537826Y-164188238D01*
X125531263Y-164185941D01*
X125531260Y-164185940D01*
X125378170Y-164132372D01*
X125371600Y-164130073D01*
X125364678Y-164129293D01*
X125203523Y-164111135D01*
X125196600Y-164110355D01*
X125189677Y-164111135D01*
X125028521Y-164129293D01*
X125028519Y-164129293D01*
X125021600Y-164130073D01*
X125015031Y-164132371D01*
X125015029Y-164132372D01*
X124861939Y-164185940D01*
X124861932Y-164185942D01*
X124855374Y-164188238D01*
X124849486Y-164191937D01*
X124849483Y-164191939D01*
X124712160Y-164278225D01*
X124712155Y-164278228D01*
X124706260Y-164281933D01*
X124701335Y-164286857D01*
X124701331Y-164286861D01*
X124586661Y-164401531D01*
X124586657Y-164401535D01*
X124581733Y-164406460D01*
X124578028Y-164412355D01*
X124578025Y-164412360D01*
X124491739Y-164549683D01*
X124491737Y-164549686D01*
X124488038Y-164555574D01*
X124485742Y-164562132D01*
X124485740Y-164562139D01*
X124432172Y-164715229D01*
X124429873Y-164721800D01*
X124429093Y-164728719D01*
X124429093Y-164728721D01*
X124421340Y-164797529D01*
X124410155Y-164896800D01*
X124086210Y-164896800D01*
X124127162Y-164831626D01*
X124185327Y-164665400D01*
X124205045Y-164490400D01*
X124185327Y-164315400D01*
X124127162Y-164149174D01*
X124033467Y-164000060D01*
X123908940Y-163875533D01*
X123879825Y-163857239D01*
X123765716Y-163785539D01*
X123759826Y-163781838D01*
X123753263Y-163779541D01*
X123753260Y-163779540D01*
X123600170Y-163725972D01*
X123593600Y-163723673D01*
X123586678Y-163722893D01*
X123425523Y-163704735D01*
X123418600Y-163703955D01*
X123411677Y-163704735D01*
X123250521Y-163722893D01*
X123250519Y-163722893D01*
X123243600Y-163723673D01*
X123237031Y-163725971D01*
X123237029Y-163725972D01*
X123083939Y-163779540D01*
X123083932Y-163779542D01*
X123077374Y-163781838D01*
X123071486Y-163785537D01*
X123071483Y-163785539D01*
X122934160Y-163871825D01*
X122934155Y-163871828D01*
X122928260Y-163875533D01*
X122923335Y-163880457D01*
X122923331Y-163880461D01*
X122808661Y-163995131D01*
X122808657Y-163995135D01*
X122803733Y-164000060D01*
X122800028Y-164005955D01*
X122800025Y-164005960D01*
X122713739Y-164143283D01*
X122713737Y-164143286D01*
X122710038Y-164149174D01*
X122707742Y-164155732D01*
X122707740Y-164155739D01*
X122658198Y-164297324D01*
X122651873Y-164315400D01*
X122651093Y-164322319D01*
X122651093Y-164322321D01*
X122634057Y-164473521D01*
X122632155Y-164490400D01*
X121300149Y-164490400D01*
X121087974Y-164278225D01*
X120636018Y-163826270D01*
X120609139Y-163786043D01*
X120599700Y-163738590D01*
X120599700Y-161399669D01*
X120613215Y-161343374D01*
X120650815Y-161299351D01*
X120704302Y-161277196D01*
X120762018Y-161281738D01*
X120811381Y-161311988D01*
X120921660Y-161422267D01*
X121070774Y-161515962D01*
X121237000Y-161574127D01*
X121412000Y-161593845D01*
X121587000Y-161574127D01*
X121753226Y-161515962D01*
X121902340Y-161422267D01*
X122026867Y-161297740D01*
X122120562Y-161148626D01*
X122178727Y-160982400D01*
X122198445Y-160807400D01*
X122178727Y-160632400D01*
X122120562Y-160466174D01*
X122026867Y-160317060D01*
X121902340Y-160192533D01*
X121753226Y-160098838D01*
X121746663Y-160096541D01*
X121746660Y-160096540D01*
X121593570Y-160042972D01*
X121587000Y-160040673D01*
X121580078Y-160039893D01*
X121418923Y-160021735D01*
X121412000Y-160020955D01*
X121405077Y-160021735D01*
X121243921Y-160039893D01*
X121243919Y-160039893D01*
X121237000Y-160040673D01*
X121230431Y-160042971D01*
X121230429Y-160042972D01*
X121077339Y-160096540D01*
X121077332Y-160096542D01*
X121070774Y-160098838D01*
X121064886Y-160102537D01*
X121064883Y-160102539D01*
X120927560Y-160188825D01*
X120927555Y-160188828D01*
X120921660Y-160192533D01*
X120916735Y-160197457D01*
X120916731Y-160197461D01*
X120811381Y-160302812D01*
X120762018Y-160333062D01*
X120704302Y-160337604D01*
X120650815Y-160315449D01*
X120613215Y-160271426D01*
X120599700Y-160215131D01*
X120599700Y-156870400D01*
X120879555Y-156870400D01*
X120899273Y-157045400D01*
X120901572Y-157051970D01*
X120954559Y-157203400D01*
X120957438Y-157211626D01*
X120961139Y-157217516D01*
X121043816Y-157349095D01*
X121062822Y-157415066D01*
X121043816Y-157481038D01*
X120999241Y-157551978D01*
X120999235Y-157551989D01*
X120995538Y-157557874D01*
X120993242Y-157564432D01*
X120993240Y-157564439D01*
X120941236Y-157713060D01*
X120937373Y-157724100D01*
X120936593Y-157731019D01*
X120936593Y-157731021D01*
X120920019Y-157878123D01*
X120917655Y-157899100D01*
X120937373Y-158074100D01*
X120939672Y-158080670D01*
X120983911Y-158207100D01*
X120995538Y-158240326D01*
X121089233Y-158389440D01*
X121213760Y-158513967D01*
X121362874Y-158607662D01*
X121529100Y-158665827D01*
X121704100Y-158685545D01*
X121879100Y-158665827D01*
X122045326Y-158607662D01*
X122194440Y-158513967D01*
X122318967Y-158389440D01*
X122412662Y-158240326D01*
X122470827Y-158074100D01*
X122490545Y-157899100D01*
X122470827Y-157724100D01*
X122412662Y-157557874D01*
X122408960Y-157551982D01*
X122408957Y-157551976D01*
X122326284Y-157420404D01*
X122314182Y-157378400D01*
X129769555Y-157378400D01*
X129770335Y-157385323D01*
X129786067Y-157524951D01*
X129789273Y-157553400D01*
X129791572Y-157559970D01*
X129844692Y-157711781D01*
X129847438Y-157719626D01*
X129941133Y-157868740D01*
X130065660Y-157993267D01*
X130214774Y-158086962D01*
X130381000Y-158145127D01*
X130556000Y-158164845D01*
X130731000Y-158145127D01*
X130897226Y-158086962D01*
X131046340Y-157993267D01*
X131170867Y-157868740D01*
X131264562Y-157719626D01*
X131322727Y-157553400D01*
X131342445Y-157378400D01*
X131322727Y-157203400D01*
X131264562Y-157037174D01*
X131170867Y-156888060D01*
X131046340Y-156763533D01*
X131011537Y-156741665D01*
X130903116Y-156673539D01*
X130897226Y-156669838D01*
X130890663Y-156667541D01*
X130890660Y-156667540D01*
X130737570Y-156613972D01*
X130731000Y-156611673D01*
X130724078Y-156610893D01*
X130562923Y-156592735D01*
X130556000Y-156591955D01*
X130549077Y-156592735D01*
X130387921Y-156610893D01*
X130387919Y-156610893D01*
X130381000Y-156611673D01*
X130374431Y-156613971D01*
X130374429Y-156613972D01*
X130221339Y-156667540D01*
X130221332Y-156667542D01*
X130214774Y-156669838D01*
X130208886Y-156673537D01*
X130208883Y-156673539D01*
X130071560Y-156759825D01*
X130071555Y-156759828D01*
X130065660Y-156763533D01*
X130060735Y-156768457D01*
X130060731Y-156768461D01*
X129946061Y-156883131D01*
X129946057Y-156883135D01*
X129941133Y-156888060D01*
X129937428Y-156893955D01*
X129937425Y-156893960D01*
X129851139Y-157031283D01*
X129851137Y-157031286D01*
X129847438Y-157037174D01*
X129845142Y-157043732D01*
X129845140Y-157043739D01*
X129791572Y-157196829D01*
X129789273Y-157203400D01*
X129788493Y-157210319D01*
X129788493Y-157210321D01*
X129779689Y-157288459D01*
X129769555Y-157378400D01*
X122314182Y-157378400D01*
X122307277Y-157354432D01*
X122326284Y-157288459D01*
X122346471Y-157256333D01*
X122374562Y-157211626D01*
X122432727Y-157045400D01*
X122452445Y-156870400D01*
X122432727Y-156695400D01*
X122374562Y-156529174D01*
X122280867Y-156380060D01*
X122156340Y-156255533D01*
X122007226Y-156161838D01*
X122000663Y-156159541D01*
X122000660Y-156159540D01*
X121847570Y-156105972D01*
X121841000Y-156103673D01*
X121834078Y-156102893D01*
X121672923Y-156084735D01*
X121666000Y-156083955D01*
X121659077Y-156084735D01*
X121497921Y-156102893D01*
X121497919Y-156102893D01*
X121491000Y-156103673D01*
X121484431Y-156105971D01*
X121484429Y-156105972D01*
X121331339Y-156159540D01*
X121331332Y-156159542D01*
X121324774Y-156161838D01*
X121318886Y-156165537D01*
X121318883Y-156165539D01*
X121181560Y-156251825D01*
X121181555Y-156251828D01*
X121175660Y-156255533D01*
X121170735Y-156260457D01*
X121170731Y-156260461D01*
X121056061Y-156375131D01*
X121056057Y-156375135D01*
X121051133Y-156380060D01*
X121047428Y-156385955D01*
X121047425Y-156385960D01*
X120961139Y-156523283D01*
X120961137Y-156523286D01*
X120957438Y-156529174D01*
X120955142Y-156535732D01*
X120955140Y-156535739D01*
X120906922Y-156673539D01*
X120899273Y-156695400D01*
X120879555Y-156870400D01*
X120599700Y-156870400D01*
X120599700Y-155956000D01*
X123140155Y-155956000D01*
X123140935Y-155962923D01*
X123141818Y-155970764D01*
X123159873Y-156131000D01*
X123162172Y-156137570D01*
X123205172Y-156260459D01*
X123218038Y-156297226D01*
X123231248Y-156318249D01*
X123273793Y-156385960D01*
X123311733Y-156446340D01*
X123436260Y-156570867D01*
X123585374Y-156664562D01*
X123751600Y-156722727D01*
X123926600Y-156742445D01*
X124101600Y-156722727D01*
X124267826Y-156664562D01*
X124416940Y-156570867D01*
X124541467Y-156446340D01*
X124635162Y-156297226D01*
X124693327Y-156131000D01*
X124713045Y-155956000D01*
X124693327Y-155781000D01*
X124635162Y-155614774D01*
X124594210Y-155549600D01*
X126238955Y-155549600D01*
X126239735Y-155556523D01*
X126254858Y-155690746D01*
X126258673Y-155724600D01*
X126260972Y-155731170D01*
X126312368Y-155878053D01*
X126316838Y-155890826D01*
X126320539Y-155896716D01*
X126404888Y-156030957D01*
X126410533Y-156039940D01*
X126535060Y-156164467D01*
X126684174Y-156258162D01*
X126850400Y-156316327D01*
X127025400Y-156336045D01*
X127200400Y-156316327D01*
X127366626Y-156258162D01*
X127515740Y-156164467D01*
X127640267Y-156039940D01*
X127733962Y-155890826D01*
X127792127Y-155724600D01*
X127811845Y-155549600D01*
X127792127Y-155374600D01*
X127733962Y-155208374D01*
X127640267Y-155059260D01*
X127515740Y-154934733D01*
X127366626Y-154841038D01*
X127360063Y-154838741D01*
X127360060Y-154838740D01*
X127206970Y-154785172D01*
X127200400Y-154782873D01*
X127193478Y-154782093D01*
X127032323Y-154763935D01*
X127025400Y-154763155D01*
X127018477Y-154763935D01*
X126857321Y-154782093D01*
X126857319Y-154782093D01*
X126850400Y-154782873D01*
X126843831Y-154785171D01*
X126843829Y-154785172D01*
X126690739Y-154838740D01*
X126690732Y-154838742D01*
X126684174Y-154841038D01*
X126678286Y-154844737D01*
X126678283Y-154844739D01*
X126540960Y-154931025D01*
X126540955Y-154931028D01*
X126535060Y-154934733D01*
X126530135Y-154939657D01*
X126530131Y-154939661D01*
X126415461Y-155054331D01*
X126415457Y-155054335D01*
X126410533Y-155059260D01*
X126406828Y-155065155D01*
X126406825Y-155065160D01*
X126320539Y-155202483D01*
X126320537Y-155202486D01*
X126316838Y-155208374D01*
X126314542Y-155214932D01*
X126314540Y-155214939D01*
X126268659Y-155346061D01*
X126258673Y-155374600D01*
X126238955Y-155549600D01*
X124594210Y-155549600D01*
X124541467Y-155465660D01*
X124416940Y-155341133D01*
X124267826Y-155247438D01*
X124261263Y-155245141D01*
X124261260Y-155245140D01*
X124108170Y-155191572D01*
X124101600Y-155189273D01*
X124094678Y-155188493D01*
X123933523Y-155170335D01*
X123926600Y-155169555D01*
X123919677Y-155170335D01*
X123758521Y-155188493D01*
X123758519Y-155188493D01*
X123751600Y-155189273D01*
X123745031Y-155191571D01*
X123745029Y-155191572D01*
X123591939Y-155245140D01*
X123591932Y-155245142D01*
X123585374Y-155247438D01*
X123579486Y-155251137D01*
X123579483Y-155251139D01*
X123442160Y-155337425D01*
X123442155Y-155337428D01*
X123436260Y-155341133D01*
X123431335Y-155346057D01*
X123431331Y-155346061D01*
X123316661Y-155460731D01*
X123316657Y-155460735D01*
X123311733Y-155465660D01*
X123308028Y-155471555D01*
X123308025Y-155471560D01*
X123221739Y-155608883D01*
X123221737Y-155608886D01*
X123218038Y-155614774D01*
X123215742Y-155621332D01*
X123215740Y-155621339D01*
X123168020Y-155757717D01*
X123159873Y-155781000D01*
X123159093Y-155787919D01*
X123159093Y-155787921D01*
X123149658Y-155871656D01*
X123140155Y-155956000D01*
X120599700Y-155956000D01*
X120599700Y-151348410D01*
X120609139Y-151300957D01*
X120636019Y-151260729D01*
X120857429Y-151039319D01*
X120897657Y-151012439D01*
X120945110Y-151003000D01*
X123938694Y-151003000D01*
X124004666Y-151022006D01*
G37*
G04 #@! TD.AperFunction*
G04 #@! TA.AperFunction,Conductor*
G36*
X118504700Y-151019613D02*
G01*
X118550087Y-151065000D01*
X118566700Y-151127000D01*
X118566700Y-164154967D01*
X118566103Y-164167121D01*
X118561781Y-164211000D01*
X118562378Y-164217061D01*
X118567561Y-164269678D01*
X118567561Y-164269680D01*
X118580810Y-164404206D01*
X118580811Y-164404214D01*
X118581408Y-164410269D01*
X118583173Y-164416090D01*
X118583175Y-164416096D01*
X118637766Y-164596057D01*
X118637768Y-164596062D01*
X118639533Y-164601880D01*
X118642401Y-164607247D01*
X118642403Y-164607250D01*
X118731046Y-164773090D01*
X118731050Y-164773096D01*
X118733922Y-164778469D01*
X118737788Y-164783180D01*
X118737789Y-164783181D01*
X118810326Y-164871569D01*
X118860948Y-164933252D01*
X118877974Y-164947225D01*
X118895029Y-164961221D01*
X118904046Y-164969394D01*
X119800381Y-165865730D01*
X119827261Y-165905958D01*
X119836700Y-165953411D01*
X119836700Y-166786590D01*
X119827261Y-166834043D01*
X119800381Y-166874271D01*
X118675444Y-167999206D01*
X118666430Y-168007376D01*
X118637056Y-168031483D01*
X118637049Y-168031489D01*
X118632348Y-168035348D01*
X118628490Y-168040048D01*
X118628485Y-168040054D01*
X118509189Y-168185418D01*
X118509185Y-168185423D01*
X118505322Y-168190131D01*
X118502452Y-168195498D01*
X118502446Y-168195509D01*
X118413803Y-168361349D01*
X118413800Y-168361356D01*
X118410933Y-168366720D01*
X118409169Y-168372533D01*
X118409166Y-168372542D01*
X118354575Y-168552503D01*
X118354573Y-168552511D01*
X118352808Y-168558331D01*
X118352211Y-168564383D01*
X118352210Y-168564393D01*
X118345446Y-168633081D01*
X118345446Y-168633082D01*
X118333181Y-168757600D01*
X118333778Y-168763661D01*
X118337503Y-168801478D01*
X118338100Y-168813633D01*
X118338100Y-170730676D01*
X118322186Y-170791450D01*
X118278529Y-170836624D01*
X118122645Y-170931419D01*
X118122640Y-170931422D01*
X118119033Y-170933616D01*
X118115758Y-170936280D01*
X118115750Y-170936286D01*
X117890815Y-171119283D01*
X117890804Y-171119292D01*
X117887531Y-171121956D01*
X117884643Y-171125047D01*
X117884640Y-171125051D01*
X117701172Y-171321498D01*
X117683832Y-171340065D01*
X117681389Y-171343525D01*
X117681384Y-171343532D01*
X117514175Y-171580413D01*
X117514171Y-171580418D01*
X117511729Y-171583879D01*
X117509783Y-171587633D01*
X117509779Y-171587641D01*
X117376378Y-171845094D01*
X117376373Y-171845103D01*
X117374429Y-171848857D01*
X117373012Y-171852842D01*
X117373008Y-171852853D01*
X117275909Y-172126062D01*
X117275905Y-172126074D01*
X117274488Y-172130063D01*
X117273625Y-172134213D01*
X117273624Y-172134219D01*
X117214632Y-172418101D01*
X117214630Y-172418112D01*
X117213769Y-172422258D01*
X117213480Y-172426482D01*
X117213479Y-172426490D01*
X117200023Y-172623222D01*
X117193403Y-172720000D01*
X117193692Y-172724225D01*
X117209450Y-172954600D01*
X117199491Y-173012423D01*
X117164062Y-173059194D01*
X117111097Y-173084441D01*
X117052454Y-173082511D01*
X117001264Y-173053836D01*
X116968988Y-173004837D01*
X116911915Y-172845329D01*
X116876140Y-172745343D01*
X116872615Y-172733726D01*
X116786637Y-172390483D01*
X116784268Y-172378573D01*
X116732352Y-172028579D01*
X116731160Y-172016473D01*
X116729323Y-171979089D01*
X116713649Y-171660032D01*
X116713500Y-171653948D01*
X116713500Y-169258085D01*
X116731961Y-169192988D01*
X116781849Y-169147275D01*
X116848307Y-169134557D01*
X116916604Y-169140532D01*
X116916605Y-169140532D01*
X116922000Y-169141004D01*
X117136665Y-169122223D01*
X117344807Y-169066452D01*
X117540102Y-168975384D01*
X117716617Y-168851787D01*
X117868987Y-168699417D01*
X117992584Y-168522902D01*
X118083652Y-168327607D01*
X118139423Y-168119465D01*
X118158204Y-167904800D01*
X118139423Y-167690135D01*
X118083652Y-167481993D01*
X117992584Y-167286698D01*
X117868987Y-167110183D01*
X117716617Y-166957813D01*
X117562133Y-166849642D01*
X117544541Y-166837324D01*
X117544539Y-166837322D01*
X117540102Y-166834216D01*
X117353455Y-166747181D01*
X117301281Y-166701425D01*
X117281862Y-166634800D01*
X117301281Y-166568175D01*
X117353455Y-166522418D01*
X117540102Y-166435384D01*
X117716617Y-166311787D01*
X117868987Y-166159417D01*
X117992584Y-165982902D01*
X118083652Y-165787607D01*
X118139423Y-165579465D01*
X118158204Y-165364800D01*
X118139423Y-165150135D01*
X118083652Y-164941993D01*
X117992584Y-164746698D01*
X117868987Y-164570183D01*
X117716617Y-164417813D01*
X117631614Y-164358293D01*
X117544541Y-164297324D01*
X117544539Y-164297322D01*
X117540102Y-164294216D01*
X117408044Y-164232636D01*
X117349716Y-164205437D01*
X117349714Y-164205436D01*
X117344807Y-164203148D01*
X117339582Y-164201748D01*
X117339574Y-164201745D01*
X117178046Y-164158465D01*
X117136665Y-164147377D01*
X117131277Y-164146905D01*
X117131274Y-164146905D01*
X116927395Y-164129068D01*
X116922000Y-164128596D01*
X116916605Y-164129068D01*
X116916604Y-164129068D01*
X116848307Y-164135043D01*
X116781849Y-164122325D01*
X116731961Y-164076612D01*
X116713500Y-164011515D01*
X116713500Y-161640300D01*
X116730113Y-161578300D01*
X116775500Y-161532913D01*
X116837500Y-161516300D01*
X117803720Y-161516300D01*
X117808206Y-161516300D01*
X117882361Y-161505496D01*
X117996746Y-161449576D01*
X118086776Y-161359546D01*
X118142696Y-161245161D01*
X118153500Y-161171006D01*
X118153500Y-159398594D01*
X118142696Y-159324439D01*
X118086776Y-159210054D01*
X117996746Y-159120024D01*
X117922253Y-159083606D01*
X117891010Y-159068332D01*
X117891008Y-159068331D01*
X117882361Y-159064104D01*
X117872835Y-159062716D01*
X117812642Y-159053946D01*
X117812637Y-159053945D01*
X117808206Y-159053300D01*
X117803720Y-159053300D01*
X116837500Y-159053300D01*
X116775500Y-159036687D01*
X116730113Y-158991300D01*
X116713500Y-158929300D01*
X116713500Y-151127000D01*
X116730113Y-151065000D01*
X116775500Y-151019613D01*
X116837500Y-151003000D01*
X118442700Y-151003000D01*
X118504700Y-151019613D01*
G37*
G04 #@! TD.AperFunction*
G04 #@! TA.AperFunction,Conductor*
G36*
X159340206Y-151015280D02*
G01*
X159383352Y-151049687D01*
X159407296Y-151099406D01*
X159407296Y-151153562D01*
X159405673Y-151158200D01*
X159404894Y-151165111D01*
X159404893Y-151165117D01*
X159392926Y-151271330D01*
X159385955Y-151333200D01*
X159386735Y-151340123D01*
X159397364Y-151434461D01*
X159405673Y-151508200D01*
X159407972Y-151514770D01*
X159455524Y-151650668D01*
X159463838Y-151674426D01*
X159557533Y-151823540D01*
X159562461Y-151828468D01*
X159682060Y-151948067D01*
X159680830Y-151949296D01*
X159711947Y-151990580D01*
X159720717Y-152051718D01*
X159698907Y-152109502D01*
X159666777Y-152136922D01*
X159668647Y-152139541D01*
X159660287Y-152145510D01*
X159651054Y-152150024D01*
X159643790Y-152157287D01*
X159643787Y-152157290D01*
X159568290Y-152232787D01*
X159568287Y-152232790D01*
X159561024Y-152240054D01*
X159556512Y-152249282D01*
X159556510Y-152249286D01*
X159509332Y-152345789D01*
X159509330Y-152345793D01*
X159505104Y-152354439D01*
X159503716Y-152363962D01*
X159503716Y-152363964D01*
X159502435Y-152372760D01*
X159494300Y-152428594D01*
X159494300Y-154201006D01*
X159505104Y-154275161D01*
X159509331Y-154283808D01*
X159509332Y-154283810D01*
X159523076Y-154311923D01*
X159561024Y-154389546D01*
X159651054Y-154479576D01*
X159765439Y-154535496D01*
X159839594Y-154546300D01*
X161607520Y-154546300D01*
X161612006Y-154546300D01*
X161686161Y-154535496D01*
X161800546Y-154479576D01*
X161890576Y-154389546D01*
X161946496Y-154275161D01*
X161957300Y-154201006D01*
X161957300Y-153982017D01*
X161975012Y-153918151D01*
X162023087Y-153872531D01*
X162087792Y-153858187D01*
X162150643Y-153879218D01*
X162188930Y-153924051D01*
X162190221Y-153923306D01*
X162192926Y-153927991D01*
X162195216Y-153932902D01*
X162198322Y-153937339D01*
X162198324Y-153937341D01*
X162229607Y-153982017D01*
X162318813Y-154109417D01*
X162471183Y-154261787D01*
X162647698Y-154385384D01*
X162842993Y-154476452D01*
X163051135Y-154532223D01*
X163265800Y-154551004D01*
X163480465Y-154532223D01*
X163650846Y-154486570D01*
X163673407Y-154480525D01*
X163729691Y-154478683D01*
X163780987Y-154501924D01*
X163816712Y-154545456D01*
X163829500Y-154600300D01*
X163829500Y-155636100D01*
X163816712Y-155690944D01*
X163780987Y-155734476D01*
X163729691Y-155757717D01*
X163673407Y-155755875D01*
X163485690Y-155705577D01*
X163485689Y-155705576D01*
X163480465Y-155704177D01*
X163475077Y-155703705D01*
X163475074Y-155703705D01*
X163271195Y-155685868D01*
X163265800Y-155685396D01*
X163260405Y-155685868D01*
X163056525Y-155703705D01*
X163056520Y-155703705D01*
X163051135Y-155704177D01*
X163045910Y-155705576D01*
X163045910Y-155705577D01*
X162848225Y-155758545D01*
X162848213Y-155758549D01*
X162842993Y-155759948D01*
X162838088Y-155762234D01*
X162838083Y-155762237D01*
X162652608Y-155848726D01*
X162652604Y-155848728D01*
X162647698Y-155851016D01*
X162643265Y-155854119D01*
X162643258Y-155854124D01*
X162475618Y-155971507D01*
X162475613Y-155971510D01*
X162471183Y-155974613D01*
X162467359Y-155978436D01*
X162467353Y-155978442D01*
X162322642Y-156123153D01*
X162322636Y-156123159D01*
X162318813Y-156126983D01*
X162315710Y-156131413D01*
X162315707Y-156131418D01*
X162198324Y-156299058D01*
X162198319Y-156299065D01*
X162195216Y-156303498D01*
X162192927Y-156308406D01*
X162190221Y-156313094D01*
X162188930Y-156312348D01*
X162150643Y-156357182D01*
X162087792Y-156378213D01*
X162023087Y-156363869D01*
X161975012Y-156318249D01*
X161957300Y-156254383D01*
X161957300Y-156039880D01*
X161957300Y-156035394D01*
X161946496Y-155961239D01*
X161890576Y-155846854D01*
X161800546Y-155756824D01*
X161754833Y-155734476D01*
X161694810Y-155705132D01*
X161694808Y-155705131D01*
X161686161Y-155700904D01*
X161676635Y-155699516D01*
X161616442Y-155690746D01*
X161616437Y-155690745D01*
X161612006Y-155690100D01*
X159839594Y-155690100D01*
X159835163Y-155690745D01*
X159835157Y-155690746D01*
X159774964Y-155699516D01*
X159774962Y-155699516D01*
X159765439Y-155700904D01*
X159756793Y-155705130D01*
X159756789Y-155705132D01*
X159660286Y-155752310D01*
X159660282Y-155752312D01*
X159651054Y-155756824D01*
X159643790Y-155764087D01*
X159643787Y-155764090D01*
X159568290Y-155839587D01*
X159568287Y-155839590D01*
X159561024Y-155846854D01*
X159556512Y-155856082D01*
X159556510Y-155856086D01*
X159509332Y-155952589D01*
X159509330Y-155952593D01*
X159505104Y-155961239D01*
X159503716Y-155970762D01*
X159503716Y-155970764D01*
X159497991Y-156010062D01*
X159494300Y-156035394D01*
X159494300Y-157807806D01*
X159494945Y-157812237D01*
X159494946Y-157812242D01*
X159502597Y-157864757D01*
X159505104Y-157881961D01*
X159561024Y-157996346D01*
X159651054Y-158086376D01*
X159765439Y-158142296D01*
X159839594Y-158153100D01*
X161607520Y-158153100D01*
X161612006Y-158153100D01*
X161686161Y-158142296D01*
X161800546Y-158086376D01*
X161890576Y-157996346D01*
X161946496Y-157881961D01*
X161957300Y-157807806D01*
X161957300Y-157588817D01*
X161975012Y-157524951D01*
X162023087Y-157479331D01*
X162087792Y-157464987D01*
X162150643Y-157486018D01*
X162188930Y-157530851D01*
X162190221Y-157530106D01*
X162192926Y-157534791D01*
X162195216Y-157539702D01*
X162198322Y-157544139D01*
X162198324Y-157544141D01*
X162203810Y-157551976D01*
X162318813Y-157716217D01*
X162471183Y-157868587D01*
X162647698Y-157992184D01*
X162842993Y-158083252D01*
X163051135Y-158139023D01*
X163265800Y-158157804D01*
X163480465Y-158139023D01*
X163640552Y-158096128D01*
X163673407Y-158087325D01*
X163729691Y-158085483D01*
X163780987Y-158108724D01*
X163816712Y-158152256D01*
X163829500Y-158207100D01*
X163829500Y-159268300D01*
X163816712Y-159323144D01*
X163780987Y-159366676D01*
X163729691Y-159389917D01*
X163673407Y-159388075D01*
X163485690Y-159337777D01*
X163485689Y-159337776D01*
X163480465Y-159336377D01*
X163475077Y-159335905D01*
X163475074Y-159335905D01*
X163271195Y-159318068D01*
X163265800Y-159317596D01*
X163260405Y-159318068D01*
X163056525Y-159335905D01*
X163056520Y-159335905D01*
X163051135Y-159336377D01*
X163045910Y-159337776D01*
X163045910Y-159337777D01*
X162848225Y-159390745D01*
X162848213Y-159390749D01*
X162842993Y-159392148D01*
X162838088Y-159394434D01*
X162838083Y-159394437D01*
X162652608Y-159480926D01*
X162652604Y-159480928D01*
X162647698Y-159483216D01*
X162643265Y-159486319D01*
X162643258Y-159486324D01*
X162475618Y-159603707D01*
X162475613Y-159603710D01*
X162471183Y-159606813D01*
X162467359Y-159610636D01*
X162467353Y-159610642D01*
X162322642Y-159755353D01*
X162322636Y-159755359D01*
X162318813Y-159759183D01*
X162315710Y-159763613D01*
X162315707Y-159763618D01*
X162198324Y-159931258D01*
X162198319Y-159931265D01*
X162195216Y-159935698D01*
X162192927Y-159940606D01*
X162190221Y-159945294D01*
X162188930Y-159944548D01*
X162150643Y-159989382D01*
X162087792Y-160010413D01*
X162023087Y-159996069D01*
X161975012Y-159950449D01*
X161957300Y-159886583D01*
X161957300Y-159672080D01*
X161957300Y-159667594D01*
X161946496Y-159593439D01*
X161890576Y-159479054D01*
X161800546Y-159389024D01*
X161695720Y-159337777D01*
X161694810Y-159337332D01*
X161694808Y-159337331D01*
X161686161Y-159333104D01*
X161676635Y-159331716D01*
X161616442Y-159322946D01*
X161616437Y-159322945D01*
X161612006Y-159322300D01*
X159839594Y-159322300D01*
X159835163Y-159322945D01*
X159835157Y-159322946D01*
X159774964Y-159331716D01*
X159774962Y-159331716D01*
X159765439Y-159333104D01*
X159756793Y-159337330D01*
X159756789Y-159337332D01*
X159660286Y-159384510D01*
X159660282Y-159384512D01*
X159651054Y-159389024D01*
X159643790Y-159396287D01*
X159643787Y-159396290D01*
X159568290Y-159471787D01*
X159568287Y-159471790D01*
X159561024Y-159479054D01*
X159556512Y-159488282D01*
X159556510Y-159488286D01*
X159509332Y-159584789D01*
X159509330Y-159584793D01*
X159505104Y-159593439D01*
X159503716Y-159602962D01*
X159503716Y-159602964D01*
X159502598Y-159610642D01*
X159494300Y-159667594D01*
X159494300Y-161440006D01*
X159494945Y-161444437D01*
X159494946Y-161444442D01*
X159502597Y-161496957D01*
X159505104Y-161514161D01*
X159509331Y-161522808D01*
X159509332Y-161522810D01*
X159550461Y-161606939D01*
X159561024Y-161628546D01*
X159651054Y-161718576D01*
X159765439Y-161774496D01*
X159839594Y-161785300D01*
X161607520Y-161785300D01*
X161612006Y-161785300D01*
X161686161Y-161774496D01*
X161800546Y-161718576D01*
X161890576Y-161628546D01*
X161946496Y-161514161D01*
X161957300Y-161440006D01*
X161957300Y-161221017D01*
X161975012Y-161157151D01*
X162023087Y-161111531D01*
X162087792Y-161097187D01*
X162150643Y-161118218D01*
X162188930Y-161163051D01*
X162190221Y-161162306D01*
X162192926Y-161166991D01*
X162195216Y-161171902D01*
X162198322Y-161176339D01*
X162198324Y-161176341D01*
X162253332Y-161254900D01*
X162318813Y-161348417D01*
X162471183Y-161500787D01*
X162647698Y-161624384D01*
X162842993Y-161715452D01*
X163051135Y-161771223D01*
X163265800Y-161790004D01*
X163480465Y-161771223D01*
X163640552Y-161728328D01*
X163673407Y-161719525D01*
X163729691Y-161717683D01*
X163780987Y-161740924D01*
X163816712Y-161784456D01*
X163829500Y-161839300D01*
X163829500Y-162882900D01*
X163816712Y-162937744D01*
X163780987Y-162981276D01*
X163729691Y-163004517D01*
X163673407Y-163002675D01*
X163485690Y-162952377D01*
X163485689Y-162952376D01*
X163480465Y-162950977D01*
X163475077Y-162950505D01*
X163475074Y-162950505D01*
X163271195Y-162932668D01*
X163265800Y-162932196D01*
X163260405Y-162932668D01*
X163056525Y-162950505D01*
X163056520Y-162950505D01*
X163051135Y-162950977D01*
X163045910Y-162952376D01*
X163045910Y-162952377D01*
X162848225Y-163005345D01*
X162848213Y-163005349D01*
X162842993Y-163006748D01*
X162838088Y-163009034D01*
X162838083Y-163009037D01*
X162652608Y-163095526D01*
X162652604Y-163095528D01*
X162647698Y-163097816D01*
X162643265Y-163100919D01*
X162643258Y-163100924D01*
X162475618Y-163218307D01*
X162475613Y-163218310D01*
X162471183Y-163221413D01*
X162467359Y-163225236D01*
X162467353Y-163225242D01*
X162322642Y-163369953D01*
X162322636Y-163369959D01*
X162318813Y-163373783D01*
X162315710Y-163378213D01*
X162315707Y-163378218D01*
X162198324Y-163545858D01*
X162198319Y-163545865D01*
X162195216Y-163550298D01*
X162192927Y-163555206D01*
X162190221Y-163559894D01*
X162188930Y-163559148D01*
X162150643Y-163603982D01*
X162087792Y-163625013D01*
X162023087Y-163610669D01*
X161975012Y-163565049D01*
X161957300Y-163501183D01*
X161957300Y-163286680D01*
X161957300Y-163282194D01*
X161946496Y-163208039D01*
X161890576Y-163093654D01*
X161800546Y-163003624D01*
X161695720Y-162952377D01*
X161694810Y-162951932D01*
X161694808Y-162951931D01*
X161686161Y-162947704D01*
X161676635Y-162946316D01*
X161616442Y-162937546D01*
X161616437Y-162937545D01*
X161612006Y-162936900D01*
X159839594Y-162936900D01*
X159835163Y-162937545D01*
X159835157Y-162937546D01*
X159774964Y-162946316D01*
X159774962Y-162946316D01*
X159765439Y-162947704D01*
X159756793Y-162951930D01*
X159756789Y-162951932D01*
X159660286Y-162999110D01*
X159660282Y-162999112D01*
X159651054Y-163003624D01*
X159643790Y-163010887D01*
X159643787Y-163010890D01*
X159568290Y-163086387D01*
X159568287Y-163086390D01*
X159561024Y-163093654D01*
X159556512Y-163102882D01*
X159556510Y-163102886D01*
X159509332Y-163199389D01*
X159509330Y-163199393D01*
X159505104Y-163208039D01*
X159503716Y-163217562D01*
X159503716Y-163217564D01*
X159494994Y-163277432D01*
X159494300Y-163282194D01*
X159494300Y-165054606D01*
X159494945Y-165059037D01*
X159494946Y-165059042D01*
X159500322Y-165095942D01*
X159505104Y-165128761D01*
X159509331Y-165137408D01*
X159509332Y-165137410D01*
X159555311Y-165231460D01*
X159561024Y-165243146D01*
X159651054Y-165333176D01*
X159765439Y-165389096D01*
X159839594Y-165399900D01*
X161607520Y-165399900D01*
X161612006Y-165399900D01*
X161686161Y-165389096D01*
X161800546Y-165333176D01*
X161890576Y-165243146D01*
X161946496Y-165128761D01*
X161957300Y-165054606D01*
X161957300Y-164835617D01*
X161975012Y-164771751D01*
X162023087Y-164726131D01*
X162087792Y-164711787D01*
X162150643Y-164732818D01*
X162188930Y-164777651D01*
X162190221Y-164776906D01*
X162192926Y-164781591D01*
X162195216Y-164786502D01*
X162198322Y-164790939D01*
X162198324Y-164790941D01*
X162226812Y-164831626D01*
X162318813Y-164963017D01*
X162471183Y-165115387D01*
X162647698Y-165238984D01*
X162842993Y-165330052D01*
X163051135Y-165385823D01*
X163265800Y-165404604D01*
X163480465Y-165385823D01*
X163640552Y-165342928D01*
X163673407Y-165334125D01*
X163729691Y-165332283D01*
X163780987Y-165355524D01*
X163816712Y-165399056D01*
X163829500Y-165453900D01*
X163829500Y-166507300D01*
X163816712Y-166562144D01*
X163780987Y-166605676D01*
X163729691Y-166628917D01*
X163673407Y-166627075D01*
X163485690Y-166576777D01*
X163485689Y-166576776D01*
X163480465Y-166575377D01*
X163475077Y-166574905D01*
X163475074Y-166574905D01*
X163271195Y-166557068D01*
X163265800Y-166556596D01*
X163260405Y-166557068D01*
X163056525Y-166574905D01*
X163056520Y-166574905D01*
X163051135Y-166575377D01*
X163045910Y-166576776D01*
X163045910Y-166576777D01*
X162848225Y-166629745D01*
X162848213Y-166629749D01*
X162842993Y-166631148D01*
X162838088Y-166633434D01*
X162838083Y-166633437D01*
X162652608Y-166719926D01*
X162652604Y-166719928D01*
X162647698Y-166722216D01*
X162643265Y-166725319D01*
X162643258Y-166725324D01*
X162475618Y-166842707D01*
X162475613Y-166842710D01*
X162471183Y-166845813D01*
X162467359Y-166849636D01*
X162467353Y-166849642D01*
X162322642Y-166994353D01*
X162322636Y-166994359D01*
X162318813Y-166998183D01*
X162315710Y-167002613D01*
X162315707Y-167002618D01*
X162198324Y-167170258D01*
X162198319Y-167170265D01*
X162195216Y-167174698D01*
X162192927Y-167179606D01*
X162190221Y-167184294D01*
X162188930Y-167183548D01*
X162150643Y-167228382D01*
X162087792Y-167249413D01*
X162023087Y-167235069D01*
X161975012Y-167189449D01*
X161957300Y-167125583D01*
X161957300Y-166911080D01*
X161957300Y-166906594D01*
X161946496Y-166832439D01*
X161890576Y-166718054D01*
X161800546Y-166628024D01*
X161754833Y-166605676D01*
X161694810Y-166576332D01*
X161694808Y-166576331D01*
X161686161Y-166572104D01*
X161676635Y-166570716D01*
X161616442Y-166561946D01*
X161616437Y-166561945D01*
X161612006Y-166561300D01*
X159839594Y-166561300D01*
X159835163Y-166561945D01*
X159835157Y-166561946D01*
X159774964Y-166570716D01*
X159774962Y-166570716D01*
X159765439Y-166572104D01*
X159756793Y-166576330D01*
X159756789Y-166576332D01*
X159660286Y-166623510D01*
X159660282Y-166623512D01*
X159651054Y-166628024D01*
X159643790Y-166635287D01*
X159643787Y-166635290D01*
X159568290Y-166710787D01*
X159568287Y-166710790D01*
X159561024Y-166718054D01*
X159556512Y-166727282D01*
X159556510Y-166727286D01*
X159509332Y-166823789D01*
X159509330Y-166823793D01*
X159505104Y-166832439D01*
X159503716Y-166841962D01*
X159503716Y-166841964D01*
X159496045Y-166894619D01*
X159494300Y-166906594D01*
X159494300Y-168679006D01*
X159494945Y-168683437D01*
X159494946Y-168683442D01*
X159503155Y-168739787D01*
X159505104Y-168753161D01*
X159509331Y-168761808D01*
X159509332Y-168761810D01*
X159551447Y-168847957D01*
X159561024Y-168867546D01*
X159651054Y-168957576D01*
X159765439Y-169013496D01*
X159839594Y-169024300D01*
X161607520Y-169024300D01*
X161612006Y-169024300D01*
X161686161Y-169013496D01*
X161800546Y-168957576D01*
X161890576Y-168867546D01*
X161946496Y-168753161D01*
X161957300Y-168679006D01*
X161957300Y-168460017D01*
X161975012Y-168396151D01*
X162023087Y-168350531D01*
X162087792Y-168336187D01*
X162150643Y-168357218D01*
X162188930Y-168402051D01*
X162190221Y-168401306D01*
X162192926Y-168405991D01*
X162195216Y-168410902D01*
X162198322Y-168415339D01*
X162198324Y-168415341D01*
X162226400Y-168455438D01*
X162318813Y-168587417D01*
X162471183Y-168739787D01*
X162647698Y-168863384D01*
X162842993Y-168954452D01*
X163051135Y-169010223D01*
X163265800Y-169029004D01*
X163480465Y-169010223D01*
X163640552Y-168967328D01*
X163673407Y-168958525D01*
X163729691Y-168956683D01*
X163780987Y-168979924D01*
X163816712Y-169023456D01*
X163829500Y-169078300D01*
X163829500Y-171653948D01*
X163829351Y-171660033D01*
X163811839Y-172016474D01*
X163810646Y-172028583D01*
X163758733Y-172378560D01*
X163756359Y-172390496D01*
X163709395Y-172577984D01*
X163674518Y-172637752D01*
X163613042Y-172669523D01*
X163544113Y-172663401D01*
X163489198Y-172621294D01*
X163465400Y-172556317D01*
X163456231Y-172422258D01*
X163395512Y-172130063D01*
X163295571Y-171848857D01*
X163158271Y-171583879D01*
X162986168Y-171340065D01*
X162782469Y-171121956D01*
X162779187Y-171119286D01*
X162779184Y-171119283D01*
X162554259Y-170936294D01*
X162554256Y-170936292D01*
X162550967Y-170933616D01*
X162547343Y-170931412D01*
X162547340Y-170931410D01*
X162299595Y-170780753D01*
X162299593Y-170780752D01*
X162295977Y-170778553D01*
X162230813Y-170750248D01*
X162026128Y-170661340D01*
X162026118Y-170661336D01*
X162022247Y-170659655D01*
X162018175Y-170658514D01*
X161738955Y-170580280D01*
X161738942Y-170580277D01*
X161734876Y-170579138D01*
X161730686Y-170578562D01*
X161730676Y-170578560D01*
X161443416Y-170539076D01*
X161443403Y-170539075D01*
X161439219Y-170538500D01*
X161140781Y-170538500D01*
X161136597Y-170539074D01*
X161136583Y-170539076D01*
X160849326Y-170578560D01*
X160849319Y-170578561D01*
X160845124Y-170579138D01*
X160841044Y-170580281D01*
X160841035Y-170580283D01*
X160713091Y-170616130D01*
X160648226Y-170616683D01*
X160591957Y-170584409D01*
X157643819Y-167636271D01*
X157616939Y-167596043D01*
X157607500Y-167548590D01*
X157607500Y-166015213D01*
X157624697Y-165952212D01*
X157671518Y-165906686D01*
X157734977Y-165891262D01*
X157797471Y-165910219D01*
X157818678Y-165923544D01*
X157818682Y-165923546D01*
X157824574Y-165927248D01*
X157990800Y-165985413D01*
X158165800Y-166005131D01*
X158340800Y-165985413D01*
X158507026Y-165927248D01*
X158656140Y-165833553D01*
X158780667Y-165709026D01*
X158874362Y-165559912D01*
X158932527Y-165393686D01*
X158952245Y-165218686D01*
X158932527Y-165043686D01*
X158874362Y-164877460D01*
X158780667Y-164728346D01*
X158656140Y-164603819D01*
X158617839Y-164579753D01*
X158512916Y-164513825D01*
X158507026Y-164510124D01*
X158500463Y-164507827D01*
X158500460Y-164507826D01*
X158347370Y-164454258D01*
X158340800Y-164451959D01*
X158333878Y-164451179D01*
X158172723Y-164433021D01*
X158165800Y-164432241D01*
X158158877Y-164433021D01*
X157997721Y-164451179D01*
X157997719Y-164451179D01*
X157990800Y-164451959D01*
X157984231Y-164454257D01*
X157984229Y-164454258D01*
X157831139Y-164507826D01*
X157831132Y-164507828D01*
X157824574Y-164510124D01*
X157818689Y-164513821D01*
X157818678Y-164513827D01*
X157797471Y-164527153D01*
X157734977Y-164546110D01*
X157671518Y-164530686D01*
X157624697Y-164485160D01*
X157607500Y-164422159D01*
X157607500Y-162337430D01*
X157621333Y-162280516D01*
X157659745Y-162236300D01*
X157714166Y-162214648D01*
X157772455Y-162220389D01*
X157908020Y-162267825D01*
X157908023Y-162267825D01*
X157914600Y-162270127D01*
X158089600Y-162289845D01*
X158264600Y-162270127D01*
X158430826Y-162211962D01*
X158579940Y-162118267D01*
X158704467Y-161993740D01*
X158798162Y-161844626D01*
X158856327Y-161678400D01*
X158876045Y-161503400D01*
X158856327Y-161328400D01*
X158798162Y-161162174D01*
X158704467Y-161013060D01*
X158579940Y-160888533D01*
X158571699Y-160883355D01*
X158436716Y-160798539D01*
X158430826Y-160794838D01*
X158424263Y-160792541D01*
X158424260Y-160792540D01*
X158271170Y-160738972D01*
X158264600Y-160736673D01*
X158257678Y-160735893D01*
X158096523Y-160717735D01*
X158089600Y-160716955D01*
X158082677Y-160717735D01*
X157921521Y-160735893D01*
X157921519Y-160735893D01*
X157914600Y-160736673D01*
X157908031Y-160738971D01*
X157908020Y-160738974D01*
X157772455Y-160786411D01*
X157714166Y-160792152D01*
X157659745Y-160770500D01*
X157621333Y-160726284D01*
X157607500Y-160669370D01*
X157607500Y-158705230D01*
X157621333Y-158648316D01*
X157659745Y-158604100D01*
X157714166Y-158582448D01*
X157772455Y-158588189D01*
X157908020Y-158635625D01*
X157908023Y-158635625D01*
X157914600Y-158637927D01*
X158089600Y-158657645D01*
X158264600Y-158637927D01*
X158430826Y-158579762D01*
X158579940Y-158486067D01*
X158704467Y-158361540D01*
X158798162Y-158212426D01*
X158856327Y-158046200D01*
X158876045Y-157871200D01*
X158856327Y-157696200D01*
X158798162Y-157529974D01*
X158704467Y-157380860D01*
X158579940Y-157256333D01*
X158571699Y-157251155D01*
X158436716Y-157166339D01*
X158430826Y-157162638D01*
X158424263Y-157160341D01*
X158424260Y-157160340D01*
X158271170Y-157106772D01*
X158264600Y-157104473D01*
X158257678Y-157103693D01*
X158096523Y-157085535D01*
X158089600Y-157084755D01*
X158082677Y-157085535D01*
X157921521Y-157103693D01*
X157921519Y-157103693D01*
X157914600Y-157104473D01*
X157908031Y-157106771D01*
X157908020Y-157106774D01*
X157772455Y-157154211D01*
X157714166Y-157159952D01*
X157659745Y-157138300D01*
X157621333Y-157094084D01*
X157607500Y-157037170D01*
X157607500Y-154897269D01*
X157621015Y-154840974D01*
X157658615Y-154796951D01*
X157712102Y-154774796D01*
X157769818Y-154779338D01*
X157819180Y-154809587D01*
X157929460Y-154919867D01*
X158078574Y-155013562D01*
X158244800Y-155071727D01*
X158419800Y-155091445D01*
X158594800Y-155071727D01*
X158761026Y-155013562D01*
X158910140Y-154919867D01*
X159034667Y-154795340D01*
X159128362Y-154646226D01*
X159186527Y-154480000D01*
X159206245Y-154305000D01*
X159186527Y-154130000D01*
X159128362Y-153963774D01*
X159034667Y-153814660D01*
X158910140Y-153690133D01*
X158761026Y-153596438D01*
X158754463Y-153594141D01*
X158754460Y-153594140D01*
X158601370Y-153540572D01*
X158594800Y-153538273D01*
X158587878Y-153537493D01*
X158426723Y-153519335D01*
X158419800Y-153518555D01*
X158412877Y-153519335D01*
X158251721Y-153537493D01*
X158251719Y-153537493D01*
X158244800Y-153538273D01*
X158238231Y-153540571D01*
X158238229Y-153540572D01*
X158085139Y-153594140D01*
X158085132Y-153594142D01*
X158078574Y-153596438D01*
X158072686Y-153600137D01*
X158072683Y-153600139D01*
X157935360Y-153686425D01*
X157935355Y-153686428D01*
X157929460Y-153690133D01*
X157924535Y-153695057D01*
X157924531Y-153695061D01*
X157819181Y-153800412D01*
X157769818Y-153830662D01*
X157712102Y-153835204D01*
X157658615Y-153813049D01*
X157621015Y-153769026D01*
X157607500Y-153712731D01*
X157607500Y-152323487D01*
X157624694Y-152260491D01*
X157671509Y-152214965D01*
X157734961Y-152199535D01*
X157785964Y-152214997D01*
X157787005Y-152212837D01*
X157793282Y-152215860D01*
X157799174Y-152219562D01*
X157965400Y-152277727D01*
X158140400Y-152297445D01*
X158315400Y-152277727D01*
X158481626Y-152219562D01*
X158630740Y-152125867D01*
X158755267Y-152001340D01*
X158848962Y-151852226D01*
X158907127Y-151686000D01*
X158926845Y-151511000D01*
X158907127Y-151336000D01*
X158848962Y-151169774D01*
X158851067Y-151169037D01*
X158841323Y-151120048D01*
X158860134Y-151061028D01*
X158905147Y-151018472D01*
X158965128Y-151003000D01*
X159286405Y-151003000D01*
X159340206Y-151015280D01*
G37*
G04 #@! TD.AperFunction*
M02*
