%TF.GenerationSoftware,KiCad,Pcbnew,(7.0.0)*%
%TF.CreationDate,2023-09-29T14:03:24-04:00*%
%TF.ProjectId,_HW_HotPlate,5f48575f-486f-4745-906c-6174652e6b69,rev?*%
%TF.SameCoordinates,Original*%
%TF.FileFunction,Drillmap*%
%TF.FilePolarity,Positive*%
%FSLAX45Y45*%
G04 Gerber Fmt 4.5, Leading zero omitted, Abs format (unit mm)*
G04 Created by KiCad (PCBNEW (7.0.0)) date 2023-09-29 14:03:24*
%MOMM*%
%LPD*%
G01*
G04 APERTURE LIST*
%ADD10C,0.100000*%
%ADD11C,0.200000*%
%ADD12C,0.020000*%
%ADD13C,0.040000*%
%ADD14C,0.050000*%
%ADD15C,0.055000*%
%ADD16C,0.090000*%
%ADD17C,0.130000*%
%ADD18C,0.140000*%
%ADD19C,0.320000*%
G04 APERTURE END LIST*
D10*
X16010000Y-17665700D02*
G75*
G03*
X16510000Y-17165700I0J500000D01*
G01*
X16010000Y-17665700D02*
X12044300Y-17665700D01*
X14584680Y-12700000D02*
X12044300Y-12700000D01*
X14909800Y-13154660D02*
X14584680Y-13154660D01*
X12044300Y-12700000D02*
G75*
G03*
X11544300Y-13200000I0J-500000D01*
G01*
X11544300Y-17165700D02*
X11544300Y-13200000D01*
X16010000Y-12700000D02*
X14909800Y-12700000D01*
X16510000Y-13200000D02*
X16510000Y-17165700D01*
X11544300Y-17165700D02*
G75*
G03*
X12044300Y-17665700I500000J0D01*
G01*
X14584680Y-13154660D02*
X14584680Y-12700000D01*
X16510000Y-13200000D02*
G75*
G03*
X16010000Y-12700000I-500000J0D01*
G01*
X14909800Y-12700000D02*
X14909800Y-13153390D01*
D11*
D12*
X12444120Y-15879220D02*
X12464120Y-15899220D01*
X12464120Y-15879220D02*
X12444120Y-15899220D01*
X12444120Y-15974220D02*
X12464120Y-15994220D01*
X12464120Y-15974220D02*
X12444120Y-15994220D01*
X12444120Y-16069220D02*
X12464120Y-16089220D01*
X12464120Y-16069220D02*
X12444120Y-16089220D01*
X12444120Y-16164220D02*
X12464120Y-16184220D01*
X12464120Y-16164220D02*
X12444120Y-16184220D01*
X12539120Y-15879220D02*
X12559120Y-15899220D01*
X12559120Y-15879220D02*
X12539120Y-15899220D01*
X12539120Y-15974220D02*
X12559120Y-15994220D01*
X12559120Y-15974220D02*
X12539120Y-15994220D01*
X12539120Y-16069220D02*
X12559120Y-16089220D01*
X12559120Y-16069220D02*
X12539120Y-16089220D01*
X12539120Y-16164220D02*
X12559120Y-16184220D01*
X12559120Y-16164220D02*
X12539120Y-16184220D01*
X12634120Y-15879220D02*
X12654120Y-15899220D01*
X12654120Y-15879220D02*
X12634120Y-15899220D01*
X12634120Y-15974220D02*
X12654120Y-15994220D01*
X12654120Y-15974220D02*
X12634120Y-15994220D01*
X12634120Y-16069220D02*
X12654120Y-16089220D01*
X12654120Y-16069220D02*
X12634120Y-16089220D01*
X12634120Y-16164220D02*
X12654120Y-16184220D01*
X12654120Y-16164220D02*
X12634120Y-16184220D01*
X12729120Y-15879220D02*
X12749120Y-15899220D01*
X12749120Y-15879220D02*
X12729120Y-15899220D01*
X12729120Y-15974220D02*
X12749120Y-15994220D01*
X12749120Y-15974220D02*
X12729120Y-15994220D01*
X12729120Y-16069220D02*
X12749120Y-16089220D01*
X12749120Y-16069220D02*
X12729120Y-16089220D01*
X12729120Y-16164220D02*
X12749120Y-16184220D01*
X12749120Y-16164220D02*
X12729120Y-16184220D01*
D13*
X11795440Y-15557500D02*
G75*
G03*
X11795440Y-15557500I-20000J0D01*
G01*
X11911890Y-16659470D02*
G75*
G03*
X11911890Y-16659470I-20000J0D01*
G01*
X12120560Y-15323310D02*
G75*
G03*
X12120560Y-15323310I-20000J0D01*
G01*
X12161200Y-16080740D02*
G75*
G03*
X12161200Y-16080740I-20000J0D01*
G01*
X12173900Y-16243300D02*
G75*
G03*
X12173900Y-16243300I-20000J0D01*
G01*
X12186600Y-15687040D02*
G75*
G03*
X12186600Y-15687040I-20000J0D01*
G01*
X12190410Y-15789910D02*
G75*
G03*
X12190410Y-15789910I-20000J0D01*
G01*
X12208017Y-16925463D02*
G75*
G03*
X12208017Y-16925463I-20000J0D01*
G01*
X12361860Y-16449040D02*
G75*
G03*
X12361860Y-16449040I-20000J0D01*
G01*
X12364573Y-16566053D02*
G75*
G03*
X12364573Y-16566053I-20000J0D01*
G01*
X12412660Y-15595600D02*
G75*
G03*
X12412660Y-15595600I-20000J0D01*
G01*
X12423917Y-17047383D02*
G75*
G03*
X12423917Y-17047383I-20000J0D01*
G01*
X12438060Y-15204440D02*
G75*
G03*
X12438060Y-15204440I-20000J0D01*
G01*
X12504100Y-15120620D02*
G75*
G03*
X12504100Y-15120620I-20000J0D01*
G01*
X12519340Y-16742150D02*
G75*
G03*
X12519340Y-16742150I-20000J0D01*
G01*
X12539660Y-15285720D02*
G75*
G03*
X12539660Y-15285720I-20000J0D01*
G01*
X12539660Y-16489680D02*
G75*
G03*
X12539660Y-16489680I-20000J0D01*
G01*
X12669200Y-15115540D02*
G75*
G03*
X12669200Y-15115540I-20000J0D01*
G01*
X12686980Y-15293340D02*
G75*
G03*
X12686980Y-15293340I-20000J0D01*
G01*
X12722540Y-15554960D02*
G75*
G03*
X12722540Y-15554960I-20000J0D01*
G01*
X12901350Y-16474440D02*
G75*
G03*
X12901350Y-16474440I-20000J0D01*
G01*
X12905420Y-16738600D02*
G75*
G03*
X12905420Y-16738600I-20000J0D01*
G01*
X13018210Y-16112250D02*
G75*
G03*
X13018210Y-16112250I-20000J0D01*
G01*
X13075600Y-15737840D02*
G75*
G03*
X13075600Y-15737840I-20000J0D01*
G01*
X13217840Y-15722600D02*
G75*
G03*
X13217840Y-15722600I-20000J0D01*
G01*
X13243240Y-16143230D02*
G75*
G03*
X13243240Y-16143230I-20000J0D01*
G01*
X13253400Y-16870680D02*
G75*
G03*
X13253400Y-16870680I-20000J0D01*
G01*
X13271180Y-15831610D02*
G75*
G03*
X13271180Y-15831610I-20000J0D01*
G01*
X13301660Y-17388840D02*
G75*
G03*
X13301660Y-17388840I-20000J0D01*
G01*
X13365160Y-16073120D02*
G75*
G03*
X13365160Y-16073120I-20000J0D01*
G01*
X13441360Y-16916400D02*
G75*
G03*
X13441360Y-16916400I-20000J0D01*
G01*
X13588680Y-16301720D02*
G75*
G03*
X13588680Y-16301720I-20000J0D01*
G01*
X13598840Y-15798800D02*
G75*
G03*
X13598840Y-15798800I-20000J0D01*
G01*
X13614329Y-17149070D02*
G75*
G03*
X13614329Y-17149070I-20000J0D01*
G01*
X13621700Y-13680440D02*
G75*
G03*
X13621700Y-13680440I-20000J0D01*
G01*
X13621700Y-13776960D02*
G75*
G03*
X13621700Y-13776960I-20000J0D01*
G01*
X13662340Y-15908020D02*
G75*
G03*
X13662340Y-15908020I-20000J0D01*
G01*
X13730920Y-15798800D02*
G75*
G03*
X13730920Y-15798800I-20000J0D01*
G01*
X13733460Y-16294100D02*
G75*
G03*
X13733460Y-16294100I-20000J0D01*
G01*
X13733460Y-16644620D02*
G75*
G03*
X13733460Y-16644620I-20000J0D01*
G01*
X13794420Y-15908020D02*
G75*
G03*
X13794420Y-15908020I-20000J0D01*
G01*
X13847760Y-15798800D02*
G75*
G03*
X13847760Y-15798800I-20000J0D01*
G01*
X13883320Y-17399000D02*
G75*
G03*
X13883320Y-17399000I-20000J0D01*
G01*
X14020480Y-16824960D02*
G75*
G03*
X14020480Y-16824960I-20000J0D01*
G01*
X14058580Y-16288010D02*
G75*
G03*
X14058580Y-16288010I-20000J0D01*
G01*
X14092250Y-16532210D02*
G75*
G03*
X14092250Y-16532210I-20000J0D01*
G01*
X14277020Y-16457975D02*
G75*
G03*
X14277020Y-16457975I-20000J0D01*
G01*
X14353220Y-17160240D02*
G75*
G03*
X14353220Y-17160240I-20000J0D01*
G01*
X14358300Y-16944340D02*
G75*
G03*
X14358300Y-16944340I-20000J0D01*
G01*
X14472600Y-16944340D02*
G75*
G03*
X14472600Y-16944340I-20000J0D01*
G01*
X14487840Y-16337280D02*
G75*
G03*
X14487840Y-16337280I-20000J0D01*
G01*
X14688500Y-17429480D02*
G75*
G03*
X14688500Y-17429480I-20000J0D01*
G01*
X14729140Y-15953130D02*
G75*
G03*
X14729140Y-15953130I-20000J0D01*
G01*
X14737097Y-17127053D02*
G75*
G03*
X14737097Y-17127053I-20000J0D01*
G01*
X14952660Y-15618460D02*
G75*
G03*
X14952660Y-15618460I-20000J0D01*
G01*
X14955200Y-15364460D02*
G75*
G03*
X14955200Y-15364460I-20000J0D01*
G01*
X14955200Y-15481300D02*
G75*
G03*
X14955200Y-15481300I-20000J0D01*
G01*
X14997558Y-17042902D02*
G75*
G03*
X14997558Y-17042902I-20000J0D01*
G01*
X15229475Y-16626885D02*
G75*
G03*
X15229475Y-16626885I-20000J0D01*
G01*
X15249840Y-16202660D02*
G75*
G03*
X15249840Y-16202660I-20000J0D01*
G01*
X15254875Y-16385495D02*
G75*
G03*
X15254875Y-16385495I-20000J0D01*
G01*
X15254920Y-15974060D02*
G75*
G03*
X15254920Y-15974060I-20000J0D01*
G01*
X15360542Y-15726622D02*
G75*
G03*
X15360542Y-15726622I-20000J0D01*
G01*
X15392080Y-15445740D02*
G75*
G03*
X15392080Y-15445740I-20000J0D01*
G01*
X15420020Y-16436340D02*
G75*
G03*
X15420020Y-16436340I-20000J0D01*
G01*
X15442880Y-16627604D02*
G75*
G03*
X15442880Y-16627604I-20000J0D01*
G01*
X15529460Y-17137380D02*
G75*
G03*
X15529460Y-17137380I-20000J0D01*
G01*
X15806100Y-16652240D02*
G75*
G03*
X15806100Y-16652240I-20000J0D01*
G01*
X15828960Y-15787120D02*
G75*
G03*
X15828960Y-15787120I-20000J0D01*
G01*
X15828960Y-16150340D02*
G75*
G03*
X15828960Y-16150340I-20000J0D01*
G01*
X15834040Y-15151100D02*
G75*
G03*
X15834040Y-15151100I-20000J0D01*
G01*
X15836580Y-16521869D02*
G75*
G03*
X15836580Y-16521869I-20000J0D01*
G01*
X15861980Y-15430500D02*
G75*
G03*
X15861980Y-15430500I-20000J0D01*
G01*
X15917860Y-15869349D02*
G75*
G03*
X15917860Y-15869349I-20000J0D01*
G01*
X15922583Y-16222194D02*
G75*
G03*
X15922583Y-16222194I-20000J0D01*
G01*
X16037240Y-15133320D02*
G75*
G03*
X16037240Y-15133320I-20000J0D01*
G01*
D14*
X12450000Y-17495920D02*
X12450000Y-17545920D01*
X12425000Y-17520920D02*
X12475000Y-17520920D01*
D11*
X12425000Y-17488420D02*
X12425000Y-17553420D01*
X12425000Y-17553420D02*
G75*
G03*
X12475000Y-17553420I25000J0D01*
G01*
X12475000Y-17553420D02*
X12475000Y-17488420D01*
X12475000Y-17488420D02*
G75*
G03*
X12425000Y-17488420I-25000J0D01*
G01*
D14*
X13150000Y-17495920D02*
X13150000Y-17545920D01*
X13125000Y-17520920D02*
X13175000Y-17520920D01*
D11*
X13125000Y-17488420D02*
X13125000Y-17553420D01*
X13125000Y-17553420D02*
G75*
G03*
X13175000Y-17553420I25000J0D01*
G01*
X13175000Y-17553420D02*
X13175000Y-17488420D01*
X13175000Y-17488420D02*
G75*
G03*
X13125000Y-17488420I-25000J0D01*
G01*
D15*
X12569446Y-17270366D02*
X12569446Y-17231474D01*
X12530554Y-17231474D01*
X12530554Y-17270366D01*
X12569446Y-17270366D01*
D11*
X12535000Y-17278420D02*
X12565000Y-17278420D01*
X12565000Y-17278420D02*
G75*
G03*
X12565000Y-17223420I0J27500D01*
G01*
X12565000Y-17223420D02*
X12535000Y-17223420D01*
X12535000Y-17223420D02*
G75*
G03*
X12535000Y-17278420I0J-27500D01*
G01*
D15*
X13069446Y-17270366D02*
X13069446Y-17231474D01*
X13030554Y-17231474D01*
X13030554Y-17270366D01*
X13069446Y-17270366D01*
D11*
X13035000Y-17278420D02*
X13065000Y-17278420D01*
X13065000Y-17278420D02*
G75*
G03*
X13065000Y-17223420I0J27500D01*
G01*
X13065000Y-17223420D02*
X13035000Y-17223420D01*
X13035000Y-17223420D02*
G75*
G03*
X13035000Y-17278420I0J-27500D01*
G01*
D16*
X12619760Y-14570340D02*
X12664760Y-14525340D01*
X12619760Y-14480340D01*
X12574760Y-14525340D01*
X12619760Y-14570340D01*
X12749760Y-13820340D02*
X12794760Y-13775340D01*
X12749760Y-13730340D01*
X12704760Y-13775340D01*
X12749760Y-13820340D01*
D10*
X11642200Y-15978480D02*
X11742200Y-16078480D01*
X11742200Y-15978480D02*
X11642200Y-16078480D01*
X11742200Y-16028480D02*
G75*
G03*
X11742200Y-16028480I-50000J0D01*
G01*
X11642200Y-16232480D02*
X11742200Y-16332480D01*
X11742200Y-16232480D02*
X11642200Y-16332480D01*
X11742200Y-16282480D02*
G75*
G03*
X11742200Y-16282480I-50000J0D01*
G01*
X11642200Y-16486480D02*
X11742200Y-16586480D01*
X11742200Y-16486480D02*
X11642200Y-16586480D01*
X11742200Y-16536480D02*
G75*
G03*
X11742200Y-16536480I-50000J0D01*
G01*
X11642200Y-16740480D02*
X11742200Y-16840480D01*
X11742200Y-16740480D02*
X11642200Y-16840480D01*
X11742200Y-16790480D02*
G75*
G03*
X11742200Y-16790480I-50000J0D01*
G01*
X13435400Y-17465260D02*
X13535400Y-17565260D01*
X13535400Y-17465260D02*
X13435400Y-17565260D01*
X13535400Y-17515260D02*
G75*
G03*
X13535400Y-17515260I-50000J0D01*
G01*
X13689400Y-17465260D02*
X13789400Y-17565260D01*
X13789400Y-17465260D02*
X13689400Y-17565260D01*
X13789400Y-17515260D02*
G75*
G03*
X13789400Y-17515260I-50000J0D01*
G01*
X13943400Y-17465260D02*
X14043400Y-17565260D01*
X14043400Y-17465260D02*
X13943400Y-17565260D01*
X14043400Y-17515260D02*
G75*
G03*
X14043400Y-17515260I-50000J0D01*
G01*
X14197400Y-17465260D02*
X14297400Y-17565260D01*
X14297400Y-17465260D02*
X14197400Y-17565260D01*
X14297400Y-17515260D02*
G75*
G03*
X14297400Y-17515260I-50000J0D01*
G01*
X14451400Y-17465260D02*
X14551400Y-17565260D01*
X14551400Y-17465260D02*
X14451400Y-17565260D01*
X14551400Y-17515260D02*
G75*
G03*
X14551400Y-17515260I-50000J0D01*
G01*
X14817700Y-17215760D02*
X14917700Y-17315760D01*
X14917700Y-17215760D02*
X14817700Y-17315760D01*
X14917700Y-17265760D02*
G75*
G03*
X14917700Y-17265760I-50000J0D01*
G01*
X14817700Y-17469760D02*
X14917700Y-17569760D01*
X14917700Y-17469760D02*
X14817700Y-17569760D01*
X14917700Y-17519760D02*
G75*
G03*
X14917700Y-17519760I-50000J0D01*
G01*
X15071700Y-17215760D02*
X15171700Y-17315760D01*
X15171700Y-17215760D02*
X15071700Y-17315760D01*
X15171700Y-17265760D02*
G75*
G03*
X15171700Y-17265760I-50000J0D01*
G01*
X15071700Y-17469760D02*
X15171700Y-17569760D01*
X15171700Y-17469760D02*
X15071700Y-17569760D01*
X15171700Y-17519760D02*
G75*
G03*
X15171700Y-17519760I-50000J0D01*
G01*
X15325700Y-17215760D02*
X15425700Y-17315760D01*
X15425700Y-17215760D02*
X15325700Y-17315760D01*
X15425700Y-17265760D02*
G75*
G03*
X15425700Y-17265760I-50000J0D01*
G01*
X15325700Y-17469760D02*
X15425700Y-17569760D01*
X15425700Y-17469760D02*
X15325700Y-17569760D01*
X15425700Y-17519760D02*
G75*
G03*
X15425700Y-17519760I-50000J0D01*
G01*
X15579700Y-17215760D02*
X15679700Y-17315760D01*
X15679700Y-17215760D02*
X15579700Y-17315760D01*
X15679700Y-17265760D02*
G75*
G03*
X15679700Y-17265760I-50000J0D01*
G01*
X15579700Y-17469760D02*
X15679700Y-17569760D01*
X15679700Y-17469760D02*
X15579700Y-17569760D01*
X15679700Y-17519760D02*
G75*
G03*
X15679700Y-17519760I-50000J0D01*
G01*
X16022580Y-15281480D02*
X16122580Y-15381480D01*
X16122580Y-15281480D02*
X16022580Y-15381480D01*
X16122580Y-15331480D02*
G75*
G03*
X16122580Y-15331480I-50000J0D01*
G01*
X16022580Y-15642160D02*
X16122580Y-15742160D01*
X16122580Y-15642160D02*
X16022580Y-15742160D01*
X16122580Y-15692160D02*
G75*
G03*
X16122580Y-15692160I-50000J0D01*
G01*
X16022580Y-16005380D02*
X16122580Y-16105380D01*
X16122580Y-16005380D02*
X16022580Y-16105380D01*
X16122580Y-16055380D02*
G75*
G03*
X16122580Y-16055380I-50000J0D01*
G01*
X16022580Y-16366840D02*
X16122580Y-16466840D01*
X16122580Y-16366840D02*
X16022580Y-16466840D01*
X16122580Y-16416840D02*
G75*
G03*
X16122580Y-16416840I-50000J0D01*
G01*
X16022580Y-16729280D02*
X16122580Y-16829280D01*
X16122580Y-16729280D02*
X16022580Y-16829280D01*
X16122580Y-16779280D02*
G75*
G03*
X16122580Y-16779280I-50000J0D01*
G01*
X16276580Y-15281480D02*
X16376580Y-15381480D01*
X16376580Y-15281480D02*
X16276580Y-15381480D01*
X16376580Y-15331480D02*
G75*
G03*
X16376580Y-15331480I-50000J0D01*
G01*
X16276580Y-15642160D02*
X16376580Y-15742160D01*
X16376580Y-15642160D02*
X16276580Y-15742160D01*
X16376580Y-15692160D02*
G75*
G03*
X16376580Y-15692160I-50000J0D01*
G01*
X16276580Y-16005380D02*
X16376580Y-16105380D01*
X16376580Y-16005380D02*
X16276580Y-16105380D01*
X16376580Y-16055380D02*
G75*
G03*
X16376580Y-16055380I-50000J0D01*
G01*
X16276580Y-16366840D02*
X16376580Y-16466840D01*
X16376580Y-16366840D02*
X16276580Y-16466840D01*
X16376580Y-16416840D02*
G75*
G03*
X16376580Y-16416840I-50000J0D01*
G01*
X16276580Y-16729280D02*
X16376580Y-16829280D01*
X16376580Y-16729280D02*
X16276580Y-16829280D01*
X16376580Y-16779280D02*
G75*
G03*
X16376580Y-16779280I-50000J0D01*
G01*
D17*
X11738360Y-13647960D02*
X11868360Y-13777960D01*
X11868360Y-13647960D02*
X11738360Y-13777960D01*
X11803360Y-13647960D02*
X11803360Y-13777960D01*
X11738360Y-13712960D02*
X11868360Y-13712960D01*
X11738360Y-14155960D02*
X11868360Y-14285960D01*
X11868360Y-14155960D02*
X11738360Y-14285960D01*
X11803360Y-14155960D02*
X11803360Y-14285960D01*
X11738360Y-14220960D02*
X11868360Y-14220960D01*
X11738360Y-14663960D02*
X11868360Y-14793960D01*
X11868360Y-14663960D02*
X11738360Y-14793960D01*
X11803360Y-14663960D02*
X11803360Y-14793960D01*
X11738360Y-14728960D02*
X11868360Y-14728960D01*
X16183380Y-13653540D02*
X16313380Y-13783540D01*
X16313380Y-13653540D02*
X16183380Y-13783540D01*
X16248380Y-13653540D02*
X16248380Y-13783540D01*
X16183380Y-13718540D02*
X16313380Y-13718540D01*
X16183380Y-14161540D02*
X16313380Y-14291540D01*
X16313380Y-14161540D02*
X16183380Y-14291540D01*
X16248380Y-14161540D02*
X16248380Y-14291540D01*
X16183380Y-14226540D02*
X16313380Y-14226540D01*
X16183380Y-14669540D02*
X16313380Y-14799540D01*
X16313380Y-14669540D02*
X16183380Y-14799540D01*
X16248380Y-14669540D02*
X16248380Y-14799540D01*
X16183380Y-14734540D02*
X16313380Y-14734540D01*
D18*
X13080040Y-12934800D02*
X13220040Y-13074800D01*
X13220040Y-12934800D02*
X13080040Y-13074800D01*
X13199538Y-13054298D02*
X13199538Y-12955302D01*
X13100542Y-12955302D01*
X13100542Y-13054298D01*
X13199538Y-13054298D01*
D11*
X13120040Y-13074800D02*
X13180040Y-13074800D01*
X13180040Y-13074800D02*
G75*
G03*
X13180040Y-12934800I0J70000D01*
G01*
X13180040Y-12934800D02*
X13120040Y-12934800D01*
X13120040Y-12934800D02*
G75*
G03*
X13120040Y-13074800I0J-70000D01*
G01*
D18*
X13480040Y-12934800D02*
X13620040Y-13074800D01*
X13620040Y-12934800D02*
X13480040Y-13074800D01*
X13599538Y-13054298D02*
X13599538Y-12955302D01*
X13500542Y-12955302D01*
X13500542Y-13054298D01*
X13599538Y-13054298D01*
D11*
X13520040Y-13074800D02*
X13580040Y-13074800D01*
X13580040Y-13074800D02*
G75*
G03*
X13580040Y-12934800I0J70000D01*
G01*
X13580040Y-12934800D02*
X13520040Y-12934800D01*
X13520040Y-12934800D02*
G75*
G03*
X13520040Y-13074800I0J-70000D01*
G01*
D18*
X13880040Y-12934800D02*
X14020040Y-13074800D01*
X14020040Y-12934800D02*
X13880040Y-13074800D01*
X13999538Y-13054298D02*
X13999538Y-12955302D01*
X13900542Y-12955302D01*
X13900542Y-13054298D01*
X13999538Y-13054298D01*
D11*
X13920040Y-13074800D02*
X13980040Y-13074800D01*
X13980040Y-13074800D02*
G75*
G03*
X13980040Y-12934800I0J70000D01*
G01*
X13980040Y-12934800D02*
X13920040Y-12934800D01*
X13920040Y-12934800D02*
G75*
G03*
X13920040Y-13074800I0J-70000D01*
G01*
D18*
X14284040Y-12931800D02*
X14424040Y-13071800D01*
X14424040Y-12931800D02*
X14284040Y-13071800D01*
X14403538Y-13051298D02*
X14403538Y-12952302D01*
X14304542Y-12952302D01*
X14304542Y-13051298D01*
X14403538Y-13051298D01*
D11*
X14324040Y-13071800D02*
X14384040Y-13071800D01*
X14384040Y-13071800D02*
G75*
G03*
X14384040Y-12931800I0J70000D01*
G01*
X14384040Y-12931800D02*
X14324040Y-12931800D01*
X14324040Y-12931800D02*
G75*
G03*
X14324040Y-13071800I0J-70000D01*
G01*
D18*
X15077040Y-12934800D02*
X15217040Y-13074800D01*
X15217040Y-12934800D02*
X15077040Y-13074800D01*
X15196538Y-13054298D02*
X15196538Y-12955302D01*
X15097542Y-12955302D01*
X15097542Y-13054298D01*
X15196538Y-13054298D01*
D11*
X15117040Y-13074800D02*
X15177040Y-13074800D01*
X15177040Y-13074800D02*
G75*
G03*
X15177040Y-12934800I0J70000D01*
G01*
X15177040Y-12934800D02*
X15117040Y-12934800D01*
X15117040Y-12934800D02*
G75*
G03*
X15117040Y-13074800I0J-70000D01*
G01*
D18*
X15480040Y-12934800D02*
X15620040Y-13074800D01*
X15620040Y-12934800D02*
X15480040Y-13074800D01*
X15599538Y-13054298D02*
X15599538Y-12955302D01*
X15500542Y-12955302D01*
X15500542Y-13054298D01*
X15599538Y-13054298D01*
D11*
X15520040Y-13074800D02*
X15580040Y-13074800D01*
X15580040Y-13074800D02*
G75*
G03*
X15580040Y-12934800I0J70000D01*
G01*
X15580040Y-12934800D02*
X15520040Y-12934800D01*
X15520040Y-12934800D02*
G75*
G03*
X15520040Y-13074800I0J-70000D01*
G01*
D19*
X11778000Y-12921000D02*
X12098000Y-13241000D01*
X12098000Y-12921000D02*
X11778000Y-13241000D01*
X11938000Y-13241000D02*
X12098000Y-13081000D01*
X11938000Y-12921000D01*
X11778000Y-13081000D01*
X11938000Y-13241000D01*
X11778000Y-17112000D02*
X12098000Y-17432000D01*
X12098000Y-17112000D02*
X11778000Y-17432000D01*
X11938000Y-17432000D02*
X12098000Y-17272000D01*
X11938000Y-17112000D01*
X11778000Y-17272000D01*
X11938000Y-17432000D01*
X15969000Y-12921000D02*
X16289000Y-13241000D01*
X16289000Y-12921000D02*
X15969000Y-13241000D01*
X16129000Y-13241000D02*
X16289000Y-13081000D01*
X16129000Y-12921000D01*
X15969000Y-13081000D01*
X16129000Y-13241000D01*
X15969000Y-17112000D02*
X16289000Y-17432000D01*
X16289000Y-17112000D02*
X15969000Y-17432000D01*
X16129000Y-17432000D02*
X16289000Y-17272000D01*
X16129000Y-17112000D01*
X15969000Y-17272000D01*
X16129000Y-17432000D01*
D11*
X11786919Y-17964176D02*
X11786919Y-17764176D01*
X11786919Y-17764176D02*
X11834538Y-17764176D01*
X11834538Y-17764176D02*
X11863109Y-17773700D01*
X11863109Y-17773700D02*
X11882157Y-17792748D01*
X11882157Y-17792748D02*
X11891681Y-17811795D01*
X11891681Y-17811795D02*
X11901205Y-17849890D01*
X11901205Y-17849890D02*
X11901205Y-17878462D01*
X11901205Y-17878462D02*
X11891681Y-17916557D01*
X11891681Y-17916557D02*
X11882157Y-17935605D01*
X11882157Y-17935605D02*
X11863109Y-17954652D01*
X11863109Y-17954652D02*
X11834538Y-17964176D01*
X11834538Y-17964176D02*
X11786919Y-17964176D01*
X11986919Y-17964176D02*
X11986919Y-17830843D01*
X11986919Y-17868938D02*
X11996443Y-17849890D01*
X11996443Y-17849890D02*
X12005967Y-17840367D01*
X12005967Y-17840367D02*
X12025014Y-17830843D01*
X12025014Y-17830843D02*
X12044062Y-17830843D01*
X12110728Y-17964176D02*
X12110728Y-17830843D01*
X12110728Y-17764176D02*
X12101205Y-17773700D01*
X12101205Y-17773700D02*
X12110728Y-17783224D01*
X12110728Y-17783224D02*
X12120252Y-17773700D01*
X12120252Y-17773700D02*
X12110728Y-17764176D01*
X12110728Y-17764176D02*
X12110728Y-17783224D01*
X12234538Y-17964176D02*
X12215490Y-17954652D01*
X12215490Y-17954652D02*
X12205967Y-17935605D01*
X12205967Y-17935605D02*
X12205967Y-17764176D01*
X12339300Y-17964176D02*
X12320252Y-17954652D01*
X12320252Y-17954652D02*
X12310728Y-17935605D01*
X12310728Y-17935605D02*
X12310728Y-17764176D01*
X12535490Y-17964176D02*
X12535490Y-17764176D01*
X12535490Y-17764176D02*
X12602157Y-17907033D01*
X12602157Y-17907033D02*
X12668824Y-17764176D01*
X12668824Y-17764176D02*
X12668824Y-17964176D01*
X12849776Y-17964176D02*
X12849776Y-17859414D01*
X12849776Y-17859414D02*
X12840252Y-17840367D01*
X12840252Y-17840367D02*
X12821205Y-17830843D01*
X12821205Y-17830843D02*
X12783109Y-17830843D01*
X12783109Y-17830843D02*
X12764062Y-17840367D01*
X12849776Y-17954652D02*
X12830728Y-17964176D01*
X12830728Y-17964176D02*
X12783109Y-17964176D01*
X12783109Y-17964176D02*
X12764062Y-17954652D01*
X12764062Y-17954652D02*
X12754538Y-17935605D01*
X12754538Y-17935605D02*
X12754538Y-17916557D01*
X12754538Y-17916557D02*
X12764062Y-17897510D01*
X12764062Y-17897510D02*
X12783109Y-17887986D01*
X12783109Y-17887986D02*
X12830728Y-17887986D01*
X12830728Y-17887986D02*
X12849776Y-17878462D01*
X12945014Y-17830843D02*
X12945014Y-18030843D01*
X12945014Y-17840367D02*
X12964062Y-17830843D01*
X12964062Y-17830843D02*
X13002157Y-17830843D01*
X13002157Y-17830843D02*
X13021205Y-17840367D01*
X13021205Y-17840367D02*
X13030728Y-17849890D01*
X13030728Y-17849890D02*
X13040252Y-17868938D01*
X13040252Y-17868938D02*
X13040252Y-17926081D01*
X13040252Y-17926081D02*
X13030728Y-17945129D01*
X13030728Y-17945129D02*
X13021205Y-17954652D01*
X13021205Y-17954652D02*
X13002157Y-17964176D01*
X13002157Y-17964176D02*
X12964062Y-17964176D01*
X12964062Y-17964176D02*
X12945014Y-17954652D01*
X13125967Y-17945129D02*
X13135490Y-17954652D01*
X13135490Y-17954652D02*
X13125967Y-17964176D01*
X13125967Y-17964176D02*
X13116443Y-17954652D01*
X13116443Y-17954652D02*
X13125967Y-17945129D01*
X13125967Y-17945129D02*
X13125967Y-17964176D01*
X13125967Y-17840367D02*
X13135490Y-17849890D01*
X13135490Y-17849890D02*
X13125967Y-17859414D01*
X13125967Y-17859414D02*
X13116443Y-17849890D01*
X13116443Y-17849890D02*
X13125967Y-17840367D01*
X13125967Y-17840367D02*
X13125967Y-17859414D01*
D12*
X11519300Y-18300700D02*
X11539300Y-18320700D01*
X11539300Y-18300700D02*
X11519300Y-18320700D01*
D11*
X11825014Y-18184176D02*
X11844062Y-18184176D01*
X11844062Y-18184176D02*
X11863109Y-18193700D01*
X11863109Y-18193700D02*
X11872633Y-18203224D01*
X11872633Y-18203224D02*
X11882157Y-18222271D01*
X11882157Y-18222271D02*
X11891681Y-18260367D01*
X11891681Y-18260367D02*
X11891681Y-18307986D01*
X11891681Y-18307986D02*
X11882157Y-18346081D01*
X11882157Y-18346081D02*
X11872633Y-18365129D01*
X11872633Y-18365129D02*
X11863109Y-18374652D01*
X11863109Y-18374652D02*
X11844062Y-18384176D01*
X11844062Y-18384176D02*
X11825014Y-18384176D01*
X11825014Y-18384176D02*
X11805967Y-18374652D01*
X11805967Y-18374652D02*
X11796443Y-18365129D01*
X11796443Y-18365129D02*
X11786919Y-18346081D01*
X11786919Y-18346081D02*
X11777395Y-18307986D01*
X11777395Y-18307986D02*
X11777395Y-18260367D01*
X11777395Y-18260367D02*
X11786919Y-18222271D01*
X11786919Y-18222271D02*
X11796443Y-18203224D01*
X11796443Y-18203224D02*
X11805967Y-18193700D01*
X11805967Y-18193700D02*
X11825014Y-18184176D01*
X11977395Y-18365129D02*
X11986919Y-18374652D01*
X11986919Y-18374652D02*
X11977395Y-18384176D01*
X11977395Y-18384176D02*
X11967871Y-18374652D01*
X11967871Y-18374652D02*
X11977395Y-18365129D01*
X11977395Y-18365129D02*
X11977395Y-18384176D01*
X12063109Y-18203224D02*
X12072633Y-18193700D01*
X12072633Y-18193700D02*
X12091681Y-18184176D01*
X12091681Y-18184176D02*
X12139300Y-18184176D01*
X12139300Y-18184176D02*
X12158348Y-18193700D01*
X12158348Y-18193700D02*
X12167871Y-18203224D01*
X12167871Y-18203224D02*
X12177395Y-18222271D01*
X12177395Y-18222271D02*
X12177395Y-18241319D01*
X12177395Y-18241319D02*
X12167871Y-18269890D01*
X12167871Y-18269890D02*
X12053586Y-18384176D01*
X12053586Y-18384176D02*
X12177395Y-18384176D01*
X12301205Y-18184176D02*
X12320252Y-18184176D01*
X12320252Y-18184176D02*
X12339300Y-18193700D01*
X12339300Y-18193700D02*
X12348824Y-18203224D01*
X12348824Y-18203224D02*
X12358348Y-18222271D01*
X12358348Y-18222271D02*
X12367871Y-18260367D01*
X12367871Y-18260367D02*
X12367871Y-18307986D01*
X12367871Y-18307986D02*
X12358348Y-18346081D01*
X12358348Y-18346081D02*
X12348824Y-18365129D01*
X12348824Y-18365129D02*
X12339300Y-18374652D01*
X12339300Y-18374652D02*
X12320252Y-18384176D01*
X12320252Y-18384176D02*
X12301205Y-18384176D01*
X12301205Y-18384176D02*
X12282157Y-18374652D01*
X12282157Y-18374652D02*
X12272633Y-18365129D01*
X12272633Y-18365129D02*
X12263109Y-18346081D01*
X12263109Y-18346081D02*
X12253586Y-18307986D01*
X12253586Y-18307986D02*
X12253586Y-18260367D01*
X12253586Y-18260367D02*
X12263109Y-18222271D01*
X12263109Y-18222271D02*
X12272633Y-18203224D01*
X12272633Y-18203224D02*
X12282157Y-18193700D01*
X12282157Y-18193700D02*
X12301205Y-18184176D01*
X12491681Y-18184176D02*
X12510729Y-18184176D01*
X12510729Y-18184176D02*
X12529776Y-18193700D01*
X12529776Y-18193700D02*
X12539300Y-18203224D01*
X12539300Y-18203224D02*
X12548824Y-18222271D01*
X12548824Y-18222271D02*
X12558348Y-18260367D01*
X12558348Y-18260367D02*
X12558348Y-18307986D01*
X12558348Y-18307986D02*
X12548824Y-18346081D01*
X12548824Y-18346081D02*
X12539300Y-18365129D01*
X12539300Y-18365129D02*
X12529776Y-18374652D01*
X12529776Y-18374652D02*
X12510729Y-18384176D01*
X12510729Y-18384176D02*
X12491681Y-18384176D01*
X12491681Y-18384176D02*
X12472633Y-18374652D01*
X12472633Y-18374652D02*
X12463109Y-18365129D01*
X12463109Y-18365129D02*
X12453586Y-18346081D01*
X12453586Y-18346081D02*
X12444062Y-18307986D01*
X12444062Y-18307986D02*
X12444062Y-18260367D01*
X12444062Y-18260367D02*
X12453586Y-18222271D01*
X12453586Y-18222271D02*
X12463109Y-18203224D01*
X12463109Y-18203224D02*
X12472633Y-18193700D01*
X12472633Y-18193700D02*
X12491681Y-18184176D01*
X12644062Y-18384176D02*
X12644062Y-18250843D01*
X12644062Y-18269890D02*
X12653586Y-18260367D01*
X12653586Y-18260367D02*
X12672633Y-18250843D01*
X12672633Y-18250843D02*
X12701205Y-18250843D01*
X12701205Y-18250843D02*
X12720252Y-18260367D01*
X12720252Y-18260367D02*
X12729776Y-18279414D01*
X12729776Y-18279414D02*
X12729776Y-18384176D01*
X12729776Y-18279414D02*
X12739300Y-18260367D01*
X12739300Y-18260367D02*
X12758348Y-18250843D01*
X12758348Y-18250843D02*
X12786919Y-18250843D01*
X12786919Y-18250843D02*
X12805967Y-18260367D01*
X12805967Y-18260367D02*
X12815490Y-18279414D01*
X12815490Y-18279414D02*
X12815490Y-18384176D01*
X12910729Y-18384176D02*
X12910729Y-18250843D01*
X12910729Y-18269890D02*
X12920252Y-18260367D01*
X12920252Y-18260367D02*
X12939300Y-18250843D01*
X12939300Y-18250843D02*
X12967871Y-18250843D01*
X12967871Y-18250843D02*
X12986919Y-18260367D01*
X12986919Y-18260367D02*
X12996443Y-18279414D01*
X12996443Y-18279414D02*
X12996443Y-18384176D01*
X12996443Y-18279414D02*
X13005967Y-18260367D01*
X13005967Y-18260367D02*
X13025014Y-18250843D01*
X13025014Y-18250843D02*
X13053586Y-18250843D01*
X13053586Y-18250843D02*
X13072633Y-18260367D01*
X13072633Y-18260367D02*
X13082157Y-18279414D01*
X13082157Y-18279414D02*
X13082157Y-18384176D01*
X13440252Y-18174652D02*
X13268824Y-18431795D01*
X13665014Y-18184176D02*
X13684062Y-18184176D01*
X13684062Y-18184176D02*
X13703110Y-18193700D01*
X13703110Y-18193700D02*
X13712633Y-18203224D01*
X13712633Y-18203224D02*
X13722157Y-18222271D01*
X13722157Y-18222271D02*
X13731681Y-18260367D01*
X13731681Y-18260367D02*
X13731681Y-18307986D01*
X13731681Y-18307986D02*
X13722157Y-18346081D01*
X13722157Y-18346081D02*
X13712633Y-18365129D01*
X13712633Y-18365129D02*
X13703110Y-18374652D01*
X13703110Y-18374652D02*
X13684062Y-18384176D01*
X13684062Y-18384176D02*
X13665014Y-18384176D01*
X13665014Y-18384176D02*
X13645967Y-18374652D01*
X13645967Y-18374652D02*
X13636443Y-18365129D01*
X13636443Y-18365129D02*
X13626919Y-18346081D01*
X13626919Y-18346081D02*
X13617395Y-18307986D01*
X13617395Y-18307986D02*
X13617395Y-18260367D01*
X13617395Y-18260367D02*
X13626919Y-18222271D01*
X13626919Y-18222271D02*
X13636443Y-18203224D01*
X13636443Y-18203224D02*
X13645967Y-18193700D01*
X13645967Y-18193700D02*
X13665014Y-18184176D01*
X13817395Y-18365129D02*
X13826919Y-18374652D01*
X13826919Y-18374652D02*
X13817395Y-18384176D01*
X13817395Y-18384176D02*
X13807871Y-18374652D01*
X13807871Y-18374652D02*
X13817395Y-18365129D01*
X13817395Y-18365129D02*
X13817395Y-18384176D01*
X13950729Y-18184176D02*
X13969776Y-18184176D01*
X13969776Y-18184176D02*
X13988824Y-18193700D01*
X13988824Y-18193700D02*
X13998348Y-18203224D01*
X13998348Y-18203224D02*
X14007871Y-18222271D01*
X14007871Y-18222271D02*
X14017395Y-18260367D01*
X14017395Y-18260367D02*
X14017395Y-18307986D01*
X14017395Y-18307986D02*
X14007871Y-18346081D01*
X14007871Y-18346081D02*
X13998348Y-18365129D01*
X13998348Y-18365129D02*
X13988824Y-18374652D01*
X13988824Y-18374652D02*
X13969776Y-18384176D01*
X13969776Y-18384176D02*
X13950729Y-18384176D01*
X13950729Y-18384176D02*
X13931681Y-18374652D01*
X13931681Y-18374652D02*
X13922157Y-18365129D01*
X13922157Y-18365129D02*
X13912633Y-18346081D01*
X13912633Y-18346081D02*
X13903110Y-18307986D01*
X13903110Y-18307986D02*
X13903110Y-18260367D01*
X13903110Y-18260367D02*
X13912633Y-18222271D01*
X13912633Y-18222271D02*
X13922157Y-18203224D01*
X13922157Y-18203224D02*
X13931681Y-18193700D01*
X13931681Y-18193700D02*
X13950729Y-18184176D01*
X14141205Y-18184176D02*
X14160252Y-18184176D01*
X14160252Y-18184176D02*
X14179300Y-18193700D01*
X14179300Y-18193700D02*
X14188824Y-18203224D01*
X14188824Y-18203224D02*
X14198348Y-18222271D01*
X14198348Y-18222271D02*
X14207871Y-18260367D01*
X14207871Y-18260367D02*
X14207871Y-18307986D01*
X14207871Y-18307986D02*
X14198348Y-18346081D01*
X14198348Y-18346081D02*
X14188824Y-18365129D01*
X14188824Y-18365129D02*
X14179300Y-18374652D01*
X14179300Y-18374652D02*
X14160252Y-18384176D01*
X14160252Y-18384176D02*
X14141205Y-18384176D01*
X14141205Y-18384176D02*
X14122157Y-18374652D01*
X14122157Y-18374652D02*
X14112633Y-18365129D01*
X14112633Y-18365129D02*
X14103110Y-18346081D01*
X14103110Y-18346081D02*
X14093586Y-18307986D01*
X14093586Y-18307986D02*
X14093586Y-18260367D01*
X14093586Y-18260367D02*
X14103110Y-18222271D01*
X14103110Y-18222271D02*
X14112633Y-18203224D01*
X14112633Y-18203224D02*
X14122157Y-18193700D01*
X14122157Y-18193700D02*
X14141205Y-18184176D01*
X14274538Y-18184176D02*
X14407871Y-18184176D01*
X14407871Y-18184176D02*
X14322157Y-18384176D01*
X14493586Y-18384176D02*
X14531681Y-18384176D01*
X14531681Y-18384176D02*
X14550729Y-18374652D01*
X14550729Y-18374652D02*
X14560252Y-18365129D01*
X14560252Y-18365129D02*
X14579300Y-18336557D01*
X14579300Y-18336557D02*
X14588824Y-18298462D01*
X14588824Y-18298462D02*
X14588824Y-18222271D01*
X14588824Y-18222271D02*
X14579300Y-18203224D01*
X14579300Y-18203224D02*
X14569776Y-18193700D01*
X14569776Y-18193700D02*
X14550729Y-18184176D01*
X14550729Y-18184176D02*
X14512633Y-18184176D01*
X14512633Y-18184176D02*
X14493586Y-18193700D01*
X14493586Y-18193700D02*
X14484062Y-18203224D01*
X14484062Y-18203224D02*
X14474538Y-18222271D01*
X14474538Y-18222271D02*
X14474538Y-18269890D01*
X14474538Y-18269890D02*
X14484062Y-18288938D01*
X14484062Y-18288938D02*
X14493586Y-18298462D01*
X14493586Y-18298462D02*
X14512633Y-18307986D01*
X14512633Y-18307986D02*
X14550729Y-18307986D01*
X14550729Y-18307986D02*
X14569776Y-18298462D01*
X14569776Y-18298462D02*
X14579300Y-18288938D01*
X14579300Y-18288938D02*
X14588824Y-18269890D01*
X14665014Y-18184176D02*
X14665014Y-18222271D01*
X14741205Y-18184176D02*
X14741205Y-18222271D01*
X15004062Y-18460367D02*
X14994538Y-18450843D01*
X14994538Y-18450843D02*
X14975491Y-18422271D01*
X14975491Y-18422271D02*
X14965967Y-18403224D01*
X14965967Y-18403224D02*
X14956443Y-18374652D01*
X14956443Y-18374652D02*
X14946919Y-18327033D01*
X14946919Y-18327033D02*
X14946919Y-18288938D01*
X14946919Y-18288938D02*
X14956443Y-18241319D01*
X14956443Y-18241319D02*
X14965967Y-18212748D01*
X14965967Y-18212748D02*
X14975491Y-18193700D01*
X14975491Y-18193700D02*
X14994538Y-18165129D01*
X14994538Y-18165129D02*
X15004062Y-18155605D01*
X15185014Y-18384176D02*
X15070729Y-18384176D01*
X15127871Y-18384176D02*
X15127871Y-18184176D01*
X15127871Y-18184176D02*
X15108824Y-18212748D01*
X15108824Y-18212748D02*
X15089776Y-18231795D01*
X15089776Y-18231795D02*
X15070729Y-18241319D01*
X15356443Y-18184176D02*
X15318348Y-18184176D01*
X15318348Y-18184176D02*
X15299300Y-18193700D01*
X15299300Y-18193700D02*
X15289776Y-18203224D01*
X15289776Y-18203224D02*
X15270729Y-18231795D01*
X15270729Y-18231795D02*
X15261205Y-18269890D01*
X15261205Y-18269890D02*
X15261205Y-18346081D01*
X15261205Y-18346081D02*
X15270729Y-18365129D01*
X15270729Y-18365129D02*
X15280252Y-18374652D01*
X15280252Y-18374652D02*
X15299300Y-18384176D01*
X15299300Y-18384176D02*
X15337395Y-18384176D01*
X15337395Y-18384176D02*
X15356443Y-18374652D01*
X15356443Y-18374652D02*
X15365967Y-18365129D01*
X15365967Y-18365129D02*
X15375491Y-18346081D01*
X15375491Y-18346081D02*
X15375491Y-18298462D01*
X15375491Y-18298462D02*
X15365967Y-18279414D01*
X15365967Y-18279414D02*
X15356443Y-18269890D01*
X15356443Y-18269890D02*
X15337395Y-18260367D01*
X15337395Y-18260367D02*
X15299300Y-18260367D01*
X15299300Y-18260367D02*
X15280252Y-18269890D01*
X15280252Y-18269890D02*
X15270729Y-18279414D01*
X15270729Y-18279414D02*
X15261205Y-18298462D01*
X15581205Y-18384176D02*
X15581205Y-18184176D01*
X15666919Y-18384176D02*
X15666919Y-18279414D01*
X15666919Y-18279414D02*
X15657395Y-18260367D01*
X15657395Y-18260367D02*
X15638348Y-18250843D01*
X15638348Y-18250843D02*
X15609776Y-18250843D01*
X15609776Y-18250843D02*
X15590729Y-18260367D01*
X15590729Y-18260367D02*
X15581205Y-18269890D01*
X15790729Y-18384176D02*
X15771681Y-18374652D01*
X15771681Y-18374652D02*
X15762157Y-18365129D01*
X15762157Y-18365129D02*
X15752633Y-18346081D01*
X15752633Y-18346081D02*
X15752633Y-18288938D01*
X15752633Y-18288938D02*
X15762157Y-18269890D01*
X15762157Y-18269890D02*
X15771681Y-18260367D01*
X15771681Y-18260367D02*
X15790729Y-18250843D01*
X15790729Y-18250843D02*
X15819300Y-18250843D01*
X15819300Y-18250843D02*
X15838348Y-18260367D01*
X15838348Y-18260367D02*
X15847872Y-18269890D01*
X15847872Y-18269890D02*
X15857395Y-18288938D01*
X15857395Y-18288938D02*
X15857395Y-18346081D01*
X15857395Y-18346081D02*
X15847872Y-18365129D01*
X15847872Y-18365129D02*
X15838348Y-18374652D01*
X15838348Y-18374652D02*
X15819300Y-18384176D01*
X15819300Y-18384176D02*
X15790729Y-18384176D01*
X15971681Y-18384176D02*
X15952633Y-18374652D01*
X15952633Y-18374652D02*
X15943110Y-18355605D01*
X15943110Y-18355605D02*
X15943110Y-18184176D01*
X16124062Y-18374652D02*
X16105014Y-18384176D01*
X16105014Y-18384176D02*
X16066919Y-18384176D01*
X16066919Y-18384176D02*
X16047872Y-18374652D01*
X16047872Y-18374652D02*
X16038348Y-18355605D01*
X16038348Y-18355605D02*
X16038348Y-18279414D01*
X16038348Y-18279414D02*
X16047872Y-18260367D01*
X16047872Y-18260367D02*
X16066919Y-18250843D01*
X16066919Y-18250843D02*
X16105014Y-18250843D01*
X16105014Y-18250843D02*
X16124062Y-18260367D01*
X16124062Y-18260367D02*
X16133586Y-18279414D01*
X16133586Y-18279414D02*
X16133586Y-18298462D01*
X16133586Y-18298462D02*
X16038348Y-18317510D01*
X16209776Y-18374652D02*
X16228824Y-18384176D01*
X16228824Y-18384176D02*
X16266919Y-18384176D01*
X16266919Y-18384176D02*
X16285967Y-18374652D01*
X16285967Y-18374652D02*
X16295491Y-18355605D01*
X16295491Y-18355605D02*
X16295491Y-18346081D01*
X16295491Y-18346081D02*
X16285967Y-18327033D01*
X16285967Y-18327033D02*
X16266919Y-18317510D01*
X16266919Y-18317510D02*
X16238348Y-18317510D01*
X16238348Y-18317510D02*
X16219300Y-18307986D01*
X16219300Y-18307986D02*
X16209776Y-18288938D01*
X16209776Y-18288938D02*
X16209776Y-18279414D01*
X16209776Y-18279414D02*
X16219300Y-18260367D01*
X16219300Y-18260367D02*
X16238348Y-18250843D01*
X16238348Y-18250843D02*
X16266919Y-18250843D01*
X16266919Y-18250843D02*
X16285967Y-18260367D01*
X16362157Y-18460367D02*
X16371681Y-18450843D01*
X16371681Y-18450843D02*
X16390729Y-18422271D01*
X16390729Y-18422271D02*
X16400253Y-18403224D01*
X16400253Y-18403224D02*
X16409776Y-18374652D01*
X16409776Y-18374652D02*
X16419300Y-18327033D01*
X16419300Y-18327033D02*
X16419300Y-18288938D01*
X16419300Y-18288938D02*
X16409776Y-18241319D01*
X16409776Y-18241319D02*
X16400253Y-18212748D01*
X16400253Y-18212748D02*
X16390729Y-18193700D01*
X16390729Y-18193700D02*
X16371681Y-18165129D01*
X16371681Y-18165129D02*
X16362157Y-18155605D01*
D13*
X11539300Y-18574700D02*
G75*
G03*
X11539300Y-18574700I-20000J0D01*
G01*
D11*
X11825014Y-18448176D02*
X11844062Y-18448176D01*
X11844062Y-18448176D02*
X11863109Y-18457700D01*
X11863109Y-18457700D02*
X11872633Y-18467224D01*
X11872633Y-18467224D02*
X11882157Y-18486271D01*
X11882157Y-18486271D02*
X11891681Y-18524367D01*
X11891681Y-18524367D02*
X11891681Y-18571986D01*
X11891681Y-18571986D02*
X11882157Y-18610081D01*
X11882157Y-18610081D02*
X11872633Y-18629129D01*
X11872633Y-18629129D02*
X11863109Y-18638652D01*
X11863109Y-18638652D02*
X11844062Y-18648176D01*
X11844062Y-18648176D02*
X11825014Y-18648176D01*
X11825014Y-18648176D02*
X11805967Y-18638652D01*
X11805967Y-18638652D02*
X11796443Y-18629129D01*
X11796443Y-18629129D02*
X11786919Y-18610081D01*
X11786919Y-18610081D02*
X11777395Y-18571986D01*
X11777395Y-18571986D02*
X11777395Y-18524367D01*
X11777395Y-18524367D02*
X11786919Y-18486271D01*
X11786919Y-18486271D02*
X11796443Y-18467224D01*
X11796443Y-18467224D02*
X11805967Y-18457700D01*
X11805967Y-18457700D02*
X11825014Y-18448176D01*
X11977395Y-18629129D02*
X11986919Y-18638652D01*
X11986919Y-18638652D02*
X11977395Y-18648176D01*
X11977395Y-18648176D02*
X11967871Y-18638652D01*
X11967871Y-18638652D02*
X11977395Y-18629129D01*
X11977395Y-18629129D02*
X11977395Y-18648176D01*
X12158348Y-18514843D02*
X12158348Y-18648176D01*
X12110728Y-18438652D02*
X12063109Y-18581510D01*
X12063109Y-18581510D02*
X12186919Y-18581510D01*
X12301205Y-18448176D02*
X12320252Y-18448176D01*
X12320252Y-18448176D02*
X12339300Y-18457700D01*
X12339300Y-18457700D02*
X12348824Y-18467224D01*
X12348824Y-18467224D02*
X12358348Y-18486271D01*
X12358348Y-18486271D02*
X12367871Y-18524367D01*
X12367871Y-18524367D02*
X12367871Y-18571986D01*
X12367871Y-18571986D02*
X12358348Y-18610081D01*
X12358348Y-18610081D02*
X12348824Y-18629129D01*
X12348824Y-18629129D02*
X12339300Y-18638652D01*
X12339300Y-18638652D02*
X12320252Y-18648176D01*
X12320252Y-18648176D02*
X12301205Y-18648176D01*
X12301205Y-18648176D02*
X12282157Y-18638652D01*
X12282157Y-18638652D02*
X12272633Y-18629129D01*
X12272633Y-18629129D02*
X12263109Y-18610081D01*
X12263109Y-18610081D02*
X12253586Y-18571986D01*
X12253586Y-18571986D02*
X12253586Y-18524367D01*
X12253586Y-18524367D02*
X12263109Y-18486271D01*
X12263109Y-18486271D02*
X12272633Y-18467224D01*
X12272633Y-18467224D02*
X12282157Y-18457700D01*
X12282157Y-18457700D02*
X12301205Y-18448176D01*
X12491681Y-18448176D02*
X12510729Y-18448176D01*
X12510729Y-18448176D02*
X12529776Y-18457700D01*
X12529776Y-18457700D02*
X12539300Y-18467224D01*
X12539300Y-18467224D02*
X12548824Y-18486271D01*
X12548824Y-18486271D02*
X12558348Y-18524367D01*
X12558348Y-18524367D02*
X12558348Y-18571986D01*
X12558348Y-18571986D02*
X12548824Y-18610081D01*
X12548824Y-18610081D02*
X12539300Y-18629129D01*
X12539300Y-18629129D02*
X12529776Y-18638652D01*
X12529776Y-18638652D02*
X12510729Y-18648176D01*
X12510729Y-18648176D02*
X12491681Y-18648176D01*
X12491681Y-18648176D02*
X12472633Y-18638652D01*
X12472633Y-18638652D02*
X12463109Y-18629129D01*
X12463109Y-18629129D02*
X12453586Y-18610081D01*
X12453586Y-18610081D02*
X12444062Y-18571986D01*
X12444062Y-18571986D02*
X12444062Y-18524367D01*
X12444062Y-18524367D02*
X12453586Y-18486271D01*
X12453586Y-18486271D02*
X12463109Y-18467224D01*
X12463109Y-18467224D02*
X12472633Y-18457700D01*
X12472633Y-18457700D02*
X12491681Y-18448176D01*
X12644062Y-18648176D02*
X12644062Y-18514843D01*
X12644062Y-18533890D02*
X12653586Y-18524367D01*
X12653586Y-18524367D02*
X12672633Y-18514843D01*
X12672633Y-18514843D02*
X12701205Y-18514843D01*
X12701205Y-18514843D02*
X12720252Y-18524367D01*
X12720252Y-18524367D02*
X12729776Y-18543414D01*
X12729776Y-18543414D02*
X12729776Y-18648176D01*
X12729776Y-18543414D02*
X12739300Y-18524367D01*
X12739300Y-18524367D02*
X12758348Y-18514843D01*
X12758348Y-18514843D02*
X12786919Y-18514843D01*
X12786919Y-18514843D02*
X12805967Y-18524367D01*
X12805967Y-18524367D02*
X12815490Y-18543414D01*
X12815490Y-18543414D02*
X12815490Y-18648176D01*
X12910729Y-18648176D02*
X12910729Y-18514843D01*
X12910729Y-18533890D02*
X12920252Y-18524367D01*
X12920252Y-18524367D02*
X12939300Y-18514843D01*
X12939300Y-18514843D02*
X12967871Y-18514843D01*
X12967871Y-18514843D02*
X12986919Y-18524367D01*
X12986919Y-18524367D02*
X12996443Y-18543414D01*
X12996443Y-18543414D02*
X12996443Y-18648176D01*
X12996443Y-18543414D02*
X13005967Y-18524367D01*
X13005967Y-18524367D02*
X13025014Y-18514843D01*
X13025014Y-18514843D02*
X13053586Y-18514843D01*
X13053586Y-18514843D02*
X13072633Y-18524367D01*
X13072633Y-18524367D02*
X13082157Y-18543414D01*
X13082157Y-18543414D02*
X13082157Y-18648176D01*
X13440252Y-18438652D02*
X13268824Y-18695795D01*
X13665014Y-18448176D02*
X13684062Y-18448176D01*
X13684062Y-18448176D02*
X13703110Y-18457700D01*
X13703110Y-18457700D02*
X13712633Y-18467224D01*
X13712633Y-18467224D02*
X13722157Y-18486271D01*
X13722157Y-18486271D02*
X13731681Y-18524367D01*
X13731681Y-18524367D02*
X13731681Y-18571986D01*
X13731681Y-18571986D02*
X13722157Y-18610081D01*
X13722157Y-18610081D02*
X13712633Y-18629129D01*
X13712633Y-18629129D02*
X13703110Y-18638652D01*
X13703110Y-18638652D02*
X13684062Y-18648176D01*
X13684062Y-18648176D02*
X13665014Y-18648176D01*
X13665014Y-18648176D02*
X13645967Y-18638652D01*
X13645967Y-18638652D02*
X13636443Y-18629129D01*
X13636443Y-18629129D02*
X13626919Y-18610081D01*
X13626919Y-18610081D02*
X13617395Y-18571986D01*
X13617395Y-18571986D02*
X13617395Y-18524367D01*
X13617395Y-18524367D02*
X13626919Y-18486271D01*
X13626919Y-18486271D02*
X13636443Y-18467224D01*
X13636443Y-18467224D02*
X13645967Y-18457700D01*
X13645967Y-18457700D02*
X13665014Y-18448176D01*
X13817395Y-18629129D02*
X13826919Y-18638652D01*
X13826919Y-18638652D02*
X13817395Y-18648176D01*
X13817395Y-18648176D02*
X13807871Y-18638652D01*
X13807871Y-18638652D02*
X13817395Y-18629129D01*
X13817395Y-18629129D02*
X13817395Y-18648176D01*
X13950729Y-18448176D02*
X13969776Y-18448176D01*
X13969776Y-18448176D02*
X13988824Y-18457700D01*
X13988824Y-18457700D02*
X13998348Y-18467224D01*
X13998348Y-18467224D02*
X14007871Y-18486271D01*
X14007871Y-18486271D02*
X14017395Y-18524367D01*
X14017395Y-18524367D02*
X14017395Y-18571986D01*
X14017395Y-18571986D02*
X14007871Y-18610081D01*
X14007871Y-18610081D02*
X13998348Y-18629129D01*
X13998348Y-18629129D02*
X13988824Y-18638652D01*
X13988824Y-18638652D02*
X13969776Y-18648176D01*
X13969776Y-18648176D02*
X13950729Y-18648176D01*
X13950729Y-18648176D02*
X13931681Y-18638652D01*
X13931681Y-18638652D02*
X13922157Y-18629129D01*
X13922157Y-18629129D02*
X13912633Y-18610081D01*
X13912633Y-18610081D02*
X13903110Y-18571986D01*
X13903110Y-18571986D02*
X13903110Y-18524367D01*
X13903110Y-18524367D02*
X13912633Y-18486271D01*
X13912633Y-18486271D02*
X13922157Y-18467224D01*
X13922157Y-18467224D02*
X13931681Y-18457700D01*
X13931681Y-18457700D02*
X13950729Y-18448176D01*
X14207871Y-18648176D02*
X14093586Y-18648176D01*
X14150729Y-18648176D02*
X14150729Y-18448176D01*
X14150729Y-18448176D02*
X14131681Y-18476748D01*
X14131681Y-18476748D02*
X14112633Y-18495795D01*
X14112633Y-18495795D02*
X14093586Y-18505319D01*
X14388824Y-18448176D02*
X14293586Y-18448176D01*
X14293586Y-18448176D02*
X14284062Y-18543414D01*
X14284062Y-18543414D02*
X14293586Y-18533890D01*
X14293586Y-18533890D02*
X14312633Y-18524367D01*
X14312633Y-18524367D02*
X14360252Y-18524367D01*
X14360252Y-18524367D02*
X14379300Y-18533890D01*
X14379300Y-18533890D02*
X14388824Y-18543414D01*
X14388824Y-18543414D02*
X14398348Y-18562462D01*
X14398348Y-18562462D02*
X14398348Y-18610081D01*
X14398348Y-18610081D02*
X14388824Y-18629129D01*
X14388824Y-18629129D02*
X14379300Y-18638652D01*
X14379300Y-18638652D02*
X14360252Y-18648176D01*
X14360252Y-18648176D02*
X14312633Y-18648176D01*
X14312633Y-18648176D02*
X14293586Y-18638652D01*
X14293586Y-18638652D02*
X14284062Y-18629129D01*
X14465014Y-18448176D02*
X14598348Y-18448176D01*
X14598348Y-18448176D02*
X14512633Y-18648176D01*
X14665014Y-18448176D02*
X14665014Y-18486271D01*
X14741205Y-18448176D02*
X14741205Y-18486271D01*
X15004062Y-18724367D02*
X14994538Y-18714843D01*
X14994538Y-18714843D02*
X14975491Y-18686271D01*
X14975491Y-18686271D02*
X14965967Y-18667224D01*
X14965967Y-18667224D02*
X14956443Y-18638652D01*
X14956443Y-18638652D02*
X14946919Y-18591033D01*
X14946919Y-18591033D02*
X14946919Y-18552938D01*
X14946919Y-18552938D02*
X14956443Y-18505319D01*
X14956443Y-18505319D02*
X14965967Y-18476748D01*
X14965967Y-18476748D02*
X14975491Y-18457700D01*
X14975491Y-18457700D02*
X14994538Y-18429129D01*
X14994538Y-18429129D02*
X15004062Y-18419605D01*
X15061205Y-18448176D02*
X15194538Y-18448176D01*
X15194538Y-18448176D02*
X15108824Y-18648176D01*
X15356443Y-18448176D02*
X15318348Y-18448176D01*
X15318348Y-18448176D02*
X15299300Y-18457700D01*
X15299300Y-18457700D02*
X15289776Y-18467224D01*
X15289776Y-18467224D02*
X15270729Y-18495795D01*
X15270729Y-18495795D02*
X15261205Y-18533890D01*
X15261205Y-18533890D02*
X15261205Y-18610081D01*
X15261205Y-18610081D02*
X15270729Y-18629129D01*
X15270729Y-18629129D02*
X15280252Y-18638652D01*
X15280252Y-18638652D02*
X15299300Y-18648176D01*
X15299300Y-18648176D02*
X15337395Y-18648176D01*
X15337395Y-18648176D02*
X15356443Y-18638652D01*
X15356443Y-18638652D02*
X15365967Y-18629129D01*
X15365967Y-18629129D02*
X15375491Y-18610081D01*
X15375491Y-18610081D02*
X15375491Y-18562462D01*
X15375491Y-18562462D02*
X15365967Y-18543414D01*
X15365967Y-18543414D02*
X15356443Y-18533890D01*
X15356443Y-18533890D02*
X15337395Y-18524367D01*
X15337395Y-18524367D02*
X15299300Y-18524367D01*
X15299300Y-18524367D02*
X15280252Y-18533890D01*
X15280252Y-18533890D02*
X15270729Y-18543414D01*
X15270729Y-18543414D02*
X15261205Y-18562462D01*
X15581205Y-18648176D02*
X15581205Y-18448176D01*
X15666919Y-18648176D02*
X15666919Y-18543414D01*
X15666919Y-18543414D02*
X15657395Y-18524367D01*
X15657395Y-18524367D02*
X15638348Y-18514843D01*
X15638348Y-18514843D02*
X15609776Y-18514843D01*
X15609776Y-18514843D02*
X15590729Y-18524367D01*
X15590729Y-18524367D02*
X15581205Y-18533890D01*
X15790729Y-18648176D02*
X15771681Y-18638652D01*
X15771681Y-18638652D02*
X15762157Y-18629129D01*
X15762157Y-18629129D02*
X15752633Y-18610081D01*
X15752633Y-18610081D02*
X15752633Y-18552938D01*
X15752633Y-18552938D02*
X15762157Y-18533890D01*
X15762157Y-18533890D02*
X15771681Y-18524367D01*
X15771681Y-18524367D02*
X15790729Y-18514843D01*
X15790729Y-18514843D02*
X15819300Y-18514843D01*
X15819300Y-18514843D02*
X15838348Y-18524367D01*
X15838348Y-18524367D02*
X15847872Y-18533890D01*
X15847872Y-18533890D02*
X15857395Y-18552938D01*
X15857395Y-18552938D02*
X15857395Y-18610081D01*
X15857395Y-18610081D02*
X15847872Y-18629129D01*
X15847872Y-18629129D02*
X15838348Y-18638652D01*
X15838348Y-18638652D02*
X15819300Y-18648176D01*
X15819300Y-18648176D02*
X15790729Y-18648176D01*
X15971681Y-18648176D02*
X15952633Y-18638652D01*
X15952633Y-18638652D02*
X15943110Y-18619605D01*
X15943110Y-18619605D02*
X15943110Y-18448176D01*
X16124062Y-18638652D02*
X16105014Y-18648176D01*
X16105014Y-18648176D02*
X16066919Y-18648176D01*
X16066919Y-18648176D02*
X16047872Y-18638652D01*
X16047872Y-18638652D02*
X16038348Y-18619605D01*
X16038348Y-18619605D02*
X16038348Y-18543414D01*
X16038348Y-18543414D02*
X16047872Y-18524367D01*
X16047872Y-18524367D02*
X16066919Y-18514843D01*
X16066919Y-18514843D02*
X16105014Y-18514843D01*
X16105014Y-18514843D02*
X16124062Y-18524367D01*
X16124062Y-18524367D02*
X16133586Y-18543414D01*
X16133586Y-18543414D02*
X16133586Y-18562462D01*
X16133586Y-18562462D02*
X16038348Y-18581510D01*
X16209776Y-18638652D02*
X16228824Y-18648176D01*
X16228824Y-18648176D02*
X16266919Y-18648176D01*
X16266919Y-18648176D02*
X16285967Y-18638652D01*
X16285967Y-18638652D02*
X16295491Y-18619605D01*
X16295491Y-18619605D02*
X16295491Y-18610081D01*
X16295491Y-18610081D02*
X16285967Y-18591033D01*
X16285967Y-18591033D02*
X16266919Y-18581510D01*
X16266919Y-18581510D02*
X16238348Y-18581510D01*
X16238348Y-18581510D02*
X16219300Y-18571986D01*
X16219300Y-18571986D02*
X16209776Y-18552938D01*
X16209776Y-18552938D02*
X16209776Y-18543414D01*
X16209776Y-18543414D02*
X16219300Y-18524367D01*
X16219300Y-18524367D02*
X16238348Y-18514843D01*
X16238348Y-18514843D02*
X16266919Y-18514843D01*
X16266919Y-18514843D02*
X16285967Y-18524367D01*
X16362157Y-18724367D02*
X16371681Y-18714843D01*
X16371681Y-18714843D02*
X16390729Y-18686271D01*
X16390729Y-18686271D02*
X16400253Y-18667224D01*
X16400253Y-18667224D02*
X16409776Y-18638652D01*
X16409776Y-18638652D02*
X16419300Y-18591033D01*
X16419300Y-18591033D02*
X16419300Y-18552938D01*
X16419300Y-18552938D02*
X16409776Y-18505319D01*
X16409776Y-18505319D02*
X16400253Y-18476748D01*
X16400253Y-18476748D02*
X16390729Y-18457700D01*
X16390729Y-18457700D02*
X16371681Y-18429129D01*
X16371681Y-18429129D02*
X16362157Y-18419605D01*
D14*
X11514300Y-18813700D02*
X11514300Y-18863700D01*
X11489300Y-18838700D02*
X11539300Y-18838700D01*
D11*
X11825014Y-18712176D02*
X11844062Y-18712176D01*
X11844062Y-18712176D02*
X11863109Y-18721700D01*
X11863109Y-18721700D02*
X11872633Y-18731224D01*
X11872633Y-18731224D02*
X11882157Y-18750271D01*
X11882157Y-18750271D02*
X11891681Y-18788367D01*
X11891681Y-18788367D02*
X11891681Y-18835986D01*
X11891681Y-18835986D02*
X11882157Y-18874081D01*
X11882157Y-18874081D02*
X11872633Y-18893129D01*
X11872633Y-18893129D02*
X11863109Y-18902652D01*
X11863109Y-18902652D02*
X11844062Y-18912176D01*
X11844062Y-18912176D02*
X11825014Y-18912176D01*
X11825014Y-18912176D02*
X11805967Y-18902652D01*
X11805967Y-18902652D02*
X11796443Y-18893129D01*
X11796443Y-18893129D02*
X11786919Y-18874081D01*
X11786919Y-18874081D02*
X11777395Y-18835986D01*
X11777395Y-18835986D02*
X11777395Y-18788367D01*
X11777395Y-18788367D02*
X11786919Y-18750271D01*
X11786919Y-18750271D02*
X11796443Y-18731224D01*
X11796443Y-18731224D02*
X11805967Y-18721700D01*
X11805967Y-18721700D02*
X11825014Y-18712176D01*
X11977395Y-18893129D02*
X11986919Y-18902652D01*
X11986919Y-18902652D02*
X11977395Y-18912176D01*
X11977395Y-18912176D02*
X11967871Y-18902652D01*
X11967871Y-18902652D02*
X11977395Y-18893129D01*
X11977395Y-18893129D02*
X11977395Y-18912176D01*
X12167871Y-18712176D02*
X12072633Y-18712176D01*
X12072633Y-18712176D02*
X12063109Y-18807414D01*
X12063109Y-18807414D02*
X12072633Y-18797890D01*
X12072633Y-18797890D02*
X12091681Y-18788367D01*
X12091681Y-18788367D02*
X12139300Y-18788367D01*
X12139300Y-18788367D02*
X12158348Y-18797890D01*
X12158348Y-18797890D02*
X12167871Y-18807414D01*
X12167871Y-18807414D02*
X12177395Y-18826462D01*
X12177395Y-18826462D02*
X12177395Y-18874081D01*
X12177395Y-18874081D02*
X12167871Y-18893129D01*
X12167871Y-18893129D02*
X12158348Y-18902652D01*
X12158348Y-18902652D02*
X12139300Y-18912176D01*
X12139300Y-18912176D02*
X12091681Y-18912176D01*
X12091681Y-18912176D02*
X12072633Y-18902652D01*
X12072633Y-18902652D02*
X12063109Y-18893129D01*
X12301205Y-18712176D02*
X12320252Y-18712176D01*
X12320252Y-18712176D02*
X12339300Y-18721700D01*
X12339300Y-18721700D02*
X12348824Y-18731224D01*
X12348824Y-18731224D02*
X12358348Y-18750271D01*
X12358348Y-18750271D02*
X12367871Y-18788367D01*
X12367871Y-18788367D02*
X12367871Y-18835986D01*
X12367871Y-18835986D02*
X12358348Y-18874081D01*
X12358348Y-18874081D02*
X12348824Y-18893129D01*
X12348824Y-18893129D02*
X12339300Y-18902652D01*
X12339300Y-18902652D02*
X12320252Y-18912176D01*
X12320252Y-18912176D02*
X12301205Y-18912176D01*
X12301205Y-18912176D02*
X12282157Y-18902652D01*
X12282157Y-18902652D02*
X12272633Y-18893129D01*
X12272633Y-18893129D02*
X12263109Y-18874081D01*
X12263109Y-18874081D02*
X12253586Y-18835986D01*
X12253586Y-18835986D02*
X12253586Y-18788367D01*
X12253586Y-18788367D02*
X12263109Y-18750271D01*
X12263109Y-18750271D02*
X12272633Y-18731224D01*
X12272633Y-18731224D02*
X12282157Y-18721700D01*
X12282157Y-18721700D02*
X12301205Y-18712176D01*
X12491681Y-18712176D02*
X12510729Y-18712176D01*
X12510729Y-18712176D02*
X12529776Y-18721700D01*
X12529776Y-18721700D02*
X12539300Y-18731224D01*
X12539300Y-18731224D02*
X12548824Y-18750271D01*
X12548824Y-18750271D02*
X12558348Y-18788367D01*
X12558348Y-18788367D02*
X12558348Y-18835986D01*
X12558348Y-18835986D02*
X12548824Y-18874081D01*
X12548824Y-18874081D02*
X12539300Y-18893129D01*
X12539300Y-18893129D02*
X12529776Y-18902652D01*
X12529776Y-18902652D02*
X12510729Y-18912176D01*
X12510729Y-18912176D02*
X12491681Y-18912176D01*
X12491681Y-18912176D02*
X12472633Y-18902652D01*
X12472633Y-18902652D02*
X12463109Y-18893129D01*
X12463109Y-18893129D02*
X12453586Y-18874081D01*
X12453586Y-18874081D02*
X12444062Y-18835986D01*
X12444062Y-18835986D02*
X12444062Y-18788367D01*
X12444062Y-18788367D02*
X12453586Y-18750271D01*
X12453586Y-18750271D02*
X12463109Y-18731224D01*
X12463109Y-18731224D02*
X12472633Y-18721700D01*
X12472633Y-18721700D02*
X12491681Y-18712176D01*
X12644062Y-18912176D02*
X12644062Y-18778843D01*
X12644062Y-18797890D02*
X12653586Y-18788367D01*
X12653586Y-18788367D02*
X12672633Y-18778843D01*
X12672633Y-18778843D02*
X12701205Y-18778843D01*
X12701205Y-18778843D02*
X12720252Y-18788367D01*
X12720252Y-18788367D02*
X12729776Y-18807414D01*
X12729776Y-18807414D02*
X12729776Y-18912176D01*
X12729776Y-18807414D02*
X12739300Y-18788367D01*
X12739300Y-18788367D02*
X12758348Y-18778843D01*
X12758348Y-18778843D02*
X12786919Y-18778843D01*
X12786919Y-18778843D02*
X12805967Y-18788367D01*
X12805967Y-18788367D02*
X12815490Y-18807414D01*
X12815490Y-18807414D02*
X12815490Y-18912176D01*
X12910729Y-18912176D02*
X12910729Y-18778843D01*
X12910729Y-18797890D02*
X12920252Y-18788367D01*
X12920252Y-18788367D02*
X12939300Y-18778843D01*
X12939300Y-18778843D02*
X12967871Y-18778843D01*
X12967871Y-18778843D02*
X12986919Y-18788367D01*
X12986919Y-18788367D02*
X12996443Y-18807414D01*
X12996443Y-18807414D02*
X12996443Y-18912176D01*
X12996443Y-18807414D02*
X13005967Y-18788367D01*
X13005967Y-18788367D02*
X13025014Y-18778843D01*
X13025014Y-18778843D02*
X13053586Y-18778843D01*
X13053586Y-18778843D02*
X13072633Y-18788367D01*
X13072633Y-18788367D02*
X13082157Y-18807414D01*
X13082157Y-18807414D02*
X13082157Y-18912176D01*
X13440252Y-18702652D02*
X13268824Y-18959795D01*
X13665014Y-18712176D02*
X13684062Y-18712176D01*
X13684062Y-18712176D02*
X13703110Y-18721700D01*
X13703110Y-18721700D02*
X13712633Y-18731224D01*
X13712633Y-18731224D02*
X13722157Y-18750271D01*
X13722157Y-18750271D02*
X13731681Y-18788367D01*
X13731681Y-18788367D02*
X13731681Y-18835986D01*
X13731681Y-18835986D02*
X13722157Y-18874081D01*
X13722157Y-18874081D02*
X13712633Y-18893129D01*
X13712633Y-18893129D02*
X13703110Y-18902652D01*
X13703110Y-18902652D02*
X13684062Y-18912176D01*
X13684062Y-18912176D02*
X13665014Y-18912176D01*
X13665014Y-18912176D02*
X13645967Y-18902652D01*
X13645967Y-18902652D02*
X13636443Y-18893129D01*
X13636443Y-18893129D02*
X13626919Y-18874081D01*
X13626919Y-18874081D02*
X13617395Y-18835986D01*
X13617395Y-18835986D02*
X13617395Y-18788367D01*
X13617395Y-18788367D02*
X13626919Y-18750271D01*
X13626919Y-18750271D02*
X13636443Y-18731224D01*
X13636443Y-18731224D02*
X13645967Y-18721700D01*
X13645967Y-18721700D02*
X13665014Y-18712176D01*
X13817395Y-18893129D02*
X13826919Y-18902652D01*
X13826919Y-18902652D02*
X13817395Y-18912176D01*
X13817395Y-18912176D02*
X13807871Y-18902652D01*
X13807871Y-18902652D02*
X13817395Y-18893129D01*
X13817395Y-18893129D02*
X13817395Y-18912176D01*
X13950729Y-18712176D02*
X13969776Y-18712176D01*
X13969776Y-18712176D02*
X13988824Y-18721700D01*
X13988824Y-18721700D02*
X13998348Y-18731224D01*
X13998348Y-18731224D02*
X14007871Y-18750271D01*
X14007871Y-18750271D02*
X14017395Y-18788367D01*
X14017395Y-18788367D02*
X14017395Y-18835986D01*
X14017395Y-18835986D02*
X14007871Y-18874081D01*
X14007871Y-18874081D02*
X13998348Y-18893129D01*
X13998348Y-18893129D02*
X13988824Y-18902652D01*
X13988824Y-18902652D02*
X13969776Y-18912176D01*
X13969776Y-18912176D02*
X13950729Y-18912176D01*
X13950729Y-18912176D02*
X13931681Y-18902652D01*
X13931681Y-18902652D02*
X13922157Y-18893129D01*
X13922157Y-18893129D02*
X13912633Y-18874081D01*
X13912633Y-18874081D02*
X13903110Y-18835986D01*
X13903110Y-18835986D02*
X13903110Y-18788367D01*
X13903110Y-18788367D02*
X13912633Y-18750271D01*
X13912633Y-18750271D02*
X13922157Y-18731224D01*
X13922157Y-18731224D02*
X13931681Y-18721700D01*
X13931681Y-18721700D02*
X13950729Y-18712176D01*
X14207871Y-18912176D02*
X14093586Y-18912176D01*
X14150729Y-18912176D02*
X14150729Y-18712176D01*
X14150729Y-18712176D02*
X14131681Y-18740748D01*
X14131681Y-18740748D02*
X14112633Y-18759795D01*
X14112633Y-18759795D02*
X14093586Y-18769319D01*
X14303110Y-18912176D02*
X14341205Y-18912176D01*
X14341205Y-18912176D02*
X14360252Y-18902652D01*
X14360252Y-18902652D02*
X14369776Y-18893129D01*
X14369776Y-18893129D02*
X14388824Y-18864557D01*
X14388824Y-18864557D02*
X14398348Y-18826462D01*
X14398348Y-18826462D02*
X14398348Y-18750271D01*
X14398348Y-18750271D02*
X14388824Y-18731224D01*
X14388824Y-18731224D02*
X14379300Y-18721700D01*
X14379300Y-18721700D02*
X14360252Y-18712176D01*
X14360252Y-18712176D02*
X14322157Y-18712176D01*
X14322157Y-18712176D02*
X14303110Y-18721700D01*
X14303110Y-18721700D02*
X14293586Y-18731224D01*
X14293586Y-18731224D02*
X14284062Y-18750271D01*
X14284062Y-18750271D02*
X14284062Y-18797890D01*
X14284062Y-18797890D02*
X14293586Y-18816938D01*
X14293586Y-18816938D02*
X14303110Y-18826462D01*
X14303110Y-18826462D02*
X14322157Y-18835986D01*
X14322157Y-18835986D02*
X14360252Y-18835986D01*
X14360252Y-18835986D02*
X14379300Y-18826462D01*
X14379300Y-18826462D02*
X14388824Y-18816938D01*
X14388824Y-18816938D02*
X14398348Y-18797890D01*
X14465014Y-18712176D02*
X14598348Y-18712176D01*
X14598348Y-18712176D02*
X14512633Y-18912176D01*
X14665014Y-18712176D02*
X14665014Y-18750271D01*
X14741205Y-18712176D02*
X14741205Y-18750271D01*
X15004062Y-18988367D02*
X14994538Y-18978843D01*
X14994538Y-18978843D02*
X14975491Y-18950271D01*
X14975491Y-18950271D02*
X14965967Y-18931224D01*
X14965967Y-18931224D02*
X14956443Y-18902652D01*
X14956443Y-18902652D02*
X14946919Y-18855033D01*
X14946919Y-18855033D02*
X14946919Y-18816938D01*
X14946919Y-18816938D02*
X14956443Y-18769319D01*
X14956443Y-18769319D02*
X14965967Y-18740748D01*
X14965967Y-18740748D02*
X14975491Y-18721700D01*
X14975491Y-18721700D02*
X14994538Y-18693129D01*
X14994538Y-18693129D02*
X15004062Y-18683605D01*
X15118348Y-18712176D02*
X15137395Y-18712176D01*
X15137395Y-18712176D02*
X15156443Y-18721700D01*
X15156443Y-18721700D02*
X15165967Y-18731224D01*
X15165967Y-18731224D02*
X15175491Y-18750271D01*
X15175491Y-18750271D02*
X15185014Y-18788367D01*
X15185014Y-18788367D02*
X15185014Y-18835986D01*
X15185014Y-18835986D02*
X15175491Y-18874081D01*
X15175491Y-18874081D02*
X15165967Y-18893129D01*
X15165967Y-18893129D02*
X15156443Y-18902652D01*
X15156443Y-18902652D02*
X15137395Y-18912176D01*
X15137395Y-18912176D02*
X15118348Y-18912176D01*
X15118348Y-18912176D02*
X15099300Y-18902652D01*
X15099300Y-18902652D02*
X15089776Y-18893129D01*
X15089776Y-18893129D02*
X15080252Y-18874081D01*
X15080252Y-18874081D02*
X15070729Y-18835986D01*
X15070729Y-18835986D02*
X15070729Y-18788367D01*
X15070729Y-18788367D02*
X15080252Y-18750271D01*
X15080252Y-18750271D02*
X15089776Y-18731224D01*
X15089776Y-18731224D02*
X15099300Y-18721700D01*
X15099300Y-18721700D02*
X15118348Y-18712176D01*
X15390729Y-18912176D02*
X15390729Y-18712176D01*
X15476443Y-18912176D02*
X15476443Y-18807414D01*
X15476443Y-18807414D02*
X15466919Y-18788367D01*
X15466919Y-18788367D02*
X15447872Y-18778843D01*
X15447872Y-18778843D02*
X15419300Y-18778843D01*
X15419300Y-18778843D02*
X15400252Y-18788367D01*
X15400252Y-18788367D02*
X15390729Y-18797890D01*
X15600252Y-18912176D02*
X15581205Y-18902652D01*
X15581205Y-18902652D02*
X15571681Y-18893129D01*
X15571681Y-18893129D02*
X15562157Y-18874081D01*
X15562157Y-18874081D02*
X15562157Y-18816938D01*
X15562157Y-18816938D02*
X15571681Y-18797890D01*
X15571681Y-18797890D02*
X15581205Y-18788367D01*
X15581205Y-18788367D02*
X15600252Y-18778843D01*
X15600252Y-18778843D02*
X15628824Y-18778843D01*
X15628824Y-18778843D02*
X15647872Y-18788367D01*
X15647872Y-18788367D02*
X15657395Y-18797890D01*
X15657395Y-18797890D02*
X15666919Y-18816938D01*
X15666919Y-18816938D02*
X15666919Y-18874081D01*
X15666919Y-18874081D02*
X15657395Y-18893129D01*
X15657395Y-18893129D02*
X15647872Y-18902652D01*
X15647872Y-18902652D02*
X15628824Y-18912176D01*
X15628824Y-18912176D02*
X15600252Y-18912176D01*
X15781205Y-18912176D02*
X15762157Y-18902652D01*
X15762157Y-18902652D02*
X15752633Y-18883605D01*
X15752633Y-18883605D02*
X15752633Y-18712176D01*
X15933586Y-18902652D02*
X15914538Y-18912176D01*
X15914538Y-18912176D02*
X15876443Y-18912176D01*
X15876443Y-18912176D02*
X15857395Y-18902652D01*
X15857395Y-18902652D02*
X15847872Y-18883605D01*
X15847872Y-18883605D02*
X15847872Y-18807414D01*
X15847872Y-18807414D02*
X15857395Y-18788367D01*
X15857395Y-18788367D02*
X15876443Y-18778843D01*
X15876443Y-18778843D02*
X15914538Y-18778843D01*
X15914538Y-18778843D02*
X15933586Y-18788367D01*
X15933586Y-18788367D02*
X15943110Y-18807414D01*
X15943110Y-18807414D02*
X15943110Y-18826462D01*
X15943110Y-18826462D02*
X15847872Y-18845510D01*
X16019300Y-18902652D02*
X16038348Y-18912176D01*
X16038348Y-18912176D02*
X16076443Y-18912176D01*
X16076443Y-18912176D02*
X16095491Y-18902652D01*
X16095491Y-18902652D02*
X16105014Y-18883605D01*
X16105014Y-18883605D02*
X16105014Y-18874081D01*
X16105014Y-18874081D02*
X16095491Y-18855033D01*
X16095491Y-18855033D02*
X16076443Y-18845510D01*
X16076443Y-18845510D02*
X16047872Y-18845510D01*
X16047872Y-18845510D02*
X16028824Y-18835986D01*
X16028824Y-18835986D02*
X16019300Y-18816938D01*
X16019300Y-18816938D02*
X16019300Y-18807414D01*
X16019300Y-18807414D02*
X16028824Y-18788367D01*
X16028824Y-18788367D02*
X16047872Y-18778843D01*
X16047872Y-18778843D02*
X16076443Y-18778843D01*
X16076443Y-18778843D02*
X16095491Y-18788367D01*
X16310729Y-18835986D02*
X16463110Y-18835986D01*
X16386919Y-18912176D02*
X16386919Y-18759795D01*
X16668824Y-18731224D02*
X16678348Y-18721700D01*
X16678348Y-18721700D02*
X16697395Y-18712176D01*
X16697395Y-18712176D02*
X16745014Y-18712176D01*
X16745014Y-18712176D02*
X16764062Y-18721700D01*
X16764062Y-18721700D02*
X16773586Y-18731224D01*
X16773586Y-18731224D02*
X16783110Y-18750271D01*
X16783110Y-18750271D02*
X16783110Y-18769319D01*
X16783110Y-18769319D02*
X16773586Y-18797890D01*
X16773586Y-18797890D02*
X16659300Y-18912176D01*
X16659300Y-18912176D02*
X16783110Y-18912176D01*
X16979300Y-18902652D02*
X16998348Y-18912176D01*
X16998348Y-18912176D02*
X17036443Y-18912176D01*
X17036443Y-18912176D02*
X17055491Y-18902652D01*
X17055491Y-18902652D02*
X17065015Y-18883605D01*
X17065015Y-18883605D02*
X17065015Y-18874081D01*
X17065015Y-18874081D02*
X17055491Y-18855033D01*
X17055491Y-18855033D02*
X17036443Y-18845510D01*
X17036443Y-18845510D02*
X17007872Y-18845510D01*
X17007872Y-18845510D02*
X16988824Y-18835986D01*
X16988824Y-18835986D02*
X16979300Y-18816938D01*
X16979300Y-18816938D02*
X16979300Y-18807414D01*
X16979300Y-18807414D02*
X16988824Y-18788367D01*
X16988824Y-18788367D02*
X17007872Y-18778843D01*
X17007872Y-18778843D02*
X17036443Y-18778843D01*
X17036443Y-18778843D02*
X17055491Y-18788367D01*
X17179300Y-18912176D02*
X17160253Y-18902652D01*
X17160253Y-18902652D02*
X17150729Y-18883605D01*
X17150729Y-18883605D02*
X17150729Y-18712176D01*
X17284062Y-18912176D02*
X17265015Y-18902652D01*
X17265015Y-18902652D02*
X17255491Y-18893129D01*
X17255491Y-18893129D02*
X17245967Y-18874081D01*
X17245967Y-18874081D02*
X17245967Y-18816938D01*
X17245967Y-18816938D02*
X17255491Y-18797890D01*
X17255491Y-18797890D02*
X17265015Y-18788367D01*
X17265015Y-18788367D02*
X17284062Y-18778843D01*
X17284062Y-18778843D02*
X17312634Y-18778843D01*
X17312634Y-18778843D02*
X17331681Y-18788367D01*
X17331681Y-18788367D02*
X17341205Y-18797890D01*
X17341205Y-18797890D02*
X17350729Y-18816938D01*
X17350729Y-18816938D02*
X17350729Y-18874081D01*
X17350729Y-18874081D02*
X17341205Y-18893129D01*
X17341205Y-18893129D02*
X17331681Y-18902652D01*
X17331681Y-18902652D02*
X17312634Y-18912176D01*
X17312634Y-18912176D02*
X17284062Y-18912176D01*
X17407872Y-18778843D02*
X17484062Y-18778843D01*
X17436443Y-18712176D02*
X17436443Y-18883605D01*
X17436443Y-18883605D02*
X17445967Y-18902652D01*
X17445967Y-18902652D02*
X17465015Y-18912176D01*
X17465015Y-18912176D02*
X17484062Y-18912176D01*
X17541205Y-18902652D02*
X17560253Y-18912176D01*
X17560253Y-18912176D02*
X17598348Y-18912176D01*
X17598348Y-18912176D02*
X17617396Y-18902652D01*
X17617396Y-18902652D02*
X17626919Y-18883605D01*
X17626919Y-18883605D02*
X17626919Y-18874081D01*
X17626919Y-18874081D02*
X17617396Y-18855033D01*
X17617396Y-18855033D02*
X17598348Y-18845510D01*
X17598348Y-18845510D02*
X17569776Y-18845510D01*
X17569776Y-18845510D02*
X17550729Y-18835986D01*
X17550729Y-18835986D02*
X17541205Y-18816938D01*
X17541205Y-18816938D02*
X17541205Y-18807414D01*
X17541205Y-18807414D02*
X17550729Y-18788367D01*
X17550729Y-18788367D02*
X17569776Y-18778843D01*
X17569776Y-18778843D02*
X17598348Y-18778843D01*
X17598348Y-18778843D02*
X17617396Y-18788367D01*
X17693586Y-18988367D02*
X17703110Y-18978843D01*
X17703110Y-18978843D02*
X17722157Y-18950271D01*
X17722157Y-18950271D02*
X17731681Y-18931224D01*
X17731681Y-18931224D02*
X17741205Y-18902652D01*
X17741205Y-18902652D02*
X17750729Y-18855033D01*
X17750729Y-18855033D02*
X17750729Y-18816938D01*
X17750729Y-18816938D02*
X17741205Y-18769319D01*
X17741205Y-18769319D02*
X17731681Y-18740748D01*
X17731681Y-18740748D02*
X17722157Y-18721700D01*
X17722157Y-18721700D02*
X17703110Y-18693129D01*
X17703110Y-18693129D02*
X17693586Y-18683605D01*
D15*
X11531246Y-19122146D02*
X11531246Y-19083254D01*
X11492354Y-19083254D01*
X11492354Y-19122146D01*
X11531246Y-19122146D01*
D11*
X11825014Y-18976176D02*
X11844062Y-18976176D01*
X11844062Y-18976176D02*
X11863109Y-18985700D01*
X11863109Y-18985700D02*
X11872633Y-18995224D01*
X11872633Y-18995224D02*
X11882157Y-19014271D01*
X11882157Y-19014271D02*
X11891681Y-19052367D01*
X11891681Y-19052367D02*
X11891681Y-19099986D01*
X11891681Y-19099986D02*
X11882157Y-19138081D01*
X11882157Y-19138081D02*
X11872633Y-19157129D01*
X11872633Y-19157129D02*
X11863109Y-19166652D01*
X11863109Y-19166652D02*
X11844062Y-19176176D01*
X11844062Y-19176176D02*
X11825014Y-19176176D01*
X11825014Y-19176176D02*
X11805967Y-19166652D01*
X11805967Y-19166652D02*
X11796443Y-19157129D01*
X11796443Y-19157129D02*
X11786919Y-19138081D01*
X11786919Y-19138081D02*
X11777395Y-19099986D01*
X11777395Y-19099986D02*
X11777395Y-19052367D01*
X11777395Y-19052367D02*
X11786919Y-19014271D01*
X11786919Y-19014271D02*
X11796443Y-18995224D01*
X11796443Y-18995224D02*
X11805967Y-18985700D01*
X11805967Y-18985700D02*
X11825014Y-18976176D01*
X11977395Y-19157129D02*
X11986919Y-19166652D01*
X11986919Y-19166652D02*
X11977395Y-19176176D01*
X11977395Y-19176176D02*
X11967871Y-19166652D01*
X11967871Y-19166652D02*
X11977395Y-19157129D01*
X11977395Y-19157129D02*
X11977395Y-19176176D01*
X12167871Y-18976176D02*
X12072633Y-18976176D01*
X12072633Y-18976176D02*
X12063109Y-19071414D01*
X12063109Y-19071414D02*
X12072633Y-19061890D01*
X12072633Y-19061890D02*
X12091681Y-19052367D01*
X12091681Y-19052367D02*
X12139300Y-19052367D01*
X12139300Y-19052367D02*
X12158348Y-19061890D01*
X12158348Y-19061890D02*
X12167871Y-19071414D01*
X12167871Y-19071414D02*
X12177395Y-19090462D01*
X12177395Y-19090462D02*
X12177395Y-19138081D01*
X12177395Y-19138081D02*
X12167871Y-19157129D01*
X12167871Y-19157129D02*
X12158348Y-19166652D01*
X12158348Y-19166652D02*
X12139300Y-19176176D01*
X12139300Y-19176176D02*
X12091681Y-19176176D01*
X12091681Y-19176176D02*
X12072633Y-19166652D01*
X12072633Y-19166652D02*
X12063109Y-19157129D01*
X12358348Y-18976176D02*
X12263109Y-18976176D01*
X12263109Y-18976176D02*
X12253586Y-19071414D01*
X12253586Y-19071414D02*
X12263109Y-19061890D01*
X12263109Y-19061890D02*
X12282157Y-19052367D01*
X12282157Y-19052367D02*
X12329776Y-19052367D01*
X12329776Y-19052367D02*
X12348824Y-19061890D01*
X12348824Y-19061890D02*
X12358348Y-19071414D01*
X12358348Y-19071414D02*
X12367871Y-19090462D01*
X12367871Y-19090462D02*
X12367871Y-19138081D01*
X12367871Y-19138081D02*
X12358348Y-19157129D01*
X12358348Y-19157129D02*
X12348824Y-19166652D01*
X12348824Y-19166652D02*
X12329776Y-19176176D01*
X12329776Y-19176176D02*
X12282157Y-19176176D01*
X12282157Y-19176176D02*
X12263109Y-19166652D01*
X12263109Y-19166652D02*
X12253586Y-19157129D01*
X12491681Y-18976176D02*
X12510729Y-18976176D01*
X12510729Y-18976176D02*
X12529776Y-18985700D01*
X12529776Y-18985700D02*
X12539300Y-18995224D01*
X12539300Y-18995224D02*
X12548824Y-19014271D01*
X12548824Y-19014271D02*
X12558348Y-19052367D01*
X12558348Y-19052367D02*
X12558348Y-19099986D01*
X12558348Y-19099986D02*
X12548824Y-19138081D01*
X12548824Y-19138081D02*
X12539300Y-19157129D01*
X12539300Y-19157129D02*
X12529776Y-19166652D01*
X12529776Y-19166652D02*
X12510729Y-19176176D01*
X12510729Y-19176176D02*
X12491681Y-19176176D01*
X12491681Y-19176176D02*
X12472633Y-19166652D01*
X12472633Y-19166652D02*
X12463109Y-19157129D01*
X12463109Y-19157129D02*
X12453586Y-19138081D01*
X12453586Y-19138081D02*
X12444062Y-19099986D01*
X12444062Y-19099986D02*
X12444062Y-19052367D01*
X12444062Y-19052367D02*
X12453586Y-19014271D01*
X12453586Y-19014271D02*
X12463109Y-18995224D01*
X12463109Y-18995224D02*
X12472633Y-18985700D01*
X12472633Y-18985700D02*
X12491681Y-18976176D01*
X12644062Y-19176176D02*
X12644062Y-19042843D01*
X12644062Y-19061890D02*
X12653586Y-19052367D01*
X12653586Y-19052367D02*
X12672633Y-19042843D01*
X12672633Y-19042843D02*
X12701205Y-19042843D01*
X12701205Y-19042843D02*
X12720252Y-19052367D01*
X12720252Y-19052367D02*
X12729776Y-19071414D01*
X12729776Y-19071414D02*
X12729776Y-19176176D01*
X12729776Y-19071414D02*
X12739300Y-19052367D01*
X12739300Y-19052367D02*
X12758348Y-19042843D01*
X12758348Y-19042843D02*
X12786919Y-19042843D01*
X12786919Y-19042843D02*
X12805967Y-19052367D01*
X12805967Y-19052367D02*
X12815490Y-19071414D01*
X12815490Y-19071414D02*
X12815490Y-19176176D01*
X12910729Y-19176176D02*
X12910729Y-19042843D01*
X12910729Y-19061890D02*
X12920252Y-19052367D01*
X12920252Y-19052367D02*
X12939300Y-19042843D01*
X12939300Y-19042843D02*
X12967871Y-19042843D01*
X12967871Y-19042843D02*
X12986919Y-19052367D01*
X12986919Y-19052367D02*
X12996443Y-19071414D01*
X12996443Y-19071414D02*
X12996443Y-19176176D01*
X12996443Y-19071414D02*
X13005967Y-19052367D01*
X13005967Y-19052367D02*
X13025014Y-19042843D01*
X13025014Y-19042843D02*
X13053586Y-19042843D01*
X13053586Y-19042843D02*
X13072633Y-19052367D01*
X13072633Y-19052367D02*
X13082157Y-19071414D01*
X13082157Y-19071414D02*
X13082157Y-19176176D01*
X13440252Y-18966652D02*
X13268824Y-19223795D01*
X13665014Y-18976176D02*
X13684062Y-18976176D01*
X13684062Y-18976176D02*
X13703110Y-18985700D01*
X13703110Y-18985700D02*
X13712633Y-18995224D01*
X13712633Y-18995224D02*
X13722157Y-19014271D01*
X13722157Y-19014271D02*
X13731681Y-19052367D01*
X13731681Y-19052367D02*
X13731681Y-19099986D01*
X13731681Y-19099986D02*
X13722157Y-19138081D01*
X13722157Y-19138081D02*
X13712633Y-19157129D01*
X13712633Y-19157129D02*
X13703110Y-19166652D01*
X13703110Y-19166652D02*
X13684062Y-19176176D01*
X13684062Y-19176176D02*
X13665014Y-19176176D01*
X13665014Y-19176176D02*
X13645967Y-19166652D01*
X13645967Y-19166652D02*
X13636443Y-19157129D01*
X13636443Y-19157129D02*
X13626919Y-19138081D01*
X13626919Y-19138081D02*
X13617395Y-19099986D01*
X13617395Y-19099986D02*
X13617395Y-19052367D01*
X13617395Y-19052367D02*
X13626919Y-19014271D01*
X13626919Y-19014271D02*
X13636443Y-18995224D01*
X13636443Y-18995224D02*
X13645967Y-18985700D01*
X13645967Y-18985700D02*
X13665014Y-18976176D01*
X13817395Y-19157129D02*
X13826919Y-19166652D01*
X13826919Y-19166652D02*
X13817395Y-19176176D01*
X13817395Y-19176176D02*
X13807871Y-19166652D01*
X13807871Y-19166652D02*
X13817395Y-19157129D01*
X13817395Y-19157129D02*
X13817395Y-19176176D01*
X13950729Y-18976176D02*
X13969776Y-18976176D01*
X13969776Y-18976176D02*
X13988824Y-18985700D01*
X13988824Y-18985700D02*
X13998348Y-18995224D01*
X13998348Y-18995224D02*
X14007871Y-19014271D01*
X14007871Y-19014271D02*
X14017395Y-19052367D01*
X14017395Y-19052367D02*
X14017395Y-19099986D01*
X14017395Y-19099986D02*
X14007871Y-19138081D01*
X14007871Y-19138081D02*
X13998348Y-19157129D01*
X13998348Y-19157129D02*
X13988824Y-19166652D01*
X13988824Y-19166652D02*
X13969776Y-19176176D01*
X13969776Y-19176176D02*
X13950729Y-19176176D01*
X13950729Y-19176176D02*
X13931681Y-19166652D01*
X13931681Y-19166652D02*
X13922157Y-19157129D01*
X13922157Y-19157129D02*
X13912633Y-19138081D01*
X13912633Y-19138081D02*
X13903110Y-19099986D01*
X13903110Y-19099986D02*
X13903110Y-19052367D01*
X13903110Y-19052367D02*
X13912633Y-19014271D01*
X13912633Y-19014271D02*
X13922157Y-18995224D01*
X13922157Y-18995224D02*
X13931681Y-18985700D01*
X13931681Y-18985700D02*
X13950729Y-18976176D01*
X14093586Y-18995224D02*
X14103110Y-18985700D01*
X14103110Y-18985700D02*
X14122157Y-18976176D01*
X14122157Y-18976176D02*
X14169776Y-18976176D01*
X14169776Y-18976176D02*
X14188824Y-18985700D01*
X14188824Y-18985700D02*
X14198348Y-18995224D01*
X14198348Y-18995224D02*
X14207871Y-19014271D01*
X14207871Y-19014271D02*
X14207871Y-19033319D01*
X14207871Y-19033319D02*
X14198348Y-19061890D01*
X14198348Y-19061890D02*
X14084062Y-19176176D01*
X14084062Y-19176176D02*
X14207871Y-19176176D01*
X14398348Y-19176176D02*
X14284062Y-19176176D01*
X14341205Y-19176176D02*
X14341205Y-18976176D01*
X14341205Y-18976176D02*
X14322157Y-19004748D01*
X14322157Y-19004748D02*
X14303110Y-19023795D01*
X14303110Y-19023795D02*
X14284062Y-19033319D01*
X14465014Y-18976176D02*
X14598348Y-18976176D01*
X14598348Y-18976176D02*
X14512633Y-19176176D01*
X14665014Y-18976176D02*
X14665014Y-19014271D01*
X14741205Y-18976176D02*
X14741205Y-19014271D01*
X15004062Y-19252367D02*
X14994538Y-19242843D01*
X14994538Y-19242843D02*
X14975491Y-19214271D01*
X14975491Y-19214271D02*
X14965967Y-19195224D01*
X14965967Y-19195224D02*
X14956443Y-19166652D01*
X14956443Y-19166652D02*
X14946919Y-19119033D01*
X14946919Y-19119033D02*
X14946919Y-19080938D01*
X14946919Y-19080938D02*
X14956443Y-19033319D01*
X14956443Y-19033319D02*
X14965967Y-19004748D01*
X14965967Y-19004748D02*
X14975491Y-18985700D01*
X14975491Y-18985700D02*
X14994538Y-18957129D01*
X14994538Y-18957129D02*
X15004062Y-18947605D01*
X15118348Y-18976176D02*
X15137395Y-18976176D01*
X15137395Y-18976176D02*
X15156443Y-18985700D01*
X15156443Y-18985700D02*
X15165967Y-18995224D01*
X15165967Y-18995224D02*
X15175491Y-19014271D01*
X15175491Y-19014271D02*
X15185014Y-19052367D01*
X15185014Y-19052367D02*
X15185014Y-19099986D01*
X15185014Y-19099986D02*
X15175491Y-19138081D01*
X15175491Y-19138081D02*
X15165967Y-19157129D01*
X15165967Y-19157129D02*
X15156443Y-19166652D01*
X15156443Y-19166652D02*
X15137395Y-19176176D01*
X15137395Y-19176176D02*
X15118348Y-19176176D01*
X15118348Y-19176176D02*
X15099300Y-19166652D01*
X15099300Y-19166652D02*
X15089776Y-19157129D01*
X15089776Y-19157129D02*
X15080252Y-19138081D01*
X15080252Y-19138081D02*
X15070729Y-19099986D01*
X15070729Y-19099986D02*
X15070729Y-19052367D01*
X15070729Y-19052367D02*
X15080252Y-19014271D01*
X15080252Y-19014271D02*
X15089776Y-18995224D01*
X15089776Y-18995224D02*
X15099300Y-18985700D01*
X15099300Y-18985700D02*
X15118348Y-18976176D01*
X15390729Y-19176176D02*
X15390729Y-18976176D01*
X15476443Y-19176176D02*
X15476443Y-19071414D01*
X15476443Y-19071414D02*
X15466919Y-19052367D01*
X15466919Y-19052367D02*
X15447872Y-19042843D01*
X15447872Y-19042843D02*
X15419300Y-19042843D01*
X15419300Y-19042843D02*
X15400252Y-19052367D01*
X15400252Y-19052367D02*
X15390729Y-19061890D01*
X15600252Y-19176176D02*
X15581205Y-19166652D01*
X15581205Y-19166652D02*
X15571681Y-19157129D01*
X15571681Y-19157129D02*
X15562157Y-19138081D01*
X15562157Y-19138081D02*
X15562157Y-19080938D01*
X15562157Y-19080938D02*
X15571681Y-19061890D01*
X15571681Y-19061890D02*
X15581205Y-19052367D01*
X15581205Y-19052367D02*
X15600252Y-19042843D01*
X15600252Y-19042843D02*
X15628824Y-19042843D01*
X15628824Y-19042843D02*
X15647872Y-19052367D01*
X15647872Y-19052367D02*
X15657395Y-19061890D01*
X15657395Y-19061890D02*
X15666919Y-19080938D01*
X15666919Y-19080938D02*
X15666919Y-19138081D01*
X15666919Y-19138081D02*
X15657395Y-19157129D01*
X15657395Y-19157129D02*
X15647872Y-19166652D01*
X15647872Y-19166652D02*
X15628824Y-19176176D01*
X15628824Y-19176176D02*
X15600252Y-19176176D01*
X15781205Y-19176176D02*
X15762157Y-19166652D01*
X15762157Y-19166652D02*
X15752633Y-19147605D01*
X15752633Y-19147605D02*
X15752633Y-18976176D01*
X15933586Y-19166652D02*
X15914538Y-19176176D01*
X15914538Y-19176176D02*
X15876443Y-19176176D01*
X15876443Y-19176176D02*
X15857395Y-19166652D01*
X15857395Y-19166652D02*
X15847872Y-19147605D01*
X15847872Y-19147605D02*
X15847872Y-19071414D01*
X15847872Y-19071414D02*
X15857395Y-19052367D01*
X15857395Y-19052367D02*
X15876443Y-19042843D01*
X15876443Y-19042843D02*
X15914538Y-19042843D01*
X15914538Y-19042843D02*
X15933586Y-19052367D01*
X15933586Y-19052367D02*
X15943110Y-19071414D01*
X15943110Y-19071414D02*
X15943110Y-19090462D01*
X15943110Y-19090462D02*
X15847872Y-19109510D01*
X16019300Y-19166652D02*
X16038348Y-19176176D01*
X16038348Y-19176176D02*
X16076443Y-19176176D01*
X16076443Y-19176176D02*
X16095491Y-19166652D01*
X16095491Y-19166652D02*
X16105014Y-19147605D01*
X16105014Y-19147605D02*
X16105014Y-19138081D01*
X16105014Y-19138081D02*
X16095491Y-19119033D01*
X16095491Y-19119033D02*
X16076443Y-19109510D01*
X16076443Y-19109510D02*
X16047872Y-19109510D01*
X16047872Y-19109510D02*
X16028824Y-19099986D01*
X16028824Y-19099986D02*
X16019300Y-19080938D01*
X16019300Y-19080938D02*
X16019300Y-19071414D01*
X16019300Y-19071414D02*
X16028824Y-19052367D01*
X16028824Y-19052367D02*
X16047872Y-19042843D01*
X16047872Y-19042843D02*
X16076443Y-19042843D01*
X16076443Y-19042843D02*
X16095491Y-19052367D01*
X16310729Y-19099986D02*
X16463110Y-19099986D01*
X16386919Y-19176176D02*
X16386919Y-19023795D01*
X16668824Y-18995224D02*
X16678348Y-18985700D01*
X16678348Y-18985700D02*
X16697395Y-18976176D01*
X16697395Y-18976176D02*
X16745014Y-18976176D01*
X16745014Y-18976176D02*
X16764062Y-18985700D01*
X16764062Y-18985700D02*
X16773586Y-18995224D01*
X16773586Y-18995224D02*
X16783110Y-19014271D01*
X16783110Y-19014271D02*
X16783110Y-19033319D01*
X16783110Y-19033319D02*
X16773586Y-19061890D01*
X16773586Y-19061890D02*
X16659300Y-19176176D01*
X16659300Y-19176176D02*
X16783110Y-19176176D01*
X16979300Y-19166652D02*
X16998348Y-19176176D01*
X16998348Y-19176176D02*
X17036443Y-19176176D01*
X17036443Y-19176176D02*
X17055491Y-19166652D01*
X17055491Y-19166652D02*
X17065015Y-19147605D01*
X17065015Y-19147605D02*
X17065015Y-19138081D01*
X17065015Y-19138081D02*
X17055491Y-19119033D01*
X17055491Y-19119033D02*
X17036443Y-19109510D01*
X17036443Y-19109510D02*
X17007872Y-19109510D01*
X17007872Y-19109510D02*
X16988824Y-19099986D01*
X16988824Y-19099986D02*
X16979300Y-19080938D01*
X16979300Y-19080938D02*
X16979300Y-19071414D01*
X16979300Y-19071414D02*
X16988824Y-19052367D01*
X16988824Y-19052367D02*
X17007872Y-19042843D01*
X17007872Y-19042843D02*
X17036443Y-19042843D01*
X17036443Y-19042843D02*
X17055491Y-19052367D01*
X17179300Y-19176176D02*
X17160253Y-19166652D01*
X17160253Y-19166652D02*
X17150729Y-19147605D01*
X17150729Y-19147605D02*
X17150729Y-18976176D01*
X17284062Y-19176176D02*
X17265015Y-19166652D01*
X17265015Y-19166652D02*
X17255491Y-19157129D01*
X17255491Y-19157129D02*
X17245967Y-19138081D01*
X17245967Y-19138081D02*
X17245967Y-19080938D01*
X17245967Y-19080938D02*
X17255491Y-19061890D01*
X17255491Y-19061890D02*
X17265015Y-19052367D01*
X17265015Y-19052367D02*
X17284062Y-19042843D01*
X17284062Y-19042843D02*
X17312634Y-19042843D01*
X17312634Y-19042843D02*
X17331681Y-19052367D01*
X17331681Y-19052367D02*
X17341205Y-19061890D01*
X17341205Y-19061890D02*
X17350729Y-19080938D01*
X17350729Y-19080938D02*
X17350729Y-19138081D01*
X17350729Y-19138081D02*
X17341205Y-19157129D01*
X17341205Y-19157129D02*
X17331681Y-19166652D01*
X17331681Y-19166652D02*
X17312634Y-19176176D01*
X17312634Y-19176176D02*
X17284062Y-19176176D01*
X17407872Y-19042843D02*
X17484062Y-19042843D01*
X17436443Y-18976176D02*
X17436443Y-19147605D01*
X17436443Y-19147605D02*
X17445967Y-19166652D01*
X17445967Y-19166652D02*
X17465015Y-19176176D01*
X17465015Y-19176176D02*
X17484062Y-19176176D01*
X17541205Y-19166652D02*
X17560253Y-19176176D01*
X17560253Y-19176176D02*
X17598348Y-19176176D01*
X17598348Y-19176176D02*
X17617396Y-19166652D01*
X17617396Y-19166652D02*
X17626919Y-19147605D01*
X17626919Y-19147605D02*
X17626919Y-19138081D01*
X17626919Y-19138081D02*
X17617396Y-19119033D01*
X17617396Y-19119033D02*
X17598348Y-19109510D01*
X17598348Y-19109510D02*
X17569776Y-19109510D01*
X17569776Y-19109510D02*
X17550729Y-19099986D01*
X17550729Y-19099986D02*
X17541205Y-19080938D01*
X17541205Y-19080938D02*
X17541205Y-19071414D01*
X17541205Y-19071414D02*
X17550729Y-19052367D01*
X17550729Y-19052367D02*
X17569776Y-19042843D01*
X17569776Y-19042843D02*
X17598348Y-19042843D01*
X17598348Y-19042843D02*
X17617396Y-19052367D01*
X17693586Y-19252367D02*
X17703110Y-19242843D01*
X17703110Y-19242843D02*
X17722157Y-19214271D01*
X17722157Y-19214271D02*
X17731681Y-19195224D01*
X17731681Y-19195224D02*
X17741205Y-19166652D01*
X17741205Y-19166652D02*
X17750729Y-19119033D01*
X17750729Y-19119033D02*
X17750729Y-19080938D01*
X17750729Y-19080938D02*
X17741205Y-19033319D01*
X17741205Y-19033319D02*
X17731681Y-19004748D01*
X17731681Y-19004748D02*
X17722157Y-18985700D01*
X17722157Y-18985700D02*
X17703110Y-18957129D01*
X17703110Y-18957129D02*
X17693586Y-18947605D01*
D16*
X11494300Y-19411700D02*
X11539300Y-19366700D01*
X11494300Y-19321700D01*
X11449300Y-19366700D01*
X11494300Y-19411700D01*
D11*
X11825014Y-19240176D02*
X11844062Y-19240176D01*
X11844062Y-19240176D02*
X11863109Y-19249700D01*
X11863109Y-19249700D02*
X11872633Y-19259224D01*
X11872633Y-19259224D02*
X11882157Y-19278271D01*
X11882157Y-19278271D02*
X11891681Y-19316367D01*
X11891681Y-19316367D02*
X11891681Y-19363986D01*
X11891681Y-19363986D02*
X11882157Y-19402081D01*
X11882157Y-19402081D02*
X11872633Y-19421129D01*
X11872633Y-19421129D02*
X11863109Y-19430652D01*
X11863109Y-19430652D02*
X11844062Y-19440176D01*
X11844062Y-19440176D02*
X11825014Y-19440176D01*
X11825014Y-19440176D02*
X11805967Y-19430652D01*
X11805967Y-19430652D02*
X11796443Y-19421129D01*
X11796443Y-19421129D02*
X11786919Y-19402081D01*
X11786919Y-19402081D02*
X11777395Y-19363986D01*
X11777395Y-19363986D02*
X11777395Y-19316367D01*
X11777395Y-19316367D02*
X11786919Y-19278271D01*
X11786919Y-19278271D02*
X11796443Y-19259224D01*
X11796443Y-19259224D02*
X11805967Y-19249700D01*
X11805967Y-19249700D02*
X11825014Y-19240176D01*
X11977395Y-19421129D02*
X11986919Y-19430652D01*
X11986919Y-19430652D02*
X11977395Y-19440176D01*
X11977395Y-19440176D02*
X11967871Y-19430652D01*
X11967871Y-19430652D02*
X11977395Y-19421129D01*
X11977395Y-19421129D02*
X11977395Y-19440176D01*
X12082157Y-19440176D02*
X12120252Y-19440176D01*
X12120252Y-19440176D02*
X12139300Y-19430652D01*
X12139300Y-19430652D02*
X12148824Y-19421129D01*
X12148824Y-19421129D02*
X12167871Y-19392557D01*
X12167871Y-19392557D02*
X12177395Y-19354462D01*
X12177395Y-19354462D02*
X12177395Y-19278271D01*
X12177395Y-19278271D02*
X12167871Y-19259224D01*
X12167871Y-19259224D02*
X12158348Y-19249700D01*
X12158348Y-19249700D02*
X12139300Y-19240176D01*
X12139300Y-19240176D02*
X12101205Y-19240176D01*
X12101205Y-19240176D02*
X12082157Y-19249700D01*
X12082157Y-19249700D02*
X12072633Y-19259224D01*
X12072633Y-19259224D02*
X12063109Y-19278271D01*
X12063109Y-19278271D02*
X12063109Y-19325890D01*
X12063109Y-19325890D02*
X12072633Y-19344938D01*
X12072633Y-19344938D02*
X12082157Y-19354462D01*
X12082157Y-19354462D02*
X12101205Y-19363986D01*
X12101205Y-19363986D02*
X12139300Y-19363986D01*
X12139300Y-19363986D02*
X12158348Y-19354462D01*
X12158348Y-19354462D02*
X12167871Y-19344938D01*
X12167871Y-19344938D02*
X12177395Y-19325890D01*
X12301205Y-19240176D02*
X12320252Y-19240176D01*
X12320252Y-19240176D02*
X12339300Y-19249700D01*
X12339300Y-19249700D02*
X12348824Y-19259224D01*
X12348824Y-19259224D02*
X12358348Y-19278271D01*
X12358348Y-19278271D02*
X12367871Y-19316367D01*
X12367871Y-19316367D02*
X12367871Y-19363986D01*
X12367871Y-19363986D02*
X12358348Y-19402081D01*
X12358348Y-19402081D02*
X12348824Y-19421129D01*
X12348824Y-19421129D02*
X12339300Y-19430652D01*
X12339300Y-19430652D02*
X12320252Y-19440176D01*
X12320252Y-19440176D02*
X12301205Y-19440176D01*
X12301205Y-19440176D02*
X12282157Y-19430652D01*
X12282157Y-19430652D02*
X12272633Y-19421129D01*
X12272633Y-19421129D02*
X12263109Y-19402081D01*
X12263109Y-19402081D02*
X12253586Y-19363986D01*
X12253586Y-19363986D02*
X12253586Y-19316367D01*
X12253586Y-19316367D02*
X12263109Y-19278271D01*
X12263109Y-19278271D02*
X12272633Y-19259224D01*
X12272633Y-19259224D02*
X12282157Y-19249700D01*
X12282157Y-19249700D02*
X12301205Y-19240176D01*
X12491681Y-19240176D02*
X12510729Y-19240176D01*
X12510729Y-19240176D02*
X12529776Y-19249700D01*
X12529776Y-19249700D02*
X12539300Y-19259224D01*
X12539300Y-19259224D02*
X12548824Y-19278271D01*
X12548824Y-19278271D02*
X12558348Y-19316367D01*
X12558348Y-19316367D02*
X12558348Y-19363986D01*
X12558348Y-19363986D02*
X12548824Y-19402081D01*
X12548824Y-19402081D02*
X12539300Y-19421129D01*
X12539300Y-19421129D02*
X12529776Y-19430652D01*
X12529776Y-19430652D02*
X12510729Y-19440176D01*
X12510729Y-19440176D02*
X12491681Y-19440176D01*
X12491681Y-19440176D02*
X12472633Y-19430652D01*
X12472633Y-19430652D02*
X12463109Y-19421129D01*
X12463109Y-19421129D02*
X12453586Y-19402081D01*
X12453586Y-19402081D02*
X12444062Y-19363986D01*
X12444062Y-19363986D02*
X12444062Y-19316367D01*
X12444062Y-19316367D02*
X12453586Y-19278271D01*
X12453586Y-19278271D02*
X12463109Y-19259224D01*
X12463109Y-19259224D02*
X12472633Y-19249700D01*
X12472633Y-19249700D02*
X12491681Y-19240176D01*
X12644062Y-19440176D02*
X12644062Y-19306843D01*
X12644062Y-19325890D02*
X12653586Y-19316367D01*
X12653586Y-19316367D02*
X12672633Y-19306843D01*
X12672633Y-19306843D02*
X12701205Y-19306843D01*
X12701205Y-19306843D02*
X12720252Y-19316367D01*
X12720252Y-19316367D02*
X12729776Y-19335414D01*
X12729776Y-19335414D02*
X12729776Y-19440176D01*
X12729776Y-19335414D02*
X12739300Y-19316367D01*
X12739300Y-19316367D02*
X12758348Y-19306843D01*
X12758348Y-19306843D02*
X12786919Y-19306843D01*
X12786919Y-19306843D02*
X12805967Y-19316367D01*
X12805967Y-19316367D02*
X12815490Y-19335414D01*
X12815490Y-19335414D02*
X12815490Y-19440176D01*
X12910729Y-19440176D02*
X12910729Y-19306843D01*
X12910729Y-19325890D02*
X12920252Y-19316367D01*
X12920252Y-19316367D02*
X12939300Y-19306843D01*
X12939300Y-19306843D02*
X12967871Y-19306843D01*
X12967871Y-19306843D02*
X12986919Y-19316367D01*
X12986919Y-19316367D02*
X12996443Y-19335414D01*
X12996443Y-19335414D02*
X12996443Y-19440176D01*
X12996443Y-19335414D02*
X13005967Y-19316367D01*
X13005967Y-19316367D02*
X13025014Y-19306843D01*
X13025014Y-19306843D02*
X13053586Y-19306843D01*
X13053586Y-19306843D02*
X13072633Y-19316367D01*
X13072633Y-19316367D02*
X13082157Y-19335414D01*
X13082157Y-19335414D02*
X13082157Y-19440176D01*
X13440252Y-19230652D02*
X13268824Y-19487795D01*
X13665014Y-19240176D02*
X13684062Y-19240176D01*
X13684062Y-19240176D02*
X13703110Y-19249700D01*
X13703110Y-19249700D02*
X13712633Y-19259224D01*
X13712633Y-19259224D02*
X13722157Y-19278271D01*
X13722157Y-19278271D02*
X13731681Y-19316367D01*
X13731681Y-19316367D02*
X13731681Y-19363986D01*
X13731681Y-19363986D02*
X13722157Y-19402081D01*
X13722157Y-19402081D02*
X13712633Y-19421129D01*
X13712633Y-19421129D02*
X13703110Y-19430652D01*
X13703110Y-19430652D02*
X13684062Y-19440176D01*
X13684062Y-19440176D02*
X13665014Y-19440176D01*
X13665014Y-19440176D02*
X13645967Y-19430652D01*
X13645967Y-19430652D02*
X13636443Y-19421129D01*
X13636443Y-19421129D02*
X13626919Y-19402081D01*
X13626919Y-19402081D02*
X13617395Y-19363986D01*
X13617395Y-19363986D02*
X13617395Y-19316367D01*
X13617395Y-19316367D02*
X13626919Y-19278271D01*
X13626919Y-19278271D02*
X13636443Y-19259224D01*
X13636443Y-19259224D02*
X13645967Y-19249700D01*
X13645967Y-19249700D02*
X13665014Y-19240176D01*
X13817395Y-19421129D02*
X13826919Y-19430652D01*
X13826919Y-19430652D02*
X13817395Y-19440176D01*
X13817395Y-19440176D02*
X13807871Y-19430652D01*
X13807871Y-19430652D02*
X13817395Y-19421129D01*
X13817395Y-19421129D02*
X13817395Y-19440176D01*
X13950729Y-19240176D02*
X13969776Y-19240176D01*
X13969776Y-19240176D02*
X13988824Y-19249700D01*
X13988824Y-19249700D02*
X13998348Y-19259224D01*
X13998348Y-19259224D02*
X14007871Y-19278271D01*
X14007871Y-19278271D02*
X14017395Y-19316367D01*
X14017395Y-19316367D02*
X14017395Y-19363986D01*
X14017395Y-19363986D02*
X14007871Y-19402081D01*
X14007871Y-19402081D02*
X13998348Y-19421129D01*
X13998348Y-19421129D02*
X13988824Y-19430652D01*
X13988824Y-19430652D02*
X13969776Y-19440176D01*
X13969776Y-19440176D02*
X13950729Y-19440176D01*
X13950729Y-19440176D02*
X13931681Y-19430652D01*
X13931681Y-19430652D02*
X13922157Y-19421129D01*
X13922157Y-19421129D02*
X13912633Y-19402081D01*
X13912633Y-19402081D02*
X13903110Y-19363986D01*
X13903110Y-19363986D02*
X13903110Y-19316367D01*
X13903110Y-19316367D02*
X13912633Y-19278271D01*
X13912633Y-19278271D02*
X13922157Y-19259224D01*
X13922157Y-19259224D02*
X13931681Y-19249700D01*
X13931681Y-19249700D02*
X13950729Y-19240176D01*
X14084062Y-19240176D02*
X14207871Y-19240176D01*
X14207871Y-19240176D02*
X14141205Y-19316367D01*
X14141205Y-19316367D02*
X14169776Y-19316367D01*
X14169776Y-19316367D02*
X14188824Y-19325890D01*
X14188824Y-19325890D02*
X14198348Y-19335414D01*
X14198348Y-19335414D02*
X14207871Y-19354462D01*
X14207871Y-19354462D02*
X14207871Y-19402081D01*
X14207871Y-19402081D02*
X14198348Y-19421129D01*
X14198348Y-19421129D02*
X14188824Y-19430652D01*
X14188824Y-19430652D02*
X14169776Y-19440176D01*
X14169776Y-19440176D02*
X14112633Y-19440176D01*
X14112633Y-19440176D02*
X14093586Y-19430652D01*
X14093586Y-19430652D02*
X14084062Y-19421129D01*
X14388824Y-19240176D02*
X14293586Y-19240176D01*
X14293586Y-19240176D02*
X14284062Y-19335414D01*
X14284062Y-19335414D02*
X14293586Y-19325890D01*
X14293586Y-19325890D02*
X14312633Y-19316367D01*
X14312633Y-19316367D02*
X14360252Y-19316367D01*
X14360252Y-19316367D02*
X14379300Y-19325890D01*
X14379300Y-19325890D02*
X14388824Y-19335414D01*
X14388824Y-19335414D02*
X14398348Y-19354462D01*
X14398348Y-19354462D02*
X14398348Y-19402081D01*
X14398348Y-19402081D02*
X14388824Y-19421129D01*
X14388824Y-19421129D02*
X14379300Y-19430652D01*
X14379300Y-19430652D02*
X14360252Y-19440176D01*
X14360252Y-19440176D02*
X14312633Y-19440176D01*
X14312633Y-19440176D02*
X14293586Y-19430652D01*
X14293586Y-19430652D02*
X14284062Y-19421129D01*
X14569776Y-19306843D02*
X14569776Y-19440176D01*
X14522157Y-19230652D02*
X14474538Y-19373510D01*
X14474538Y-19373510D02*
X14598348Y-19373510D01*
X14665014Y-19240176D02*
X14665014Y-19278271D01*
X14741205Y-19240176D02*
X14741205Y-19278271D01*
X15004062Y-19516367D02*
X14994538Y-19506843D01*
X14994538Y-19506843D02*
X14975491Y-19478271D01*
X14975491Y-19478271D02*
X14965967Y-19459224D01*
X14965967Y-19459224D02*
X14956443Y-19430652D01*
X14956443Y-19430652D02*
X14946919Y-19383033D01*
X14946919Y-19383033D02*
X14946919Y-19344938D01*
X14946919Y-19344938D02*
X14956443Y-19297319D01*
X14956443Y-19297319D02*
X14965967Y-19268748D01*
X14965967Y-19268748D02*
X14975491Y-19249700D01*
X14975491Y-19249700D02*
X14994538Y-19221129D01*
X14994538Y-19221129D02*
X15004062Y-19211605D01*
X15070729Y-19259224D02*
X15080252Y-19249700D01*
X15080252Y-19249700D02*
X15099300Y-19240176D01*
X15099300Y-19240176D02*
X15146919Y-19240176D01*
X15146919Y-19240176D02*
X15165967Y-19249700D01*
X15165967Y-19249700D02*
X15175491Y-19259224D01*
X15175491Y-19259224D02*
X15185014Y-19278271D01*
X15185014Y-19278271D02*
X15185014Y-19297319D01*
X15185014Y-19297319D02*
X15175491Y-19325890D01*
X15175491Y-19325890D02*
X15061205Y-19440176D01*
X15061205Y-19440176D02*
X15185014Y-19440176D01*
X15390729Y-19440176D02*
X15390729Y-19240176D01*
X15476443Y-19440176D02*
X15476443Y-19335414D01*
X15476443Y-19335414D02*
X15466919Y-19316367D01*
X15466919Y-19316367D02*
X15447872Y-19306843D01*
X15447872Y-19306843D02*
X15419300Y-19306843D01*
X15419300Y-19306843D02*
X15400252Y-19316367D01*
X15400252Y-19316367D02*
X15390729Y-19325890D01*
X15600252Y-19440176D02*
X15581205Y-19430652D01*
X15581205Y-19430652D02*
X15571681Y-19421129D01*
X15571681Y-19421129D02*
X15562157Y-19402081D01*
X15562157Y-19402081D02*
X15562157Y-19344938D01*
X15562157Y-19344938D02*
X15571681Y-19325890D01*
X15571681Y-19325890D02*
X15581205Y-19316367D01*
X15581205Y-19316367D02*
X15600252Y-19306843D01*
X15600252Y-19306843D02*
X15628824Y-19306843D01*
X15628824Y-19306843D02*
X15647872Y-19316367D01*
X15647872Y-19316367D02*
X15657395Y-19325890D01*
X15657395Y-19325890D02*
X15666919Y-19344938D01*
X15666919Y-19344938D02*
X15666919Y-19402081D01*
X15666919Y-19402081D02*
X15657395Y-19421129D01*
X15657395Y-19421129D02*
X15647872Y-19430652D01*
X15647872Y-19430652D02*
X15628824Y-19440176D01*
X15628824Y-19440176D02*
X15600252Y-19440176D01*
X15781205Y-19440176D02*
X15762157Y-19430652D01*
X15762157Y-19430652D02*
X15752633Y-19411605D01*
X15752633Y-19411605D02*
X15752633Y-19240176D01*
X15933586Y-19430652D02*
X15914538Y-19440176D01*
X15914538Y-19440176D02*
X15876443Y-19440176D01*
X15876443Y-19440176D02*
X15857395Y-19430652D01*
X15857395Y-19430652D02*
X15847872Y-19411605D01*
X15847872Y-19411605D02*
X15847872Y-19335414D01*
X15847872Y-19335414D02*
X15857395Y-19316367D01*
X15857395Y-19316367D02*
X15876443Y-19306843D01*
X15876443Y-19306843D02*
X15914538Y-19306843D01*
X15914538Y-19306843D02*
X15933586Y-19316367D01*
X15933586Y-19316367D02*
X15943110Y-19335414D01*
X15943110Y-19335414D02*
X15943110Y-19354462D01*
X15943110Y-19354462D02*
X15847872Y-19373510D01*
X16019300Y-19430652D02*
X16038348Y-19440176D01*
X16038348Y-19440176D02*
X16076443Y-19440176D01*
X16076443Y-19440176D02*
X16095491Y-19430652D01*
X16095491Y-19430652D02*
X16105014Y-19411605D01*
X16105014Y-19411605D02*
X16105014Y-19402081D01*
X16105014Y-19402081D02*
X16095491Y-19383033D01*
X16095491Y-19383033D02*
X16076443Y-19373510D01*
X16076443Y-19373510D02*
X16047872Y-19373510D01*
X16047872Y-19373510D02*
X16028824Y-19363986D01*
X16028824Y-19363986D02*
X16019300Y-19344938D01*
X16019300Y-19344938D02*
X16019300Y-19335414D01*
X16019300Y-19335414D02*
X16028824Y-19316367D01*
X16028824Y-19316367D02*
X16047872Y-19306843D01*
X16047872Y-19306843D02*
X16076443Y-19306843D01*
X16076443Y-19306843D02*
X16095491Y-19316367D01*
X16171681Y-19516367D02*
X16181205Y-19506843D01*
X16181205Y-19506843D02*
X16200253Y-19478271D01*
X16200253Y-19478271D02*
X16209776Y-19459224D01*
X16209776Y-19459224D02*
X16219300Y-19430652D01*
X16219300Y-19430652D02*
X16228824Y-19383033D01*
X16228824Y-19383033D02*
X16228824Y-19344938D01*
X16228824Y-19344938D02*
X16219300Y-19297319D01*
X16219300Y-19297319D02*
X16209776Y-19268748D01*
X16209776Y-19268748D02*
X16200253Y-19249700D01*
X16200253Y-19249700D02*
X16181205Y-19221129D01*
X16181205Y-19221129D02*
X16171681Y-19211605D01*
D10*
X11439300Y-19580700D02*
X11539300Y-19680700D01*
X11539300Y-19580700D02*
X11439300Y-19680700D01*
X11539300Y-19630700D02*
G75*
G03*
X11539300Y-19630700I-50000J0D01*
G01*
D11*
X11891681Y-19704176D02*
X11777395Y-19704176D01*
X11834538Y-19704176D02*
X11834538Y-19504176D01*
X11834538Y-19504176D02*
X11815490Y-19532748D01*
X11815490Y-19532748D02*
X11796443Y-19551795D01*
X11796443Y-19551795D02*
X11777395Y-19561319D01*
X11977395Y-19685129D02*
X11986919Y-19694652D01*
X11986919Y-19694652D02*
X11977395Y-19704176D01*
X11977395Y-19704176D02*
X11967871Y-19694652D01*
X11967871Y-19694652D02*
X11977395Y-19685129D01*
X11977395Y-19685129D02*
X11977395Y-19704176D01*
X12110728Y-19504176D02*
X12129776Y-19504176D01*
X12129776Y-19504176D02*
X12148824Y-19513700D01*
X12148824Y-19513700D02*
X12158348Y-19523224D01*
X12158348Y-19523224D02*
X12167871Y-19542271D01*
X12167871Y-19542271D02*
X12177395Y-19580367D01*
X12177395Y-19580367D02*
X12177395Y-19627986D01*
X12177395Y-19627986D02*
X12167871Y-19666081D01*
X12167871Y-19666081D02*
X12158348Y-19685129D01*
X12158348Y-19685129D02*
X12148824Y-19694652D01*
X12148824Y-19694652D02*
X12129776Y-19704176D01*
X12129776Y-19704176D02*
X12110728Y-19704176D01*
X12110728Y-19704176D02*
X12091681Y-19694652D01*
X12091681Y-19694652D02*
X12082157Y-19685129D01*
X12082157Y-19685129D02*
X12072633Y-19666081D01*
X12072633Y-19666081D02*
X12063109Y-19627986D01*
X12063109Y-19627986D02*
X12063109Y-19580367D01*
X12063109Y-19580367D02*
X12072633Y-19542271D01*
X12072633Y-19542271D02*
X12082157Y-19523224D01*
X12082157Y-19523224D02*
X12091681Y-19513700D01*
X12091681Y-19513700D02*
X12110728Y-19504176D01*
X12301205Y-19504176D02*
X12320252Y-19504176D01*
X12320252Y-19504176D02*
X12339300Y-19513700D01*
X12339300Y-19513700D02*
X12348824Y-19523224D01*
X12348824Y-19523224D02*
X12358348Y-19542271D01*
X12358348Y-19542271D02*
X12367871Y-19580367D01*
X12367871Y-19580367D02*
X12367871Y-19627986D01*
X12367871Y-19627986D02*
X12358348Y-19666081D01*
X12358348Y-19666081D02*
X12348824Y-19685129D01*
X12348824Y-19685129D02*
X12339300Y-19694652D01*
X12339300Y-19694652D02*
X12320252Y-19704176D01*
X12320252Y-19704176D02*
X12301205Y-19704176D01*
X12301205Y-19704176D02*
X12282157Y-19694652D01*
X12282157Y-19694652D02*
X12272633Y-19685129D01*
X12272633Y-19685129D02*
X12263109Y-19666081D01*
X12263109Y-19666081D02*
X12253586Y-19627986D01*
X12253586Y-19627986D02*
X12253586Y-19580367D01*
X12253586Y-19580367D02*
X12263109Y-19542271D01*
X12263109Y-19542271D02*
X12272633Y-19523224D01*
X12272633Y-19523224D02*
X12282157Y-19513700D01*
X12282157Y-19513700D02*
X12301205Y-19504176D01*
X12491681Y-19504176D02*
X12510729Y-19504176D01*
X12510729Y-19504176D02*
X12529776Y-19513700D01*
X12529776Y-19513700D02*
X12539300Y-19523224D01*
X12539300Y-19523224D02*
X12548824Y-19542271D01*
X12548824Y-19542271D02*
X12558348Y-19580367D01*
X12558348Y-19580367D02*
X12558348Y-19627986D01*
X12558348Y-19627986D02*
X12548824Y-19666081D01*
X12548824Y-19666081D02*
X12539300Y-19685129D01*
X12539300Y-19685129D02*
X12529776Y-19694652D01*
X12529776Y-19694652D02*
X12510729Y-19704176D01*
X12510729Y-19704176D02*
X12491681Y-19704176D01*
X12491681Y-19704176D02*
X12472633Y-19694652D01*
X12472633Y-19694652D02*
X12463109Y-19685129D01*
X12463109Y-19685129D02*
X12453586Y-19666081D01*
X12453586Y-19666081D02*
X12444062Y-19627986D01*
X12444062Y-19627986D02*
X12444062Y-19580367D01*
X12444062Y-19580367D02*
X12453586Y-19542271D01*
X12453586Y-19542271D02*
X12463109Y-19523224D01*
X12463109Y-19523224D02*
X12472633Y-19513700D01*
X12472633Y-19513700D02*
X12491681Y-19504176D01*
X12644062Y-19704176D02*
X12644062Y-19570843D01*
X12644062Y-19589890D02*
X12653586Y-19580367D01*
X12653586Y-19580367D02*
X12672633Y-19570843D01*
X12672633Y-19570843D02*
X12701205Y-19570843D01*
X12701205Y-19570843D02*
X12720252Y-19580367D01*
X12720252Y-19580367D02*
X12729776Y-19599414D01*
X12729776Y-19599414D02*
X12729776Y-19704176D01*
X12729776Y-19599414D02*
X12739300Y-19580367D01*
X12739300Y-19580367D02*
X12758348Y-19570843D01*
X12758348Y-19570843D02*
X12786919Y-19570843D01*
X12786919Y-19570843D02*
X12805967Y-19580367D01*
X12805967Y-19580367D02*
X12815490Y-19599414D01*
X12815490Y-19599414D02*
X12815490Y-19704176D01*
X12910729Y-19704176D02*
X12910729Y-19570843D01*
X12910729Y-19589890D02*
X12920252Y-19580367D01*
X12920252Y-19580367D02*
X12939300Y-19570843D01*
X12939300Y-19570843D02*
X12967871Y-19570843D01*
X12967871Y-19570843D02*
X12986919Y-19580367D01*
X12986919Y-19580367D02*
X12996443Y-19599414D01*
X12996443Y-19599414D02*
X12996443Y-19704176D01*
X12996443Y-19599414D02*
X13005967Y-19580367D01*
X13005967Y-19580367D02*
X13025014Y-19570843D01*
X13025014Y-19570843D02*
X13053586Y-19570843D01*
X13053586Y-19570843D02*
X13072633Y-19580367D01*
X13072633Y-19580367D02*
X13082157Y-19599414D01*
X13082157Y-19599414D02*
X13082157Y-19704176D01*
X13440252Y-19494652D02*
X13268824Y-19751795D01*
X13665014Y-19504176D02*
X13684062Y-19504176D01*
X13684062Y-19504176D02*
X13703110Y-19513700D01*
X13703110Y-19513700D02*
X13712633Y-19523224D01*
X13712633Y-19523224D02*
X13722157Y-19542271D01*
X13722157Y-19542271D02*
X13731681Y-19580367D01*
X13731681Y-19580367D02*
X13731681Y-19627986D01*
X13731681Y-19627986D02*
X13722157Y-19666081D01*
X13722157Y-19666081D02*
X13712633Y-19685129D01*
X13712633Y-19685129D02*
X13703110Y-19694652D01*
X13703110Y-19694652D02*
X13684062Y-19704176D01*
X13684062Y-19704176D02*
X13665014Y-19704176D01*
X13665014Y-19704176D02*
X13645967Y-19694652D01*
X13645967Y-19694652D02*
X13636443Y-19685129D01*
X13636443Y-19685129D02*
X13626919Y-19666081D01*
X13626919Y-19666081D02*
X13617395Y-19627986D01*
X13617395Y-19627986D02*
X13617395Y-19580367D01*
X13617395Y-19580367D02*
X13626919Y-19542271D01*
X13626919Y-19542271D02*
X13636443Y-19523224D01*
X13636443Y-19523224D02*
X13645967Y-19513700D01*
X13645967Y-19513700D02*
X13665014Y-19504176D01*
X13817395Y-19685129D02*
X13826919Y-19694652D01*
X13826919Y-19694652D02*
X13817395Y-19704176D01*
X13817395Y-19704176D02*
X13807871Y-19694652D01*
X13807871Y-19694652D02*
X13817395Y-19685129D01*
X13817395Y-19685129D02*
X13817395Y-19704176D01*
X13950729Y-19504176D02*
X13969776Y-19504176D01*
X13969776Y-19504176D02*
X13988824Y-19513700D01*
X13988824Y-19513700D02*
X13998348Y-19523224D01*
X13998348Y-19523224D02*
X14007871Y-19542271D01*
X14007871Y-19542271D02*
X14017395Y-19580367D01*
X14017395Y-19580367D02*
X14017395Y-19627986D01*
X14017395Y-19627986D02*
X14007871Y-19666081D01*
X14007871Y-19666081D02*
X13998348Y-19685129D01*
X13998348Y-19685129D02*
X13988824Y-19694652D01*
X13988824Y-19694652D02*
X13969776Y-19704176D01*
X13969776Y-19704176D02*
X13950729Y-19704176D01*
X13950729Y-19704176D02*
X13931681Y-19694652D01*
X13931681Y-19694652D02*
X13922157Y-19685129D01*
X13922157Y-19685129D02*
X13912633Y-19666081D01*
X13912633Y-19666081D02*
X13903110Y-19627986D01*
X13903110Y-19627986D02*
X13903110Y-19580367D01*
X13903110Y-19580367D02*
X13912633Y-19542271D01*
X13912633Y-19542271D02*
X13922157Y-19523224D01*
X13922157Y-19523224D02*
X13931681Y-19513700D01*
X13931681Y-19513700D02*
X13950729Y-19504176D01*
X14084062Y-19504176D02*
X14207871Y-19504176D01*
X14207871Y-19504176D02*
X14141205Y-19580367D01*
X14141205Y-19580367D02*
X14169776Y-19580367D01*
X14169776Y-19580367D02*
X14188824Y-19589890D01*
X14188824Y-19589890D02*
X14198348Y-19599414D01*
X14198348Y-19599414D02*
X14207871Y-19618462D01*
X14207871Y-19618462D02*
X14207871Y-19666081D01*
X14207871Y-19666081D02*
X14198348Y-19685129D01*
X14198348Y-19685129D02*
X14188824Y-19694652D01*
X14188824Y-19694652D02*
X14169776Y-19704176D01*
X14169776Y-19704176D02*
X14112633Y-19704176D01*
X14112633Y-19704176D02*
X14093586Y-19694652D01*
X14093586Y-19694652D02*
X14084062Y-19685129D01*
X14303110Y-19704176D02*
X14341205Y-19704176D01*
X14341205Y-19704176D02*
X14360252Y-19694652D01*
X14360252Y-19694652D02*
X14369776Y-19685129D01*
X14369776Y-19685129D02*
X14388824Y-19656557D01*
X14388824Y-19656557D02*
X14398348Y-19618462D01*
X14398348Y-19618462D02*
X14398348Y-19542271D01*
X14398348Y-19542271D02*
X14388824Y-19523224D01*
X14388824Y-19523224D02*
X14379300Y-19513700D01*
X14379300Y-19513700D02*
X14360252Y-19504176D01*
X14360252Y-19504176D02*
X14322157Y-19504176D01*
X14322157Y-19504176D02*
X14303110Y-19513700D01*
X14303110Y-19513700D02*
X14293586Y-19523224D01*
X14293586Y-19523224D02*
X14284062Y-19542271D01*
X14284062Y-19542271D02*
X14284062Y-19589890D01*
X14284062Y-19589890D02*
X14293586Y-19608938D01*
X14293586Y-19608938D02*
X14303110Y-19618462D01*
X14303110Y-19618462D02*
X14322157Y-19627986D01*
X14322157Y-19627986D02*
X14360252Y-19627986D01*
X14360252Y-19627986D02*
X14379300Y-19618462D01*
X14379300Y-19618462D02*
X14388824Y-19608938D01*
X14388824Y-19608938D02*
X14398348Y-19589890D01*
X14569776Y-19570843D02*
X14569776Y-19704176D01*
X14522157Y-19494652D02*
X14474538Y-19637510D01*
X14474538Y-19637510D02*
X14598348Y-19637510D01*
X14665014Y-19504176D02*
X14665014Y-19542271D01*
X14741205Y-19504176D02*
X14741205Y-19542271D01*
X15004062Y-19780367D02*
X14994538Y-19770843D01*
X14994538Y-19770843D02*
X14975491Y-19742271D01*
X14975491Y-19742271D02*
X14965967Y-19723224D01*
X14965967Y-19723224D02*
X14956443Y-19694652D01*
X14956443Y-19694652D02*
X14946919Y-19647033D01*
X14946919Y-19647033D02*
X14946919Y-19608938D01*
X14946919Y-19608938D02*
X14956443Y-19561319D01*
X14956443Y-19561319D02*
X14965967Y-19532748D01*
X14965967Y-19532748D02*
X14975491Y-19513700D01*
X14975491Y-19513700D02*
X14994538Y-19485129D01*
X14994538Y-19485129D02*
X15004062Y-19475605D01*
X15070729Y-19523224D02*
X15080252Y-19513700D01*
X15080252Y-19513700D02*
X15099300Y-19504176D01*
X15099300Y-19504176D02*
X15146919Y-19504176D01*
X15146919Y-19504176D02*
X15165967Y-19513700D01*
X15165967Y-19513700D02*
X15175491Y-19523224D01*
X15175491Y-19523224D02*
X15185014Y-19542271D01*
X15185014Y-19542271D02*
X15185014Y-19561319D01*
X15185014Y-19561319D02*
X15175491Y-19589890D01*
X15175491Y-19589890D02*
X15061205Y-19704176D01*
X15061205Y-19704176D02*
X15185014Y-19704176D01*
X15251681Y-19504176D02*
X15385014Y-19504176D01*
X15385014Y-19504176D02*
X15299300Y-19704176D01*
X15581205Y-19704176D02*
X15581205Y-19504176D01*
X15666919Y-19704176D02*
X15666919Y-19599414D01*
X15666919Y-19599414D02*
X15657395Y-19580367D01*
X15657395Y-19580367D02*
X15638348Y-19570843D01*
X15638348Y-19570843D02*
X15609776Y-19570843D01*
X15609776Y-19570843D02*
X15590729Y-19580367D01*
X15590729Y-19580367D02*
X15581205Y-19589890D01*
X15790729Y-19704176D02*
X15771681Y-19694652D01*
X15771681Y-19694652D02*
X15762157Y-19685129D01*
X15762157Y-19685129D02*
X15752633Y-19666081D01*
X15752633Y-19666081D02*
X15752633Y-19608938D01*
X15752633Y-19608938D02*
X15762157Y-19589890D01*
X15762157Y-19589890D02*
X15771681Y-19580367D01*
X15771681Y-19580367D02*
X15790729Y-19570843D01*
X15790729Y-19570843D02*
X15819300Y-19570843D01*
X15819300Y-19570843D02*
X15838348Y-19580367D01*
X15838348Y-19580367D02*
X15847872Y-19589890D01*
X15847872Y-19589890D02*
X15857395Y-19608938D01*
X15857395Y-19608938D02*
X15857395Y-19666081D01*
X15857395Y-19666081D02*
X15847872Y-19685129D01*
X15847872Y-19685129D02*
X15838348Y-19694652D01*
X15838348Y-19694652D02*
X15819300Y-19704176D01*
X15819300Y-19704176D02*
X15790729Y-19704176D01*
X15971681Y-19704176D02*
X15952633Y-19694652D01*
X15952633Y-19694652D02*
X15943110Y-19675605D01*
X15943110Y-19675605D02*
X15943110Y-19504176D01*
X16124062Y-19694652D02*
X16105014Y-19704176D01*
X16105014Y-19704176D02*
X16066919Y-19704176D01*
X16066919Y-19704176D02*
X16047872Y-19694652D01*
X16047872Y-19694652D02*
X16038348Y-19675605D01*
X16038348Y-19675605D02*
X16038348Y-19599414D01*
X16038348Y-19599414D02*
X16047872Y-19580367D01*
X16047872Y-19580367D02*
X16066919Y-19570843D01*
X16066919Y-19570843D02*
X16105014Y-19570843D01*
X16105014Y-19570843D02*
X16124062Y-19580367D01*
X16124062Y-19580367D02*
X16133586Y-19599414D01*
X16133586Y-19599414D02*
X16133586Y-19618462D01*
X16133586Y-19618462D02*
X16038348Y-19637510D01*
X16209776Y-19694652D02*
X16228824Y-19704176D01*
X16228824Y-19704176D02*
X16266919Y-19704176D01*
X16266919Y-19704176D02*
X16285967Y-19694652D01*
X16285967Y-19694652D02*
X16295491Y-19675605D01*
X16295491Y-19675605D02*
X16295491Y-19666081D01*
X16295491Y-19666081D02*
X16285967Y-19647033D01*
X16285967Y-19647033D02*
X16266919Y-19637510D01*
X16266919Y-19637510D02*
X16238348Y-19637510D01*
X16238348Y-19637510D02*
X16219300Y-19627986D01*
X16219300Y-19627986D02*
X16209776Y-19608938D01*
X16209776Y-19608938D02*
X16209776Y-19599414D01*
X16209776Y-19599414D02*
X16219300Y-19580367D01*
X16219300Y-19580367D02*
X16238348Y-19570843D01*
X16238348Y-19570843D02*
X16266919Y-19570843D01*
X16266919Y-19570843D02*
X16285967Y-19580367D01*
X16362157Y-19780367D02*
X16371681Y-19770843D01*
X16371681Y-19770843D02*
X16390729Y-19742271D01*
X16390729Y-19742271D02*
X16400253Y-19723224D01*
X16400253Y-19723224D02*
X16409776Y-19694652D01*
X16409776Y-19694652D02*
X16419300Y-19647033D01*
X16419300Y-19647033D02*
X16419300Y-19608938D01*
X16419300Y-19608938D02*
X16409776Y-19561319D01*
X16409776Y-19561319D02*
X16400253Y-19532748D01*
X16400253Y-19532748D02*
X16390729Y-19513700D01*
X16390729Y-19513700D02*
X16371681Y-19485129D01*
X16371681Y-19485129D02*
X16362157Y-19475605D01*
D17*
X11409300Y-19829700D02*
X11539300Y-19959700D01*
X11539300Y-19829700D02*
X11409300Y-19959700D01*
X11474300Y-19829700D02*
X11474300Y-19959700D01*
X11409300Y-19894700D02*
X11539300Y-19894700D01*
D11*
X11891681Y-19968176D02*
X11777395Y-19968176D01*
X11834538Y-19968176D02*
X11834538Y-19768176D01*
X11834538Y-19768176D02*
X11815490Y-19796748D01*
X11815490Y-19796748D02*
X11796443Y-19815795D01*
X11796443Y-19815795D02*
X11777395Y-19825319D01*
X11977395Y-19949129D02*
X11986919Y-19958652D01*
X11986919Y-19958652D02*
X11977395Y-19968176D01*
X11977395Y-19968176D02*
X11967871Y-19958652D01*
X11967871Y-19958652D02*
X11977395Y-19949129D01*
X11977395Y-19949129D02*
X11977395Y-19968176D01*
X12053586Y-19768176D02*
X12177395Y-19768176D01*
X12177395Y-19768176D02*
X12110728Y-19844367D01*
X12110728Y-19844367D02*
X12139300Y-19844367D01*
X12139300Y-19844367D02*
X12158348Y-19853890D01*
X12158348Y-19853890D02*
X12167871Y-19863414D01*
X12167871Y-19863414D02*
X12177395Y-19882462D01*
X12177395Y-19882462D02*
X12177395Y-19930081D01*
X12177395Y-19930081D02*
X12167871Y-19949129D01*
X12167871Y-19949129D02*
X12158348Y-19958652D01*
X12158348Y-19958652D02*
X12139300Y-19968176D01*
X12139300Y-19968176D02*
X12082157Y-19968176D01*
X12082157Y-19968176D02*
X12063109Y-19958652D01*
X12063109Y-19958652D02*
X12053586Y-19949129D01*
X12301205Y-19768176D02*
X12320252Y-19768176D01*
X12320252Y-19768176D02*
X12339300Y-19777700D01*
X12339300Y-19777700D02*
X12348824Y-19787224D01*
X12348824Y-19787224D02*
X12358348Y-19806271D01*
X12358348Y-19806271D02*
X12367871Y-19844367D01*
X12367871Y-19844367D02*
X12367871Y-19891986D01*
X12367871Y-19891986D02*
X12358348Y-19930081D01*
X12358348Y-19930081D02*
X12348824Y-19949129D01*
X12348824Y-19949129D02*
X12339300Y-19958652D01*
X12339300Y-19958652D02*
X12320252Y-19968176D01*
X12320252Y-19968176D02*
X12301205Y-19968176D01*
X12301205Y-19968176D02*
X12282157Y-19958652D01*
X12282157Y-19958652D02*
X12272633Y-19949129D01*
X12272633Y-19949129D02*
X12263109Y-19930081D01*
X12263109Y-19930081D02*
X12253586Y-19891986D01*
X12253586Y-19891986D02*
X12253586Y-19844367D01*
X12253586Y-19844367D02*
X12263109Y-19806271D01*
X12263109Y-19806271D02*
X12272633Y-19787224D01*
X12272633Y-19787224D02*
X12282157Y-19777700D01*
X12282157Y-19777700D02*
X12301205Y-19768176D01*
X12491681Y-19768176D02*
X12510729Y-19768176D01*
X12510729Y-19768176D02*
X12529776Y-19777700D01*
X12529776Y-19777700D02*
X12539300Y-19787224D01*
X12539300Y-19787224D02*
X12548824Y-19806271D01*
X12548824Y-19806271D02*
X12558348Y-19844367D01*
X12558348Y-19844367D02*
X12558348Y-19891986D01*
X12558348Y-19891986D02*
X12548824Y-19930081D01*
X12548824Y-19930081D02*
X12539300Y-19949129D01*
X12539300Y-19949129D02*
X12529776Y-19958652D01*
X12529776Y-19958652D02*
X12510729Y-19968176D01*
X12510729Y-19968176D02*
X12491681Y-19968176D01*
X12491681Y-19968176D02*
X12472633Y-19958652D01*
X12472633Y-19958652D02*
X12463109Y-19949129D01*
X12463109Y-19949129D02*
X12453586Y-19930081D01*
X12453586Y-19930081D02*
X12444062Y-19891986D01*
X12444062Y-19891986D02*
X12444062Y-19844367D01*
X12444062Y-19844367D02*
X12453586Y-19806271D01*
X12453586Y-19806271D02*
X12463109Y-19787224D01*
X12463109Y-19787224D02*
X12472633Y-19777700D01*
X12472633Y-19777700D02*
X12491681Y-19768176D01*
X12644062Y-19968176D02*
X12644062Y-19834843D01*
X12644062Y-19853890D02*
X12653586Y-19844367D01*
X12653586Y-19844367D02*
X12672633Y-19834843D01*
X12672633Y-19834843D02*
X12701205Y-19834843D01*
X12701205Y-19834843D02*
X12720252Y-19844367D01*
X12720252Y-19844367D02*
X12729776Y-19863414D01*
X12729776Y-19863414D02*
X12729776Y-19968176D01*
X12729776Y-19863414D02*
X12739300Y-19844367D01*
X12739300Y-19844367D02*
X12758348Y-19834843D01*
X12758348Y-19834843D02*
X12786919Y-19834843D01*
X12786919Y-19834843D02*
X12805967Y-19844367D01*
X12805967Y-19844367D02*
X12815490Y-19863414D01*
X12815490Y-19863414D02*
X12815490Y-19968176D01*
X12910729Y-19968176D02*
X12910729Y-19834843D01*
X12910729Y-19853890D02*
X12920252Y-19844367D01*
X12920252Y-19844367D02*
X12939300Y-19834843D01*
X12939300Y-19834843D02*
X12967871Y-19834843D01*
X12967871Y-19834843D02*
X12986919Y-19844367D01*
X12986919Y-19844367D02*
X12996443Y-19863414D01*
X12996443Y-19863414D02*
X12996443Y-19968176D01*
X12996443Y-19863414D02*
X13005967Y-19844367D01*
X13005967Y-19844367D02*
X13025014Y-19834843D01*
X13025014Y-19834843D02*
X13053586Y-19834843D01*
X13053586Y-19834843D02*
X13072633Y-19844367D01*
X13072633Y-19844367D02*
X13082157Y-19863414D01*
X13082157Y-19863414D02*
X13082157Y-19968176D01*
X13440252Y-19758652D02*
X13268824Y-20015795D01*
X13665014Y-19768176D02*
X13684062Y-19768176D01*
X13684062Y-19768176D02*
X13703110Y-19777700D01*
X13703110Y-19777700D02*
X13712633Y-19787224D01*
X13712633Y-19787224D02*
X13722157Y-19806271D01*
X13722157Y-19806271D02*
X13731681Y-19844367D01*
X13731681Y-19844367D02*
X13731681Y-19891986D01*
X13731681Y-19891986D02*
X13722157Y-19930081D01*
X13722157Y-19930081D02*
X13712633Y-19949129D01*
X13712633Y-19949129D02*
X13703110Y-19958652D01*
X13703110Y-19958652D02*
X13684062Y-19968176D01*
X13684062Y-19968176D02*
X13665014Y-19968176D01*
X13665014Y-19968176D02*
X13645967Y-19958652D01*
X13645967Y-19958652D02*
X13636443Y-19949129D01*
X13636443Y-19949129D02*
X13626919Y-19930081D01*
X13626919Y-19930081D02*
X13617395Y-19891986D01*
X13617395Y-19891986D02*
X13617395Y-19844367D01*
X13617395Y-19844367D02*
X13626919Y-19806271D01*
X13626919Y-19806271D02*
X13636443Y-19787224D01*
X13636443Y-19787224D02*
X13645967Y-19777700D01*
X13645967Y-19777700D02*
X13665014Y-19768176D01*
X13817395Y-19949129D02*
X13826919Y-19958652D01*
X13826919Y-19958652D02*
X13817395Y-19968176D01*
X13817395Y-19968176D02*
X13807871Y-19958652D01*
X13807871Y-19958652D02*
X13817395Y-19949129D01*
X13817395Y-19949129D02*
X13817395Y-19968176D01*
X13950729Y-19768176D02*
X13969776Y-19768176D01*
X13969776Y-19768176D02*
X13988824Y-19777700D01*
X13988824Y-19777700D02*
X13998348Y-19787224D01*
X13998348Y-19787224D02*
X14007871Y-19806271D01*
X14007871Y-19806271D02*
X14017395Y-19844367D01*
X14017395Y-19844367D02*
X14017395Y-19891986D01*
X14017395Y-19891986D02*
X14007871Y-19930081D01*
X14007871Y-19930081D02*
X13998348Y-19949129D01*
X13998348Y-19949129D02*
X13988824Y-19958652D01*
X13988824Y-19958652D02*
X13969776Y-19968176D01*
X13969776Y-19968176D02*
X13950729Y-19968176D01*
X13950729Y-19968176D02*
X13931681Y-19958652D01*
X13931681Y-19958652D02*
X13922157Y-19949129D01*
X13922157Y-19949129D02*
X13912633Y-19930081D01*
X13912633Y-19930081D02*
X13903110Y-19891986D01*
X13903110Y-19891986D02*
X13903110Y-19844367D01*
X13903110Y-19844367D02*
X13912633Y-19806271D01*
X13912633Y-19806271D02*
X13922157Y-19787224D01*
X13922157Y-19787224D02*
X13931681Y-19777700D01*
X13931681Y-19777700D02*
X13950729Y-19768176D01*
X14198348Y-19768176D02*
X14103110Y-19768176D01*
X14103110Y-19768176D02*
X14093586Y-19863414D01*
X14093586Y-19863414D02*
X14103110Y-19853890D01*
X14103110Y-19853890D02*
X14122157Y-19844367D01*
X14122157Y-19844367D02*
X14169776Y-19844367D01*
X14169776Y-19844367D02*
X14188824Y-19853890D01*
X14188824Y-19853890D02*
X14198348Y-19863414D01*
X14198348Y-19863414D02*
X14207871Y-19882462D01*
X14207871Y-19882462D02*
X14207871Y-19930081D01*
X14207871Y-19930081D02*
X14198348Y-19949129D01*
X14198348Y-19949129D02*
X14188824Y-19958652D01*
X14188824Y-19958652D02*
X14169776Y-19968176D01*
X14169776Y-19968176D02*
X14122157Y-19968176D01*
X14122157Y-19968176D02*
X14103110Y-19958652D01*
X14103110Y-19958652D02*
X14093586Y-19949129D01*
X14398348Y-19968176D02*
X14284062Y-19968176D01*
X14341205Y-19968176D02*
X14341205Y-19768176D01*
X14341205Y-19768176D02*
X14322157Y-19796748D01*
X14322157Y-19796748D02*
X14303110Y-19815795D01*
X14303110Y-19815795D02*
X14284062Y-19825319D01*
X14474538Y-19787224D02*
X14484062Y-19777700D01*
X14484062Y-19777700D02*
X14503110Y-19768176D01*
X14503110Y-19768176D02*
X14550729Y-19768176D01*
X14550729Y-19768176D02*
X14569776Y-19777700D01*
X14569776Y-19777700D02*
X14579300Y-19787224D01*
X14579300Y-19787224D02*
X14588824Y-19806271D01*
X14588824Y-19806271D02*
X14588824Y-19825319D01*
X14588824Y-19825319D02*
X14579300Y-19853890D01*
X14579300Y-19853890D02*
X14465014Y-19968176D01*
X14465014Y-19968176D02*
X14588824Y-19968176D01*
X14665014Y-19768176D02*
X14665014Y-19806271D01*
X14741205Y-19768176D02*
X14741205Y-19806271D01*
X15004062Y-20044367D02*
X14994538Y-20034843D01*
X14994538Y-20034843D02*
X14975491Y-20006271D01*
X14975491Y-20006271D02*
X14965967Y-19987224D01*
X14965967Y-19987224D02*
X14956443Y-19958652D01*
X14956443Y-19958652D02*
X14946919Y-19911033D01*
X14946919Y-19911033D02*
X14946919Y-19872938D01*
X14946919Y-19872938D02*
X14956443Y-19825319D01*
X14956443Y-19825319D02*
X14965967Y-19796748D01*
X14965967Y-19796748D02*
X14975491Y-19777700D01*
X14975491Y-19777700D02*
X14994538Y-19749129D01*
X14994538Y-19749129D02*
X15004062Y-19739605D01*
X15165967Y-19768176D02*
X15127871Y-19768176D01*
X15127871Y-19768176D02*
X15108824Y-19777700D01*
X15108824Y-19777700D02*
X15099300Y-19787224D01*
X15099300Y-19787224D02*
X15080252Y-19815795D01*
X15080252Y-19815795D02*
X15070729Y-19853890D01*
X15070729Y-19853890D02*
X15070729Y-19930081D01*
X15070729Y-19930081D02*
X15080252Y-19949129D01*
X15080252Y-19949129D02*
X15089776Y-19958652D01*
X15089776Y-19958652D02*
X15108824Y-19968176D01*
X15108824Y-19968176D02*
X15146919Y-19968176D01*
X15146919Y-19968176D02*
X15165967Y-19958652D01*
X15165967Y-19958652D02*
X15175491Y-19949129D01*
X15175491Y-19949129D02*
X15185014Y-19930081D01*
X15185014Y-19930081D02*
X15185014Y-19882462D01*
X15185014Y-19882462D02*
X15175491Y-19863414D01*
X15175491Y-19863414D02*
X15165967Y-19853890D01*
X15165967Y-19853890D02*
X15146919Y-19844367D01*
X15146919Y-19844367D02*
X15108824Y-19844367D01*
X15108824Y-19844367D02*
X15089776Y-19853890D01*
X15089776Y-19853890D02*
X15080252Y-19863414D01*
X15080252Y-19863414D02*
X15070729Y-19882462D01*
X15390729Y-19968176D02*
X15390729Y-19768176D01*
X15476443Y-19968176D02*
X15476443Y-19863414D01*
X15476443Y-19863414D02*
X15466919Y-19844367D01*
X15466919Y-19844367D02*
X15447872Y-19834843D01*
X15447872Y-19834843D02*
X15419300Y-19834843D01*
X15419300Y-19834843D02*
X15400252Y-19844367D01*
X15400252Y-19844367D02*
X15390729Y-19853890D01*
X15600252Y-19968176D02*
X15581205Y-19958652D01*
X15581205Y-19958652D02*
X15571681Y-19949129D01*
X15571681Y-19949129D02*
X15562157Y-19930081D01*
X15562157Y-19930081D02*
X15562157Y-19872938D01*
X15562157Y-19872938D02*
X15571681Y-19853890D01*
X15571681Y-19853890D02*
X15581205Y-19844367D01*
X15581205Y-19844367D02*
X15600252Y-19834843D01*
X15600252Y-19834843D02*
X15628824Y-19834843D01*
X15628824Y-19834843D02*
X15647872Y-19844367D01*
X15647872Y-19844367D02*
X15657395Y-19853890D01*
X15657395Y-19853890D02*
X15666919Y-19872938D01*
X15666919Y-19872938D02*
X15666919Y-19930081D01*
X15666919Y-19930081D02*
X15657395Y-19949129D01*
X15657395Y-19949129D02*
X15647872Y-19958652D01*
X15647872Y-19958652D02*
X15628824Y-19968176D01*
X15628824Y-19968176D02*
X15600252Y-19968176D01*
X15781205Y-19968176D02*
X15762157Y-19958652D01*
X15762157Y-19958652D02*
X15752633Y-19939605D01*
X15752633Y-19939605D02*
X15752633Y-19768176D01*
X15933586Y-19958652D02*
X15914538Y-19968176D01*
X15914538Y-19968176D02*
X15876443Y-19968176D01*
X15876443Y-19968176D02*
X15857395Y-19958652D01*
X15857395Y-19958652D02*
X15847872Y-19939605D01*
X15847872Y-19939605D02*
X15847872Y-19863414D01*
X15847872Y-19863414D02*
X15857395Y-19844367D01*
X15857395Y-19844367D02*
X15876443Y-19834843D01*
X15876443Y-19834843D02*
X15914538Y-19834843D01*
X15914538Y-19834843D02*
X15933586Y-19844367D01*
X15933586Y-19844367D02*
X15943110Y-19863414D01*
X15943110Y-19863414D02*
X15943110Y-19882462D01*
X15943110Y-19882462D02*
X15847872Y-19901510D01*
X16019300Y-19958652D02*
X16038348Y-19968176D01*
X16038348Y-19968176D02*
X16076443Y-19968176D01*
X16076443Y-19968176D02*
X16095491Y-19958652D01*
X16095491Y-19958652D02*
X16105014Y-19939605D01*
X16105014Y-19939605D02*
X16105014Y-19930081D01*
X16105014Y-19930081D02*
X16095491Y-19911033D01*
X16095491Y-19911033D02*
X16076443Y-19901510D01*
X16076443Y-19901510D02*
X16047872Y-19901510D01*
X16047872Y-19901510D02*
X16028824Y-19891986D01*
X16028824Y-19891986D02*
X16019300Y-19872938D01*
X16019300Y-19872938D02*
X16019300Y-19863414D01*
X16019300Y-19863414D02*
X16028824Y-19844367D01*
X16028824Y-19844367D02*
X16047872Y-19834843D01*
X16047872Y-19834843D02*
X16076443Y-19834843D01*
X16076443Y-19834843D02*
X16095491Y-19844367D01*
X16171681Y-20044367D02*
X16181205Y-20034843D01*
X16181205Y-20034843D02*
X16200253Y-20006271D01*
X16200253Y-20006271D02*
X16209776Y-19987224D01*
X16209776Y-19987224D02*
X16219300Y-19958652D01*
X16219300Y-19958652D02*
X16228824Y-19911033D01*
X16228824Y-19911033D02*
X16228824Y-19872938D01*
X16228824Y-19872938D02*
X16219300Y-19825319D01*
X16219300Y-19825319D02*
X16209776Y-19796748D01*
X16209776Y-19796748D02*
X16200253Y-19777700D01*
X16200253Y-19777700D02*
X16181205Y-19749129D01*
X16181205Y-19749129D02*
X16171681Y-19739605D01*
D18*
X11399300Y-20088700D02*
X11539300Y-20228700D01*
X11539300Y-20088700D02*
X11399300Y-20228700D01*
X11518798Y-20208198D02*
X11518798Y-20109202D01*
X11419802Y-20109202D01*
X11419802Y-20208198D01*
X11518798Y-20208198D01*
D11*
X11891681Y-20232176D02*
X11777395Y-20232176D01*
X11834538Y-20232176D02*
X11834538Y-20032176D01*
X11834538Y-20032176D02*
X11815490Y-20060748D01*
X11815490Y-20060748D02*
X11796443Y-20079795D01*
X11796443Y-20079795D02*
X11777395Y-20089319D01*
X11977395Y-20213129D02*
X11986919Y-20222652D01*
X11986919Y-20222652D02*
X11977395Y-20232176D01*
X11977395Y-20232176D02*
X11967871Y-20222652D01*
X11967871Y-20222652D02*
X11977395Y-20213129D01*
X11977395Y-20213129D02*
X11977395Y-20232176D01*
X12158348Y-20098843D02*
X12158348Y-20232176D01*
X12110728Y-20022652D02*
X12063109Y-20165510D01*
X12063109Y-20165510D02*
X12186919Y-20165510D01*
X12301205Y-20032176D02*
X12320252Y-20032176D01*
X12320252Y-20032176D02*
X12339300Y-20041700D01*
X12339300Y-20041700D02*
X12348824Y-20051224D01*
X12348824Y-20051224D02*
X12358348Y-20070271D01*
X12358348Y-20070271D02*
X12367871Y-20108367D01*
X12367871Y-20108367D02*
X12367871Y-20155986D01*
X12367871Y-20155986D02*
X12358348Y-20194081D01*
X12358348Y-20194081D02*
X12348824Y-20213129D01*
X12348824Y-20213129D02*
X12339300Y-20222652D01*
X12339300Y-20222652D02*
X12320252Y-20232176D01*
X12320252Y-20232176D02*
X12301205Y-20232176D01*
X12301205Y-20232176D02*
X12282157Y-20222652D01*
X12282157Y-20222652D02*
X12272633Y-20213129D01*
X12272633Y-20213129D02*
X12263109Y-20194081D01*
X12263109Y-20194081D02*
X12253586Y-20155986D01*
X12253586Y-20155986D02*
X12253586Y-20108367D01*
X12253586Y-20108367D02*
X12263109Y-20070271D01*
X12263109Y-20070271D02*
X12272633Y-20051224D01*
X12272633Y-20051224D02*
X12282157Y-20041700D01*
X12282157Y-20041700D02*
X12301205Y-20032176D01*
X12491681Y-20032176D02*
X12510729Y-20032176D01*
X12510729Y-20032176D02*
X12529776Y-20041700D01*
X12529776Y-20041700D02*
X12539300Y-20051224D01*
X12539300Y-20051224D02*
X12548824Y-20070271D01*
X12548824Y-20070271D02*
X12558348Y-20108367D01*
X12558348Y-20108367D02*
X12558348Y-20155986D01*
X12558348Y-20155986D02*
X12548824Y-20194081D01*
X12548824Y-20194081D02*
X12539300Y-20213129D01*
X12539300Y-20213129D02*
X12529776Y-20222652D01*
X12529776Y-20222652D02*
X12510729Y-20232176D01*
X12510729Y-20232176D02*
X12491681Y-20232176D01*
X12491681Y-20232176D02*
X12472633Y-20222652D01*
X12472633Y-20222652D02*
X12463109Y-20213129D01*
X12463109Y-20213129D02*
X12453586Y-20194081D01*
X12453586Y-20194081D02*
X12444062Y-20155986D01*
X12444062Y-20155986D02*
X12444062Y-20108367D01*
X12444062Y-20108367D02*
X12453586Y-20070271D01*
X12453586Y-20070271D02*
X12463109Y-20051224D01*
X12463109Y-20051224D02*
X12472633Y-20041700D01*
X12472633Y-20041700D02*
X12491681Y-20032176D01*
X12644062Y-20232176D02*
X12644062Y-20098843D01*
X12644062Y-20117890D02*
X12653586Y-20108367D01*
X12653586Y-20108367D02*
X12672633Y-20098843D01*
X12672633Y-20098843D02*
X12701205Y-20098843D01*
X12701205Y-20098843D02*
X12720252Y-20108367D01*
X12720252Y-20108367D02*
X12729776Y-20127414D01*
X12729776Y-20127414D02*
X12729776Y-20232176D01*
X12729776Y-20127414D02*
X12739300Y-20108367D01*
X12739300Y-20108367D02*
X12758348Y-20098843D01*
X12758348Y-20098843D02*
X12786919Y-20098843D01*
X12786919Y-20098843D02*
X12805967Y-20108367D01*
X12805967Y-20108367D02*
X12815490Y-20127414D01*
X12815490Y-20127414D02*
X12815490Y-20232176D01*
X12910729Y-20232176D02*
X12910729Y-20098843D01*
X12910729Y-20117890D02*
X12920252Y-20108367D01*
X12920252Y-20108367D02*
X12939300Y-20098843D01*
X12939300Y-20098843D02*
X12967871Y-20098843D01*
X12967871Y-20098843D02*
X12986919Y-20108367D01*
X12986919Y-20108367D02*
X12996443Y-20127414D01*
X12996443Y-20127414D02*
X12996443Y-20232176D01*
X12996443Y-20127414D02*
X13005967Y-20108367D01*
X13005967Y-20108367D02*
X13025014Y-20098843D01*
X13025014Y-20098843D02*
X13053586Y-20098843D01*
X13053586Y-20098843D02*
X13072633Y-20108367D01*
X13072633Y-20108367D02*
X13082157Y-20127414D01*
X13082157Y-20127414D02*
X13082157Y-20232176D01*
X13440252Y-20022652D02*
X13268824Y-20279795D01*
X13665014Y-20032176D02*
X13684062Y-20032176D01*
X13684062Y-20032176D02*
X13703110Y-20041700D01*
X13703110Y-20041700D02*
X13712633Y-20051224D01*
X13712633Y-20051224D02*
X13722157Y-20070271D01*
X13722157Y-20070271D02*
X13731681Y-20108367D01*
X13731681Y-20108367D02*
X13731681Y-20155986D01*
X13731681Y-20155986D02*
X13722157Y-20194081D01*
X13722157Y-20194081D02*
X13712633Y-20213129D01*
X13712633Y-20213129D02*
X13703110Y-20222652D01*
X13703110Y-20222652D02*
X13684062Y-20232176D01*
X13684062Y-20232176D02*
X13665014Y-20232176D01*
X13665014Y-20232176D02*
X13645967Y-20222652D01*
X13645967Y-20222652D02*
X13636443Y-20213129D01*
X13636443Y-20213129D02*
X13626919Y-20194081D01*
X13626919Y-20194081D02*
X13617395Y-20155986D01*
X13617395Y-20155986D02*
X13617395Y-20108367D01*
X13617395Y-20108367D02*
X13626919Y-20070271D01*
X13626919Y-20070271D02*
X13636443Y-20051224D01*
X13636443Y-20051224D02*
X13645967Y-20041700D01*
X13645967Y-20041700D02*
X13665014Y-20032176D01*
X13817395Y-20213129D02*
X13826919Y-20222652D01*
X13826919Y-20222652D02*
X13817395Y-20232176D01*
X13817395Y-20232176D02*
X13807871Y-20222652D01*
X13807871Y-20222652D02*
X13817395Y-20213129D01*
X13817395Y-20213129D02*
X13817395Y-20232176D01*
X13950729Y-20032176D02*
X13969776Y-20032176D01*
X13969776Y-20032176D02*
X13988824Y-20041700D01*
X13988824Y-20041700D02*
X13998348Y-20051224D01*
X13998348Y-20051224D02*
X14007871Y-20070271D01*
X14007871Y-20070271D02*
X14017395Y-20108367D01*
X14017395Y-20108367D02*
X14017395Y-20155986D01*
X14017395Y-20155986D02*
X14007871Y-20194081D01*
X14007871Y-20194081D02*
X13998348Y-20213129D01*
X13998348Y-20213129D02*
X13988824Y-20222652D01*
X13988824Y-20222652D02*
X13969776Y-20232176D01*
X13969776Y-20232176D02*
X13950729Y-20232176D01*
X13950729Y-20232176D02*
X13931681Y-20222652D01*
X13931681Y-20222652D02*
X13922157Y-20213129D01*
X13922157Y-20213129D02*
X13912633Y-20194081D01*
X13912633Y-20194081D02*
X13903110Y-20155986D01*
X13903110Y-20155986D02*
X13903110Y-20108367D01*
X13903110Y-20108367D02*
X13912633Y-20070271D01*
X13912633Y-20070271D02*
X13922157Y-20051224D01*
X13922157Y-20051224D02*
X13931681Y-20041700D01*
X13931681Y-20041700D02*
X13950729Y-20032176D01*
X14198348Y-20032176D02*
X14103110Y-20032176D01*
X14103110Y-20032176D02*
X14093586Y-20127414D01*
X14093586Y-20127414D02*
X14103110Y-20117890D01*
X14103110Y-20117890D02*
X14122157Y-20108367D01*
X14122157Y-20108367D02*
X14169776Y-20108367D01*
X14169776Y-20108367D02*
X14188824Y-20117890D01*
X14188824Y-20117890D02*
X14198348Y-20127414D01*
X14198348Y-20127414D02*
X14207871Y-20146462D01*
X14207871Y-20146462D02*
X14207871Y-20194081D01*
X14207871Y-20194081D02*
X14198348Y-20213129D01*
X14198348Y-20213129D02*
X14188824Y-20222652D01*
X14188824Y-20222652D02*
X14169776Y-20232176D01*
X14169776Y-20232176D02*
X14122157Y-20232176D01*
X14122157Y-20232176D02*
X14103110Y-20222652D01*
X14103110Y-20222652D02*
X14093586Y-20213129D01*
X14388824Y-20032176D02*
X14293586Y-20032176D01*
X14293586Y-20032176D02*
X14284062Y-20127414D01*
X14284062Y-20127414D02*
X14293586Y-20117890D01*
X14293586Y-20117890D02*
X14312633Y-20108367D01*
X14312633Y-20108367D02*
X14360252Y-20108367D01*
X14360252Y-20108367D02*
X14379300Y-20117890D01*
X14379300Y-20117890D02*
X14388824Y-20127414D01*
X14388824Y-20127414D02*
X14398348Y-20146462D01*
X14398348Y-20146462D02*
X14398348Y-20194081D01*
X14398348Y-20194081D02*
X14388824Y-20213129D01*
X14388824Y-20213129D02*
X14379300Y-20222652D01*
X14379300Y-20222652D02*
X14360252Y-20232176D01*
X14360252Y-20232176D02*
X14312633Y-20232176D01*
X14312633Y-20232176D02*
X14293586Y-20222652D01*
X14293586Y-20222652D02*
X14284062Y-20213129D01*
X14588824Y-20232176D02*
X14474538Y-20232176D01*
X14531681Y-20232176D02*
X14531681Y-20032176D01*
X14531681Y-20032176D02*
X14512633Y-20060748D01*
X14512633Y-20060748D02*
X14493586Y-20079795D01*
X14493586Y-20079795D02*
X14474538Y-20089319D01*
X14665014Y-20032176D02*
X14665014Y-20070271D01*
X14741205Y-20032176D02*
X14741205Y-20070271D01*
X15004062Y-20308367D02*
X14994538Y-20298843D01*
X14994538Y-20298843D02*
X14975491Y-20270271D01*
X14975491Y-20270271D02*
X14965967Y-20251224D01*
X14965967Y-20251224D02*
X14956443Y-20222652D01*
X14956443Y-20222652D02*
X14946919Y-20175033D01*
X14946919Y-20175033D02*
X14946919Y-20136938D01*
X14946919Y-20136938D02*
X14956443Y-20089319D01*
X14956443Y-20089319D02*
X14965967Y-20060748D01*
X14965967Y-20060748D02*
X14975491Y-20041700D01*
X14975491Y-20041700D02*
X14994538Y-20013129D01*
X14994538Y-20013129D02*
X15004062Y-20003605D01*
X15118348Y-20032176D02*
X15137395Y-20032176D01*
X15137395Y-20032176D02*
X15156443Y-20041700D01*
X15156443Y-20041700D02*
X15165967Y-20051224D01*
X15165967Y-20051224D02*
X15175491Y-20070271D01*
X15175491Y-20070271D02*
X15185014Y-20108367D01*
X15185014Y-20108367D02*
X15185014Y-20155986D01*
X15185014Y-20155986D02*
X15175491Y-20194081D01*
X15175491Y-20194081D02*
X15165967Y-20213129D01*
X15165967Y-20213129D02*
X15156443Y-20222652D01*
X15156443Y-20222652D02*
X15137395Y-20232176D01*
X15137395Y-20232176D02*
X15118348Y-20232176D01*
X15118348Y-20232176D02*
X15099300Y-20222652D01*
X15099300Y-20222652D02*
X15089776Y-20213129D01*
X15089776Y-20213129D02*
X15080252Y-20194081D01*
X15080252Y-20194081D02*
X15070729Y-20155986D01*
X15070729Y-20155986D02*
X15070729Y-20108367D01*
X15070729Y-20108367D02*
X15080252Y-20070271D01*
X15080252Y-20070271D02*
X15089776Y-20051224D01*
X15089776Y-20051224D02*
X15099300Y-20041700D01*
X15099300Y-20041700D02*
X15118348Y-20032176D01*
X15390729Y-20232176D02*
X15390729Y-20032176D01*
X15476443Y-20232176D02*
X15476443Y-20127414D01*
X15476443Y-20127414D02*
X15466919Y-20108367D01*
X15466919Y-20108367D02*
X15447872Y-20098843D01*
X15447872Y-20098843D02*
X15419300Y-20098843D01*
X15419300Y-20098843D02*
X15400252Y-20108367D01*
X15400252Y-20108367D02*
X15390729Y-20117890D01*
X15600252Y-20232176D02*
X15581205Y-20222652D01*
X15581205Y-20222652D02*
X15571681Y-20213129D01*
X15571681Y-20213129D02*
X15562157Y-20194081D01*
X15562157Y-20194081D02*
X15562157Y-20136938D01*
X15562157Y-20136938D02*
X15571681Y-20117890D01*
X15571681Y-20117890D02*
X15581205Y-20108367D01*
X15581205Y-20108367D02*
X15600252Y-20098843D01*
X15600252Y-20098843D02*
X15628824Y-20098843D01*
X15628824Y-20098843D02*
X15647872Y-20108367D01*
X15647872Y-20108367D02*
X15657395Y-20117890D01*
X15657395Y-20117890D02*
X15666919Y-20136938D01*
X15666919Y-20136938D02*
X15666919Y-20194081D01*
X15666919Y-20194081D02*
X15657395Y-20213129D01*
X15657395Y-20213129D02*
X15647872Y-20222652D01*
X15647872Y-20222652D02*
X15628824Y-20232176D01*
X15628824Y-20232176D02*
X15600252Y-20232176D01*
X15781205Y-20232176D02*
X15762157Y-20222652D01*
X15762157Y-20222652D02*
X15752633Y-20203605D01*
X15752633Y-20203605D02*
X15752633Y-20032176D01*
X15933586Y-20222652D02*
X15914538Y-20232176D01*
X15914538Y-20232176D02*
X15876443Y-20232176D01*
X15876443Y-20232176D02*
X15857395Y-20222652D01*
X15857395Y-20222652D02*
X15847872Y-20203605D01*
X15847872Y-20203605D02*
X15847872Y-20127414D01*
X15847872Y-20127414D02*
X15857395Y-20108367D01*
X15857395Y-20108367D02*
X15876443Y-20098843D01*
X15876443Y-20098843D02*
X15914538Y-20098843D01*
X15914538Y-20098843D02*
X15933586Y-20108367D01*
X15933586Y-20108367D02*
X15943110Y-20127414D01*
X15943110Y-20127414D02*
X15943110Y-20146462D01*
X15943110Y-20146462D02*
X15847872Y-20165510D01*
X16019300Y-20222652D02*
X16038348Y-20232176D01*
X16038348Y-20232176D02*
X16076443Y-20232176D01*
X16076443Y-20232176D02*
X16095491Y-20222652D01*
X16095491Y-20222652D02*
X16105014Y-20203605D01*
X16105014Y-20203605D02*
X16105014Y-20194081D01*
X16105014Y-20194081D02*
X16095491Y-20175033D01*
X16095491Y-20175033D02*
X16076443Y-20165510D01*
X16076443Y-20165510D02*
X16047872Y-20165510D01*
X16047872Y-20165510D02*
X16028824Y-20155986D01*
X16028824Y-20155986D02*
X16019300Y-20136938D01*
X16019300Y-20136938D02*
X16019300Y-20127414D01*
X16019300Y-20127414D02*
X16028824Y-20108367D01*
X16028824Y-20108367D02*
X16047872Y-20098843D01*
X16047872Y-20098843D02*
X16076443Y-20098843D01*
X16076443Y-20098843D02*
X16095491Y-20108367D01*
X16310729Y-20155986D02*
X16463110Y-20155986D01*
X16386919Y-20232176D02*
X16386919Y-20079795D01*
X16764062Y-20032176D02*
X16725967Y-20032176D01*
X16725967Y-20032176D02*
X16706919Y-20041700D01*
X16706919Y-20041700D02*
X16697395Y-20051224D01*
X16697395Y-20051224D02*
X16678348Y-20079795D01*
X16678348Y-20079795D02*
X16668824Y-20117890D01*
X16668824Y-20117890D02*
X16668824Y-20194081D01*
X16668824Y-20194081D02*
X16678348Y-20213129D01*
X16678348Y-20213129D02*
X16687872Y-20222652D01*
X16687872Y-20222652D02*
X16706919Y-20232176D01*
X16706919Y-20232176D02*
X16745014Y-20232176D01*
X16745014Y-20232176D02*
X16764062Y-20222652D01*
X16764062Y-20222652D02*
X16773586Y-20213129D01*
X16773586Y-20213129D02*
X16783110Y-20194081D01*
X16783110Y-20194081D02*
X16783110Y-20146462D01*
X16783110Y-20146462D02*
X16773586Y-20127414D01*
X16773586Y-20127414D02*
X16764062Y-20117890D01*
X16764062Y-20117890D02*
X16745014Y-20108367D01*
X16745014Y-20108367D02*
X16706919Y-20108367D01*
X16706919Y-20108367D02*
X16687872Y-20117890D01*
X16687872Y-20117890D02*
X16678348Y-20127414D01*
X16678348Y-20127414D02*
X16668824Y-20146462D01*
X16979300Y-20222652D02*
X16998348Y-20232176D01*
X16998348Y-20232176D02*
X17036443Y-20232176D01*
X17036443Y-20232176D02*
X17055491Y-20222652D01*
X17055491Y-20222652D02*
X17065015Y-20203605D01*
X17065015Y-20203605D02*
X17065015Y-20194081D01*
X17065015Y-20194081D02*
X17055491Y-20175033D01*
X17055491Y-20175033D02*
X17036443Y-20165510D01*
X17036443Y-20165510D02*
X17007872Y-20165510D01*
X17007872Y-20165510D02*
X16988824Y-20155986D01*
X16988824Y-20155986D02*
X16979300Y-20136938D01*
X16979300Y-20136938D02*
X16979300Y-20127414D01*
X16979300Y-20127414D02*
X16988824Y-20108367D01*
X16988824Y-20108367D02*
X17007872Y-20098843D01*
X17007872Y-20098843D02*
X17036443Y-20098843D01*
X17036443Y-20098843D02*
X17055491Y-20108367D01*
X17179300Y-20232176D02*
X17160253Y-20222652D01*
X17160253Y-20222652D02*
X17150729Y-20203605D01*
X17150729Y-20203605D02*
X17150729Y-20032176D01*
X17284062Y-20232176D02*
X17265015Y-20222652D01*
X17265015Y-20222652D02*
X17255491Y-20213129D01*
X17255491Y-20213129D02*
X17245967Y-20194081D01*
X17245967Y-20194081D02*
X17245967Y-20136938D01*
X17245967Y-20136938D02*
X17255491Y-20117890D01*
X17255491Y-20117890D02*
X17265015Y-20108367D01*
X17265015Y-20108367D02*
X17284062Y-20098843D01*
X17284062Y-20098843D02*
X17312634Y-20098843D01*
X17312634Y-20098843D02*
X17331681Y-20108367D01*
X17331681Y-20108367D02*
X17341205Y-20117890D01*
X17341205Y-20117890D02*
X17350729Y-20136938D01*
X17350729Y-20136938D02*
X17350729Y-20194081D01*
X17350729Y-20194081D02*
X17341205Y-20213129D01*
X17341205Y-20213129D02*
X17331681Y-20222652D01*
X17331681Y-20222652D02*
X17312634Y-20232176D01*
X17312634Y-20232176D02*
X17284062Y-20232176D01*
X17407872Y-20098843D02*
X17484062Y-20098843D01*
X17436443Y-20032176D02*
X17436443Y-20203605D01*
X17436443Y-20203605D02*
X17445967Y-20222652D01*
X17445967Y-20222652D02*
X17465015Y-20232176D01*
X17465015Y-20232176D02*
X17484062Y-20232176D01*
X17541205Y-20222652D02*
X17560253Y-20232176D01*
X17560253Y-20232176D02*
X17598348Y-20232176D01*
X17598348Y-20232176D02*
X17617396Y-20222652D01*
X17617396Y-20222652D02*
X17626919Y-20203605D01*
X17626919Y-20203605D02*
X17626919Y-20194081D01*
X17626919Y-20194081D02*
X17617396Y-20175033D01*
X17617396Y-20175033D02*
X17598348Y-20165510D01*
X17598348Y-20165510D02*
X17569776Y-20165510D01*
X17569776Y-20165510D02*
X17550729Y-20155986D01*
X17550729Y-20155986D02*
X17541205Y-20136938D01*
X17541205Y-20136938D02*
X17541205Y-20127414D01*
X17541205Y-20127414D02*
X17550729Y-20108367D01*
X17550729Y-20108367D02*
X17569776Y-20098843D01*
X17569776Y-20098843D02*
X17598348Y-20098843D01*
X17598348Y-20098843D02*
X17617396Y-20108367D01*
X17693586Y-20308367D02*
X17703110Y-20298843D01*
X17703110Y-20298843D02*
X17722157Y-20270271D01*
X17722157Y-20270271D02*
X17731681Y-20251224D01*
X17731681Y-20251224D02*
X17741205Y-20222652D01*
X17741205Y-20222652D02*
X17750729Y-20175033D01*
X17750729Y-20175033D02*
X17750729Y-20136938D01*
X17750729Y-20136938D02*
X17741205Y-20089319D01*
X17741205Y-20089319D02*
X17731681Y-20060748D01*
X17731681Y-20060748D02*
X17722157Y-20041700D01*
X17722157Y-20041700D02*
X17703110Y-20013129D01*
X17703110Y-20013129D02*
X17693586Y-20003605D01*
X11339300Y-20322700D02*
X11539300Y-20522700D01*
X11539300Y-20322700D02*
X11339300Y-20522700D01*
X11439300Y-20522700D02*
X11539300Y-20422700D01*
X11439300Y-20322700D01*
X11339300Y-20422700D01*
X11439300Y-20522700D01*
X11767871Y-20296176D02*
X11891681Y-20296176D01*
X11891681Y-20296176D02*
X11825014Y-20372367D01*
X11825014Y-20372367D02*
X11853586Y-20372367D01*
X11853586Y-20372367D02*
X11872633Y-20381890D01*
X11872633Y-20381890D02*
X11882157Y-20391414D01*
X11882157Y-20391414D02*
X11891681Y-20410462D01*
X11891681Y-20410462D02*
X11891681Y-20458081D01*
X11891681Y-20458081D02*
X11882157Y-20477129D01*
X11882157Y-20477129D02*
X11872633Y-20486652D01*
X11872633Y-20486652D02*
X11853586Y-20496176D01*
X11853586Y-20496176D02*
X11796443Y-20496176D01*
X11796443Y-20496176D02*
X11777395Y-20486652D01*
X11777395Y-20486652D02*
X11767871Y-20477129D01*
X11977395Y-20477129D02*
X11986919Y-20486652D01*
X11986919Y-20486652D02*
X11977395Y-20496176D01*
X11977395Y-20496176D02*
X11967871Y-20486652D01*
X11967871Y-20486652D02*
X11977395Y-20477129D01*
X11977395Y-20477129D02*
X11977395Y-20496176D01*
X12063109Y-20315224D02*
X12072633Y-20305700D01*
X12072633Y-20305700D02*
X12091681Y-20296176D01*
X12091681Y-20296176D02*
X12139300Y-20296176D01*
X12139300Y-20296176D02*
X12158348Y-20305700D01*
X12158348Y-20305700D02*
X12167871Y-20315224D01*
X12167871Y-20315224D02*
X12177395Y-20334271D01*
X12177395Y-20334271D02*
X12177395Y-20353319D01*
X12177395Y-20353319D02*
X12167871Y-20381890D01*
X12167871Y-20381890D02*
X12053586Y-20496176D01*
X12053586Y-20496176D02*
X12177395Y-20496176D01*
X12301205Y-20296176D02*
X12320252Y-20296176D01*
X12320252Y-20296176D02*
X12339300Y-20305700D01*
X12339300Y-20305700D02*
X12348824Y-20315224D01*
X12348824Y-20315224D02*
X12358348Y-20334271D01*
X12358348Y-20334271D02*
X12367871Y-20372367D01*
X12367871Y-20372367D02*
X12367871Y-20419986D01*
X12367871Y-20419986D02*
X12358348Y-20458081D01*
X12358348Y-20458081D02*
X12348824Y-20477129D01*
X12348824Y-20477129D02*
X12339300Y-20486652D01*
X12339300Y-20486652D02*
X12320252Y-20496176D01*
X12320252Y-20496176D02*
X12301205Y-20496176D01*
X12301205Y-20496176D02*
X12282157Y-20486652D01*
X12282157Y-20486652D02*
X12272633Y-20477129D01*
X12272633Y-20477129D02*
X12263109Y-20458081D01*
X12263109Y-20458081D02*
X12253586Y-20419986D01*
X12253586Y-20419986D02*
X12253586Y-20372367D01*
X12253586Y-20372367D02*
X12263109Y-20334271D01*
X12263109Y-20334271D02*
X12272633Y-20315224D01*
X12272633Y-20315224D02*
X12282157Y-20305700D01*
X12282157Y-20305700D02*
X12301205Y-20296176D01*
X12491681Y-20296176D02*
X12510729Y-20296176D01*
X12510729Y-20296176D02*
X12529776Y-20305700D01*
X12529776Y-20305700D02*
X12539300Y-20315224D01*
X12539300Y-20315224D02*
X12548824Y-20334271D01*
X12548824Y-20334271D02*
X12558348Y-20372367D01*
X12558348Y-20372367D02*
X12558348Y-20419986D01*
X12558348Y-20419986D02*
X12548824Y-20458081D01*
X12548824Y-20458081D02*
X12539300Y-20477129D01*
X12539300Y-20477129D02*
X12529776Y-20486652D01*
X12529776Y-20486652D02*
X12510729Y-20496176D01*
X12510729Y-20496176D02*
X12491681Y-20496176D01*
X12491681Y-20496176D02*
X12472633Y-20486652D01*
X12472633Y-20486652D02*
X12463109Y-20477129D01*
X12463109Y-20477129D02*
X12453586Y-20458081D01*
X12453586Y-20458081D02*
X12444062Y-20419986D01*
X12444062Y-20419986D02*
X12444062Y-20372367D01*
X12444062Y-20372367D02*
X12453586Y-20334271D01*
X12453586Y-20334271D02*
X12463109Y-20315224D01*
X12463109Y-20315224D02*
X12472633Y-20305700D01*
X12472633Y-20305700D02*
X12491681Y-20296176D01*
X12644062Y-20496176D02*
X12644062Y-20362843D01*
X12644062Y-20381890D02*
X12653586Y-20372367D01*
X12653586Y-20372367D02*
X12672633Y-20362843D01*
X12672633Y-20362843D02*
X12701205Y-20362843D01*
X12701205Y-20362843D02*
X12720252Y-20372367D01*
X12720252Y-20372367D02*
X12729776Y-20391414D01*
X12729776Y-20391414D02*
X12729776Y-20496176D01*
X12729776Y-20391414D02*
X12739300Y-20372367D01*
X12739300Y-20372367D02*
X12758348Y-20362843D01*
X12758348Y-20362843D02*
X12786919Y-20362843D01*
X12786919Y-20362843D02*
X12805967Y-20372367D01*
X12805967Y-20372367D02*
X12815490Y-20391414D01*
X12815490Y-20391414D02*
X12815490Y-20496176D01*
X12910729Y-20496176D02*
X12910729Y-20362843D01*
X12910729Y-20381890D02*
X12920252Y-20372367D01*
X12920252Y-20372367D02*
X12939300Y-20362843D01*
X12939300Y-20362843D02*
X12967871Y-20362843D01*
X12967871Y-20362843D02*
X12986919Y-20372367D01*
X12986919Y-20372367D02*
X12996443Y-20391414D01*
X12996443Y-20391414D02*
X12996443Y-20496176D01*
X12996443Y-20391414D02*
X13005967Y-20372367D01*
X13005967Y-20372367D02*
X13025014Y-20362843D01*
X13025014Y-20362843D02*
X13053586Y-20362843D01*
X13053586Y-20362843D02*
X13072633Y-20372367D01*
X13072633Y-20372367D02*
X13082157Y-20391414D01*
X13082157Y-20391414D02*
X13082157Y-20496176D01*
X13440252Y-20286652D02*
X13268824Y-20543795D01*
X13665014Y-20296176D02*
X13684062Y-20296176D01*
X13684062Y-20296176D02*
X13703110Y-20305700D01*
X13703110Y-20305700D02*
X13712633Y-20315224D01*
X13712633Y-20315224D02*
X13722157Y-20334271D01*
X13722157Y-20334271D02*
X13731681Y-20372367D01*
X13731681Y-20372367D02*
X13731681Y-20419986D01*
X13731681Y-20419986D02*
X13722157Y-20458081D01*
X13722157Y-20458081D02*
X13712633Y-20477129D01*
X13712633Y-20477129D02*
X13703110Y-20486652D01*
X13703110Y-20486652D02*
X13684062Y-20496176D01*
X13684062Y-20496176D02*
X13665014Y-20496176D01*
X13665014Y-20496176D02*
X13645967Y-20486652D01*
X13645967Y-20486652D02*
X13636443Y-20477129D01*
X13636443Y-20477129D02*
X13626919Y-20458081D01*
X13626919Y-20458081D02*
X13617395Y-20419986D01*
X13617395Y-20419986D02*
X13617395Y-20372367D01*
X13617395Y-20372367D02*
X13626919Y-20334271D01*
X13626919Y-20334271D02*
X13636443Y-20315224D01*
X13636443Y-20315224D02*
X13645967Y-20305700D01*
X13645967Y-20305700D02*
X13665014Y-20296176D01*
X13817395Y-20477129D02*
X13826919Y-20486652D01*
X13826919Y-20486652D02*
X13817395Y-20496176D01*
X13817395Y-20496176D02*
X13807871Y-20486652D01*
X13807871Y-20486652D02*
X13817395Y-20477129D01*
X13817395Y-20477129D02*
X13817395Y-20496176D01*
X14017395Y-20496176D02*
X13903110Y-20496176D01*
X13960252Y-20496176D02*
X13960252Y-20296176D01*
X13960252Y-20296176D02*
X13941205Y-20324748D01*
X13941205Y-20324748D02*
X13922157Y-20343795D01*
X13922157Y-20343795D02*
X13903110Y-20353319D01*
X14093586Y-20315224D02*
X14103110Y-20305700D01*
X14103110Y-20305700D02*
X14122157Y-20296176D01*
X14122157Y-20296176D02*
X14169776Y-20296176D01*
X14169776Y-20296176D02*
X14188824Y-20305700D01*
X14188824Y-20305700D02*
X14198348Y-20315224D01*
X14198348Y-20315224D02*
X14207871Y-20334271D01*
X14207871Y-20334271D02*
X14207871Y-20353319D01*
X14207871Y-20353319D02*
X14198348Y-20381890D01*
X14198348Y-20381890D02*
X14084062Y-20496176D01*
X14084062Y-20496176D02*
X14207871Y-20496176D01*
X14379300Y-20296176D02*
X14341205Y-20296176D01*
X14341205Y-20296176D02*
X14322157Y-20305700D01*
X14322157Y-20305700D02*
X14312633Y-20315224D01*
X14312633Y-20315224D02*
X14293586Y-20343795D01*
X14293586Y-20343795D02*
X14284062Y-20381890D01*
X14284062Y-20381890D02*
X14284062Y-20458081D01*
X14284062Y-20458081D02*
X14293586Y-20477129D01*
X14293586Y-20477129D02*
X14303110Y-20486652D01*
X14303110Y-20486652D02*
X14322157Y-20496176D01*
X14322157Y-20496176D02*
X14360252Y-20496176D01*
X14360252Y-20496176D02*
X14379300Y-20486652D01*
X14379300Y-20486652D02*
X14388824Y-20477129D01*
X14388824Y-20477129D02*
X14398348Y-20458081D01*
X14398348Y-20458081D02*
X14398348Y-20410462D01*
X14398348Y-20410462D02*
X14388824Y-20391414D01*
X14388824Y-20391414D02*
X14379300Y-20381890D01*
X14379300Y-20381890D02*
X14360252Y-20372367D01*
X14360252Y-20372367D02*
X14322157Y-20372367D01*
X14322157Y-20372367D02*
X14303110Y-20381890D01*
X14303110Y-20381890D02*
X14293586Y-20391414D01*
X14293586Y-20391414D02*
X14284062Y-20410462D01*
X14522157Y-20296176D02*
X14541205Y-20296176D01*
X14541205Y-20296176D02*
X14560252Y-20305700D01*
X14560252Y-20305700D02*
X14569776Y-20315224D01*
X14569776Y-20315224D02*
X14579300Y-20334271D01*
X14579300Y-20334271D02*
X14588824Y-20372367D01*
X14588824Y-20372367D02*
X14588824Y-20419986D01*
X14588824Y-20419986D02*
X14579300Y-20458081D01*
X14579300Y-20458081D02*
X14569776Y-20477129D01*
X14569776Y-20477129D02*
X14560252Y-20486652D01*
X14560252Y-20486652D02*
X14541205Y-20496176D01*
X14541205Y-20496176D02*
X14522157Y-20496176D01*
X14522157Y-20496176D02*
X14503110Y-20486652D01*
X14503110Y-20486652D02*
X14493586Y-20477129D01*
X14493586Y-20477129D02*
X14484062Y-20458081D01*
X14484062Y-20458081D02*
X14474538Y-20419986D01*
X14474538Y-20419986D02*
X14474538Y-20372367D01*
X14474538Y-20372367D02*
X14484062Y-20334271D01*
X14484062Y-20334271D02*
X14493586Y-20315224D01*
X14493586Y-20315224D02*
X14503110Y-20305700D01*
X14503110Y-20305700D02*
X14522157Y-20296176D01*
X14665014Y-20296176D02*
X14665014Y-20334271D01*
X14741205Y-20296176D02*
X14741205Y-20334271D01*
X15004062Y-20572367D02*
X14994538Y-20562843D01*
X14994538Y-20562843D02*
X14975491Y-20534271D01*
X14975491Y-20534271D02*
X14965967Y-20515224D01*
X14965967Y-20515224D02*
X14956443Y-20486652D01*
X14956443Y-20486652D02*
X14946919Y-20439033D01*
X14946919Y-20439033D02*
X14946919Y-20400938D01*
X14946919Y-20400938D02*
X14956443Y-20353319D01*
X14956443Y-20353319D02*
X14965967Y-20324748D01*
X14965967Y-20324748D02*
X14975491Y-20305700D01*
X14975491Y-20305700D02*
X14994538Y-20277129D01*
X14994538Y-20277129D02*
X15004062Y-20267605D01*
X15165967Y-20362843D02*
X15165967Y-20496176D01*
X15118348Y-20286652D02*
X15070729Y-20429510D01*
X15070729Y-20429510D02*
X15194538Y-20429510D01*
X15390729Y-20496176D02*
X15390729Y-20296176D01*
X15476443Y-20496176D02*
X15476443Y-20391414D01*
X15476443Y-20391414D02*
X15466919Y-20372367D01*
X15466919Y-20372367D02*
X15447872Y-20362843D01*
X15447872Y-20362843D02*
X15419300Y-20362843D01*
X15419300Y-20362843D02*
X15400252Y-20372367D01*
X15400252Y-20372367D02*
X15390729Y-20381890D01*
X15600252Y-20496176D02*
X15581205Y-20486652D01*
X15581205Y-20486652D02*
X15571681Y-20477129D01*
X15571681Y-20477129D02*
X15562157Y-20458081D01*
X15562157Y-20458081D02*
X15562157Y-20400938D01*
X15562157Y-20400938D02*
X15571681Y-20381890D01*
X15571681Y-20381890D02*
X15581205Y-20372367D01*
X15581205Y-20372367D02*
X15600252Y-20362843D01*
X15600252Y-20362843D02*
X15628824Y-20362843D01*
X15628824Y-20362843D02*
X15647872Y-20372367D01*
X15647872Y-20372367D02*
X15657395Y-20381890D01*
X15657395Y-20381890D02*
X15666919Y-20400938D01*
X15666919Y-20400938D02*
X15666919Y-20458081D01*
X15666919Y-20458081D02*
X15657395Y-20477129D01*
X15657395Y-20477129D02*
X15647872Y-20486652D01*
X15647872Y-20486652D02*
X15628824Y-20496176D01*
X15628824Y-20496176D02*
X15600252Y-20496176D01*
X15781205Y-20496176D02*
X15762157Y-20486652D01*
X15762157Y-20486652D02*
X15752633Y-20467605D01*
X15752633Y-20467605D02*
X15752633Y-20296176D01*
X15933586Y-20486652D02*
X15914538Y-20496176D01*
X15914538Y-20496176D02*
X15876443Y-20496176D01*
X15876443Y-20496176D02*
X15857395Y-20486652D01*
X15857395Y-20486652D02*
X15847872Y-20467605D01*
X15847872Y-20467605D02*
X15847872Y-20391414D01*
X15847872Y-20391414D02*
X15857395Y-20372367D01*
X15857395Y-20372367D02*
X15876443Y-20362843D01*
X15876443Y-20362843D02*
X15914538Y-20362843D01*
X15914538Y-20362843D02*
X15933586Y-20372367D01*
X15933586Y-20372367D02*
X15943110Y-20391414D01*
X15943110Y-20391414D02*
X15943110Y-20410462D01*
X15943110Y-20410462D02*
X15847872Y-20429510D01*
X16019300Y-20486652D02*
X16038348Y-20496176D01*
X16038348Y-20496176D02*
X16076443Y-20496176D01*
X16076443Y-20496176D02*
X16095491Y-20486652D01*
X16095491Y-20486652D02*
X16105014Y-20467605D01*
X16105014Y-20467605D02*
X16105014Y-20458081D01*
X16105014Y-20458081D02*
X16095491Y-20439033D01*
X16095491Y-20439033D02*
X16076443Y-20429510D01*
X16076443Y-20429510D02*
X16047872Y-20429510D01*
X16047872Y-20429510D02*
X16028824Y-20419986D01*
X16028824Y-20419986D02*
X16019300Y-20400938D01*
X16019300Y-20400938D02*
X16019300Y-20391414D01*
X16019300Y-20391414D02*
X16028824Y-20372367D01*
X16028824Y-20372367D02*
X16047872Y-20362843D01*
X16047872Y-20362843D02*
X16076443Y-20362843D01*
X16076443Y-20362843D02*
X16095491Y-20372367D01*
X16171681Y-20572367D02*
X16181205Y-20562843D01*
X16181205Y-20562843D02*
X16200253Y-20534271D01*
X16200253Y-20534271D02*
X16209776Y-20515224D01*
X16209776Y-20515224D02*
X16219300Y-20486652D01*
X16219300Y-20486652D02*
X16228824Y-20439033D01*
X16228824Y-20439033D02*
X16228824Y-20400938D01*
X16228824Y-20400938D02*
X16219300Y-20353319D01*
X16219300Y-20353319D02*
X16209776Y-20324748D01*
X16209776Y-20324748D02*
X16200253Y-20305700D01*
X16200253Y-20305700D02*
X16181205Y-20277129D01*
X16181205Y-20277129D02*
X16171681Y-20267605D01*
M02*
